<svg class="carte" viewBox="0 0 1993 1339" preserveAspectRatio="xMinYMin meet" fill="none" xmlns="http://www.w3.org/2000/svg"><title>Carte de la Suisse centrée sur Yverdon-les-Bains</title>
<path d="M89.5685 933.001C82.9285 927.411 76.7785 922.541 70.9985 917.261C65.7685 912.481 60.3585 908.601 53.2185 906.801C44.8485 904.691 44.2185 902.341 48.0685 894.661C49.0609 892.547 50.2004 890.505 51.4785 888.551C54.0085 884.871 54.3085 881.231 51.8885 877.411C47.6685 870.751 49.8885 865.821 55.4885 861.031C58.52 858.473 60.8068 855.147 62.1085 851.401C65.9985 838.881 73.5085 829.111 84.9985 820.661C79.9985 815.511 75.5285 810.821 70.9985 806.141C64.1585 799.041 64.1385 798.081 71.8185 791.071C80.1785 783.421 88.5485 775.781 97.1485 768.401C110.839 756.661 123.869 744.281 134.709 729.811C138.476 724.705 143.561 720.72 149.419 718.281C154.963 715.998 160.363 713.379 165.589 710.441C169.199 708.361 172.269 705.351 175.589 702.741C178.399 700.511 181.219 698.291 183.999 696.021C185.459 694.821 187.609 693.771 188.119 692.221C190.289 685.531 195.739 683.561 201.579 681.651C209.349 679.101 214.349 673.841 216.449 665.651C214.189 663.651 212.069 662.061 210.269 660.161C205.819 655.461 205.649 649.981 208.459 644.001C212.079 636.271 216.049 628.481 218.059 620.271C220.759 609.271 220.509 598.521 213.719 587.831C203.469 571.681 203.259 575.181 217.299 560.771C224.239 553.661 231.349 546.771 238.839 539.241C244.359 544.911 249.419 542.521 254.639 540.091C261.579 536.851 268.639 533.751 275.699 530.901C278.699 529.681 282.079 528.571 285.259 528.621C292.119 528.721 297.259 525.781 299.739 519.931C303.939 509.931 310.889 503.841 321.199 500.931C323.569 500.271 325.549 498.161 328.429 496.231C326.989 494.531 326.099 493.291 325.019 492.231C319.629 486.921 320.929 487.351 323.199 480.031C326.019 470.911 332.639 467.141 340.659 463.031C339.889 455.791 344.659 452.491 350.929 449.881C364.849 444.121 378.169 437.281 388.339 425.391C387.279 422.971 384.569 419.761 385.229 417.521C385.999 414.891 389.429 412.711 392.139 411.041C396.799 408.181 400.659 405.211 402.139 399.381C402.879 396.541 405.769 393.981 408.199 391.891C416.029 385.161 424.089 378.701 431.829 372.331C432.059 367.071 432.519 362.191 432.399 357.331C432.194 354.722 431.594 352.159 430.619 349.731C427.859 341.731 430.189 337.161 438.619 335.181C442.159 334.351 445.879 334.261 449.509 333.801C456.979 332.801 459.689 329.801 459.939 322.171C460.169 315.101 460.629 314.711 468.019 313.801C471.829 313.331 475.599 312.571 479.699 311.891C478.399 308.031 477.419 305.271 476.539 302.481C474.459 295.961 468.189 292.731 461.999 296.031C453.549 300.531 444.589 302.571 435.269 303.361C430.339 303.781 425.329 303.221 420.389 303.561C416.846 303.936 413.34 304.605 409.909 305.561C404.009 306.991 401.489 305.311 401.839 299.311C402.309 291.241 403.349 283.451 411.839 278.941C413.989 277.791 416.189 274.351 416.179 271.941C416.179 264.481 419.989 261.781 427.179 261.741C427.529 258.941 428.069 256.371 428.129 253.741C428.259 248.211 429.439 243.801 436.229 243.431C437.852 243.226 439.374 242.528 440.589 241.431C444.249 238.331 447.709 234.991 451.029 231.931C449.939 225.501 448.699 218.691 447.669 211.851C447.029 207.641 448.869 204.801 453.059 203.581C454.344 203.217 455.592 202.735 456.789 202.141C465.069 197.991 473.169 197.521 481.269 202.781C483.595 204.083 486.043 205.155 488.579 205.981C489.799 206.471 491.299 207.331 492.349 206.981C498.499 204.981 504.889 203.381 510.539 200.391C514.349 198.391 517.429 197.671 520.539 200.311C527.859 206.511 536.019 207.011 544.949 205.221C546.177 205.044 547.428 205.124 548.624 205.454C549.82 205.785 550.935 206.359 551.899 207.141C554.749 209.791 552.229 212.591 550.659 215.141C546.159 222.421 540.139 229.061 540.659 238.641C544.839 241.811 549.659 243.551 554.659 241.561C561.029 239.001 564.789 241.291 567.659 246.771C568.049 247.407 568.527 247.986 569.079 248.491C578.209 245.601 586.969 242.861 595.699 240.061C601.424 238.187 607.615 238.314 613.259 240.421C615.139 241.091 617.099 241.511 619.029 242.041C632.679 245.741 635.389 244.481 642.219 232.341C643.749 229.621 646.369 227.511 649.049 224.481C647.238 224.369 645.436 224.159 643.649 223.851C639.599 222.911 638.199 220.401 639.649 216.431C639.759 216.121 639.919 215.821 640.039 215.511C645.609 201.181 648.299 200.291 661.599 208.351C663.599 209.551 665.599 210.691 668.199 212.201L676.269 206.791C675.999 204.791 676.269 202.881 675.489 201.651C670.879 194.471 674.419 186.761 674.059 179.351C673.969 177.471 676.769 175.031 678.769 173.571C683.329 170.221 688.399 167.571 692.909 164.171C696.279 161.641 698.909 158.171 702.209 155.501C706.799 151.671 711.209 146.981 716.549 144.881C720.119 143.481 725.209 145.961 731.389 147.001C732.225 146.584 732.938 145.957 733.459 145.181C737.459 139.331 742.269 136.711 749.629 139.381C751.939 140.221 755.429 138.991 757.939 137.781C761.079 136.271 764.089 134.191 766.849 137.541C770.109 141.481 767.009 144.191 764.229 146.761C763.289 147.641 762.509 148.691 761.299 150.061C763.429 154.981 769.419 160.061 764.619 165.251C761.419 168.691 755.619 169.741 751.079 171.841C754.969 178.751 759.259 181.051 766.429 178.621C778.049 174.741 789.572 170.534 800.999 166.001C803.489 165.001 805.529 162.371 807.239 160.091C809.239 157.441 810.559 154.321 812.239 151.461C816.879 143.671 816.789 144.241 825.569 146.001C830.569 147.001 835.989 145.901 841.209 145.571C845.379 145.321 850.119 142.101 853.499 146.081C857.23 150.689 860.446 155.692 863.089 161.001C864.229 163.181 863.779 166.181 864.089 169.201L871.089 171.201C875.849 162.901 882.889 162.721 890.959 165.201C900.489 168.091 909.889 168.201 918.609 162.321C924.089 158.631 929.869 159.211 935.849 162.211C936.969 159.851 938.089 158.211 938.569 156.361C940.209 150.211 943.479 146.511 950.419 146.511C952.359 146.511 954.359 144.511 956.229 143.331C957.849 142.271 959.459 139.851 960.869 139.991C968.499 140.791 972.119 135.241 976.499 130.861C987.059 120.311 988.999 120.161 1000.86 129.541C1005.36 126.701 1009.97 124.941 1015.22 129.111C1016.93 130.461 1020.39 129.491 1023.02 129.841C1029.02 130.621 1031.63 133.411 1032.33 139.501C1033.38 148.621 1037.07 152.741 1046.15 154.921C1047.15 155.151 1048.09 155.401 1049.07 155.571L1062.36 157.821C1067.21 150.191 1073.55 149.741 1080.78 154.651C1085.91 158.141 1090.78 157.061 1096.01 153.151C1095.01 149.871 1093.74 146.501 1092.95 143.031C1092.54 141.211 1092.25 137.971 1093.09 137.491C1099.23 134.061 1102.09 125.961 1110.45 125.651C1114.97 125.481 1114.95 124.961 1117.84 117.651C1114.12 118.441 1110.72 118.351 1108.31 119.841C1103.49 122.841 1101.16 120.611 1098.47 116.961C1096.78 114.671 1094.57 111.961 1092.08 111.221C1084.92 109.221 1080.08 104.141 1074.86 99.5906C1068.78 94.3206 1068.86 94.1306 1073.25 86.2906C1068.25 76.5506 1070.15 69.6506 1079.6 64.2306C1082.76 62.4206 1086.06 60.8806 1089.7 59.0106C1087.7 47.5106 1094.84 39.4606 1100.7 31.2506C1102.76 28.3932 1105.46 26.0554 1108.59 24.4222C1111.71 22.789 1115.17 21.9052 1118.7 21.8406C1121.31 21.6298 1123.9 21.1642 1126.43 20.4506C1133.94 18.5806 1139.62 15.5206 1140.43 6.25063C1140.97 -0.0293732 1144.43 -0.549373 1150.23 3.03063C1152.06 4.12218 1154.16 4.67666 1156.29 4.63063C1166.37 4.15063 1170.84 6.79063 1174.68 16.5106C1176.74 13.5706 1178.39 10.7806 1180.47 8.35063C1183.26 5.09063 1186.89 4.82063 1188.73 8.29063C1190.3 11.5222 1192.99 14.0808 1196.29 15.5006C1198.04 16.3106 1199.37 18.8106 1200.12 20.8306C1201.12 23.994 1201.93 27.2169 1202.54 30.4806C1214.61 28.1306 1218.48 29.7406 1223.93 39.3106C1227.32 45.3106 1226.79 47.0306 1220.75 50.0806C1219.3 50.7843 1217.9 51.5966 1216.57 52.5106C1216.12 52.8306 1216.07 53.7006 1215.57 55.0106C1220.69 60.2206 1228.57 65.1806 1220.8 75.5306L1240.52 85.3706C1242.43 80.2406 1240.6 78.8906 1237.19 77.6806C1227.19 74.0906 1225.55 65.6006 1233.41 58.1806C1236.92 54.6608 1240.69 51.4209 1244.71 48.4906C1250.01 44.8606 1253.65 45.6606 1255.78 51.5506C1259.62 62.1406 1268.31 65.5506 1277.78 68.5506C1280.01 69.2506 1282.98 71.0406 1283.51 72.9206C1284.51 76.5606 1285.36 80.9206 1281.58 83.9206C1280.33 84.9206 1278.69 85.4506 1276.48 86.5706C1280.83 90.4706 1284.48 94.2706 1285.07 100.321C1285.5 104.481 1289.72 104.831 1293.07 103.721C1300.3 101.331 1307.52 98.8006 1314.51 95.7906C1319.43 93.6982 1324.12 91.101 1328.51 88.0406C1331.64 85.8506 1334 82.5606 1336.38 80.1006C1334.61 74.6206 1331.71 71.7306 1327.07 70.7706C1319.39 69.1806 1315.33 62.7006 1308.18 58.5106C1311.85 55.5106 1314.31 53.5706 1316.79 51.5706L1336.04 60.4406L1337.38 58.4406L1328.76 51.3506C1329.6 47.0706 1332.01 48.2506 1334.56 49.6506C1345.06 55.4306 1355.56 61.1606 1366.08 66.9506C1372.99 70.7606 1379.66 74.0306 1382.29 83.1306C1383.51 87.3506 1390.47 92.6006 1394.89 92.6506C1403.89 92.7606 1411.43 97.1006 1419.82 98.3906C1422.87 98.7164 1425.94 98.8832 1429.01 98.8906C1429.77 90.1106 1426.55 84.5606 1420.73 80.6406C1414.39 76.3606 1411.3 70.8106 1411.5 63.1006C1411.67 56.5706 1408.71 52.0206 1402.5 48.9806C1395.65 45.6206 1389.5 40.9206 1382.69 37.3606C1369.16 30.2206 1359.18 19.0306 1348.01 8.50063L1351.17 0.350627C1356.55 -0.649373 1360.8 0.250627 1364.48 3.81063C1367.11 6.35063 1370.14 8.49063 1372.69 11.1006C1387.81 26.6506 1406.25 37.1006 1425.84 45.7606C1431.04 48.0606 1434.93 50.6706 1434.42 57.4306C1434.24 59.9406 1435.93 63.2906 1437.84 65.1406C1450.99 77.8506 1463.95 90.8006 1481.28 98.1406C1485.78 100.041 1489.88 101.651 1494.56 99.9406C1507.5 95.2006 1519.11 98.0206 1530.33 105.331C1533.61 107.463 1537.42 108.656 1541.33 108.781C1552.49 108.781 1558.18 112.321 1561.98 123.091C1563.31 126.501 1564.46 129.979 1565.42 133.511C1568.24 145.631 1580.78 155.311 1593.36 148.911C1593.87 148.651 1594.63 148.911 1595.22 148.911C1604.57 160.511 1616.7 167.011 1631.61 169.281C1631.98 171.281 1632.37 173.541 1633.04 177.281C1634.54 174.991 1635.37 173.731 1636.45 172.061L1645.21 172.551C1650.6 178.411 1655.29 184.011 1660.53 189.041C1663.53 191.961 1664.95 194.851 1663.29 198.691C1661.63 202.531 1658.57 204.091 1654.42 203.621C1641.35 202.151 1629.49 205.351 1618.31 213.761L1612.21 206.021C1606.04 209.191 1601.99 217.361 1592.21 213.481C1593.5 218.631 1594.03 221.901 1599.56 220.261C1601.21 219.771 1604.56 221.061 1605.42 222.531C1608.6 228.081 1613.58 229.681 1619.31 231.011C1628.31 233.101 1629.01 235.011 1625.17 243.461C1620.66 253.461 1622.11 261.761 1629.71 269.461C1637.71 277.601 1634.04 291.831 1622.97 295.191C1620.71 295.758 1618.4 296.15 1616.08 296.361C1609.43 297.281 1605.38 301.361 1603.01 307.301C1601.71 310.37 1600.67 313.541 1599.9 316.781C1598.32 323.941 1594.47 329.311 1588.76 333.891C1580.52 340.511 1579.32 342.641 1573.87 354.151C1576.26 356.951 1578.63 360.151 1581.44 362.921C1586.83 368.251 1590.44 373.731 1584.12 381.161C1596.7 389.821 1597.96 400.371 1589.3 412.711C1597.3 416.181 1599.7 425.441 1608.48 426.961C1609.65 427.161 1611.13 429.281 1611.34 430.691C1612.07 435.691 1614.14 439.941 1616.47 444.421C1617.83 447.031 1615.2 451.741 1614.47 455.051C1615.47 459.941 1616.93 464.601 1617.35 469.351C1617.8 474.561 1616.77 479.281 1610.23 480.721C1608.76 481.051 1606.65 484.181 1606.95 485.571C1607.55 488.401 1609.85 487.921 1612.45 486.871C1626.45 481.231 1639.23 482.701 1649.97 494.221C1650.69 494.844 1651.49 495.36 1652.36 495.751C1652.67 495.881 1653.02 495.932 1653.36 495.901C1671.16 496.091 1687.62 499.901 1699.69 514.421C1706.21 509.861 1711.99 506.421 1718.94 510.061C1720.59 510.931 1723.34 512.901 1723.12 513.651C1721.41 519.581 1726.72 522.421 1728.12 526.791C1729.28 530.281 1729.93 535.431 1728.18 538.131C1722.24 547.291 1722.93 556.831 1724.33 567.251C1735 573.251 1745.5 580.481 1759.24 577.681C1762.66 576.981 1766.05 577.771 1767.87 581.221C1769.87 584.941 1772.87 585.731 1776.87 586.221C1780.4 586.668 1783.7 588.231 1786.29 590.681C1791.82 596.681 1799.83 600.891 1800.72 610.681C1808.91 611.011 1816.04 613.131 1819.01 621.311C1823.14 620.691 1826.67 619.771 1830.22 619.711C1838.42 619.581 1845.92 618.601 1851.81 611.711C1853.61 609.601 1857.64 609.131 1860.81 608.501C1863.3 607.991 1865.97 608.401 1868.92 608.401C1869.18 606.401 1869.92 604.701 1869.4 603.921C1864.82 597.161 1866.4 590.921 1870.18 584.461C1871.59 582.011 1872.06 578.851 1872.37 575.961C1873.26 567.541 1874.88 566.231 1883.26 568.441C1889.63 570.121 1895.93 572.111 1901.99 573.881C1902.82 572.671 1903.58 572.031 1903.47 571.631C1901.32 563.941 1901.73 558.061 1910.24 553.541C1913.63 551.731 1914.64 544.951 1916.17 540.241C1918.28 533.751 1920.89 528.721 1929.17 529.301C1931.67 529.481 1934.74 527.401 1936.88 525.581C1941.06 522.021 1944.51 522.421 1948.2 526.121C1952.2 530.121 1956.89 533.581 1960.26 538.051C1962.85 541.491 1963.86 546.131 1965.42 549.881C1971.92 553.561 1978.42 557.341 1985.07 560.961C1990.07 563.691 1991.85 567.471 1991.14 573.311C1990.24 580.671 1988.93 587.751 1985.03 594.151C1981.89 599.29 1980.7 605.388 1981.68 611.331C1983.68 626.331 1978.46 640.331 1974.1 654.251C1972.94 657.931 1967.76 660.361 1964.41 663.381C1972.91 678.741 1976.54 685.661 1956.24 699.741C1957.28 701.226 1958.22 702.772 1959.08 704.371C1961.82 710.291 1960.08 716.171 1954.62 719.771C1946.31 725.261 1944.62 729.591 1947.18 738.891C1948.5 743.681 1949.87 748.451 1951.33 753.641C1954.33 753.641 1957.09 754.191 1959.48 753.531C1966.8 751.531 1972.41 753.991 1977.48 759.101C1979.82 761.485 1982.41 763.601 1985.22 765.411C1991.38 769.331 1993.1 774.411 1991.41 781.571C1988.58 793.571 1986.28 805.671 1984.15 817.801C1982.83 825.291 1975.49 827.131 1971.44 832.021C1970.82 832.771 1966.54 831.261 1964.55 829.911C1961.01 827.511 1957.93 824.441 1954.35 821.381C1944.94 828.251 1937.19 820.511 1928.28 818.721C1924.47 824.021 1919.94 827.291 1913.6 822.121C1913.05 821.681 1911.69 822.301 1910.71 822.281C1900.2 822.111 1898.25 820.681 1894.84 811.071C1894.09 808.971 1892.97 807.001 1891.84 804.511C1889.84 805.131 1888.36 805.641 1886.84 806.051C1881.2 807.571 1876.62 805.681 1875.04 800.321C1873.26 794.321 1871.86 788.001 1876.17 782.111C1878.62 778.761 1880.49 775.111 1874.9 771.691C1870.73 777.451 1865.76 779.371 1859.08 774.761C1857.3 773.541 1853.31 774.631 1850.74 775.661C1845.19 777.891 1840.02 781.061 1834.46 783.271C1830.93 784.681 1826.98 785.071 1822.26 786.141C1822.11 787.471 1821.88 790.011 1821.56 792.541C1821.39 793.851 1821.56 795.711 1820.74 796.351C1811.21 804.071 1811.07 818.781 1800.91 823.551C1799.62 830.121 1799.04 835.201 1797.58 840.011C1795.38 847.251 1794.84 854.521 1797.58 861.431C1799.94 867.271 1801.87 872.671 1797.78 878.271C1800.22 881.691 1801.7 885.641 1804.51 887.271C1808.59 889.581 1813.18 891.381 1818.59 888.861C1822.59 887.001 1827.68 885.931 1831.93 886.641C1839.48 887.901 1842.05 896.051 1847.52 900.491C1851.45 903.681 1849.68 909.121 1849.26 913.781C1848.7 920.121 1845.96 924.371 1839.55 926.031C1837.67 926.511 1835.98 927.681 1833.73 928.761C1834.84 935.421 1832.73 940.461 1826.37 943.391C1825.23 943.911 1823.97 946.301 1824.26 947.451C1826.01 954.381 1825.65 962.501 1832.95 966.771C1844.22 973.381 1847.95 984.981 1852.82 995.841C1854.54 999.631 1854.1 1002.84 1851.31 1005.93C1845.93 1011.85 1840.6 1017.82 1835.31 1023.84C1832.59 1026.97 1829.31 1027.59 1825.39 1026.96C1818.48 1025.85 1811.59 1024.57 1805.81 1030.7C1804.81 1031.76 1801.47 1031.16 1799.43 1030.57C1797.59 1030.05 1796.03 1028.52 1794.43 1027.39C1785.17 1021.05 1785.17 1021.04 1790.56 1010.77C1794.47 1003.33 1793.56 1000.3 1786.06 996.621C1782.78 994.991 1779.42 993.511 1776.06 991.971C1763.89 986.331 1762.06 982.451 1765.4 969.301C1758.28 960.801 1758.28 960.801 1763.15 944.771L1748.63 932.981C1738.63 938.581 1738.63 938.581 1730.07 930.981C1727.83 932.218 1725.67 933.587 1723.59 935.081C1719.01 938.781 1714.05 940.981 1708.01 940.331C1703.1 939.811 1699.01 941.611 1695.11 944.621C1690.9 947.891 1686.2 950.531 1682.11 953.921C1677.24 957.921 1672.75 957.921 1667.68 954.391C1665.03 952.511 1661.91 951.301 1658.55 949.551C1657.55 955.551 1655.49 960.251 1656.55 966.311C1657.33 970.861 1653.82 976.381 1651.48 981.101C1650.71 982.641 1647.58 983.901 1645.61 983.781C1640.19 983.461 1634.81 982.351 1629.41 981.551C1629.34 980.881 1629.28 980.221 1629.21 979.551C1625.49 981.671 1621.78 983.801 1618.04 985.891C1612.33 989.081 1606.73 989.131 1601.19 985.391C1599.64 984.206 1597.89 983.289 1596.04 982.681C1588.83 980.851 1581.51 979.421 1574.33 977.521C1572.46 976.86 1570.81 975.71 1569.55 974.191C1562.55 966.581 1555.13 959.261 1552.39 948.831C1550.3 940.831 1545.7 935.661 1537.92 932.431C1530.72 929.431 1530.92 928.831 1532.92 920.931C1534.57 914.201 1530.92 904.381 1525.62 898.081C1523.92 896.081 1523.73 891.991 1524.17 889.081C1525.28 882.181 1526.77 875.347 1528.63 868.611C1529.57 865.071 1530.03 862.181 1525.31 860.121C1523.63 862.951 1521.89 865.651 1520.38 868.481C1518.17 872.631 1515.31 874.041 1510.55 872.481C1504.61 870.481 1500.24 867.681 1497.37 861.481C1491.2 848.191 1494.91 850.211 1478.94 850.191C1474.99 850.346 1471.07 850.926 1467.24 851.921C1461.81 853.101 1458.74 856.921 1460.31 862.161C1463.31 872.161 1459.16 878.011 1450.73 882.231C1449.91 882.793 1449.2 883.489 1448.62 884.291C1448.23 884.93 1447.9 885.599 1447.62 886.291C1450.62 889.131 1453.62 892.481 1457.13 895.291C1460.85 898.291 1462.2 901.761 1461.69 906.621C1461.33 910.011 1462.75 913.551 1462.94 917.051C1463.22 919.891 1462.99 922.759 1462.27 925.521C1460.96 929.581 1461.15 932.291 1465.33 934.631C1466.42 935.326 1467.36 936.236 1468.08 937.306C1468.81 938.375 1469.31 939.581 1469.56 940.851C1470.56 949.221 1472.38 957.851 1466.46 965.441C1465.28 966.961 1463.79 969.171 1464.1 970.731C1465.64 978.491 1460.96 983.461 1456.52 988.321C1454.01 990.959 1452.06 994.071 1450.77 997.474C1449.48 1000.88 1448.89 1004.5 1449.02 1008.14C1449.11 1019.7 1448.66 1019.7 1437.02 1023.67C1435.65 1028.15 1434.51 1033.27 1428.94 1035.85C1427.22 1036.65 1425.7 1040.45 1426.03 1042.58C1426.98 1048.64 1423.74 1052.93 1420.69 1057.14C1419.15 1059.26 1415.93 1061.54 1413.57 1061.44C1405.04 1061.06 1400.12 1066.61 1397.29 1072.59C1393.22 1081.19 1387.09 1086.14 1378.62 1089.17C1376.84 1089.98 1375.12 1090.91 1373.47 1091.94C1374.72 1095.46 1375.74 1098.94 1377.13 1102.17C1378.91 1106.38 1378.67 1110.37 1377.54 1114.77C1375.37 1123.31 1371.04 1128.99 1361.79 1130.33C1358.13 1130.76 1354.61 1131.96 1351.45 1133.84C1348.46 1135.73 1346.12 1138.49 1344.76 1141.75C1344.05 1143.75 1346.36 1146.84 1347.18 1149.09C1353.06 1148.79 1357.95 1148.26 1362.83 1148.36C1369.59 1148.49 1376.11 1148.42 1381.57 1143.47C1383.69 1141.55 1386.36 1140.74 1388.4 1143.79C1390.44 1146.84 1388.5 1148.68 1386.24 1150.45C1383.57 1152.44 1381.01 1154.57 1378.56 1156.82C1375.86 1159.45 1372.94 1159.65 1369.39 1159.13C1363.58 1158.28 1357.69 1158.01 1351.81 1157.49C1351.6 1169.15 1351.6 1169.15 1340.32 1181.59C1344.14 1184.53 1346.6 1187.93 1345.82 1193.38C1345.04 1198.83 1348.46 1202.33 1353.61 1204.48C1362.97 1208.38 1370.33 1215.1 1376.61 1222.86C1377.87 1224.42 1378.06 1228.35 1376.97 1230.06C1373.09 1236.12 1368.36 1241.64 1364.13 1247.49C1362.57 1249.55 1361.34 1251.84 1360.49 1254.28C1358.33 1260.92 1356.64 1267.72 1354.49 1274.37C1353.81 1276.49 1352.73 1278.88 1351.08 1280.2C1346.77 1283.63 1331.08 1280.97 1327.19 1276.74C1326.07 1275.5 1324.32 1274.11 1322.82 1274.06C1317.54 1273.88 1313.66 1266.42 1307.37 1271.37C1305.37 1272.96 1302.54 1273.58 1300.02 1274.37C1293.76 1276.47 1291.81 1274.6 1291.57 1267.9C1291.3 1260.22 1297.04 1256.12 1301.08 1250.36C1299.99 1243.83 1298.95 1236.99 1297.66 1230.19C1297.31 1228.31 1296.56 1225.29 1295.42 1225C1290.7 1223.79 1290.34 1219.65 1288.26 1216.49C1284.1 1210.15 1281.6 1203.6 1283.86 1195.28C1273.94 1194.66 1269.25 1187.86 1264.15 1181.93C1260.34 1177.49 1256.15 1175.29 1250.33 1175.93C1248 1176.13 1245.65 1176.08 1243.33 1175.78C1236.96 1175.05 1234.98 1172.36 1237.52 1166.41C1241.33 1157.41 1242.58 1146.78 1252.75 1141.56C1253.98 1140.93 1255.49 1138.83 1255.29 1137.69C1253.86 1129.69 1259.62 1127.42 1265.53 1124.83C1265.26 1122.75 1265.72 1120.08 1264.65 1119.11C1258.75 1113.74 1254.08 1106.76 1243.65 1109.11C1235.39 1111.01 1228.65 1105.11 1222.58 1099.88C1214.16 1105.95 1213.18 1109.64 1216.05 1118.5C1217.34 1122.5 1217.41 1126.97 1217.38 1131.22C1217.38 1136.09 1218.16 1140.04 1221.96 1143.73C1227.57 1149.19 1226.96 1155.8 1221.16 1160.84C1218.4 1163.23 1215.3 1165.25 1212.54 1167.65C1210.84 1169.13 1208.48 1170.87 1208.18 1172.76C1207.18 1179.19 1202.62 1182.32 1197.95 1185.55C1192.8 1189.11 1188.09 1192.48 1185.49 1199.04C1183.92 1203.04 1178.15 1205.34 1174.21 1208.33C1170.1 1211.45 1164.3 1213.33 1165.85 1220.4C1165.97 1220.96 1165.66 1222.11 1165.33 1222.21C1155.95 1224.89 1158.9 1233.35 1158.98 1238.87C1159.06 1244.99 1161.39 1251.75 1167.28 1256.1C1168.59 1257.1 1169.15 1259.42 1169.49 1261.25C1170.14 1264.84 1170.39 1268.5 1170.71 1271.32C1168.26 1274.22 1164.82 1276.47 1164.32 1279.26C1162.96 1286.73 1159.32 1290.51 1151.72 1290.59C1150.11 1290.59 1148.5 1291.36 1146.44 1291.88C1145.8 1294.58 1144.78 1297.41 1144.56 1300.3C1144.43 1302.12 1145.09 1305.39 1146.08 1305.68C1151.32 1307.2 1151.57 1312.19 1153.6 1315.76C1155.63 1319.33 1156.24 1323.94 1158.48 1327.43C1160.62 1330.75 1164.06 1333.23 1168.29 1337.43L1154.4 1338.15C1151.16 1332.8 1147.06 1328.88 1146.52 1324.52C1145.52 1316.21 1139.22 1311.59 1135.91 1305.06C1133.79 1300.89 1134.36 1295.41 1133.5 1290.56C1132.5 1284.81 1136.62 1282.25 1140.15 1279.32C1146.15 1274.32 1147.7 1267.87 1146.69 1260.6C1146.14 1256.66 1144.96 1252.81 1144.16 1248.9C1142.92 1242.9 1139.83 1238.39 1133.78 1236.68C1126.78 1234.68 1122.96 1230.19 1119.78 1223.76C1117.12 1218.3 1112.36 1213.86 1108.34 1208.71C1112.91 1198.39 1124.92 1198.41 1141.71 1214.32C1149.31 1207.09 1157.05 1200.06 1164.39 1192.61C1167.85 1189.09 1170.66 1184.89 1173.52 1180.83C1175.81 1177.57 1177.69 1174.01 1179.83 1170.64C1186.71 1159.82 1191.37 1146.74 1207.61 1145.5C1204.32 1130.78 1201.37 1117.58 1198.24 1103.5C1195.36 1102.4 1191.96 1101.17 1188.61 1099.8C1186.17 1098.8 1182.96 1098.22 1181.61 1096.36C1178.35 1092.01 1174.45 1091.04 1169.47 1091.76C1164.32 1092.5 1160.23 1091.51 1159.3 1085.2C1158.88 1083.26 1157.77 1081.53 1156.18 1080.34C1151.77 1077.11 1150.54 1073.18 1153.3 1067.96C1145.88 1065.22 1142.37 1060.04 1140.03 1053.42C1139.03 1050.53 1135.82 1048.42 1133.77 1045.88C1131.72 1043.34 1128.68 1040.88 1128.22 1037.99C1127.04 1030.77 1122.63 1028.06 1116.29 1026.65C1112.68 1026 1109.17 1024.88 1105.86 1023.31C1102.86 1021.7 1100.34 1019.02 1097.69 1016.72C1096.23 1015.44 1095.12 1013.72 1093.52 1012.65C1084.08 1006.65 1083.63 1005.09 1089.33 995.091C1086.79 990.391 1084.26 985.361 1081.39 980.521C1079.02 976.521 1079.31 973.061 1082.11 969.521C1084.78 966.111 1087.11 962.391 1089.83 959.061C1093.62 954.511 1096.08 949.861 1094.5 943.591C1093.99 941.591 1095.35 939.161 1095.61 936.901C1095.9 934.371 1096.44 931.701 1095.94 929.291C1094.79 923.801 1092.94 918.731 1096.07 912.921C1097.22 910.801 1094.54 906.751 1094.07 903.511C1093.48 899.701 1092.19 895.431 1093.3 892.051C1095.6 885.051 1093.89 880.541 1087.06 876.821C1083.86 878.111 1080.22 879.651 1076.54 881.061C1074.07 882.001 1071.31 883.871 1069.06 883.421C1060.39 881.681 1055.26 886.751 1050.28 892.201C1045.5 897.441 1039.79 900.841 1031.69 900.801C1034.23 906.801 1041.49 907.611 1040.02 914.021C1038.91 918.821 1039.93 925.201 1037.14 928.271C1032.42 933.441 1025.44 936.551 1018.28 941.271C1018.7 947.031 1014.43 950.991 1007.61 952.791C1001.61 954.381 998.009 958.111 996.699 964.331C994.999 973.001 988.999 977.321 980.939 979.051C973.939 980.561 966.939 984.721 959.229 978.861C953.149 985.541 947.409 991.861 941.129 998.781C945.619 1001.26 951.779 1003.2 952.129 1010.36C952.189 1011.36 953.689 1012.68 954.799 1013.06C962.689 1015.78 964.239 1022.6 965.949 1029.49C967.289 1034.92 968.189 1040.49 972.729 1044.71C975.539 1047.33 974.559 1050.9 972.599 1053.91C969.419 1058.78 967.679 1063.56 969.459 1069.76C970.809 1074.47 966.199 1080.95 960.599 1082.7C954.719 1084.53 950.389 1086.8 949.599 1093.7C949.089 1098.05 945.069 1099 941.369 1099.7L917.469 1104.57C913.859 1112.42 910.349 1120.12 915.529 1128.87C918.669 1134.17 918.129 1138.87 912.529 1142.61C910.689 1143.84 907.889 1146.34 908.199 1147.61C910.619 1158.01 900.859 1161.41 896.739 1167.89C895.369 1170.06 891.189 1171.27 888.209 1171.43C880.909 1171.82 873.549 1171.5 866.209 1171.17C862.109 1170.99 859.999 1173.01 857.209 1175.82C850.899 1182.1 849.599 1190.18 847.209 1197.9C846.479 1200.24 846.209 1203.35 847.139 1205.47C849.579 1210.93 846.869 1214.09 843.489 1217.71C839.849 1221.6 836.069 1221.3 831.709 1219.71C825.249 1217.28 818.979 1214.03 812.129 1219.55C809.129 1221.95 805.919 1219.55 803.259 1217.21C799.379 1213.77 795.329 1210.52 790.889 1206.8C786.309 1212.86 783.029 1220.16 774.769 1216.8C767.429 1213.8 763.769 1207.68 763.769 1201.45L747.459 1186.74C740.599 1186.74 731.959 1186.39 723.379 1186.86C717.589 1187.18 712.789 1187.01 710.379 1180.6C709.859 1179.25 707.669 1178.54 704.789 1176.49C704.029 1181.39 703.549 1184.84 702.959 1188.27C701.719 1195.48 700.199 1196.57 692.869 1195.44C689.869 1194.98 686.999 1194.11 684.029 1193.81C677.459 1193.16 673.329 1196.02 672.509 1202.81C671.949 1207.41 669.709 1209.39 665.679 1209.89C662.857 1210.14 660.138 1211.07 657.751 1212.6C655.364 1214.13 653.381 1216.2 651.969 1218.66C650.916 1220.36 649.275 1221.61 647.359 1222.17C641.579 1223.41 637.029 1225.89 633.569 1230.99C632.569 1232.44 628.629 1232.99 626.569 1232.37C620.679 1230.6 615.039 1227.98 608.509 1225.37L588.999 1221.79C586.379 1224.94 582.329 1229.7 578.419 1234.57C575.699 1237.96 573.049 1239.43 568.169 1238.1C560.599 1236.04 558.419 1237.55 554.319 1244.21C552.229 1247.62 550.319 1251.12 548.119 1254.47C545.629 1258.31 542.429 1258.75 538.819 1255.94L526.929 1246.67C523.449 1249.36 520.359 1251.87 517.139 1254.21C507.859 1260.99 501.259 1258.8 497.819 1248.1C496.882 1245.28 495.516 1242.62 493.769 1240.22C489.319 1233.98 484.849 1227.72 479.899 1221.89C473.389 1214.23 469.229 1205.89 470.269 1195.17C468.809 1193.94 467.369 1192.62 465.819 1191.44C456.919 1184.69 456.909 1184.71 463.299 1174C461.059 1172.07 458.969 1169.37 456.229 1168.12C451.379 1165.91 447.179 1163.72 447.539 1157.49C439.349 1150.03 437.629 1137.49 427.219 1131.75C426.559 1131.63 425.888 1131.58 425.219 1131.61C422.919 1133.83 420.059 1136.52 417.279 1139.3C414.349 1142.21 411.069 1143.58 407.549 1140.72C403.879 1137.72 398.109 1136.15 399.259 1129.56C399.429 1128.56 399.769 1127.63 399.989 1126.66C401.759 1118.93 407.529 1112.19 404.239 1103.1C403.169 1100.16 406.299 1095.7 407.799 1091.03C402.649 1090.25 397.429 1090.53 393.299 1088.54C388.699 1086.32 384.369 1087.44 380.079 1086.75C375.339 1085.98 368.969 1082.75 367.209 1078.75C363.979 1071.52 360.789 1062.75 367.269 1055.21C371.479 1050.33 372.329 1045.7 370.089 1039.74C369.115 1036.96 369.115 1033.93 370.089 1031.15C373.559 1022.15 376.879 1012.97 385.089 1006.9C391.449 1002.21 394.259 995.711 394.619 987.341C387.899 983.231 380.689 979.061 377.749 970.591C377.299 969.311 375.359 968.511 374.039 967.591C366.139 962.081 359.649 955.391 356.129 946.231C352.899 937.801 354.259 933.871 361.449 928.161C364.569 925.681 370.019 924.721 368.909 918.811C367.799 912.901 362.279 914.081 358.579 912.531C354.579 910.871 350.289 910.081 346.179 908.731C340.419 906.831 334.639 905.601 328.569 907.181C327.584 907.397 326.573 907.468 325.569 907.391C306.119 906.541 287.159 909.951 268.179 913.611C263.982 914.304 259.677 913.862 255.709 912.331C243.189 907.451 235.949 910.791 232.219 923.981C231.959 924.911 231.529 925.801 231.059 926.981C217.879 932.981 201.149 933.081 193.619 948.981C185.619 946.461 178.769 944.251 175.919 935.581C174.429 931.081 167.499 929.211 162.129 930.581C152.789 932.951 146.559 939.161 142.129 947.351C140.239 950.851 139.129 954.791 137.279 958.351C134.279 963.861 132.669 969.041 136.579 974.991C139.999 980.201 136.009 984.411 133.009 989.081L139.209 999.011C140.729 998.471 141.779 998.351 142.479 997.801C151.829 990.481 151.819 990.461 160.069 998.151C164.719 1002.49 164.849 1009.81 159.829 1016.09C153.419 1024.09 147.599 1032.86 137.679 1037.24C135.579 1038.17 133.329 1039.95 131.319 1039.72C124.479 1038.95 120.119 1043.2 115.319 1046.64C111.949 1049.05 109.249 1051.81 110.089 1056.57C110.829 1060.8 108.249 1063.64 105.089 1065.64C97.7785 1070.25 90.6185 1075.35 82.7485 1078.77C75.8385 1081.77 68.2885 1079.96 61.7485 1076.29C53.9285 1071.91 49.5985 1072.39 44.1385 1079.18C39.4785 1084.96 39.4685 1084.99 32.9585 1081.33C26.6185 1077.76 20.7385 1077.63 14.4185 1082.02C10.6085 1084.67 7.12854 1089.37 0.208536 1087.02C-1.27146 1073.57 7.10854 1062.71 10.7185 1049.77C9.71854 1048.85 8.41854 1047.48 6.96854 1046.23C1.36854 1041.42 2.41854 1041.74 4.58854 1034C7.17854 1024.79 12.5885 1020.45 21.3785 1018.44C24.3785 1017.77 26.7785 1014.72 29.5185 1012.84C32.6985 1010.67 35.2885 1006.91 40.0685 1008.84C40.5885 1009.05 41.6885 1009.04 41.8485 1008.75C45.8485 1001.65 53.3285 1005.99 58.8485 1003.67C61.2285 1002.67 64.8485 1004.75 69.0385 1005.67C69.0385 1003.78 69.4685 1001.94 68.9485 1000.42C67.8701 997.262 66.5322 994.198 64.9485 991.261C62.2285 986.101 61.0885 981.491 66.7685 977.261C67.6111 976.508 68.2807 975.582 68.7312 974.547C69.1818 973.511 69.4026 972.39 69.3785 971.261C68.8585 965.411 71.7285 961.061 74.6085 956.561C79.7685 948.541 84.8885 940.411 89.5685 933.001ZM1211.18 40.6606C1197.74 47.0506 1194.94 45.5006 1191.93 31.1006C1191.31 28.7316 1190.58 26.3952 1189.73 24.1006C1188.85 32.0206 1183.11 36.0206 1178.48 40.5606C1174.04 44.9206 1172.4 44.3606 1167.69 39.9406C1162.02 34.6406 1162.88 27.9406 1162.69 21.3306C1162.5 14.7206 1162.18 14.7506 1154.77 16.5206C1154.34 28.9406 1151.57 30.8906 1138.88 28.5906C1136.56 28.1706 1133.01 28.7106 1131.61 30.2506C1127.71 34.5506 1124.07 36.4706 1118.75 32.8006C1117.95 32.2606 1116.16 32.8606 1114.95 33.2806C1108.06 35.6706 1098.86 49.5506 1100.68 56.4806C1102.37 62.9006 1099.94 65.7306 1094.76 68.1906C1090.09 70.4106 1085.68 73.1906 1080.63 75.9706C1084.85 82.2506 1088.21 87.6006 1084.07 93.5706C1089 98.3206 1093.13 102.831 1100.23 99.4306C1101.33 98.9106 1104.23 99.6806 1104.65 100.621C1108.43 108.621 1115.37 105.101 1121.11 105.831C1124.87 94.1106 1139.48 88.5906 1151.68 94.0606C1152.54 93.7406 1153.49 93.4606 1154.39 93.0606C1164.39 88.3206 1164.39 88.3106 1170.39 97.0606C1170.95 97.8906 1171.53 98.7106 1172.08 99.5406C1178.72 109.541 1178.08 113.481 1168.73 121.271C1167.73 122.061 1166.73 122.711 1165.85 123.271C1167.09 134.611 1165.77 138.051 1157.6 145.561C1153.6 149.231 1147.76 149.181 1141.97 145.561C1136.48 142.171 1139.22 138.321 1141.12 134.421C1141.35 133.951 1140.93 133.171 1140.56 131.201L1127 125.591C1125.37 130.651 1123.61 135.591 1118 135.411C1111.4 135.161 1108.67 140.181 1103.59 143.691C1115.59 144.841 1116.18 145.331 1118.92 156.531C1112.38 159.021 1105.47 161.161 1098.99 164.231C1090.5 168.231 1082.51 168.641 1074.5 163.391C1074.12 163.201 1073.69 163.138 1073.27 163.211C1070.01 165.101 1066.97 168.431 1064.47 168.061C1051.9 166.221 1038.73 166.811 1028.21 156.781C1023.08 151.881 1022.59 146.071 1021.05 140.491C1013.05 139.951 1005.65 136.931 998.509 141.991C997.509 142.731 994.149 141.261 992.559 139.991C990.969 138.721 990.189 136.331 988.969 134.291C987.679 135.071 986.559 135.381 986.069 136.121C979.379 146.121 968.429 150.781 958.399 155.341C951.789 158.341 947.659 161.041 944.979 167.721C942.979 172.631 936.729 174.261 931.369 171.821C927.429 170.021 924.219 170.661 921.049 172.561C911.949 178.001 902.459 179.251 892.359 175.991C891.109 175.581 889.659 175.751 888.429 175.291C884.429 173.811 881.279 174.641 878.919 178.241C876.009 182.671 872.079 182.431 867.449 181.391C858.659 179.391 851.369 176.511 853.059 165.321C853.076 164.984 853.042 164.647 852.959 164.321C851.469 157.091 848.679 155.131 841.059 155.951C834.589 156.651 828.119 157.331 820.559 158.131C819.849 159.291 818.469 161.541 817.109 163.801C814.209 168.601 811.979 173.621 805.709 175.631C793.349 179.631 781.299 184.521 768.979 188.631C765.509 189.614 761.878 189.896 758.299 189.461C745.299 188.261 740.159 177.061 732.979 168.701C730.479 165.781 732.549 162.611 736.979 161.751C742.079 160.751 747.259 160.291 753.359 159.471C752.358 157.39 751.236 155.37 749.999 153.421C746.399 148.521 744.839 148.421 740.699 152.581C739.994 153.29 739.348 154.056 738.769 154.871C734.979 160.311 730.329 163.291 723.449 160.661C722.239 160.156 720.897 160.061 719.629 160.391C715.219 162.041 710.629 162.171 706.869 166.741C702.709 171.821 695.999 174.811 690.309 178.741C698.109 187.031 698.309 187.541 694.029 195.531C691.369 200.531 685.839 204.151 687.029 210.881C680.159 216.341 674.449 223.751 664.629 224.261C662.139 229.711 659.969 235.371 652.959 236.701C651.959 236.901 650.959 238.371 650.289 239.431C640.079 254.551 633.709 257.431 617.189 252.251C602.709 247.671 589.729 250.251 577.189 257.731C566.729 263.931 566.719 263.901 559.339 253.601C558.703 252.985 557.998 252.445 557.239 251.991C549.009 255.591 541.669 250.541 533.879 248.191C529.879 247.001 528.879 243.921 529.609 240.301C531.119 232.901 532.899 225.561 534.469 218.601L516.839 211.001C508.839 213.481 501.089 216.051 493.239 218.161C491.559 218.611 489.349 217.611 487.519 216.911C484.082 215.679 480.74 214.198 477.519 212.481C471.049 208.801 464.939 208.941 458.719 213.541C457.989 217.121 458.429 219.891 461.719 222.931C469.489 230.021 467.269 238.571 457.289 242.491C455.149 243.341 451.859 243.941 451.229 245.491C448.859 251.421 443.629 253.191 438.839 254.741C436.919 262.541 441.399 273.271 428.669 272.741C426.879 276.681 425.959 280.371 423.779 283.031C421.379 285.981 417.829 288.031 414.269 290.821C422.059 293.931 428.949 293.901 436.269 293.091C444.546 292.173 452.562 289.635 459.859 285.621C464.759 282.971 469.129 283.111 473.969 285.871C480.259 289.461 487.769 291.631 487.969 300.821C493.489 304.451 492.969 309.621 489.869 313.821C487.089 317.621 482.869 320.481 478.869 323.191C477.149 324.371 474.469 324.131 474.139 324.191C469.789 330.431 467.399 336.921 462.779 339.731C456.659 343.451 448.779 344.271 442.219 346.181C442.219 351.481 442.089 356.611 442.279 361.721C442.276 363.679 442.753 365.609 443.669 367.341C446.619 372.171 444.749 375.341 440.869 378.451C432.789 384.881 424.269 390.921 417.039 398.221C411.219 404.101 407.039 411.571 402.149 418.391C401.849 418.811 402.149 419.681 402.149 420.391C402.639 426.391 399.149 430.391 395.029 433.961C385.269 442.541 375.409 450.961 363.029 455.771C359.349 457.181 355.929 459.261 352.299 461.081C352.169 462.671 352.039 463.971 351.979 465.271C351.629 472.991 351.649 473.091 343.809 474.271C340.279 474.811 337.349 475.741 336.439 479.711C335.939 481.911 335.249 484.061 334.589 486.411C335.899 487.591 337.189 488.631 338.329 489.821C342.879 494.531 343.169 496.391 338.699 500.521C334.829 504.091 330.759 508.161 325.999 509.901C317.639 512.961 312.249 517.951 308.119 525.841C303.989 533.731 297.239 538.921 287.409 539.001C283.889 539.001 280.249 540.301 276.919 541.651C268.279 545.151 259.869 549.231 251.189 552.651C247.109 554.251 242.619 554.831 239.579 555.571L217.849 574.571C220.629 579.571 222.769 584.091 225.479 588.231C233.679 600.801 230.169 614.031 227.109 626.791C225.009 635.561 220.519 643.791 217.109 652.231C219.519 654.231 220.929 655.641 222.569 656.711C227.479 659.911 228.329 663.711 226.629 669.511C224.409 677.111 219.819 684.171 213.879 686.701C203.599 691.061 197.419 698.841 190.149 706.201C180.989 715.491 169.149 720.901 157.269 725.961C150.558 728.901 144.69 733.473 140.199 739.261C133.963 747.068 127.257 754.489 120.119 761.481C109.299 771.851 97.8385 781.551 86.6785 791.571C84.0685 793.921 81.6185 796.431 78.2685 799.651C83.4785 804.521 88.1085 808.361 92.0985 812.791C93.8685 814.791 95.8485 818.561 95.0985 820.421C92.7885 825.981 91.5585 832.131 84.8085 835.541C80.5385 837.691 76.9985 842.901 74.9785 847.541C71.2685 856.061 69.1385 865.301 59.2085 871.011C68.2685 880.211 63.9485 888.641 59.5185 895.551C67.7385 902.091 75.0885 908.151 82.6985 913.871C85.5119 915.951 88.6283 917.587 91.9385 918.721C99.2985 921.281 103.309 930.451 99.3085 937.001C94.1085 945.531 88.4585 953.791 83.3085 962.351C81.6585 965.091 80.7985 968.351 79.8485 971.451C78.3685 976.271 77.1285 981.171 75.1585 988.301C76.1585 990.741 78.1085 995.711 80.4785 1000.45C82.6185 1004.74 81.9985 1008.06 78.2585 1010.97C75.8985 1012.82 73.8485 1015.24 71.2585 1016.53C69.1285 1017.58 65.7885 1018.43 63.9785 1017.53C57.0885 1013.94 51.6985 1014.95 46.6485 1020.74C45.6485 1021.95 42.5485 1022.9 41.3785 1022.25C36.1585 1019.34 33.3785 1023.13 29.9885 1025.6C26.5985 1028.07 23.1785 1030.9 19.5685 1033.24C14.8385 1036.33 14.5685 1038.01 18.8385 1042.08C25.5785 1048.56 25.8385 1052.32 20.2785 1059.8C18.6185 1062.02 17.0485 1064.3 15.0685 1067.07C21.7285 1068.07 26.9385 1068.93 32.1885 1069.54C34.0885 1069.76 37.1885 1070.08 37.8285 1069.1C43.1785 1061.01 51.5585 1063.75 58.8285 1062.95C61.2185 1062.68 64.6785 1063.34 66.1485 1064.95C72.2185 1071.63 78.3085 1070.27 84.8585 1066.16C87.1085 1064.75 89.4585 1063.47 91.8585 1062.25C96.8585 1059.68 100.929 1056.77 99.9685 1050.05C99.7285 1048.43 100.969 1045.99 102.259 1044.86C110.209 1038.1 116.889 1029.08 129.029 1029.39C130.839 1029.44 132.749 1028.12 134.489 1027.21C142.489 1023.09 146.819 1015.7 151.389 1008.08C148.972 1008 146.585 1008.63 144.519 1009.88C138.029 1013.71 136.769 1013.6 132.399 1007.33C128.479 1001.69 124.829 995.861 120.979 990.001C110.899 999.601 111.469 999.791 107.359 1012.61C104.359 1021.94 100.219 1031.31 88.0085 1033.44C88.0085 1028.28 88.0785 1023.65 88.0085 1019.02C87.8385 1010.55 89.0985 1002.61 94.3985 995.501C96.0227 993.019 96.73 990.048 96.3985 987.101C95.4785 979.831 98.2385 974.361 102.649 968.941C105.699 965.191 109.109 960.771 109.819 956.261C111.709 944.111 118.299 934.641 125.479 925.531C129.629 920.271 133.889 914.011 141.799 915.531C145.389 907.841 147.859 900.071 152.329 893.721C156.799 887.371 163.409 882.251 169.039 876.571C176.139 869.391 184.699 868.161 193.739 871.391C197.589 872.771 200.409 872.241 204.059 870.971C218.619 865.971 228.179 854.801 238.229 844.171C240.429 841.851 242.729 839.621 244.979 837.341C255.849 843.641 265.979 844.471 275.979 837.921C279.589 835.561 282.619 836.351 286.099 838.461C291.159 841.511 296.099 845.311 302.649 844.341C313.849 842.671 323.429 846.491 332.649 852.421C335.489 854.241 339.649 855.771 342.699 855.091C347.319 854.091 350.479 855.541 353.699 857.941C360.009 862.621 367.009 865.571 374.869 865.681C383.259 865.801 389.159 869.771 394.479 875.901C397.057 878.834 400.457 880.925 404.239 881.901C411.579 883.498 418.334 887.094 423.759 892.291C428.849 897.041 429.979 906.551 426.419 911.821C423.029 916.821 418.119 915.271 414.749 914.061C412.28 913.111 409.592 912.881 406.998 913.396C404.403 913.911 402.008 915.15 400.089 916.971C395.709 920.911 391.429 920.731 386.559 920.351C384.649 920.191 382.739 920.071 379.969 919.861C381.479 927.481 376.439 930.361 371.819 933.711C363.399 939.791 363.509 943.161 371.819 949.071C373.379 950.22 374.731 951.627 375.819 953.231C380.589 960.091 388.189 964.581 391.669 972.581C392.269 973.961 394.939 974.581 396.759 975.251C402.659 977.481 406.839 983.011 405.569 988.821C403.569 997.821 402.449 1007.38 393.689 1013.2C391.737 1014.5 390.022 1016.12 388.619 1017.99C383.129 1025.56 377.379 1033.08 381.619 1043.42C382.621 1045.56 382.928 1047.95 382.498 1050.27C382.067 1052.59 380.92 1054.72 379.219 1056.35C378.127 1057.61 377.124 1058.95 376.219 1060.35C373.029 1064.84 374.609 1069.45 376.619 1073.56C378.399 1077.18 382.209 1076.15 385.619 1075.76C387.849 1075.51 390.819 1075.06 392.299 1076.2C397.859 1080.48 404.299 1079.68 410.479 1080.2C420.759 1081.12 422.239 1083.26 418.479 1092.83C415.769 1099.69 413.219 1106.26 416.319 1113.89C417.149 1115.89 415.639 1119.5 414.179 1121.7C412.589 1124.12 409.919 1125.81 411.259 1129.38C422.259 1121.2 422.099 1121.24 418.369 1108.38C417.769 1106.38 418.809 1103.83 419.089 1101.54C419.926 1102.04 420.657 1102.69 421.239 1103.47C421.821 1104.25 422.242 1105.14 422.479 1106.08C424.309 1112.08 425.299 1118.77 433.969 1118.55C434.749 1118.55 435.819 1119.55 436.299 1120.29C439.299 1125.29 442.299 1130.39 445.249 1135.45C446.749 1138 447.639 1141.45 449.849 1142.93C455.349 1146.56 457.689 1151.7 458.569 1157.41C471.639 1163.77 475.939 1171.58 473.209 1183.41C475.989 1186.76 481.799 1188.28 480.829 1194.12C479.289 1203.34 484.039 1210.04 489.069 1216.82C496.119 1226.35 502.989 1236.02 510.329 1246.18C512.629 1244.42 515.529 1242.28 518.329 1240.04C526.919 1233.25 526.889 1233.26 535.219 1239.77C537.219 1241.33 539.349 1242.69 541.769 1244.39C543.299 1242.17 544.769 1240.7 545.449 1238.92C548.589 1230.73 554.749 1227.04 563.169 1227.03C570.169 1227.03 575.019 1223.85 578.519 1218.03C579.627 1216.36 580.871 1214.79 582.239 1213.33C587.369 1207.33 588.019 1207.05 594.769 1210.76C598.949 1213.05 602.689 1215.03 607.879 1213.27C610.019 1212.55 613.359 1214.27 615.749 1215.65C619.369 1217.65 622.639 1220.34 626.629 1223.14C629.099 1220.26 630.489 1217.75 632.629 1216.41C635.069 1214.88 638.299 1214.65 640.949 1213.36C642.997 1212.34 644.814 1210.9 646.289 1209.15C649.289 1205.55 651.999 1201.89 657.289 1201.24C658.799 1201.05 660.539 1199.18 661.389 1197.64C667.659 1186.22 675.129 1182.25 687.599 1183.88C689.129 1184.08 690.719 1183.73 693.249 1183.57C692.339 1174.57 694.799 1168.81 704.859 1167.32C713.149 1166.09 717.479 1169.11 720.099 1175.43C729.959 1175.43 739.269 1175.53 748.559 1175.43C752.459 1175.37 756.179 1175.64 757.679 1179.81C759.809 1185.7 764.109 1188.75 769.759 1190.67C774.089 1192.14 775.969 1195.16 775.119 1200.01C774.809 1201.79 776.039 1203.84 776.789 1206.59C777.864 1205.67 778.867 1204.67 779.789 1203.59C785.549 1195.2 785.939 1194.92 795.049 1198.14C797.769 1199.14 800.229 1200.97 802.609 1202.69C805.239 1204.58 807.609 1206.78 810.419 1209.09C819.199 1200.15 827.419 1209.36 835.499 1209.18C835.679 1205.29 835.499 1201.97 836.039 1198.77C836.949 1193.33 840.429 1188.63 839.039 1182.42C837.299 1174.93 847.259 1175.6 848.979 1170.12C849.169 1169.5 849.729 1169 849.979 1168.39C852.529 1161.63 857.619 1160.12 864.369 1160.53C872.599 1161.02 880.889 1160.65 888.539 1160.65C891.639 1156.72 896.269 1153.5 896.539 1149.95C897.109 1142.51 901.659 1138.17 906.749 1132.95C899.429 1123.87 902.529 1114.64 905.859 1105.4C906.071 1104.77 906.235 1104.12 906.349 1103.46C907.399 1097.81 910.849 1095.05 916.479 1094.09C924.309 1092.75 932.059 1090.89 940.649 1089.09C940.309 1079.3 946.599 1075.73 954.729 1073.91C957.729 1073.24 959.659 1071.05 958.629 1068.05C956.269 1061.22 959.719 1055.8 962.129 1051.11C960.069 1044.87 957.939 1039.64 956.649 1034.21C955.209 1028.14 953.489 1022.74 946.879 1020.3C945.209 1019.69 943.129 1017.76 942.879 1016.18C942.099 1010.96 938.499 1009.4 934.329 1007.65C927.629 1004.83 926.869 1002.8 929.689 996.031C930.922 993.342 932.614 990.889 934.689 988.781C939.469 983.671 944.779 979.041 949.389 973.781C953.999 968.521 958.339 967.191 965.079 970.191C972.469 973.481 985.079 968.441 986.779 961.411C989.299 951.121 995.509 945.541 1005.1 942.651C1005.95 942.401 1006.58 941.431 1007.2 940.901C1008.5 930.241 1008.5 930.241 1019.04 928.191C1025.78 926.891 1029.04 922.611 1029.14 914.631C1026.78 913.191 1023.74 912.091 1021.87 909.961C1020.43 908.331 1019.16 904.581 1020.04 903.201C1023.78 897.351 1025.82 889.341 1035.38 889.521C1037.6 889.521 1040.09 887.431 1042.06 885.811C1045.66 882.811 1048.76 879.261 1052.47 876.481C1054.72 874.791 1057.88 872.941 1060.37 873.241C1067.11 874.071 1072.78 871.681 1078.61 869.181C1090.61 864.031 1090.61 864.061 1099.79 873.671C1100.22 874.177 1100.69 874.658 1101.18 875.111C1105.8 878.961 1107.44 883.431 1104.75 889.241C1102.36 894.391 1103.18 899.481 1105.42 904.621C1106.73 907.621 1108.76 911.801 1107.63 914.021C1104.39 920.431 1106.09 926.111 1107.63 932.231C1108.13 934.231 1107.1 936.681 1106.71 938.911C1106.32 941.141 1105.12 943.531 1105.54 945.581C1106.96 952.581 1104.74 958.251 1099.96 962.831C1090.96 971.431 1090.48 980.071 1098.33 989.661C1101.63 993.661 1102.8 998.401 1099.11 1002.91C1100.75 1004.09 1102.32 1004.62 1102.82 1005.68C1106.75 1013.85 1114.54 1015.68 1122.19 1017.85C1124.75 1018.57 1127.49 1019.07 1129.75 1020.36C1132.01 1021.65 1135.1 1023.62 1135.23 1025.48C1136.14 1038.29 1150.23 1043.08 1152.67 1054.96C1152.99 1056.53 1156.37 1057.44 1158.29 1058.73C1160.74 1060.37 1164.29 1061.61 1165.29 1063.9C1166.36 1066.53 1165.06 1070.13 1164.79 1073.3L1170.95 1081.5C1173.13 1081.32 1175.53 1080.64 1177.7 1081.07C1180.43 1081.62 1184.12 1082.34 1185.38 1084.29C1190.22 1091.73 1197.89 1091.88 1205.24 1094.02C1208.5 1087.91 1211.33 1082.28 1214.49 1076.83C1215.77 1074.62 1217.37 1071.83 1219.49 1071.02C1226.29 1068.49 1232.88 1063.19 1240.78 1069.67C1244.23 1072.5 1247.86 1070.04 1248.3 1065.46C1248.59 1062.52 1248.36 1059.53 1248.36 1056L1261.36 1050.44C1268.44 1056.01 1275.36 1060.6 1274.02 1071.04C1258.52 1074.63 1243.67 1080.16 1234.22 1095.64C1238.07 1097.2 1241.22 1101.5 1246.22 1096.64C1249.22 1093.64 1252.33 1095.17 1255.15 1097.4C1260.37 1101.54 1265.7 1105.56 1270.8 1109.85C1275.74 1114.01 1278.59 1122.49 1275.39 1127.85C1270.7 1135.7 1265.39 1143.47 1258.84 1149.85C1254.23 1154.35 1251.34 1158.76 1250.26 1164.85C1264.18 1167.34 1264.17 1167.35 1275.26 1178.75C1276.3 1180.05 1277.52 1181.19 1278.89 1182.14C1280.83 1183.01 1282.83 1183.71 1284.89 1184.24C1287.89 1177.91 1285.83 1168.97 1297.57 1168.1C1295 1174 1292.95 1178.71 1291.76 1181.43C1292.63 1188.81 1293.5 1194.21 1293.82 1199.64C1294.07 1203.98 1293.75 1208.3 1299.18 1209.75L1312.04 1192.75C1312.33 1188.5 1312.73 1184.31 1312.88 1180.11C1313.01 1176.61 1313.32 1173.02 1312.72 1169.62C1311.61 1163.39 1315.87 1158.23 1321.55 1160.93C1330.3 1165.1 1333.97 1159.07 1339.76 1154.93C1331.53 1148.37 1333 1141.5 1336.95 1133.93C1339.76 1128.55 1343.19 1124.75 1349.37 1123.52C1352.93 1122.65 1356.41 1121.52 1359.81 1120.15C1366.52 1117.78 1369.39 1112.31 1367.55 1105.4C1367.07 1103.8 1366.51 1102.23 1365.87 1100.69C1360.6 1086.53 1358.87 1086.47 1375.1 1079.69C1381.2 1077.16 1385.1 1073.25 1388.63 1067.44C1393.3 1059.7 1398.85 1051.7 1409.78 1051.33C1413.84 1051.19 1415.52 1048.09 1415.41 1044.44C1415.18 1037 1417 1030.68 1423.66 1026.44C1424.47 1025.93 1425.66 1025.07 1425.66 1024.44C1425.55 1015.96 1431.75 1013.52 1438.27 1011.69C1439 1005.27 1438.53 998.901 1440.66 993.561C1442.79 988.221 1448.34 984.251 1450.92 978.971C1454.42 971.771 1456.52 963.901 1459.19 956.311C1459.28 956.051 1458.93 955.681 1458.93 955.361C1458.93 951.571 1458.93 947.781 1458.93 943.811C1452.04 938.921 1449.86 932.481 1451.68 923.461C1452.91 917.361 1451.48 910.661 1450.83 904.271C1450.7 902.941 1448.83 901.721 1447.63 900.591C1445.93 898.991 1444.02 897.591 1442.36 895.991C1435.62 889.421 1435.88 879.861 1443.65 874.991C1449.22 871.471 1450.98 867.651 1450.25 861.071C1449.25 851.701 1453.25 846.071 1462.25 842.961C1467.18 841.291 1472.55 840.901 1477.73 839.961C1482.2 839.141 1486.81 838.771 1491.11 837.401C1495.26 836.071 1497.54 837.711 1499.25 840.921C1501.6 845.331 1503.64 849.921 1505.94 854.331C1507.26 856.901 1508.84 859.331 1511.07 863.111C1513.4 859.401 1515.57 857.111 1516.34 854.481C1519.05 845.141 1527.14 842.251 1534.6 838.801C1540.37 836.141 1543.6 838.741 1543.45 844.871C1543.35 851.441 1543.76 858.021 1543.66 864.601C1543.66 866.821 1542.72 869.031 1542.21 871.241C1541.61 873.791 1540.63 876.321 1540.45 878.901C1539.71 889.901 1538.93 900.771 1543.28 911.431C1544.83 915.221 1544.53 919.771 1545.21 924.961C1555.3 926.961 1558.94 935.491 1562.03 944.521C1562.89 947.041 1563.62 949.731 1565.09 951.881C1569.27 958.021 1572.26 965.571 1581.44 966.301C1583.19 966.441 1584.74 968.411 1586.44 969.301C1588.44 970.361 1590.64 972.111 1592.64 971.971C1599.64 971.491 1605.51 973.841 1610.76 978.291C1614.66 976.071 1618.34 974.391 1621.54 972.061C1628.03 967.321 1633.98 966.171 1639.68 973.161C1640.13 973.711 1641.57 973.441 1643.24 973.621C1644.12 971.741 1646.4 968.941 1645.76 967.881C1641.96 961.501 1646.27 955.661 1646.56 949.671C1647.01 940.221 1656.03 935.951 1664.38 940.491C1667.85 942.381 1671.28 944.371 1674.93 946.421C1681.03 942.191 1686.58 937.911 1692.56 934.341C1695.83 932.391 1699.87 930.421 1703.47 930.581C1711.11 930.911 1716.79 927.761 1722.57 923.491C1730.08 917.941 1730.47 914.491 1739.82 924.191C1740.18 924.561 1741.04 924.431 1741.91 924.571C1743.71 923.401 1745.61 922.061 1747.61 920.881C1750.98 918.881 1754.51 919.041 1756.21 922.651C1759.4 929.471 1765.11 933.161 1771.21 936.651C1775.21 938.941 1776.71 942.071 1774.52 946.651C1772.83 950.191 1771.67 953.981 1770.1 958.141C1781.58 962.931 1775.44 971.411 1774.37 979.751C1780.45 982.601 1786.37 985.401 1792.37 988.181C1803.28 993.281 1806.37 1001.95 1801.43 1013.35C1800.67 1015.11 1800.71 1017.21 1800.37 1019.15C1808 1014.6 1815.26 1015.89 1822.48 1016.1C1825.18 1016.18 1828.75 1015.55 1830.48 1013.81C1834.89 1009.4 1838.55 1004.21 1842.34 999.221C1842.74 998.691 1842.25 997.221 1841.86 996.381C1838.61 989.161 1836.57 981.121 1828.95 976.781C1820.78 972.111 1817.71 964.511 1815.42 955.781C1812.85 945.961 1813.21 937.991 1823.42 932.731C1820.58 924.041 1825.09 920.181 1832.42 917.951C1836.8 916.631 1840.42 914.391 1837.95 909.511C1834.75 905.291 1831.55 901.071 1828.15 896.571C1824.39 897.801 1820.24 899.011 1816.2 900.571C1811.04 902.511 1807.04 902.411 1801.46 899.461C1796.62 896.901 1794.95 892.161 1791.05 890.061C1784.92 886.761 1784.95 882.811 1787.51 877.761C1789.97 872.911 1788.93 868.681 1787.37 863.601C1784.76 855.051 1784.37 845.811 1787.84 837.281C1789.39 833.491 1789.67 830.461 1787.99 826.931C1785.69 822.091 1787.54 819.191 1791.9 816.261C1795.84 813.611 1801.68 809.261 1801.53 805.951C1801.16 797.951 1805.32 794.531 1811.78 791.081C1811.78 787.561 1811.58 783.911 1811.78 780.281C1812.28 772.871 1814.24 771.151 1821.22 773.391C1823.57 774.193 1826.07 774.471 1828.53 774.205C1831 773.939 1833.38 773.135 1835.51 771.851C1838.72 770.091 1842.23 768.851 1845.4 767.071C1852 763.301 1858.61 760.921 1865.66 766.321C1867.94 763.841 1869.61 761.771 1871.54 759.971C1876.34 755.491 1878.99 755.821 1882.61 761.451C1884.4 764.241 1885.61 767.391 1887.47 770.171C1890.56 774.881 1890.76 779.271 1887.41 784.041C1885.62 786.591 1884.68 789.741 1882.72 794.041C1898.28 791.731 1903.4 801.101 1906.6 811.961C1910.33 811.351 1913.76 809.671 1916.01 810.661C1920.46 812.661 1921.77 808.011 1924.77 807.751C1927.06 807.612 1929.35 807.915 1931.53 808.641C1935.02 809.741 1938.29 811.531 1941.8 812.521C1943.8 813.101 1946.73 813.571 1948.27 812.581C1954.36 808.651 1958.84 810.721 1963.21 815.311C1964.52 816.505 1965.94 817.563 1967.46 818.471C1972.78 817.471 1974.62 814.331 1975.39 810.031C1977.39 798.931 1979.56 787.851 1981.59 777.101C1973.52 767.721 1965.15 761.221 1951.99 764.921C1945.72 766.681 1943.99 764.851 1941.99 758.381C1940.4 753.301 1939.87 747.751 1937.53 743.061C1932.18 732.311 1936.12 723.831 1942.92 715.811C1944.79 713.611 1947.33 711.981 1949.48 710.161C1939.98 698.651 1939.98 698.651 1951.16 690.381C1951.97 689.781 1952.79 689.211 1953.59 688.611C1962.08 682.271 1962.46 680.111 1956.59 671.611C1951.07 663.611 1952.15 658.211 1960.29 652.611C1962.15 651.341 1964.98 650.061 1965.38 648.321C1968.07 636.741 1974.29 625.541 1971.57 613.321C1969.57 604.451 1971.63 597.011 1975.94 589.591C1979.34 583.741 1981.68 577.591 1979.86 570.591C1974.78 565.697 1968.32 562.476 1961.35 561.361C1957.77 560.811 1953.29 559.621 1953.99 554.841C1955.43 544.981 1948.86 540.701 1943.37 536.411L1927.17 541.491C1925.6 545.561 1924.27 550.071 1922.17 554.181C1919.97 558.451 1917.02 562.331 1913.88 567.181C1913.95 568.136 1914.08 569.087 1914.25 570.031C1916.11 579.211 1915.05 581.371 1906.25 583.421C1903.18 584.141 1899.69 583.751 1896.51 583.181C1892.38 582.431 1888.38 580.991 1884.58 579.921C1878.8 590.701 1879.42 590.681 1879.86 602.981C1880.35 616.981 1878.76 621.581 1864.94 619.341C1860.55 618.621 1857.11 620.211 1854.36 623.521C1850.42 628.271 1845.24 629.761 1839.26 629.811C1833.28 629.861 1827.33 629.531 1822.26 634.041C1819.26 636.751 1815.54 635.761 1813.82 632.281C1810.08 624.711 1804.62 620.611 1795.93 620.741C1792.2 620.741 1790.24 618.471 1789.64 614.411C1788.18 604.411 1780.64 597.601 1770.98 596.091C1768.27 595.681 1764.63 594.511 1763.42 592.491C1760.52 587.651 1756.51 588.221 1752.14 588.241C1748.21 588.241 1743.91 588.581 1740.43 587.151C1732.75 583.936 1725.3 580.187 1718.15 575.931C1716.96 575.158 1715.95 574.149 1715.18 572.966C1714.41 571.784 1713.88 570.454 1713.65 569.061C1712.65 557.131 1710.02 544.781 1718.88 534.271C1719.22 533.871 1719.01 533.011 1719.06 532.161L1708.86 521.251C1703.09 526.591 1697.29 526.531 1691.69 520.651C1681.91 510.351 1669.46 506.651 1655.69 506.581C1648.26 506.581 1642.33 503.481 1636.8 498.761C1629.73 492.761 1624.47 492.891 1616.12 497.761C1613.85 499.071 1609.76 500.281 1608.12 499.161C1601.59 494.681 1595.73 496.441 1589.3 499.011C1578.21 503.451 1578.13 503.241 1570.21 494.071C1569.6 493.551 1568.92 493.105 1568.21 492.741C1564.36 493.741 1560.11 494.661 1556.1 496.181C1554.1 496.941 1552.49 498.861 1550.71 500.241C1547.64 502.621 1544.56 502.241 1541.48 500.241C1540.08 499.362 1538.9 498.174 1538.04 496.768C1537.17 495.362 1536.65 493.776 1536.49 492.133C1536.34 490.489 1536.56 488.833 1537.15 487.291C1537.74 485.749 1538.68 484.363 1539.89 483.241C1542.72 480.412 1545.8 477.845 1549.09 475.571C1555.58 471.361 1556.86 465.831 1555.89 458.401C1554.11 444.661 1549.09 432.011 1544.19 419.301C1542.23 414.703 1542.14 409.526 1543.93 404.861C1549.83 388.581 1554.48 371.801 1561.2 355.861C1565.21 346.375 1570.91 337.69 1578 330.221C1584.41 323.541 1589.74 317.121 1592 308.031C1595.1 295.731 1602.35 287.371 1615.81 286.091C1620.38 285.661 1623.18 283.561 1623.69 278.321C1610.85 268.631 1611.39 254.951 1613.45 240.541C1608.54 238.821 1603.73 236.371 1598.66 235.541C1593.43 234.731 1590.31 232.161 1587.66 228.031C1584.11 222.531 1580.25 217.221 1576.08 211.181C1568.74 222.101 1558.08 217.181 1549.21 219.181C1548.29 219.391 1546.91 218.051 1545.91 217.231C1539.61 212.021 1533.36 206.751 1526.17 200.741C1527.17 194.991 1522.58 190.641 1517.8 186.391C1512.63 181.791 1507.43 177.211 1501.94 172.391V160.631C1500.19 159.109 1498.36 157.684 1496.46 156.361C1468.46 139.021 1444.09 114.931 1409.46 110.161C1404.21 105.031 1396.92 105.161 1390.71 102.541C1379.34 97.8506 1367.71 95.5406 1355.65 93.9106C1345.87 92.6006 1337.65 94.0106 1329.39 99.4406C1318.61 106.754 1306.46 111.818 1293.68 114.331C1284.56 116.041 1277.59 111.821 1275.02 103.061C1274.38 100.532 1273.09 98.2188 1271.26 96.3606C1267.14 92.7206 1263.37 89.7406 1265.51 83.0306C1266.3 80.5506 1263.71 77.0306 1262.73 74.1106H1252.37C1255.98 78.1106 1258.37 81.2906 1253.81 85.5706C1252.01 87.2506 1250.98 89.9806 1250.11 92.4106C1248.36 97.2506 1245.05 98.2506 1240.61 96.7406C1238.73 96.1106 1237 95.0206 1235.16 94.2606C1226.91 90.8806 1219.71 83.4506 1209.49 87.5106C1209.24 87.6006 1208.84 87.4106 1208.49 87.2806C1202.41 84.6106 1196.92 85.8706 1191.49 89.3806C1188.8 91.1206 1185.22 91.3806 1183.57 88.1606C1182.25 85.2957 1181.67 82.1477 1181.87 79.0006C1181.93 77.5206 1184.22 76.1306 1185.51 74.7006C1183.89 71.0606 1182.81 67.1606 1184.15 64.4606C1186.01 60.7206 1189.96 62.8306 1193.15 63.8006C1197.4 65.1106 1200.93 63.8006 1204.05 60.8006C1202.08 52.9006 1207.8 47.7606 1211.18 40.6606ZM1582.8 490.271L1594.95 485.781C1597.73 480.781 1595.87 474.461 1602.47 471.841C1608.7 469.371 1608.31 468.841 1604.47 462.531C1603.2 460.431 1601.47 457.051 1602.32 455.531C1607.01 446.681 1603.96 440.631 1596.57 435.411C1595.33 434.531 1594.75 432.661 1593.97 431.191C1591.63 426.831 1588.59 424.191 1583.11 423.821C1577.63 423.451 1576.36 420.821 1577.92 415.541C1579.23 411.091 1581.32 406.881 1582.92 402.491C1585.11 396.371 1584.27 394.281 1578.71 391.171C1569.84 386.171 1569.85 386.171 1574.52 377.061C1575.11 375.911 1575.52 374.681 1576.3 372.931L1568.73 364.931C1564.02 378.641 1559.96 391.211 1555.34 403.561C1553.23 409.211 1553.09 414.211 1555.45 419.841C1561.25 433.302 1565.03 447.545 1566.68 462.111C1567.4 469.051 1565.68 474.471 1560.68 479.111C1559.28 480.391 1558.04 481.841 1555.38 484.641C1561.79 483.421 1566.56 481.211 1570.67 482.091C1574.78 482.971 1578 486.851 1582.8 490.271ZM1310.32 1256.52C1314.69 1258.21 1317.9 1259.52 1321.19 1260.66C1322.63 1261.16 1324.37 1261.76 1325.73 1261.4C1331.91 1259.74 1335.86 1262.09 1338.73 1267.5C1339.2 1268.25 1339.83 1268.9 1340.56 1269.4C1341.3 1269.91 1342.13 1270.25 1343 1270.42C1343.83 1270.55 1345.5 1268.42 1346 1267.1C1348 1261.1 1349.82 1255.1 1351.52 1248.96C1352.87 1244.12 1354.21 1240.04 1359.52 1237.23C1366 1233.79 1365.81 1225.23 1359.95 1220.49C1355.81 1217.18 1351.57 1214.1 1345.69 1214.05C1344.43 1213.96 1343.21 1213.6 1342.11 1213C1341 1212.4 1340.04 1211.57 1339.28 1210.57C1337.22 1207.33 1336.16 1203.4 1334.98 1199.67C1333.98 1196.5 1337.65 1191.39 1332.49 1190.28C1329.61 1189.66 1326.02 1192.19 1322.8 1193.42C1322.14 1193.74 1321.54 1194.17 1321.01 1194.67C1317.55 1201.79 1322.67 1205.83 1325.4 1210.56C1327.98 1215.03 1329.73 1219.27 1323.96 1223.33C1319.37 1217.66 1322.66 1206.63 1311.25 1206.13L1303.31 1213.45C1305.38 1221.11 1306.91 1227.11 1308.65 1233.05C1309.72 1236.71 1309.24 1240.89 1313.35 1243.53C1316.84 1245.76 1316.27 1249.12 1313.76 1252.15C1312.49 1253.64 1311.35 1255.2 1310.32 1256.52ZM1140 103.251C1138.13 106.801 1135.63 111.561 1133.87 114.921L1155.48 131.201C1156.66 122.451 1148.18 112.941 1156.62 105.811L1140 103.251ZM1369.76 82.1806L1354.5 73.0006C1355.37 82.0706 1355.39 82.0906 1369.78 82.1806H1369.76ZM1249.22 69.6506C1244.54 63.6506 1244.54 63.6506 1240.83 67.5206L1249.22 69.6506Z" fill="#BBBBBB"/>
<path d="M305.307 666.49L300.867 653.65C313.037 644.39 324.717 635.06 336.867 626.39C346.406 619.727 354.333 611.014 360.067 600.89C365.757 590.89 372.317 580.94 384.607 577.28C386.526 576.707 388.151 575.418 389.147 573.68C391.347 568.75 394.897 566.09 399.857 564.13C401.857 563.35 403.627 559.56 403.727 557.07C404.077 548.27 407.927 542.87 416.587 540.79C418.817 540.26 420.817 538.86 422.967 537.98C433.127 533.82 443.287 529.69 450.227 521.74L471.817 527.06L472.597 525.49C475.517 528.97 478.437 532.49 481.727 536.35L475.267 539.74C477.267 546.59 473.077 551.07 468.067 554.96C462.797 559.04 457.427 562.96 451.927 566.73C444.437 571.83 437.757 577.6 432.667 585.27C430.8 587.982 428.163 590.072 425.097 591.27C419.097 593.41 415.017 597.27 411.677 602.42C403.817 614.53 390.877 620.82 380.177 629.7C376.177 633.02 372.957 637.27 369.177 640.92C365.177 644.82 361.177 648.92 356.697 652.12C354.997 653.34 351.697 652.89 349.247 652.41C343.675 651.297 337.89 652.06 332.797 654.58C324.127 658.66 315.217 662.25 305.307 666.49Z" fill="#BBBBBB"/>
<path d="M1086.26 478.15C1087.98 490.91 1080.95 499.77 1072.03 509.64C1076.18 509.22 1078.29 509.17 1080.34 508.78C1092.52 506.47 1101.82 510.78 1107.2 521.98C1108.42 524.5 1108.03 527.8 1108.54 532.08C1107.78 531.6 1108.54 532.5 1109.34 532.52C1115.77 532.73 1122.51 531.63 1128.58 533.18C1135.42 534.93 1140.79 533.47 1146.66 530.58C1156.74 525.58 1162.92 528.83 1165.24 540.08C1167.3 550.08 1170.41 560.14 1166.05 570.49C1165.33 572.2 1166.56 574.85 1167.18 576.98C1168.44 581.23 1169.9 585.41 1171.08 588.98L1159.81 598.89C1158.87 596.68 1157.09 594.6 1157.37 592.89C1158.72 584.43 1157.37 577.03 1150.65 572.14C1152.04 560.06 1159.23 550.14 1156.79 537.02C1153.87 537.587 1150.98 538.321 1148.14 539.22C1138.82 542.79 1129.5 546.39 1120.32 550.32C1118.38 551.252 1116.27 551.778 1114.13 551.866C1111.98 551.954 1109.84 551.601 1107.83 550.83C1100.66 548.19 1093.25 546.19 1086 543.74C1083.32 542.83 1079.81 542.38 1080.61 536.88L1096.61 530.88C1096.48 530.2 1096.35 529.52 1096.21 528.88L1060.6 526.57C1054.67 532.37 1049.76 537.16 1044.87 541.98C1044.42 542.43 1043.82 543.07 1043.87 543.6C1044.16 553.43 1034.87 554.05 1029.44 558.07C1027.5 559.51 1023.61 558.3 1020.61 558.3C1020.5 557.63 1020.39 556.95 1020.29 556.3L1038.39 544.2C1036.65 542.56 1034.18 540.54 1034.33 540.32C1038.65 534.01 1028.55 527.44 1034.54 520.38L1041.4 526.71C1047.54 522.82 1047.4 522.65 1044.35 510.83C1042.75 504.56 1040.45 499.01 1033.35 495.06C1040.1 492.92 1044.11 493.63 1047.05 498.85C1048.62 501.62 1050.89 504 1053.58 507.52C1056.95 504.35 1059.46 501.85 1062.11 499.52C1067.77 494.52 1071.85 487.8 1079.71 485.19C1082.34 484.21 1084.07 480.58 1086.26 478.15Z" fill="#BBBBBB"/>
<path d="M1253.82 376.721C1254 379.101 1254.19 381.671 1254.4 384.511C1260.18 386.941 1265.3 391.631 1271.83 386.351C1272.41 386.046 1273.06 385.886 1273.72 385.886C1274.38 385.886 1275.03 386.046 1275.61 386.351C1281.66 390.221 1287.25 387.751 1292.61 385.101C1298.75 382.101 1304.66 382.821 1312.1 385.231C1309.59 387.801 1307.97 390.771 1305.61 391.611C1298.98 393.961 1293 397.901 1284.86 395.981C1277.66 394.281 1270.77 397.571 1267.19 405.741C1261.11 403.661 1255.12 402.441 1249.98 399.661C1243.42 396.121 1236.6 395.531 1229.79 396.551C1223.61 397.481 1216.79 392.451 1211.3 400.201C1204.03 392.201 1197.55 385.201 1191.19 378.011C1186.3 372.511 1181.4 368.161 1173.29 366.741C1163.76 365.071 1155.77 359.741 1151.51 349.741C1146.32 337.501 1140.04 325.741 1134.22 313.741C1130.92 306.951 1130.33 300.141 1133.86 291.691C1139.72 301.351 1145.94 308.761 1149.04 318.881C1153.88 334.611 1162.66 348.101 1178.58 355.771C1190.58 361.531 1201.92 368.551 1213.73 374.701C1223.38 379.701 1233.73 379.111 1243.49 375.651C1247.54 374.211 1250.33 374.191 1253.82 376.721Z" fill="#BBBBBB"/>
<path d="M737.748 689.121C742.868 693.521 747.008 696.821 750.848 700.441C756.948 706.201 763.448 711.301 771.848 713.071C777.938 714.351 780.308 719.271 782.848 723.781C785.848 729.141 789.848 731.351 795.788 730.321C796.438 730.211 797.148 730.401 797.788 730.241C808.688 727.441 816.278 732.421 823.468 741.661C820.768 742.951 817.728 745.591 816.238 744.901C810.778 742.371 806.308 744.841 801.928 746.791C795.638 749.601 790.008 749.721 784.148 745.791C780.588 743.391 776.558 741.701 772.768 739.631C771.318 738.841 768.928 738.061 768.768 736.971C767.448 729.161 760.088 728.791 755.278 725.221C750.278 721.521 745.798 717.121 741.218 712.891C738.978 710.821 737.008 708.451 734.098 705.341C735.068 700.851 736.318 695.401 737.748 689.121Z" fill="#BBBBBB"/>
<path d="M562.087 442.131C562.197 444.301 562.797 446.041 562.227 446.601C553.607 455.131 550.877 466.751 546.227 477.271C540.697 489.731 526.067 500.871 512.957 503.681C511.717 503.951 509.467 504.181 509.207 503.681C505.687 496.681 495.567 501.941 492.437 494.531C492.317 494.261 492.437 493.881 492.547 492.941C495.097 491.541 498.077 490.181 500.747 488.361C503.687 486.361 506.367 483.991 509.127 481.741C511.427 479.871 513.447 477.491 516.007 476.101C531.607 467.621 545.327 456.681 558.167 444.531C558.997 443.691 560.207 443.241 562.087 442.131Z" fill="#BBBBBB"/>
<path d="M1100.9 450.34C1101.62 447.06 1102.32 443.86 1103.13 440.12L1099.13 437.71C1098.32 430.92 1097.56 424.62 1096.64 416.9L1103.19 411.76L1122.4 419.67C1120.4 426.72 1118.5 433.96 1116.33 441.13C1114.71 446.49 1114.8 451.3 1118.33 456.13C1121.32 460.111 1123.82 464.435 1125.79 469.01C1128.43 475.37 1130.51 482.08 1123.9 488.78L1100.62 468.59L1109.44 456.59L1100.9 450.34Z" fill="#BBBBBB"/>
<path d="M846.758 723.67C855.308 716.77 862.968 710.6 870.618 704.41C875.778 700.25 881.158 696.31 886.028 691.83C895.798 682.83 906.218 681.15 918.378 688.51C918.168 690.58 917.918 693.01 917.868 693.51C910.398 697.2 904.038 699.75 898.318 703.31C889.028 709.09 879.688 714.96 871.248 721.87C863.858 727.92 856.788 728.74 846.758 723.67Z" fill="#BBBBBB"/>
<path d="M1378.23 441.641C1382.57 440.641 1387.23 438.251 1391.23 439.001C1414.73 443.391 1438.3 446.561 1462.23 446.261C1463.51 446.373 1464.77 446.625 1466 447.011C1466.62 451.701 1465.23 454.581 1460.29 454.261C1451.65 453.691 1443.17 454.111 1434.76 456.541C1432.43 457.211 1429.57 456.341 1427.03 455.831C1414.03 453.231 1401.03 450.631 1388.12 447.751C1384.71 446.991 1381.52 445.211 1378.23 443.901V441.641Z" fill="#BBBBBB"/>
<path d="M509.797 555.691L518.887 563.861C508.737 572.211 499.287 580.461 489.297 587.981C484.227 591.801 480.297 589.701 475.297 581.811C482.567 568.241 494.407 560.471 509.797 555.691Z" fill="#BBBBBB"/>
<path d="M952.319 416C961.759 423.07 970.629 430.15 978.109 438.78C981.749 442.98 982.419 447.61 977.189 451.47C956.109 440.56 948.209 429.81 952.319 416Z" fill="#BBBBBB"/>
<path d="M986.507 324.611C995.277 337.761 1000.63 351.731 996.807 367.921C988.187 354.831 983.157 340.801 986.507 324.611Z" fill="#BBBBBB"/>
<path d="M1253.48 473.811C1250.15 470.811 1246.88 467.761 1243.59 464.761C1240.98 462.391 1237.68 460.671 1239.33 455.851C1239.83 454.381 1237.57 451.851 1236.33 449.921C1233.81 446.041 1231.13 442.261 1228.77 438.801C1230.4 430.801 1235.53 431.071 1241.09 432.201C1243.09 441.471 1244.85 450.701 1247.32 459.731C1248.1 462.611 1250.64 465.171 1252.81 467.451C1254.98 469.731 1256.6 471.361 1253.48 473.811Z" fill="#BBBBBB"/>
<path d="M1002.77 598.34C1005.34 613.77 993.429 617.66 987.669 626.34L979.809 622.19C982.999 609.79 994.119 606.88 1002.77 598.34Z" fill="#BBBBBB"/>
<path d="M1186.93 288.41C1193.02 292.62 1198.04 297.27 1199.69 305.12C1200.42 308.58 1203.75 311.5 1206.39 315.39L1202.82 320.68C1201.67 320.12 1200.82 320 1200.54 319.54C1195.19 311.54 1189.98 303.54 1184.54 295.65C1182.08 292 1182.52 289.63 1186.93 288.41Z" fill="#BBBBBB"/>
<path d="M1176.82 461.831C1170.67 462.971 1172.26 455.971 1168.82 454.551C1165.17 453.071 1161.42 451.801 1157.98 450.551C1157.37 447.101 1156.82 444.031 1156.19 440.441C1163.59 441.441 1171.13 441.341 1175.6 449.391C1177.91 453.601 1180.2 457.301 1176.82 461.831Z" fill="#BBBBBB"/>
<path d="M132.918 773.061C138.708 757.581 153.358 752.751 165.138 742.691C165.948 748.041 164.378 750.961 161.298 753.141C151.868 759.831 142.378 766.431 132.918 773.061Z" fill="#BBBBBB"/>
<path d="M1015.81 413.06C1009.89 406.37 1003.95 399.75 1004.19 389.68C1014.87 391.29 1019.29 399.77 1015.81 413.06Z" fill="#BBBBBB"/>
<path d="M1296.55 484.311C1296.28 475.961 1299.45 467.981 1291.71 462.421C1299.05 460.041 1300.03 460.371 1302.71 465.641C1306.13 472.121 1304.57 477.791 1296.55 484.311Z" fill="#BBBBBB"/>
<path d="M1663 890.77C1662.41 893.18 1662.59 896.84 1661.08 897.77C1656.16 900.85 1653.74 909.77 1644.41 904.84L1661.28 889.84L1663 890.77Z" fill="#BBBBBB"/>
<path d="M1170.31 508.81C1164.64 514.59 1160.31 509.88 1155.76 506.96C1153.05 505.21 1150.97 503.25 1153.76 500.26C1157.02 501.67 1159.96 503.48 1163.13 504.17C1166.3 504.86 1169.92 504 1170.31 508.81Z" fill="#BBBBBB"/>
<path d="M1337.24 506.13C1328.69 512.37 1322.24 519.23 1310.73 511.66C1316.22 510.98 1320.23 510.81 1324.08 509.92C1327.93 509.03 1330.49 504.13 1337.24 506.13Z" fill="#BBBBBB"/>
<path d="M1239.22 294.191C1240.68 299.331 1241.88 303.571 1243.01 307.581C1239.01 310.281 1236.62 309.951 1235.44 306.131C1234.15 302.001 1231.46 297.361 1239.22 294.191Z" fill="#BBBBBB"/>
<a href="https://www.google.com/maps/place/HEIG-VD/@46.7812738,6.6454588,17.33z/data=!4m8!1m2!2m1!1sheig-vd+st-roch!3m4!1s0x478dcf8f1bcdc8fd:0x52d7df3a0d79792e!8m2!3d46.7810577!4d6.6471789">
<path d="M297.41 593.43C290.316 593.43 283.512 596.248 278.495 601.265C273.478 606.281 270.66 613.085 270.66 620.18C270.66 634.95 297.41 668.33 297.41 668.33C297.41 668.33 324.16 634.95 324.16 620.18C324.16 613.085 321.342 606.281 316.325 601.265C311.309 596.248 304.505 593.43 297.41 593.43ZM298.08 634.89C281.29 634.37 281.29 609.99 298.08 609.48C314.88 610 314.88 634.38 298.08 634.89V634.89Z" fill="#E2051C" stroke="transparent" stroke-width="80"/></a>
</svg>
