<svg xmlns="http://www.w3.org/2000/svg" viewBox="0 0 325.23 325.23">
<defs>
    <style>.cls-1{fill:#e2051c;}.cls-2{fill:#fff;}</style>
</defs>
<title>Logo Comem+</title>
<g id="Calque_2" data-name="Calque 2">
    <g id="Calque_1-2" data-name="Calque 1">
        <circle class="cls-1" cx="162.61" cy="162.61" r="162.61"/>
        <path class="cls-2" d="M52.5,172.74c-10.26,0-11.52-9.07-11.52-17.6,0-13.24,4.77-17.28,11.32-17.28,9.2,0,9.93,9.27,9.93,10.06h9c0-1.25-1.19-17.34-18.85-17.34-13.17,0-20.32,9.4-20.32,24.89,0,14.62,4.77,24.55,20.45,24.55,18.2,0,19.19-16.28,19.25-18H62.82C62.69,163.08,62.36,172.74,52.5,172.74Z"/>
        <path class="cls-2" d="M98,130.58c-11.65,0-21.17,7.88-21.17,24.69C76.79,173.66,86.31,180,98,180s21.24-7.08,21.24-24.75C119.2,138.46,110.27,130.58,98,130.58Zm0,42.16c-6.81,0-12.24-4-12.24-17.47,0-12.77,5.29-17.41,12.24-17.41s12.31,4.64,12.31,17.41C110.27,168.7,105,172.74,98,172.74Z"/>
        <path class="cls-2" d="M153.75,148.19c-2.52,5.56-4.83,11.18-4.83,11.18s-2.25-5.56-4.77-11.18l-7.34-16.41h-9.27v47.11H136V158.31c0-7.15-.27-11.78-.27-11.78s1.86,4.63,3.77,9L146.27,171h5.1l6.94-15.42c1.92-4.3,3.78-9,3.78-9s-.2,4.9-.2,11.85v20.51h8.4V131.78h-9.2Z"/>
        <polygon class="cls-2" points="189.82 158.44 209.14 158.44 209.14 151.16 189.82 151.16 189.82 139.06 211.26 139.06 211.26 131.78 181.08 131.78 181.08 178.89 211.59 178.89 211.59 171.61 189.82 171.61 189.82 158.44"/>
        <path class="cls-2" d="M281.73,131.78V120.46h-7v11.32H254l-7.34,16.41c-2.51,5.56-4.83,11.18-4.83,11.18s-2.25-5.56-4.77-11.18l-7.34-16.41h-9.26v47.11h8.4V158.31c0-7.15-.27-11.78-.27-11.78s1.86,4.63,3.78,9L239.18,171h5.1l6.95-15.42c1.91-4.3,3.77-9,3.77-9s-.2,4.9-.2,11.85v20.51h8.4V138.33h11.51v11.58h7V138.33h11.44v-6.55Z"/>
    </g>
</g>
</svg>
