<?xml version="1.0" encoding="UTF-8"?>
<!-- Generator: Adobe Illustrator 21.1.0, SVG Export Plug-In . SVG Version: 6.00 Build 0)  -->
<svg version="1.1" id="Calque_1" xmlns="http://www.w3.org/2000/svg" xmlns:xlink="http://www.w3.org/1999/xlink" x="0px" y="0px" viewBox="0 0 24.9 24.9" style="enable-background:new 0 0 24.9 24.9;" xml:space="preserve">
  <style type="text/css">
	.st0{fill:#E2051C;}
</style>
  <title>instagram</title>
  <path class="st0" d="M12.5,2.2c3.3,0,3.7,0,5,0.1c1.2,0.1,1.9,0.3,2.3,0.4c0.6,0.2,1,0.5,1.4,0.9c0.4,0.4,0.7,0.9,0.9,1.4  c0.2,0.4,0.4,1.1,0.4,2.3c0.1,1.3,0.1,1.7,0.1,5s0,3.7-0.1,5c-0.1,1.2-0.3,1.9-0.4,2.3c-0.2,0.6-0.5,1-0.9,1.4  c-0.4,0.4-0.9,0.7-1.4,0.9c-0.4,0.2-1.1,0.4-2.3,0.4c-1.3,0.1-1.7,0.1-5,0.1s-3.7,0-5-0.1c-1.2-0.1-1.9-0.3-2.3-0.4  c-0.6-0.2-1-0.5-1.4-0.9c-0.4-0.4-0.7-0.9-0.9-1.4c-0.2-0.4-0.4-1.1-0.4-2.3c-0.1-1.3-0.1-1.7-0.1-5s0-3.7,0.1-5  c0.1-1.2,0.3-1.9,0.4-2.3c0.2-0.6,0.5-1,0.9-1.4C4.1,3.2,4.5,3,5.1,2.7c0.4-0.2,1.1-0.4,2.3-0.4C8.7,2.3,9.1,2.2,12.5,2.2L12.5,2.2z   M12.5,0C9.1,0,8.7,0,7.3,0.1C6,0.1,5.1,0.3,4.3,0.7C3.5,1,2.8,1.4,2.1,2.1C1.4,2.8,1,3.5,0.7,4.3C0.3,5.1,0.1,6,0.1,7.3  C0,8.7,0,9.1,0,12.5s0,3.8,0.1,5.1c0.1,1.3,0.3,2.2,0.6,3c0.3,0.8,0.7,1.5,1.4,2.2c0.7,0.7,1.4,1.1,2.2,1.4c0.8,0.3,1.7,0.5,3,0.6  c1.3,0.1,1.8,0.1,5.1,0.1s3.8,0,5.1-0.1c1.3-0.1,2.2-0.3,3-0.6c0.8-0.3,1.5-0.7,2.2-1.4c0.7-0.7,1.1-1.4,1.4-2.2  c0.3-0.8,0.5-1.7,0.6-3c0.1-1.3,0.1-1.8,0.1-5.1s0-3.8-0.1-5.1c-0.1-1.3-0.3-2.2-0.6-3c-0.3-0.8-0.7-1.5-1.4-2.2  c-0.7-0.7-1.4-1.1-2.2-1.4c-0.8-0.3-1.7-0.5-3-0.6C16.3,0,15.8,0,12.5,0L12.5,0L12.5,0z"/>
  <path class="st0" d="M12.5,6.1c-3.5,0-6.4,2.9-6.4,6.4s2.9,6.4,6.4,6.4s6.4-2.9,6.4-6.4C18.9,8.9,16,6.1,12.5,6.1z M12.5,16.6  c-2.3,0-4.2-1.9-4.2-4.2s1.9-4.2,4.2-4.2s4.2,1.9,4.2,4.2S14.7,16.6,12.5,16.6z"/>
  <path class="st0" d="M20.6,5.8c0,0.8-0.7,1.5-1.5,1.5s-1.5-0.7-1.5-1.5s0.7-1.5,1.5-1.5S20.6,5,20.6,5.8z"/>
</svg>
