<svg xmlns="http://www.w3.org/2000/svg" xmlns:xlink="http://www.w3.org/1999/xlink" version="1.1" x="0px" y="0px" viewBox="0 0 100 125" enable-background="new 0 0 100 100" xml:space="preserve"><g><g><path d="M95.51,72.55c0,0.36-0.03,0.72-0.1,1.06c-0.05,0.23-0.1,0.47-0.17,0.7c-0.07,0.23-0.16,0.45-0.25,0.67    c-0.05,0.11-0.1,0.22-0.16,0.33c-0.04,0.09-0.09,0.18-0.14,0.26c-0.06,0.11-0.13,0.22-0.21,0.33c-0.21,0.32-0.46,0.62-0.73,0.89    L80.83,89.71c-1.17,1.17-2.7,1.76-4.24,1.76c-1.53,0-3.07-0.59-4.24-1.76c-2.35-2.34-2.35-6.14,0-8.49l2.67-2.67h-8.27    c-7.48,0-14.45-4.02-18.19-10.5l-3.58-6.21l-3.59,6.21c-3.74,6.48-10.71,10.5-18.19,10.5H9.51c-3.31,0-6-2.69-6-6    c0-3.31,2.69-6,6-6H23.2c3.21,0,6.2-1.73,7.8-4.5l7.05-12.21L31,37.63c-1.6-2.78-4.59-4.5-7.8-4.5H9.51c-3.31,0-6-2.69-6-6    c0-3.32,2.69-6,6-6H23.2c7.48,0,14.45,4.02,18.19,10.5l3.59,6.21l3.58-6.21c3.74-6.48,10.71-10.5,18.19-10.5h8.28l-2.68-2.68    c-2.35-2.34-2.35-6.14,0-8.48c2.34-2.35,6.14-2.35,8.48,0l12.92,12.91c0.16,0.17,0.31,0.34,0.45,0.52    c0.14,0.16,0.26,0.34,0.37,0.52c0.09,0.14,0.17,0.28,0.25,0.42c0.09,0.17,0.17,0.35,0.24,0.53c0.15,0.36,0.26,0.73,0.33,1.11    c0.04,0.18,0.07,0.38,0.09,0.57c0.02,0.31,0.03,0.62,0.01,0.93c0,0.12-0.01,0.24-0.03,0.35c-0.01,0.12-0.03,0.23-0.05,0.34    c-0.02,0.12-0.04,0.23-0.07,0.34c-0.02,0.1-0.05,0.19-0.08,0.29c-0.04,0.17-0.1,0.33-0.16,0.49c-0.07,0.18-0.15,0.36-0.24,0.54    c-0.01,0.02-0.02,0.04-0.03,0.06c-0.04,0.09-0.09,0.18-0.14,0.26c-0.06,0.11-0.13,0.22-0.21,0.33c-0.21,0.32-0.46,0.62-0.73,0.89    L80.83,44.29c-1.17,1.17-2.7,1.75-4.24,1.75c-1.53,0-3.07-0.58-4.24-1.75c-2.35-2.35-2.35-6.15,0-8.49l2.67-2.67h-8.27    c-3.21,0-6.19,1.72-7.79,4.5l-7.05,12.21l7.05,12.21c1.6,2.78,4.58,4.5,7.79,4.5h8.28l-2.68-2.68c-2.35-2.34-2.35-6.14,0-8.48    c2.34-2.35,6.14-2.35,8.48,0l12.92,12.92c0.27,0.27,0.52,0.57,0.73,0.89c0.08,0.11,0.15,0.22,0.21,0.33    c0.05,0.08,0.1,0.17,0.14,0.26c0.06,0.11,0.11,0.22,0.16,0.33c0.09,0.22,0.18,0.44,0.25,0.67s0.12,0.47,0.17,0.7    C95.48,71.83,95.51,72.19,95.51,72.55z"/></g></g><g><path d="M95.51,27.13c0,0.08-0.01,0.15-0.01,0.23c0,0.01,0,0.01,0,0.02c0,0.03,0,0.07-0.01,0.1c0.02-0.31,0.01-0.62-0.01-0.93   C95.5,26.74,95.51,26.94,95.51,27.13z"/></g><text x="0" y="115" fill="#000000" font-size="5px" font-weight="bold" font-family="'Helvetica Neue', Helvetica, Arial-Unicode, Arial, Sans-serif">Created by Garrett Knoll</text><text x="0" y="120" fill="#000000" font-size="5px" font-weight="bold" font-family="'Helvetica Neue', Helvetica, Arial-Unicode, Arial, Sans-serif">from the Noun Project</text></svg>