<svg xmlns="http://www.w3.org/2000/svg" xmlns:xlink="http://www.w3.org/1999/xlink" version="1.1" x="0px" y="0px" viewBox="0 0 100 125" enable-background="new 0 0 100 100" xml:space="preserve"><g><path d="M50,5.09c-25.36,0-46,18.39-46,41c0,7.09,2.02,13.97,5.88,20.09L4.2,87.36C3.6,89.61,4.35,92,6.13,93.5   c1.11,0.93,2.48,1.41,3.87,1.41c0.85,0,1.71-0.18,2.51-0.55l21.35-9.86c5.15,1.72,10.57,2.59,16.14,2.59c25.36,0,46-18.39,46-41   S75.36,5.09,50,5.09z M50,75.09c-4.96,0-9.74-0.89-14.21-2.65c-1.52-0.6-3.23-0.56-4.71,0.13L19.11,78.1l3.07-11.48   c0.44-1.63,0.17-3.38-0.75-4.8c-0.1-0.15-0.2-0.29-0.3-0.43C17.77,56.8,16,51.51,16,46.09c0-15.99,15.25-29,34-29s34,13.01,34,29   S68.75,75.09,50,75.09z"/></g><g><g><path fill="#000000" d="M51,37.21c-1.58,0-3.13-0.641-4.24-1.75C45.64,34.34,45,32.8,45,31.21c0-1.58,0.64-3.12,1.76-4.24    c1.11-1.12,2.66-1.76,4.24-1.76s3.13,0.64,4.24,1.76c1.119,1.12,1.76,2.67,1.76,4.24c0,1.58-0.641,3.13-1.76,4.25    C54.13,36.569,52.58,37.21,51,37.21z"/></g><g><path d="M57,47.46v13.5c0,3.32-2.69,6-6,6s-6-2.68-6-6v-7.5c-3.31,0-6-2.68-6-6c0-3.31,2.69-6,6-6h6    C54.31,41.46,57,44.15,57,47.46z"/></g></g><text x="0" y="115" fill="#000000" font-size="5px" font-weight="bold" font-family="'Helvetica Neue', Helvetica, Arial-Unicode, Arial, Sans-serif">Created by Garrett Knoll</text><text x="0" y="120" fill="#000000" font-size="5px" font-weight="bold" font-family="'Helvetica Neue', Helvetica, Arial-Unicode, Arial, Sans-serif">from the Noun Project</text></svg>