<svg xmlns="http://www.w3.org/2000/svg" xmlns:xlink="http://www.w3.org/1999/xlink" version="1.1" x="0px" y="0px" viewBox="0 0 100 125" fill="#fff" enable-background="new 0 0 100 100" xml:space="preserve"><g>
<g>
    <path d="M94.24,19.41L80.59,5.76C79.47,4.63,77.94,4,76.35,4c-1.59,0-3.12,0.63-4.24,1.76L59.89,17.98    c-0.03,0.02-0.05,0.05-0.07,0.07c-0.03,0.03-0.05,0.05-0.07,0.07L42.02,35.85c-0.86,0.85-1.44,1.95-1.66,3.14l-3.13,16.78    c-0.36,1.95,0.26,3.94,1.66,5.34c1.13,1.14,2.66,1.76,4.24,1.76c0.36,0,0.73-0.03,1.1-0.1l16.78-3.13    c1.19-0.22,2.29-0.8,3.14-1.66l17.73-17.73c0.02-0.02,0.04-0.04,0.07-0.07c0.05-0.05,0.11-0.1,0.16-0.15    c0.03-0.03,0.06-0.06,0.08-0.09L94.24,27.9c1.13-1.13,1.76-2.66,1.76-4.25C96,22.06,95.37,20.54,94.24,19.41z M56.98,48.18    l-6.35,1.19l1.19-6.35l12.39-12.4l5.17,5.17L56.98,48.18z M77.87,27.3l-5.17-5.17l3.65-3.64l5.16,5.16L77.87,27.3z"/></g>
<g>
    <path d="M60.06,17.81l-0.17,0.17c0.02-0.03,0.05-0.06,0.08-0.09C60,17.86,60.03,17.83,60.06,17.81z"/></g>
</g>
<g>
    <path d="M72.617,96H10c-3.313,0-6-2.687-6-6V27.383c0-3.313,2.687-6,6-6h21.177c3.313,0,6,2.687,6,6s-2.687,6-6,6H16V84h50.617   V68.823c0-3.313,2.687-6,6-6s6,2.687,6,6V90C78.617,93.313,75.93,96,72.617,96z"/>
</g>
</svg>