<?xml version="1.0" encoding="UTF-8" standalone="no"?>
<!DOCTYPE svg PUBLIC "-//W3C//DTD SVG 1.1//EN" "http://www.w3.org/Graphics/SVG/1.1/DTD/svg11.dtd">
<svg viewBox="0 0 1126 1035" version="1.1" xmlns="http://www.w3.org/2000/svg" xmlns:xlink="http://www.w3.org/1999/xlink" xml:space="preserve" xmlns:serif="http://www.serif.com/" style="fill-rule:evenodd;clip-rule:evenodd;">
    <g id="Calque-1" serif:id="Calque 1">
        <g>
            <text x="201.504px" y="78.192px" style="font-family:'Inter-Regular', 'Inter', sans-serif;font-size:39.607px;">Pr<tspan x="240.717px " y="78.192px ">o</tspan>grammer</text>
            <text x="212.871px" y="117.799px" style="font-family:'Inter-Regular', 'Inter', sans-serif;font-size:39.607px;">pour le w<tspan x="384.577px " y="117.799px ">e</tspan>b</text>
        </g>
        <g>
            <text x="624.539px" y="34.201px" style="font-family:'Inter-Regular', 'Inter', sans-serif;font-size:39.607px;">Compr<tspan x="749.605px " y="34.201px ">e</tspan>ndr<tspan x="834.502px " y="34.201px ">e</tspan> le mark<tspan x="1004.46px " y="34.201px ">e</tspan>ting</text>
            <text x="624.539px" y="73.809px" style="font-family:'Inter-Regular', 'Inter', sans-serif;font-size:39.607px;">et la communication</text>
            <text x="624.539px" y="113.416px" style="font-family:'Inter-Regular', 'Inter', sans-serif;font-size:39.607px;">digitale</text>
        </g>
        <g>
            <text x="852.478px" y="402.429px" style="font-family:'Inter-Regular', 'Inter', sans-serif;font-size:39.607px;">Cr<tspan x="895.348px " y="402.429px ">é</tspan>er des</text>
            <text x="852.478px" y="442.036px" style="font-family:'Inter-Regular', 'Inter', sans-serif;font-size:39.607px;">cont<tspan x="935.574px " y="442.036px ">e</tspan>nus</text>
            <text x="852.478px" y="481.643px" style="font-family:'Inter-Regular', 'Inter', sans-serif;font-size:39.607px;">Gér<tspan x="919.034px " y="481.643px ">e</tspan>r des</text>
            <text x="852.478px" y="521.25px" style="font-family:'Inter-Regular', 'Inter', sans-serif;font-size:39.607px;">campagnes</text>
        </g>
        <g>
            <text x="808.745px" y="253.499px" style="font-family:'Inter-Bold', 'Inter';font-weight:700;font-size:46.345px;fill:rgb(239,41,33);">Mark<tspan x="922.88px " y="253.499px ">e</tspan>ting</text>
            <text x="723.033px" y="299.844px" style="font-family:'Inter-Bold', 'Inter';font-weight:700;font-size:46.345px;fill:rgb(239,41,33);">&amp; Communication</text>
        </g>
        <g>
            <text x="33.131px" y="252.499px" style="font-family:'Inter-Bold', 'Inter';font-weight:700;font-size:46.345px;fill:rgb(239,41,33);">Inf<tspan x="91.934px " y="252.499px ">o</tspan>rmatique</text>
            <text x="41.895px" y="298.844px" style="font-family:'Inter-Bold', 'Inter';font-weight:700;font-size:46.345px;fill:rgb(239,41,33);">&amp; Int<tspan x="143.439px 171.138px 191.348px 208.299px " y="298.844px 298.844px 298.844px 298.844px ">erfa</tspan>ces</text>
        </g>
        <g>
            <text x="483.805px" y="726.1px" style="font-family:'Inter-Bold', 'Inter';font-weight:700;font-size:46.345px;fill:rgb(239,41,33);">Gestion</text>
            <text x="471.388px" y="772.445px" style="font-family:'Inter-Bold', 'Inter';font-weight:700;font-size:46.345px;fill:rgb(239,41,33);">de pr<tspan x="586.346px " y="772.445px ">o</tspan>jet</text>
        </g>
        <g>
            <text x="712.209px" y="665.868px" style="font-family:'Inter-Regular', 'Inter', sans-serif;font-size:39.607px;">Imaginer et élabor<tspan x="1050.78px " y="665.868px ">e</tspan>r</text>
            <text x="712.209px" y="705.476px" style="font-family:'Inter-Regular', 'Inter', sans-serif;font-size:39.607px;">un business model</text>
        </g>
        <g>
            <text x="39.878px" y="665.868px" style="font-family:'Inter-Regular', 'Inter', sans-serif;font-size:39.607px;">Structur<tspan x="190.881px " y="665.868px ">e</tspan>r et planifier</text>
            <text x="0px" y="705.476px" style="font-family:'Inter-Regular', 'Inter', sans-serif;font-size:39.607px;">des pr<tspan x="117.696px " y="705.476px ">o</tspan>jet<tspan x="187.796px " y="705.476px ">s</tspan> numériques</text>
        </g>
        <g>
            <text x="3.974px" y="402.416px" style="font-family:'Inter-Regular', 'Inter', sans-serif;font-size:39.607px;">Conce<tspan x="124.089px 145.355px " y="402.416px 402.416px ">vo</tspan>ir des</text>
            <text x="1.32px" y="442.023px" style="font-family:'Inter-Regular', 'Inter', sans-serif;font-size:39.607px;">int<tspan x="48.072px 71.139px 87.229px 100.9px " y="442.023px 442.023px 442.023px 442.023px ">erfa</tspan>ces</text>
            <text x="1.32px" y="481.631px" style="font-family:'Inter-Regular', 'Inter', sans-serif;font-size:39.607px;">(UX</text>
        </g>
        <g>
            <text x="36.142px" y="982.37px" style="font-family:'Inter-Medium', 'Inter';font-weight:500;font-size:39.61px;fill:rgb(239,41,33);">Dur<tspan x="103.293px " y="982.37px ">a</tspan>nt t<tspan x="189.222px " y="982.37px ">o</tspan>ut<tspan x="251.127px " y="982.37px ">e</tspan> la f<tspan x="341.544px " y="982.37px ">o</tspan>rmation,<tspan x="521.209px " y="982.37px "> </tspan>dé<tspan x="579.105px 600.781px " y="982.37px 982.37px ">ve</tspan>loppe des</text>
            <text x="37.517px" y="1021.98px" style="font-family:'Inter-Bold', 'Inter';font-weight:700;font-size:39.61px;fill:rgb(239,41,33);">compét<tspan x="185.098px " y="1021.98px ">e</tspan>nces r<tspan x="326.954px " y="1021.98px ">e</tspan>lationnelles</text>
            <text x="585.755px" y="1021.98px" style="font-family:'Inter-Medium', 'Inter';font-weight:500;font-size:39.61px;fill:rgb(239,41,33);">et une</text>
            <text x="715.205px" y="1021.98px" style="font-family:'Inter-Bold', 'Inter';font-weight:700;font-size:39.61px;fill:rgb(239,41,33);">cultur<tspan x="829.07px " y="1021.98px ">e</tspan> digitale</text>
        </g>
        <g transform="matrix(1,0,0,1,643.693,514.999)">
            <path d="M0,-257.267L-148.533,-257.267L-222.8,-128.634L-148.533,0L0,0L74.267,-128.634L0,-257.267Z" style="fill:rgb(255,215,213);fill-rule:nonzero;"/>
        </g>
        <g transform="matrix(1,0,0,1,348.198,387.304)">
            <path d="M0,0L73.109,0" style="fill:none;fill-rule:nonzero;stroke:rgb(255,43,6);stroke-width:2.58px;"/>
        </g>
        <g transform="matrix(0,1,1,0,354.008,387.304)">
            <path d="M-5.81,-5.81L5.81,-5.81" style="fill:none;fill-rule:nonzero;stroke:rgb(255,43,6);stroke-width:2.58px;"/>
        </g>
        <g transform="matrix(1,0,0,1,422.599,387.304)">
            <path d="M0,0L73.109,0" style="fill:none;fill-rule:nonzero;stroke:rgb(255,43,6);stroke-width:2.58px;"/>
        </g>
        <g transform="matrix(0,1,1,0,428.408,387.304)">
            <path d="M-5.81,-5.81L5.81,-5.81" style="fill:none;fill-rule:nonzero;stroke:rgb(255,43,6);stroke-width:2.58px;"/>
        </g>
        <g transform="matrix(1,0,0,1,497,387.304)">
            <path d="M0,0L73.108,0" style="fill:none;fill-rule:nonzero;stroke:rgb(255,43,6);stroke-width:2.58px;"/>
        </g>
        <g transform="matrix(0,1,1,0,502.81,387.304)">
            <path d="M-5.81,-5.81L5.81,-5.81" style="fill:none;fill-rule:nonzero;stroke:rgb(255,43,6);stroke-width:2.58px;"/>
        </g>
        <g transform="matrix(-0.500017,-0.866016,-0.866016,0.500017,681.226,516.382)">
            <path d="M-54.833,31.657L18.277,31.657" style="fill:none;fill-rule:nonzero;stroke:rgb(255,43,6);stroke-width:2.58px;"/>
        </g>
        <g transform="matrix(0.866021,-0.500008,-0.500008,-0.866021,678.323,584.728)">
            <path d="M-0.778,2.905L10.841,2.905" style="fill:none;fill-rule:nonzero;stroke:rgb(255,43,6);stroke-width:2.58px;"/>
        </g>
        <g transform="matrix(-0.500011,-0.866019,-0.866019,0.500011,644.026,451.948)">
            <path d="M-54.833,31.658L18.277,31.658" style="fill:none;fill-rule:nonzero;stroke:rgb(255,43,6);stroke-width:2.58px;"/>
        </g>
        <g transform="matrix(0.866021,-0.500008,-0.500008,-0.866021,641.123,520.295)">
            <path d="M-0.778,2.905L10.841,2.905" style="fill:none;fill-rule:nonzero;stroke:rgb(255,43,6);stroke-width:2.58px;"/>
        </g>
        <g transform="matrix(-0.500011,-0.866019,-0.866019,0.500011,606.826,387.516)">
            <path d="M-54.833,31.658L18.277,31.658" style="fill:none;fill-rule:nonzero;stroke:rgb(255,43,6);stroke-width:2.58px;"/>
        </g>
        <g transform="matrix(0.866021,-0.500008,-0.500008,-0.866021,603.923,455.862)">
            <path d="M-0.778,2.905L10.841,2.905" style="fill:none;fill-rule:nonzero;stroke:rgb(255,43,6);stroke-width:2.58px;"/>
        </g>
        <g transform="matrix(-1,0,0,1,718.91,387.305)">
            <path d="M-73.109,0L0,0" style="fill:none;fill-rule:nonzero;stroke:rgb(255,43,6);stroke-width:2.58px;"/>
        </g>
        <g transform="matrix(0,-1,-1,0,797.829,387.305)">
            <path d="M-5.81,5.81L5.81,5.81" style="fill:none;fill-rule:nonzero;stroke:rgb(255,43,6);stroke-width:2.58px;"/>
        </g>
        <g transform="matrix(-1,0,0,1,644.51,387.305)">
            <path d="M-73.109,0L0,0" style="fill:none;fill-rule:nonzero;stroke:rgb(255,43,6);stroke-width:2.58px;"/>
        </g>
        <g transform="matrix(0,-1,-1,0,723.429,387.305)">
            <path d="M-5.81,5.81L5.81,5.81" style="fill:none;fill-rule:nonzero;stroke:rgb(255,43,6);stroke-width:2.58px;"/>
        </g>
        <g transform="matrix(-1,0,0,1,570.11,387.305)">
            <path d="M-73.109,0L0,0" style="fill:none;fill-rule:nonzero;stroke:rgb(255,43,6);stroke-width:2.58px;"/>
        </g>
        <g transform="matrix(0,-1,-1,0,649.028,387.305)">
            <path d="M-5.81,5.81L5.81,5.81" style="fill:none;fill-rule:nonzero;stroke:rgb(255,43,6);stroke-width:2.58px;"/>
        </g>
        <g transform="matrix(0.500027,-0.86601,-0.86601,-0.500027,495.433,579.698)">
            <path d="M-18.277,31.657L54.834,31.657" style="fill:none;fill-rule:nonzero;stroke:rgb(255,43,6);stroke-width:2.58px;"/>
        </g>
        <g transform="matrix(0.866021,0.500008,0.500008,-0.866021,455.974,574.665)">
            <path d="M-0.778,-2.905L10.841,-2.905" style="fill:none;fill-rule:nonzero;stroke:rgb(255,43,6);stroke-width:2.58px;"/>
        </g>
        <g transform="matrix(0.500021,-0.866013,-0.866013,-0.500021,532.634,515.265)">
            <path d="M-18.277,31.658L54.834,31.657" style="fill:none;fill-rule:nonzero;stroke:rgb(255,43,6);stroke-width:2.58px;"/>
        </g>
        <g transform="matrix(0.866021,0.500008,0.500008,-0.866021,493.175,510.232)">
            <path d="M-0.778,-2.905L10.841,-2.905" style="fill:none;fill-rule:nonzero;stroke:rgb(255,43,6);stroke-width:2.58px;"/>
        </g>
        <g transform="matrix(0.500021,-0.866013,-0.866013,-0.500021,569.834,450.833)">
            <path d="M-18.277,31.658L54.834,31.657" style="fill:none;fill-rule:nonzero;stroke:rgb(255,43,6);stroke-width:2.58px;"/>
        </g>
        <g transform="matrix(0.866021,0.500008,0.500008,-0.866021,530.375,445.8)">
            <path d="M-0.778,-2.905L10.841,-2.905" style="fill:none;fill-rule:nonzero;stroke:rgb(255,43,6);stroke-width:2.58px;"/>
        </g>
        <g transform="matrix(0.500027,0.86601,0.86601,-0.500027,495.433,195.099)">
            <path d="M-18.277,-31.657L54.834,-31.657" style="fill:none;fill-rule:nonzero;stroke:rgb(255,43,6);stroke-width:2.58px;"/>
        </g>
        <g transform="matrix(-0.866021,0.500008,0.500008,0.866021,455.974,200.132)">
            <path d="M-10.841,-2.905L0.778,-2.905" style="fill:none;fill-rule:nonzero;stroke:rgb(255,43,6);stroke-width:2.58px;"/>
        </g>
        <g transform="matrix(0.500021,0.866013,0.866013,-0.500021,532.634,259.532)">
            <path d="M-18.277,-31.658L54.834,-31.657" style="fill:none;fill-rule:nonzero;stroke:rgb(255,43,6);stroke-width:2.58px;"/>
        </g>
        <g transform="matrix(-0.866021,0.500008,0.500008,0.866021,493.174,264.565)">
            <path d="M-10.841,-2.905L0.778,-2.905" style="fill:none;fill-rule:nonzero;stroke:rgb(255,43,6);stroke-width:2.58px;"/>
        </g>
        <g transform="matrix(0.500021,0.866013,0.866013,-0.500021,569.834,323.965)">
            <path d="M-18.277,-31.658L54.834,-31.657" style="fill:none;fill-rule:nonzero;stroke:rgb(255,43,6);stroke-width:2.58px;"/>
        </g>
        <g transform="matrix(-0.866021,0.500008,0.500008,0.866021,530.374,328.998)">
            <path d="M-10.841,-2.905L0.778,-2.905" style="fill:none;fill-rule:nonzero;stroke:rgb(255,43,6);stroke-width:2.58px;"/>
        </g>
        <g transform="matrix(-0.500021,0.866013,0.866013,0.500021,680.622,259.253)">
            <path d="M-54.834,-31.658L18.277,-31.658" style="fill:none;fill-rule:nonzero;stroke:rgb(255,43,6);stroke-width:2.58px;"/>
        </g>
        <g transform="matrix(-0.866021,-0.500008,-0.500008,0.866021,677.719,190.906)">
            <path d="M-10.841,2.905L0.778,2.905" style="fill:none;fill-rule:nonzero;stroke:rgb(255,43,6);stroke-width:2.58px;"/>
        </g>
        <g transform="matrix(-0.500011,0.866019,0.866019,0.500011,643.423,323.685)">
            <path d="M-54.833,-31.658L18.277,-31.658" style="fill:none;fill-rule:nonzero;stroke:rgb(255,43,6);stroke-width:2.58px;"/>
        </g>
        <g transform="matrix(-0.866021,-0.500008,-0.500008,0.866021,640.519,255.338)">
            <path d="M-10.841,2.905L0.778,2.905" style="fill:none;fill-rule:nonzero;stroke:rgb(255,43,6);stroke-width:2.58px;"/>
        </g>
        <g transform="matrix(-0.500027,0.86601,0.86601,0.500027,606.221,388.119)">
            <path d="M-54.834,-31.657L18.277,-31.657" style="fill:none;fill-rule:nonzero;stroke:rgb(255,43,6);stroke-width:2.58px;"/>
        </g>
        <g transform="matrix(-0.866021,-0.500008,-0.500008,0.866021,603.319,319.771)">
            <path d="M-10.841,2.905L0.778,2.905" style="fill:none;fill-rule:nonzero;stroke:rgb(255,43,6);stroke-width:2.58px;"/>
        </g>
    </g>
</svg>
