<svg viewBox="0 0 1128 1005" xmlns="http://www.w3.org/2000/svg" fill-rule="evenodd" clip-rule="evenodd"><path fill="none" d="M0 0h1127.98v1004.12H0z"/><g font-family="'Inter-Medium','Inter'" font-weight="500" font-size="39.607"><text x="264.895" y="221.857" transform="translate(-62 -147)">P<tspan x="289.815px 303.85px 327.308px 351.357px 365.983px 388.133px 422.73px 457.328px 480.196px" y="221.857px 221.857px 221.857px 221.857px 221.857px 221.857px 221.857px 221.857px 221.857px">rogrammer</tspan></text><text x="277.45" y="261.465" transform="translate(-62 -147)">p<tspan x="301.499px 324.957px 348.106px 362.928px 373.368px 382.832px 405.699px 416.14px 447.756px 470.623px" y="261.465px 261.465px 261.465px 261.465px 261.465px 261.465px 261.465px 261.465px 261.465px 261.465px">our le web</tspan></text></g><g font-family="'Inter-Medium','Inter'" font-weight="500" font-size="39.607"><text x="688.611" y="177.854" transform="translate(-62 -147)">C<tspan x="717.344px 740.802px 775.4px 799.449px 813.483px 836.351px 859.612px 883.999px 898.033px 920.901px 931.341px 940.805px 963.672px 974.112px 1008.71px 1030.86px 1045.68px 1066.43px 1089.29px 1103.62px 1113.09px 1136.35px" y="177.854px 177.854px 177.854px 177.854px 177.854px 177.854px 177.854px 177.854px 177.854px 177.854px 177.854px 177.854px 177.854px 177.854px 177.854px 177.854px 177.854px 177.854px 177.854px 177.854px 177.854px 177.854px">omprendre le marketing</tspan></text><text x="688.611" y="217.461" transform="translate(-62 -147)">e<tspan x="711.479px 725.809px 736.249px 745.713px 767.863px 778.303px 800.397px 823.855px 858.453px 893.051px 916.199px 939.461px 948.924px 971.018px 993.168px 1007.5px 1016.96px 1040.42px" y="217.461px 217.461px 217.461px 217.461px 217.461px 217.461px 217.461px 217.461px 217.461px 217.461px 217.461px 217.461px 217.461px 217.461px 217.461px 217.461px 217.461px 217.461px">t la communication</tspan></text><text x="688.611" y="257.068" transform="translate(-62 -147)">d<tspan x="712.998px 722.461px 746.51px 755.974px 770.304px 792.454px 801.917px" y="257.068px 257.068px 257.068px 257.068px 257.068px 257.068px 257.068px">igitale</tspan></text></g><g font-family="'Inter-Medium','Inter'" font-weight="500" font-size="39.607"><text x="916.55" y="546.081" transform="translate(-62 -147)">C<tspan x="945.481px 959.713px 982.779px 1005.84px 1020.87px 1031.79px 1056.37px 1079.44px" y="546.081px 546.081px 546.081px 546.081px 546.081px 546.081px 546.081px 546.081px">réer des</tspan></text><text x="916.55" y="585.688" transform="translate(-62 -147)">c<tspan x="938.644px 962.102px 985.364px 999.468px 1022.34px 1045.6px 1068.75px" y="585.688px 585.688px 585.688px 585.688px 585.688px 585.688px 585.688px">ontenus</tspan></text><text x="916.55" y="625.295" transform="translate(-62 -147)">G<tspan x="946.015px 969.081px 983.313px 1006.38px 1021.4px 1032.32px 1056.9px 1079.97px" y="625.295px 625.295px 625.295px 625.295px 625.295px 625.295px 625.295px 625.295px">érer des</tspan></text><text x="916.55" y="664.902" transform="translate(-62 -147)">c<tspan x="938.446px 960.398px 994.798px 1018.65px 1040.6px 1064.45px 1087.52px 1110.18px" y="664.902px 664.902px 664.902px 664.902px 664.902px 664.902px 664.902px 664.902px">ampagnes</tspan></text></g><g font-family="'Inter-Bold','Inter'" font-weight="700" font-size="46.345" fill="#ef2921"><text x="877.715" y="397.165" transform="translate(-62 -147)">M<tspan x="919.184px 945.149px 963.165px 988.142px 1014.91px 1031.99px 1043.67px 1071.56px" y="397.165px 397.165px 397.165px 397.165px 397.165px 397.165px 397.165px 397.165px">arketing</tspan></text><text x="794.488" y="443.51" transform="translate(-62 -147)">&amp;<tspan x="824.567px 837.99px 871.689px 898.97px 940.075px 981.179px 1008.84px 1036.5px 1047.94px 1074.01px 1099.74px 1116.59px 1128.04px 1155.32px" y="443.51px 443.51px 443.51px 443.51px 443.51px 443.51px 443.51px 443.51px 443.51px 443.51px 443.51px 443.51px 443.51px 443.51px"> Communication</tspan></text></g><g font-family="'Inter-Bold','Inter'" font-weight="700" font-size="46.345" fill="#ef2921"><text x="103.371" y="396.145" transform="translate(-62 -147)">I<tspan x="115.214px 142.873px 158.699px 185.979px 203.764px 244.869px 270.602px 287.448px 298.896px 327.049px 354.708px" y="396.145px 396.145px 396.145px 396.145px 396.145px 396.145px 396.145px 396.145px 396.145px 396.145px 396.145px">nformatique</tspan></text><text x="107.827" y="442.491" transform="translate(-62 -147)">&amp;<tspan x="138.369px 151.938px 164.245px 192.367px 209.414px 236.417px 255.932px 272.188px 298.385px 324.911px 351.914px" y="442.491px 442.491px 442.491px 442.491px 442.491px 442.491px 442.491px 442.491px 442.491px 442.491px 442.491px"> Interfaces</tspan></text></g><g font-family="'Inter-Bold','Inter'" font-weight="700" font-size="46.345" fill="#ef2921"><text x="550.268" y="869.746" transform="translate(-62 -147)">G<tspan x="584.362px 610.902px 635.779px 652.625px 664.074px 691.354px" y="869.746px 869.746px 869.746px 869.746px 869.746px 869.746px">estion</tspan></text><text x="538.108" y="916.091" transform="translate(-62 -147)">d<tspan x="566.624px 593.395px 603.215px 631.6px 648.431px 675.943px 687.623px 714.394px" y="916.091px 916.091px 916.091px 916.091px 916.091px 916.091px 916.091px 916.091px">e projet</tspan></text></g><g font-family="'Inter-Medium','Inter'" font-weight="500" font-size="39.607"><text x="776.304" y="809.534" transform="translate(-62 -147)">I<tspan x="786.583px 821.181px 843.331px 867.38px 876.843px 900.105px 922.972px 937.794px 948.347px 971.214px 985.544px 996.096px 1018.96px 1028.43px 1050.58px 1074.96px 1098.42px 1112.46px 1135.32px" y="809.534px 809.534px 809.534px 809.534px 809.534px 809.534px 809.534px 809.534px 809.534px 809.534px 809.534px 809.534px 809.534px 809.534px 809.534px 809.534px 809.534px 809.534px 809.534px">maginer et élaborer</tspan></text><text x="776.304" y="849.141" transform="translate(-62 -147)">u<tspan x="799.254px 822.318px 832.663px 856.851px 879.802px 900.432px 909.698px 932.761px 955.43px 976.06px 996.69px 1007.04px 1041.43px 1064.69px 1088.88px 1111.55px" y="849.141px 849.141px 849.141px 849.141px 849.141px 849.141px 849.141px 849.141px 849.141px 849.141px 849.141px 849.141px 849.141px 849.141px 849.141px 849.141px">n business model</tspan></text></g><g font-family="'Inter-Medium','Inter'" font-weight="500" font-size="39.607"><text x="99.141" y="809.534" transform="translate(-62 -147)">S<tspan x="124.429px 138.957px 153.977px 177.324px 199.616px 214.144px 237.491px 251.724px 274.789px 289.809px 300.527px 323.593px 338.121px 348.839px 373.086px 382.747px 405.095px 428.555px 438.216px 452.632px 462.293px 485.359px" y="809.534px 809.534px 809.534px 809.534px 809.534px 809.534px 809.534px 809.534px 809.534px 809.534px 809.534px 809.534px 809.534px 809.534px 809.534px 809.534px 809.534px 809.534px 809.534px 809.534px 809.534px 809.534px">tructurer et planifier</tspan></text><text x="62.703" y="849.141" transform="translate(-62 -147)">d<tspan x="87.089px 109.957px 130.785px 141.296px 165.345px 179.38px 202.838px 212.302px 235.169px 249.133px 269.961px 280.473px 303.734px 326.883px 361.481px 384.348px 399.171px 408.634px 432.683px 455.832px 478.699px" y="849.141px 849.141px 849.141px 849.141px 849.141px 849.141px 849.141px 849.141px 849.141px 849.141px 849.141px 849.141px 849.141px 849.141px 849.141px 849.141px 849.141px 849.141px 849.141px 849.141px 849.141px">es projets numériques</tspan></text></g><g font-family="'Inter-Medium','Inter'" font-weight="500" font-size="39.607"><text x="67.733" y="546.068" transform="translate(-62 -147)">C<tspan x="96.465px 119.923px 143.185px 165.279px 187.499px 208.777px 232.235px 241.699px 256.521px 267.611px 291.997px 314.865px" y="546.068px 546.068px 546.068px 546.068px 546.068px 546.068px 546.068px 546.068px 546.068px 546.068px 546.068px 546.068px">oncevoir des</tspan></text><text x="65.673" y="585.675" transform="translate(-62 -147)">i<tspan x="75.137px 98.398px 112.503px 135.37px 151.458px 165.001px 187.151px 209.245px 232.112px 252.94px 264.03px 278.599px 307.416px 333.406px" y="585.675px 585.675px 585.675px 585.675px 585.675px 585.675px 585.675px 585.675px 585.675px 585.675px 585.675px 585.675px 585.675px 585.675px">nterfaces (UX</tspan></text></g><g font-family="'Inter-Medium','Inter'" font-weight="500" font-size="39.61" fill="#ef2921"><text x="237.023" y="1101.45" transform="translate(-62 -147)">C<tspan x="265.758px 289.218px 323.818px 347.869px 370.738px 384.844px 407.713px 430.976px 453.071px 475.941px 496.77px 507.372px 521.408px 544.277px 553.741px 575.893px 590.224px 599.688px 623.148px 646.411px 669.674px 692.543px 702.008px 711.472px 734.341px" y="1101.45px 1101.45px 1101.45px 1101.45px 1101.45px 1101.45px 1101.45px 1101.45px 1101.45px 1101.45px 1101.45px 1101.45px 1101.45px 1101.45px 1101.45px 1101.45px 1101.45px 1101.45px 1101.45px 1101.45px 1101.45px 1101.45px 1101.45px 1101.45px 1101.45px">ompétences relationnelles</tspan></text><text x="236.465" y="1142.45" transform="translate(-62 -147)">&amp;<tspan x="262.05px 272.86px 301.793px 325.141px 334.803px 349.332px 372.681px 386.915px 409.982px 420.792px 445.378px 455.04px 479.289px 488.951px 503.481px 525.83px 535.493px" y="1142.45px 1142.45px 1142.45px 1142.45px 1142.45px 1142.45px 1142.45px 1142.45px 1142.45px 1142.45px 1142.45px 1142.45px 1142.45px 1142.45px 1142.45px 1142.45px 1142.45px"> Culture digitale</tspan></text></g><path d="M645.788 254.398H497.255l-74.267 128.633 74.267 128.634h148.533l74.267-128.634-74.267-128.633z" fill="#ffd7d5" fill-rule="nonzero"/><path d="M350.293 383.97h73.109M350.292 378.16v11.62M424.693 383.97h73.109M424.693 378.16v11.62M499.095 383.97h73.108M499.094 378.16v11.62M683.322 576.363l-36.556-63.315M678.292 579.268l10.062-5.81M646.122 511.93l-36.556-63.314M641.09 514.835l10.063-5.81M608.922 447.497l-36.556-63.314M603.89 450.402l10.063-5.81M794.114 383.971h-73.109M794.114 389.781v-11.62M719.714 383.971h-73.109M719.713 389.781v-11.62M645.313 383.971h-73.109M645.313 389.781v-11.62M460.974 576.363l36.557-63.315M455.943 573.457l10.062 5.81M498.173 511.93l36.558-63.315M493.143 509.025l10.062 5.81M535.374 447.497l36.558-63.315M530.343 444.592l10.062 5.81M460.974 191.767l36.557 63.315M466.005 188.862l-10.062 5.81M498.173 256.2l36.558 63.315M503.205 253.294l-10.062 5.81M535.374 320.632l36.558 63.315M540.405 317.728l-10.062 5.81M682.718 192.603l-36.557 63.315M687.75 195.508l-10.062-5.81M645.518 257.036l-36.556 63.314M650.549 259.94l-10.062-5.809M608.318 321.47l-36.557 63.314M613.349 324.373l-10.062-5.81" fill="none" fill-rule="nonzero" stroke="#ff2b06" stroke-width="2.58"/><path d="M54.383 954.06h64.814-64.814z" fill="#ff2b06" fill-rule="nonzero"/><path d="M115.424 954.06H54.383" fill="none" fill-rule="nonzero" stroke="#ff2b06" stroke-width="3.48" stroke-miterlimit="10"/><path d="M103.891 939.825l-2.373 2.55 12.57 11.68-12.57 11.686 2.373 2.55 15.307-14.236-15.307-14.23z" fill="#ff2b06" fill-rule="nonzero"/></svg>