<?xml version="1.0" encoding="utf-8"?>
<!-- Generator: Adobe Illustrator 23.0.6, SVG Export Plug-In . SVG Version: 6.00 Build 0)  -->
<svg version="1.1" id="Calque_1" xmlns="http://www.w3.org/2000/svg" xmlns:xlink="http://www.w3.org/1999/xlink" x="0px" y="0px"
	 viewBox="0 0 1242 1292" style="enable-background:new 0 0 1242 1292;" xml:space="preserve">
<style type="text/css">
	.st0{fill:#FF0000;}
	.st1{fill:none;stroke:#FF0000;stroke-width:3.4803;stroke-miterlimit:10;}
	.st2{fill:#FECCCB;}
	.st3{fill:none;stroke:#FF0000;stroke-width:2.5823;}
	.st4{fill:none;stroke:#D3000F;stroke-width:3.0472;}
	.st5{fill:#D3000F;}
	.st6{fill:none;stroke:#BA0013;stroke-width:3.0472;}
	.st7{opacity:0.2;}
	.st8{clip-path:url(#SVGID_2_);fill:#D3000F;}
	.st9{fill:none;stroke:#FF0000;stroke-width:2.3733;}
	.st10{fill:none;stroke:#FF0000;stroke-width:3.0015;}
	.st11{fill:#E30A18;}
</style>
<g>
	<polygon class="st2" points="707.79,401.4 559.26,401.4 484.99,530.03 559.26,658.66 707.79,658.66 782.06,530.03 	"/>
	<g>
		<polygon class="st0" points="559.8,532.26 559.8,529.68 487.98,529.68 487.98,525.16 485.4,525.16 485.4,529.68 413.58,529.68 
			413.58,525.16 411,525.16 411,536.78 413.58,536.78 413.58,532.26 485.4,532.26 485.4,536.78 487.98,536.78 487.98,532.26 		"/>
		<polygon class="st0" points="854.82,525.16 854.82,529.68 783,529.68 783,525.16 780.42,525.16 780.42,529.68 708.6,529.68 
			708.6,525.16 706.02,525.16 706.02,529.68 636.47,529.68 670.79,470.23 674.7,472.49 676,470.25 672.08,468 707.99,405.8 
			711.9,408.06 713.2,405.82 709.28,403.56 745.19,341.37 749.1,343.63 750.4,341.39 740.33,335.58 739.04,337.82 742.95,340.08 
			707.04,402.27 703.13,400.01 701.84,402.25 705.75,404.51 669.85,466.7 665.93,464.45 664.64,466.68 668.55,468.94 634.09,528.64 
			599.14,468.1 603.05,465.85 601.76,463.61 597.85,465.87 561.94,403.67 565.85,401.41 564.56,399.18 560.65,401.43 524.74,339.24 
			528.65,336.98 527.36,334.74 517.3,340.55 518.59,342.79 522.5,340.53 558.41,402.73 554.5,404.99 555.79,407.22 559.7,404.96 
			595.61,467.16 591.7,469.42 592.99,471.66 596.9,469.4 631.71,529.68 562.39,529.68 562.39,525.16 559.8,525.16 559.8,536.78 
			562.39,536.78 562.39,532.26 631.82,532.26 596.9,592.73 592.99,590.47 591.7,592.71 595.61,594.97 559.7,657.17 555.79,654.91 
			554.5,657.14 558.41,659.4 522.5,721.6 518.59,719.34 517.3,721.58 527.36,727.38 528.65,725.15 524.74,722.89 560.65,660.69 
			564.56,662.95 565.85,660.72 561.94,658.46 597.85,596.26 601.76,598.52 603.05,596.28 599.14,594.02 634.15,533.39 
			669.16,594.02 665.25,596.28 666.54,598.52 670.45,596.26 706.36,658.46 702.45,660.72 703.74,662.95 707.65,660.69 
			743.56,722.89 739.65,725.15 740.94,727.39 751,721.58 749.71,719.34 745.79,721.6 709.88,659.4 713.8,657.14 712.51,654.91 
			708.59,657.17 672.69,594.97 676.6,592.71 675.31,590.47 671.39,592.73 636.48,532.26 706.02,532.26 706.02,536.78 708.6,536.78 
			708.6,532.26 780.42,532.26 780.42,536.78 783,536.78 783,532.26 854.82,532.26 854.82,536.78 857.41,536.78 857.41,525.16 		"/>
	</g>
</g>
<g>
	<path d="M272.38,211.62v10.24h-4.46v-28.81h10.1c6.95,0,9.88,3.9,9.88,9.24c0,5.37-2.97,9.33-9.83,9.33H272.38z M272.38,207.79
		h5.68c4.04,0,5.43-2.36,5.43-5.5s-1.39-5.42-5.47-5.42h-5.64V207.79z"/>
	<path d="M303.63,204.55c-0.32-0.17-1.01-0.45-1.93-0.45c-3.09,0-5.02,2.86-5.05,5.53v12.23h-4.33v-21.61h4.28v3.4h0.25
		c0.62-2.14,2.91-3.73,5.25-3.73c1.12,0,2.25,0.37,2.93,0.76L303.63,204.55z"/>
	<path d="M306.32,211.12c0-6.67,3.9-11.16,9.92-11.16c6.01,0,9.92,4.49,9.92,11.16c0,6.65-3.91,11.17-9.92,11.17
		C310.21,222.29,306.32,217.78,306.32,211.12z M321.93,211.12c0-4.09-1.74-7.48-5.7-7.48c-3.97,0-5.7,3.39-5.7,7.48
		c0,4.11,1.73,7.48,5.7,7.48C320.19,218.61,321.93,215.23,321.93,211.12z"/>
	<path d="M349.09,200.29v21.37c0,5.7-4.38,8.36-9.78,8.36c-4.39,0-7.3-1.87-8.61-3.81l2.67-2.67c1,1.06,2.62,2.79,5.85,2.79
		c3.12,0,5.61-1.53,5.58-4.99v-3.05h-0.31c-0.67,1.17-2.15,3.21-5.85,3.21c-4.94,0-8.89-3.6-8.89-10.55
		c0-6.88,3.84-10.96,8.93-10.96c3.59,0,5.11,2.07,5.84,3.35h0.32v-3.03H349.09z M339.58,217.85c3.62,0,5.44-2.67,5.44-6.96
		c0-4.18-1.77-7.25-5.44-7.25c-3.76,0-5.63,3.12-5.63,7.25C333.96,215.15,335.94,217.85,339.58,217.85z"/>
	<path d="M365.83,204.55c-0.32-0.17-1.01-0.45-1.93-0.45c-3.09,0-5.02,2.86-5.05,5.53v12.23h-4.33v-21.61h4.28v3.4h0.25
		c0.62-2.14,2.91-3.73,5.25-3.73c1.12,0,2.25,0.37,2.93,0.76L365.83,204.55z"/>
	<path d="M382.69,219.17h-0.2c-0.72,1.38-2.57,3.15-6.01,3.15c-3.98,0-7.2-2.38-7.2-6.58c0-4.54,3.81-6.05,8.53-6.56
		c2.48-0.3,4.78-0.28,4.78-1.56v-0.18c0-2.8-1.59-3.91-3.86-3.91c-2.66,0-4.28,1.43-4.84,2.95l-4.09-0.94
		c1.37-3.95,5.01-5.57,8.91-5.57c3.47,0,8.23,1.31,8.23,7.53v14.36h-4.25V219.17z M382.6,211.38c-0.49,0.56-3.42,0.9-4.63,1.06
		c-2.59,0.32-4.43,1.14-4.43,3.38c0,1.94,1.59,3,3.84,3c3.22,0,5.22-2.15,5.22-4.49V211.38z"/>
	<path d="M408.8,221.86h-4.29v-13.93c0-2.96-1.45-4.14-3.62-4.14c-2.19,0-4.21,1.8-4.21,4.94v13.13h-4.33v-21.61h4.28v3.22h0.21
		c0.82-1.74,2.9-3.5,5.63-3.5c2.66,0,4.53,1.53,5.47,3.6h0.22c0.8-1.79,3.17-3.6,6.19-3.6c3.63,0,6.56,2.36,6.56,7.96v13.93h-4.33
		v-14c0-3.1-2.03-4.07-3.74-4.07c-2.55,0-4.04,1.73-4.04,4.56V221.86z"/>
	<path d="M442.78,221.86h-4.29v-13.93c0-2.96-1.45-4.14-3.62-4.14c-2.19,0-4.21,1.8-4.21,4.94v13.13h-4.33v-21.61h4.28v3.22h0.21
		c0.82-1.74,2.9-3.5,5.63-3.5c2.66,0,4.53,1.53,5.47,3.6h0.22c0.8-1.79,3.17-3.6,6.19-3.6c3.63,0,6.56,2.36,6.56,7.96v13.93h-4.33
		v-14c0-3.1-2.03-4.07-3.74-4.07c-2.55,0-4.04,1.73-4.04,4.56V221.86z"/>
	<path d="M459.26,211.28c0-6.63,3.83-11.31,9.96-11.31c4.98,0,9.47,3.08,9.47,10.61v1.82h-15.18c0.34,4,2.43,6.22,5.98,6.22
		c2.63,0,4.21-1.25,4.92-3.19l4,1.1c-0.9,3.11-3.94,5.78-8.91,5.78C463.16,222.29,459.26,217.97,459.26,211.28z M463.61,209.11
		h10.86c0-3.14-2-5.47-5.26-5.47C466.25,203.64,464.19,205.64,463.61,209.11z"/>
	<path d="M494.55,204.55c-0.32-0.17-1.01-0.45-1.93-0.45c-3.09,0-5.02,2.86-5.05,5.53v12.23h-4.33v-21.61h4.28v3.4h0.25
		c0.62-2.14,2.91-3.73,5.25-3.73c1.12,0,2.25,0.37,2.93,0.76L494.55,204.55z"/>
	<path d="M280.18,239.86h4.24v3.07h0.35c0.73-1.28,2.21-3.35,5.8-3.35c5.11,0,8.95,4.08,8.95,11.13c0,7.02-3.77,11.17-8.91,11.17
		c-3.54,0-5.11-2.04-5.84-3.36h-0.25v11.06h-4.33V239.86z M289.69,243.25c-3.71,0-5.46,3.07-5.46,7.41c0,4.38,1.77,7.55,5.46,7.55
		c3.71,0,5.61-3.21,5.61-7.55C295.31,246.36,293.45,243.25,289.69,243.25z"/>
	<path d="M303.14,250.73c0-6.67,3.9-11.16,9.92-11.16c6.01,0,9.92,4.49,9.92,11.16c0,6.65-3.91,11.17-9.92,11.17
		C307.04,261.9,303.14,257.38,303.14,250.73z M318.75,250.73c0-4.09-1.74-7.48-5.7-7.48c-3.97,0-5.7,3.39-5.7,7.48
		c0,4.11,1.73,7.48,5.7,7.48C317.01,258.21,318.75,254.84,318.75,250.73z"/>
	<path d="M340.68,239.86H345v21.61h-4.17v-2.8h-0.22c-1.13,1.6-3.21,3.08-6.22,3.08c-3.31,0-7.06-2.36-7.06-8.23v-13.66h4.33v13.59
		c0,2.88,1.77,4.47,4.21,4.47c2.45,0,4.81-1.79,4.81-5.52V239.86z"/>
	<path d="M361.74,244.16c-0.32-0.17-1.01-0.45-1.93-0.45c-3.09,0-5.02,2.86-5.05,5.53v12.23h-4.33v-21.61h4.28v3.4h0.25
		c0.62-2.14,2.91-3.73,5.25-3.73c1.12,0,2.25,0.37,2.93,0.76L361.74,244.16z"/>
	<path d="M381.58,261.46h-4.33v-28.81h4.33V261.46z"/>
	<path d="M386.11,250.88c0-6.63,3.83-11.31,9.96-11.31c4.98,0,9.47,3.08,9.47,10.61V252h-15.18c0.34,4,2.43,6.22,5.98,6.22
		c2.63,0,4.21-1.25,4.92-3.19l4,1.1c-0.9,3.11-3.94,5.78-8.91,5.78C390,261.9,386.11,257.58,386.11,250.88z M390.46,248.72h10.86
		c0-3.14-2-5.47-5.26-5.47C393.1,243.25,391.03,245.24,390.46,248.72z"/>
	<path d="M442.7,261.46h-3.9l-4.33-15.12h-0.34l-4.32,15.12h-3.88l-6.18-21.61h4.35l3.87,15.39h0.24l4.21-15.39h3.81l4.16,15.32
		h0.24l3.88-15.32h4.35L442.7,261.46z"/>
	<path d="M451.2,250.88c0-6.63,3.83-11.31,9.96-11.31c4.98,0,9.47,3.08,9.47,10.61V252h-15.18c0.34,4,2.43,6.22,5.98,6.22
		c2.63,0,4.21-1.25,4.92-3.19l4,1.1c-0.9,3.11-3.94,5.78-8.91,5.78C455.1,261.9,451.2,257.58,451.2,250.88z M455.55,248.72h10.86
		c0-3.14-2-5.47-5.26-5.47C458.19,243.25,456.12,245.24,455.55,248.72z"/>
	<path d="M479.52,232.65v10.27h0.25c0.73-1.28,2.21-3.35,5.8-3.35c5.11,0,8.95,4.08,8.95,11.13c0,7.02-3.77,11.17-8.91,11.17
		c-3.54,0-5.11-2.04-5.84-3.36h-0.35v2.95h-4.24v-28.81H479.52z M484.69,243.25c-3.71,0-5.46,3.07-5.46,7.41
		c0,4.38,1.77,7.55,5.46,7.55c3.71,0,5.61-3.21,5.61-7.55C490.31,246.36,488.45,243.25,484.69,243.25z"/>
</g>
<g>
	<path d="M710.83,158.37c-0.84-3.69-3.87-5.61-7.33-5.61c-4.74,0-8.31,3.6-8.31,10.72c0,7.13,3.57,10.69,8.31,10.69
		c3.46,0,6.44-1.9,7.29-5.56l4.4,0.29c-1.22,5.92-5.92,9.36-11.69,9.36c-7.36,0-12.72-5.6-12.72-14.79c0-9.2,5.36-14.81,12.72-14.81
		c5.77,0,10.48,3.45,11.72,9.41L710.83,158.37z"/>
	<path d="M718.97,167.13c0-6.67,3.9-11.16,9.92-11.16c6.01,0,9.92,4.49,9.92,11.16c0,6.65-3.91,11.17-9.92,11.17
		C722.87,178.3,718.97,173.79,718.97,167.13z M734.59,167.13c0-4.09-1.74-7.48-5.7-7.48c-3.97,0-5.7,3.39-5.7,7.48
		c0,4.11,1.73,7.48,5.7,7.48C732.84,174.62,734.59,171.24,734.59,167.13z"/>
	<path d="M759.7,177.87h-4.29v-13.93c0-2.96-1.45-4.14-3.62-4.14c-2.19,0-4.21,1.8-4.21,4.94v13.13h-4.33v-21.61h4.28v3.22h0.21
		c0.82-1.74,2.9-3.5,5.63-3.5c2.66,0,4.53,1.53,5.47,3.6h0.22c0.8-1.79,3.17-3.6,6.19-3.6c3.63,0,6.56,2.36,6.56,7.96v13.93h-4.33
		v-14c0-3.1-2.03-4.07-3.74-4.07c-2.55,0-4.04,1.73-4.04,4.56V177.87z"/>
	<path d="M777.23,156.26h4.24v3.07h0.35c0.73-1.28,2.21-3.35,5.8-3.35c5.11,0,8.95,4.08,8.95,11.13c0,7.02-3.77,11.17-8.91,11.17
		c-3.54,0-5.11-2.04-5.84-3.36h-0.25v11.06h-4.33V156.26z M786.74,159.65c-3.71,0-5.46,3.07-5.46,7.41c0,4.38,1.77,7.55,5.46,7.55
		c3.71,0,5.61-3.21,5.61-7.55C792.35,162.76,790.5,159.65,786.74,159.65z"/>
	<path d="M812.33,160.56c-0.32-0.17-1.01-0.45-1.93-0.45c-3.09,0-5.02,2.86-5.05,5.53v12.23h-4.33v-21.61h4.28v3.4h0.25
		c0.62-2.14,2.91-3.73,5.25-3.73c1.12,0,2.25,0.37,2.93,0.76L812.33,160.56z"/>
	<path d="M815.01,167.29c0-6.63,3.83-11.31,9.96-11.31c4.98,0,9.47,3.08,9.47,10.61v1.82h-15.18c0.34,4,2.43,6.22,5.98,6.22
		c2.63,0,4.21-1.25,4.92-3.19l4,1.1c-0.9,3.11-3.94,5.78-8.91,5.78C818.91,178.3,815.01,173.98,815.01,167.29z M819.36,165.12h10.86
		c0-3.14-2-5.47-5.26-5.47C822,159.65,819.93,161.65,819.36,165.12z"/>
	<path d="M843.32,177.87h-4.33v-21.61h4.17v3.22h0.22c1.08-2,3.21-3.5,6.22-3.5c3.92,0,7.06,2.48,7.06,8.23v13.66h-4.32v-13.44
		c0-2.88-1.77-4.63-4.21-4.63c-2.46,0-4.81,1.97-4.81,5.7V177.87z"/>
	<path d="M876.12,177.87v-2.95h-0.32c-0.73,1.32-2.32,3.36-5.88,3.36c-5.12,0-8.89-4.15-8.89-11.17c0-7.05,3.84-11.13,8.93-11.13
		c3.59,0,5.11,2.07,5.84,3.35h0.22v-10.27h4.33v28.81H876.12z M870.85,174.62c3.69,0,5.44-3.18,5.44-7.55
		c0-4.35-1.74-7.41-5.44-7.41c-3.76,0-5.63,3.11-5.63,7.41C865.22,171.41,867.14,174.62,870.85,174.62z"/>
	<path d="M897.1,160.56c-0.32-0.17-1.01-0.45-1.93-0.45c-3.09,0-5.02,2.86-5.05,5.53v12.23h-4.33v-21.61h4.28v3.4h0.25
		c0.62-2.14,2.91-3.73,5.25-3.73c1.12,0,2.25,0.37,2.93,0.76L897.1,160.56z"/>
	<path d="M899.78,167.29c0-6.63,3.83-11.31,9.96-11.31c4.98,0,9.47,3.08,9.47,10.61v1.82h-15.18c0.34,4,2.43,6.22,5.98,6.22
		c2.63,0,4.21-1.25,4.92-3.19l4,1.1c-0.9,3.11-3.94,5.78-8.91,5.78C903.68,178.3,899.78,173.98,899.78,167.29z M904.13,165.12h10.86
		c0-3.14-2-5.47-5.26-5.47C906.77,159.65,904.7,161.65,904.13,165.12z"/>
	<path d="M939.12,177.87h-4.33v-28.81h4.33V177.87z"/>
	<path d="M943.65,167.29c0-6.63,3.83-11.31,9.96-11.31c4.98,0,9.47,3.08,9.47,10.61v1.82H947.9c0.34,4,2.43,6.22,5.98,6.22
		c2.63,0,4.21-1.25,4.92-3.19l4,1.1c-0.9,3.11-3.94,5.78-8.91,5.78C947.54,178.3,943.65,173.98,943.65,167.29z M948,165.12h10.86
		c0-3.14-2-5.47-5.26-5.47C950.64,159.65,948.57,161.65,948,165.12z"/>
	<path d="M995.1,177.87h-4.29v-13.93c0-2.96-1.45-4.14-3.62-4.14c-2.19,0-4.21,1.8-4.21,4.94v13.13h-4.33v-21.61h4.28v3.22h0.21
		c0.82-1.74,2.9-3.5,5.63-3.5c2.66,0,4.53,1.53,5.47,3.6h0.22c0.8-1.79,3.17-3.6,6.19-3.6c3.63,0,6.56,2.36,6.56,7.96v13.93h-4.33
		v-14c0-3.1-2.03-4.07-3.74-4.07c-2.55,0-4.04,1.73-4.04,4.56V177.87z"/>
	<path d="M1025.14,175.18h-0.2c-0.72,1.38-2.57,3.15-6.01,3.15c-3.98,0-7.2-2.38-7.2-6.58c0-4.54,3.81-6.05,8.53-6.56
		c2.48-0.3,4.78-0.28,4.78-1.56v-0.18c0-2.8-1.59-3.91-3.86-3.91c-2.66,0-4.28,1.43-4.84,2.95l-4.09-0.94
		c1.37-3.95,5.01-5.57,8.91-5.57c3.47,0,8.23,1.31,8.23,7.53v14.36h-4.25V175.18z M1025.05,167.39c-0.49,0.56-3.42,0.9-4.63,1.06
		c-2.59,0.32-4.43,1.14-4.43,3.38c0,1.94,1.59,3,3.84,3c3.22,0,5.22-2.15,5.22-4.49V167.39z"/>
	<path d="M1046.11,160.56c-0.32-0.17-1.01-0.45-1.93-0.45c-3.09,0-5.02,2.86-5.05,5.53v12.23h-4.33v-21.61h4.28v3.4h0.25
		c0.62-2.14,2.91-3.73,5.25-3.73c1.12,0,2.25,0.37,2.93,0.76L1046.11,160.56z"/>
	<path d="M1057.17,168.22l-2.24,2.46v7.19h-4.33v-28.81h4.33v16.11h0.35l7.81-8.91h5.19l-8.24,9.21l8.96,12.39h-4.87L1057.17,168.22
		z"/>
	<path d="M1070.12,167.29c0-6.63,3.83-11.31,9.96-11.31c4.98,0,9.47,3.08,9.47,10.61v1.82h-15.18c0.34,4,2.43,6.22,5.98,6.22
		c2.63,0,4.21-1.25,4.92-3.19l4,1.1c-0.9,3.11-3.94,5.78-8.91,5.78C1074.02,178.3,1070.12,173.98,1070.12,167.29z M1074.47,165.12
		h10.86c0-3.14-2-5.47-5.26-5.47C1077.11,159.65,1075.04,161.65,1074.47,165.12z"/>
	<path d="M1103.78,159.8h-4.22v11.68c0,2.43,1.21,2.81,2.55,2.81c0.62,0,1.11-0.1,1.42-0.17l0.77,3.56
		c-0.44,0.17-1.49,0.46-3.09,0.46c-3.03,0-5.98-2.01-5.98-5.81V159.8h-3v-3.54h3v-4.61h4.33v4.61h4.22V159.8z"/>
	<path d="M1107.81,151.22c0-1.32,1.11-2.56,2.72-2.56c1.6,0,2.71,1.24,2.71,2.56c0,1.39-1.11,2.56-2.71,2.56
		C1108.93,153.78,1107.81,152.61,1107.81,151.22z M1112.71,177.87h-4.33v-21.61h4.33V177.87z"/>
	<path d="M1122.54,177.87h-4.33v-21.61h4.17v3.22h0.22c1.08-2,3.21-3.5,6.22-3.5c3.92,0,7.06,2.48,7.06,8.23v13.66h-4.32v-13.44
		c0-2.88-1.77-4.63-4.21-4.63c-2.46,0-4.81,1.97-4.81,5.7V177.87z"/>
	<path d="M1159.58,156.3v21.37c0,5.7-4.38,8.36-9.78,8.36c-4.39,0-7.3-1.87-8.61-3.81l2.67-2.67c1,1.06,2.62,2.79,5.85,2.79
		c3.12,0,5.61-1.53,5.58-4.99v-3.05h-0.31c-0.67,1.17-2.15,3.21-5.85,3.21c-4.94,0-8.89-3.6-8.89-10.55
		c0-6.88,3.84-10.96,8.93-10.96c3.59,0,5.11,2.07,5.84,3.35h0.32v-3.03H1159.58z M1150.07,173.86c3.62,0,5.44-2.67,5.44-6.96
		c0-4.18-1.77-7.25-5.44-7.25c-3.76,0-5.63,3.12-5.63,7.25C1144.44,171.16,1146.42,173.86,1150.07,173.86z"/>
	<path d="M690.45,206.89c0-6.63,3.83-11.31,9.96-11.31c4.98,0,9.47,3.08,9.47,10.61v1.82H694.7c0.34,4,2.43,6.22,5.98,6.22
		c2.63,0,4.21-1.25,4.92-3.19l4,1.1c-0.9,3.11-3.94,5.78-8.91,5.78C694.35,217.91,690.45,213.59,690.45,206.89z M694.8,204.73h10.86
		c0-3.14-2-5.47-5.26-5.47C697.44,199.26,695.37,201.25,694.8,204.73z"/>
	<path d="M724.11,199.41h-4.22v11.68c0,2.43,1.21,2.81,2.55,2.81c0.62,0,1.11-0.1,1.42-0.17l0.77,3.56
		c-0.44,0.17-1.49,0.46-3.09,0.46c-3.03,0-5.98-2.01-5.98-5.81v-12.54h-3v-3.54h3v-4.61h4.33v4.61h4.22V199.41z"/>
	<path d="M744,217.47h-4.33v-28.81H744V217.47z"/>
	<path d="M761.93,214.79h-0.2c-0.72,1.38-2.57,3.15-6.01,3.15c-3.98,0-7.2-2.38-7.2-6.58c0-4.54,3.81-6.05,8.53-6.56
		c2.48-0.3,4.78-0.28,4.78-1.56v-0.18c0-2.8-1.59-3.91-3.86-3.91c-2.66,0-4.28,1.43-4.84,2.95l-4.09-0.94
		c1.37-3.95,5.01-5.57,8.91-5.57c3.47,0,8.23,1.31,8.23,7.53v14.36h-4.25V214.79z M761.83,206.99c-0.49,0.56-3.42,0.9-4.63,1.06
		c-2.59,0.32-4.43,1.14-4.43,3.38c0,1.94,1.59,3,3.84,3c3.22,0,5.22-2.15,5.22-4.49V206.99z"/>
	<path d="M796.32,202.9c-0.51-2.01-2.01-3.64-4.68-3.64c-3.59,0-5.7,2.93-5.7,7.41c0,4.56,2.08,7.55,5.7,7.55
		c2.39,0,4.07-1.34,4.64-3.5l4.18,0.34c-0.72,3.98-4.01,6.85-8.82,6.85c-6.13,0-9.92-4.64-9.92-11.24c0-6.49,3.86-11.09,9.88-11.09
		c4.71,0,8.2,2.76,8.88,6.95L796.32,202.9z"/>
	<path d="M803.97,206.74c0-6.67,3.9-11.16,9.92-11.16c6.01,0,9.92,4.49,9.92,11.16c0,6.65-3.91,11.17-9.92,11.17
		C807.86,217.91,803.97,213.39,803.97,206.74z M819.58,206.74c0-4.09-1.74-7.48-5.7-7.48c-3.97,0-5.7,3.39-5.7,7.48
		c0,4.11,1.73,7.48,5.7,7.48C817.84,214.22,819.58,210.85,819.58,206.74z"/>
	<path d="M844.69,217.47h-4.29v-13.93c0-2.96-1.45-4.14-3.62-4.14c-2.19,0-4.21,1.8-4.21,4.94v13.13h-4.33v-21.61h4.28v3.22h0.21
		c0.82-1.74,2.9-3.5,5.63-3.5c2.66,0,4.53,1.53,5.47,3.6h0.22c0.8-1.79,3.17-3.6,6.19-3.6c3.63,0,6.56,2.36,6.56,7.96v13.93h-4.33
		v-14c0-3.1-2.03-4.07-3.74-4.07c-2.55,0-4.04,1.73-4.04,4.56V217.47z"/>
	<path d="M878.67,217.47h-4.29v-13.93c0-2.96-1.45-4.14-3.62-4.14c-2.19,0-4.21,1.8-4.21,4.94v13.13h-4.33v-21.61h4.28v3.22h0.21
		c0.82-1.74,2.9-3.5,5.63-3.5c2.66,0,4.53,1.53,5.47,3.6h0.22c0.8-1.79,3.17-3.6,6.19-3.6c3.63,0,6.56,2.36,6.56,7.96v13.93h-4.33
		v-14c0-3.1-2.03-4.07-3.74-4.07c-2.55,0-4.04,1.73-4.04,4.56V217.47z"/>
	<path d="M909.56,195.87h4.32v21.61h-4.17v-2.8h-0.22c-1.13,1.6-3.21,3.08-6.22,3.08c-3.31,0-7.06-2.36-7.06-8.23v-13.66h4.33v13.59
		c0,2.88,1.77,4.47,4.21,4.47c2.45,0,4.81-1.79,4.81-5.52V195.87z"/>
	<path d="M923.63,217.47h-4.33v-21.61h4.17v3.22h0.22c1.08-2,3.21-3.5,6.22-3.5c3.92,0,7.06,2.48,7.06,8.23v13.66h-4.32v-13.44
		c0-2.88-1.77-4.63-4.21-4.63c-2.46,0-4.81,1.97-4.81,5.7V217.47z"/>
	<path d="M941.9,190.83c0-1.32,1.11-2.56,2.72-2.56c1.6,0,2.71,1.24,2.71,2.56c0,1.39-1.11,2.56-2.71,2.56
		C943.01,193.39,941.9,192.22,941.9,190.83z M946.8,217.47h-4.33v-21.61h4.33V217.47z"/>
	<path d="M965.93,202.9c-0.51-2.01-2.01-3.64-4.68-3.64c-3.59,0-5.7,2.93-5.7,7.41c0,4.56,2.08,7.55,5.7,7.55
		c2.39,0,4.07-1.34,4.64-3.5l4.18,0.34c-0.72,3.98-4.01,6.85-8.82,6.85c-6.13,0-9.92-4.64-9.92-11.24c0-6.49,3.86-11.09,9.88-11.09
		c4.71,0,8.2,2.76,8.88,6.95L965.93,202.9z"/>
	<path d="M986.92,214.79h-0.2c-0.72,1.38-2.57,3.15-6.01,3.15c-3.98,0-7.2-2.38-7.2-6.58c0-4.54,3.81-6.05,8.53-6.56
		c2.48-0.3,4.78-0.28,4.78-1.56v-0.18c0-2.8-1.59-3.91-3.86-3.91c-2.66,0-4.28,1.43-4.84,2.95l-4.09-0.94
		c1.37-3.95,5.01-5.57,8.91-5.57c3.47,0,8.23,1.31,8.23,7.53v14.36h-4.25V214.79z M986.82,206.99c-0.49,0.56-3.42,0.9-4.63,1.06
		c-2.59,0.32-4.43,1.14-4.43,3.38c0,1.94,1.59,3,3.84,3c3.22,0,5.22-2.15,5.22-4.49V206.99z"/>
	<path d="M1005.96,199.41h-4.22v11.68c0,2.43,1.21,2.81,2.55,2.81c0.62,0,1.11-0.1,1.42-0.17l0.77,3.56
		c-0.44,0.17-1.49,0.46-3.09,0.46c-3.03,0-5.98-2.01-5.98-5.81v-12.54h-3v-3.54h3v-4.61h4.33v4.61h4.22V199.41z"/>
	<path d="M1009.99,190.83c0-1.32,1.11-2.56,2.72-2.56c1.6,0,2.71,1.24,2.71,2.56c0,1.39-1.11,2.56-2.71,2.56
		C1011.1,193.39,1009.99,192.22,1009.99,190.83z M1014.89,217.47h-4.33v-21.61h4.33V217.47z"/>
	<path d="M1019.42,206.74c0-6.67,3.9-11.16,9.92-11.16c6.01,0,9.92,4.49,9.92,11.16c0,6.65-3.91,11.17-9.92,11.17
		C1023.31,217.91,1019.42,213.39,1019.42,206.74z M1035.03,206.74c0-4.09-1.74-7.48-5.7-7.48c-3.97,0-5.7,3.39-5.7,7.48
		c0,4.11,1.73,7.48,5.7,7.48C1033.29,214.22,1035.03,210.85,1035.03,206.74z"/>
	<path d="M1048.03,217.47h-4.33v-21.61h4.17v3.22h0.22c1.08-2,3.21-3.5,6.22-3.5c3.92,0,7.06,2.48,7.06,8.23v13.66h-4.32v-13.44
		c0-2.88-1.77-4.63-4.21-4.63c-2.46,0-4.81,1.97-4.81,5.7V217.47z"/>
	<path d="M705.54,257.08v-2.95h-0.32c-0.73,1.32-2.32,3.36-5.88,3.36c-5.12,0-8.89-4.15-8.89-11.17c0-7.05,3.84-11.13,8.93-11.13
		c3.59,0,5.11,2.07,5.84,3.35h0.22v-10.27h4.33v28.81H705.54z M700.27,253.83c3.69,0,5.44-3.18,5.44-7.55
		c0-4.35-1.74-7.41-5.44-7.41c-3.76,0-5.63,3.11-5.63,7.41C694.64,250.62,696.55,253.83,700.27,253.83z"/>
	<path d="M714.71,230.44c0-1.32,1.11-2.56,2.72-2.56c1.6,0,2.71,1.24,2.71,2.56c0,1.39-1.11,2.56-2.71,2.56
		C715.82,233,714.71,231.83,714.71,230.44z M719.61,257.08h-4.33v-21.61h4.33V257.08z"/>
	<path d="M743.47,235.51v21.37c0,5.7-4.38,8.36-9.78,8.36c-4.39,0-7.3-1.87-8.61-3.81l2.67-2.67c1,1.06,2.62,2.79,5.85,2.79
		c3.12,0,5.61-1.53,5.58-4.99v-3.05h-0.31c-0.67,1.17-2.15,3.21-5.85,3.21c-4.94,0-8.89-3.6-8.89-10.55
		c0-6.88,3.84-10.96,8.93-10.96c3.59,0,5.11,2.07,5.84,3.35h0.32v-3.03H743.47z M733.96,253.07c3.62,0,5.44-2.67,5.44-6.96
		c0-4.18-1.77-7.25-5.44-7.25c-3.76,0-5.63,3.12-5.63,7.25C728.33,250.37,730.31,253.07,733.96,253.07z"/>
	<path d="M748.4,230.44c0-1.32,1.11-2.56,2.72-2.56c1.6,0,2.71,1.24,2.71,2.56c0,1.39-1.11,2.56-2.71,2.56
		C749.51,233,748.4,231.83,748.4,230.44z M753.29,257.08h-4.33v-21.61h4.33V257.08z"/>
	<path d="M768.54,239.02h-4.22v11.68c0,2.43,1.21,2.81,2.55,2.81c0.62,0,1.11-0.1,1.42-0.17l0.77,3.56
		c-0.44,0.17-1.49,0.46-3.09,0.46c-3.03,0-5.98-2.01-5.98-5.81v-12.54h-3v-3.54h3v-4.61h4.33v4.61h4.22V239.02z"/>
	<path d="M785.58,254.39h-0.2c-0.72,1.38-2.57,3.15-6.01,3.15c-3.98,0-7.2-2.38-7.2-6.58c0-4.54,3.81-6.05,8.53-6.56
		c2.48-0.3,4.78-0.28,4.78-1.56v-0.18c0-2.8-1.59-3.91-3.86-3.91c-2.66,0-4.28,1.43-4.84,2.95l-4.09-0.94
		c1.37-3.95,5.01-5.57,8.91-5.57c3.47,0,8.23,1.31,8.23,7.53v14.36h-4.25V254.39z M785.48,246.6c-0.49,0.56-3.42,0.9-4.63,1.06
		c-2.59,0.32-4.43,1.14-4.43,3.38c0,1.94,1.59,3,3.84,3c3.22,0,5.22-2.15,5.22-4.49V246.6z"/>
	<path d="M799.57,257.08h-4.33v-28.81h4.33V257.08z"/>
	<path d="M804.09,246.5c0-6.63,3.83-11.31,9.96-11.31c4.98,0,9.47,3.08,9.47,10.61v1.82h-15.18c0.34,4,2.43,6.22,5.98,6.22
		c2.63,0,4.21-1.25,4.92-3.19l4,1.1c-0.9,3.11-3.94,5.78-8.91,5.78C807.99,257.52,804.09,253.2,804.09,246.5z M808.44,244.33h10.86
		c0-3.14-2-5.47-5.26-5.47C811.09,238.86,809.02,240.86,808.44,244.33z"/>
</g>
<g>
	<path d="M938.76,526.58c-0.84-3.69-3.87-5.61-7.33-5.61c-4.74,0-8.31,3.6-8.31,10.72c0,7.13,3.57,10.69,8.31,10.69
		c3.46,0,6.44-1.9,7.29-5.56l4.4,0.29c-1.22,5.92-5.92,9.36-11.69,9.36c-7.36,0-12.72-5.6-12.72-14.79c0-9.2,5.36-14.81,12.72-14.81
		c5.77,0,10.48,3.45,11.72,9.41L938.76,526.58z"/>
	<path d="M959.11,528.78c-0.32-0.17-1.01-0.45-1.93-0.45c-3.09,0-5.02,2.86-5.05,5.53v12.23h-4.33v-21.61h4.28v3.4h0.25
		c0.62-2.14,2.91-3.73,5.25-3.73c1.12,0,2.25,0.37,2.93,0.76L959.11,528.78z"/>
	<path d="M961.79,535.5c0-6.63,3.83-11.31,9.96-11.31c4.98,0,9.47,3.08,9.47,10.61v1.82h-15.18c0.34,4,2.43,6.22,5.98,6.22
		c2.63,0,4.21-1.25,4.92-3.19l4,1.1c-0.9,3.11-3.94,5.78-8.91,5.78C965.69,546.52,961.79,542.2,961.79,535.5z M966.14,533.34H977
		c0-3.14-2-5.47-5.26-5.47C968.79,527.86,966.72,529.86,966.14,533.34z M972.99,516.21h4.46l-4.66,5.85h-3.32L972.99,516.21z"/>
	<path d="M984.87,535.5c0-6.63,3.83-11.31,9.96-11.31c4.98,0,9.47,3.08,9.47,10.61v1.82h-15.18c0.34,4,2.43,6.22,5.98,6.22
		c2.63,0,4.21-1.25,4.92-3.19l4,1.1c-0.9,3.11-3.94,5.78-8.91,5.78C988.77,546.52,984.87,542.2,984.87,535.5z M989.22,533.34h10.86
		c0-3.14-2-5.47-5.26-5.47C991.87,527.86,989.8,529.86,989.22,533.34z"/>
	<path d="M1020.17,528.78c-0.32-0.17-1.01-0.45-1.93-0.45c-3.09,0-5.02,2.86-5.05,5.53v12.23h-4.33v-21.61h4.28v3.4h0.25
		c0.62-2.14,2.91-3.73,5.25-3.73c1.12,0,2.25,0.37,2.93,0.76L1020.17,528.78z"/>
	<path d="M1049.87,546.08v-2.95h-0.32c-0.73,1.32-2.32,3.36-5.88,3.36c-5.12,0-8.89-4.15-8.89-11.17c0-7.05,3.84-11.13,8.93-11.13
		c3.59,0,5.11,2.07,5.84,3.35h0.22v-10.27h4.33v28.81H1049.87z M1044.6,542.83c3.69,0,5.44-3.18,5.44-7.55
		c0-4.35-1.74-7.41-5.44-7.41c-3.76,0-5.63,3.11-5.63,7.41C1038.97,539.62,1040.88,542.83,1044.6,542.83z"/>
	<path d="M1058.63,535.5c0-6.63,3.83-11.31,9.96-11.31c4.98,0,9.47,3.08,9.47,10.61v1.82h-15.18c0.34,4,2.43,6.22,5.98,6.22
		c2.63,0,4.21-1.25,4.92-3.19l4,1.1c-0.9,3.11-3.94,5.78-8.91,5.78C1062.53,546.52,1058.63,542.2,1058.63,535.5z M1062.98,533.34
		h10.86c0-3.14-2-5.47-5.26-5.47C1065.62,527.86,1063.56,529.86,1062.98,533.34z"/>
	<path d="M1094.68,530.48c-0.34-1.17-1.42-2.88-4.16-2.88c-2.27,0-4.07,1.18-4.07,2.81c0,1.37,1.18,2.36,3.24,2.86l3.59,0.83
		c3.66,0.84,5.68,2.81,5.68,5.75c0,3.85-3.46,6.67-8.83,6.67c-5.28,0-7.95-2.62-8.91-5.97l4.07-0.87c0.66,1.97,2.22,3.4,4.94,3.4
		c2.62,0,4.32-1.34,4.32-2.9c0-1.44-1.11-2.14-2.88-2.56l-3.69-0.89c-3.73-0.91-5.84-3.04-5.84-6.06c0-3.91,3.53-6.49,8.5-6.49
		c4.5,0,7.05,2.1,7.98,5.61L1094.68,530.48z"/>
	<path d="M932.98,571.11c-0.51-2.01-2.01-3.64-4.68-3.64c-3.59,0-5.7,2.93-5.7,7.41c0,4.56,2.08,7.55,5.7,7.55
		c2.39,0,4.07-1.34,4.64-3.5l4.18,0.34c-0.72,3.98-4.01,6.85-8.82,6.85c-6.13,0-9.92-4.64-9.92-11.24c0-6.49,3.86-11.09,9.88-11.09
		c4.71,0,8.2,2.76,8.88,6.95L932.98,571.11z"/>
	<path d="M940.63,574.96c0-6.67,3.9-11.16,9.92-11.16c6.01,0,9.92,4.49,9.92,11.16c0,6.65-3.91,11.17-9.92,11.17
		C944.52,586.13,940.63,581.61,940.63,574.96z M956.24,574.96c0-4.09-1.74-7.48-5.7-7.48c-3.97,0-5.7,3.39-5.7,7.48
		c0,4.11,1.73,7.48,5.7,7.48C954.5,582.44,956.24,579.06,956.24,574.96z"/>
	<path d="M969.24,585.69h-4.33v-21.61h4.17v3.22h0.22c1.08-2,3.21-3.5,6.22-3.5c3.92,0,7.06,2.48,7.06,8.23v13.66h-4.32v-13.44
		c0-2.88-1.77-4.63-4.21-4.63c-2.46,0-4.81,1.97-4.81,5.7V585.69z"/>
	<path d="M997.38,567.62h-4.22v11.68c0,2.43,1.21,2.81,2.55,2.81c0.62,0,1.11-0.1,1.42-0.17l0.77,3.56
		c-0.44,0.17-1.49,0.46-3.09,0.46c-3.03,0-5.98-2.01-5.98-5.81v-12.54h-3v-3.54h3v-4.61h4.33v4.61h4.22V567.62z"/>
	<path d="M1000.67,575.11c0-6.63,3.83-11.31,9.96-11.31c4.98,0,9.47,3.08,9.47,10.61v1.82h-15.18c0.34,4,2.43,6.22,5.98,6.22
		c2.63,0,4.21-1.25,4.92-3.19l4,1.1c-0.9,3.11-3.94,5.78-8.91,5.78C1004.57,586.13,1000.67,581.81,1000.67,575.11z M1005.02,572.94
		h10.86c0-3.14-2-5.47-5.26-5.47C1007.66,567.47,1005.59,569.47,1005.02,572.94z"/>
	<path d="M1028.98,585.69h-4.33v-21.61h4.17v3.22h0.22c1.08-2,3.21-3.5,6.22-3.5c3.92,0,7.06,2.48,7.06,8.23v13.66H1038v-13.44
		c0-2.88-1.77-4.63-4.21-4.63c-2.46,0-4.81,1.97-4.81,5.7V585.69z"/>
	<path d="M1061.1,564.08h4.32v21.61h-4.17v-2.8h-0.22c-1.13,1.6-3.21,3.08-6.22,3.08c-3.31,0-7.06-2.36-7.06-8.23v-13.66h4.33v13.59
		c0,2.88,1.77,4.47,4.21,4.47c2.45,0,4.81-1.79,4.81-5.52V564.08z"/>
	<path d="M1082.91,570.09c-0.34-1.17-1.42-2.88-4.16-2.88c-2.27,0-4.07,1.18-4.07,2.81c0,1.37,1.18,2.36,3.24,2.86l3.59,0.83
		c3.66,0.84,5.68,2.81,5.68,5.75c0,3.85-3.46,6.67-8.83,6.67c-5.28,0-7.95-2.62-8.91-5.97l4.07-0.87c0.66,1.97,2.22,3.4,4.94,3.4
		c2.62,0,4.32-1.34,4.32-2.9c0-1.44-1.11-2.14-2.88-2.56l-3.69-0.89c-3.73-0.91-5.84-3.04-5.84-6.06c0-3.91,3.53-6.49,8.5-6.49
		c4.5,0,7.05,2.1,7.98,5.61L1082.91,570.09z"/>
	<path d="M943.32,614.28c0,6.95-5.15,11.41-11.82,11.41c-7.41,0-12.79-5.56-12.79-14.79c0-9.24,5.36-14.81,12.61-14.81
		c5.67,0,10.09,3.38,11.8,9.27l-4.52,0.3c-1.18-3.64-4.01-5.47-7.29-5.47c-4.59,0-8.2,3.56-8.2,10.72c0,7.16,3.63,10.69,8.38,10.69
		c4.32,0,7.49-2.94,7.49-7.32h-6.57v-3.64h10.9V614.28z"/>
	<path d="M947.39,614.72c0-6.63,3.83-11.31,9.96-11.31c4.98,0,9.47,3.08,9.47,10.61v1.82h-15.18c0.34,4,2.43,6.22,5.98,6.22
		c2.63,0,4.21-1.25,4.92-3.19l4,1.1c-0.9,3.11-3.94,5.78-8.91,5.78C951.29,625.73,947.39,621.41,947.39,614.72z M951.74,612.55
		h10.86c0-3.14-2-5.47-5.26-5.47C954.38,607.08,952.32,609.08,951.74,612.55z M958.59,595.43h4.46l-4.66,5.85h-3.32L958.59,595.43z"
		/>
	<path d="M982.68,607.99c-0.32-0.17-1.01-0.45-1.93-0.45c-3.09,0-5.02,2.86-5.05,5.53v12.23h-4.33v-21.61h4.28v3.4h0.25
		c0.62-2.14,2.91-3.73,5.25-3.73c1.12,0,2.25,0.37,2.93,0.76L982.68,607.99z"/>
	<path d="M985.37,614.72c0-6.63,3.83-11.31,9.96-11.31c4.98,0,9.47,3.08,9.47,10.61v1.82h-15.18c0.34,4,2.43,6.22,5.98,6.22
		c2.63,0,4.21-1.25,4.92-3.19l4,1.1c-0.9,3.11-3.94,5.78-8.91,5.78C989.26,625.73,985.37,621.41,985.37,614.72z M989.71,612.55
		h10.86c0-3.14-2-5.47-5.26-5.47C992.36,607.08,990.29,609.08,989.71,612.55z"/>
	<path d="M1020.66,607.99c-0.32-0.17-1.01-0.45-1.93-0.45c-3.09,0-5.02,2.86-5.05,5.53v12.23h-4.33v-21.61h4.28v3.4h0.25
		c0.62-2.14,2.91-3.73,5.25-3.73c1.12,0,2.25,0.37,2.93,0.76L1020.66,607.99z"/>
	<path d="M1050.36,625.3v-2.95h-0.32c-0.73,1.32-2.32,3.36-5.88,3.36c-5.12,0-8.89-4.15-8.89-11.17c0-7.05,3.84-11.13,8.93-11.13
		c3.59,0,5.11,2.07,5.84,3.35h0.22v-10.27h4.33v28.81H1050.36z M1045.09,622.05c3.69,0,5.44-3.18,5.44-7.55
		c0-4.35-1.74-7.41-5.44-7.41c-3.76,0-5.63,3.11-5.63,7.41C1039.46,618.84,1041.38,622.05,1045.09,622.05z"/>
	<path d="M1059.12,614.72c0-6.63,3.83-11.31,9.96-11.31c4.98,0,9.47,3.08,9.47,10.61v1.82h-15.18c0.34,4,2.43,6.22,5.98,6.22
		c2.63,0,4.21-1.25,4.92-3.19l4,1.1c-0.9,3.11-3.94,5.78-8.91,5.78C1063.02,625.73,1059.12,621.41,1059.12,614.72z M1063.47,612.55
		h10.86c0-3.14-2-5.47-5.26-5.47C1066.12,607.08,1064.05,609.08,1063.47,612.55z"/>
	<path d="M1095.18,609.69c-0.34-1.17-1.42-2.88-4.16-2.88c-2.27,0-4.07,1.18-4.07,2.81c0,1.37,1.18,2.36,3.24,2.86l3.59,0.83
		c3.66,0.84,5.68,2.81,5.68,5.75c0,3.85-3.46,6.67-8.83,6.67c-5.28,0-7.95-2.62-8.91-5.97l4.07-0.87c0.66,1.97,2.22,3.4,4.94,3.4
		c2.62,0,4.32-1.34,4.32-2.9c0-1.44-1.11-2.14-2.88-2.56l-3.69-0.89c-3.73-0.91-5.84-3.04-5.84-6.06c0-3.91,3.53-6.49,8.5-6.49
		c4.5,0,7.05,2.1,7.98,5.61L1095.18,609.69z"/>
	<path d="M932.98,650.33c-0.51-2.01-2.01-3.64-4.68-3.64c-3.59,0-5.7,2.93-5.7,7.41c0,4.56,2.08,7.55,5.7,7.55
		c2.39,0,4.07-1.34,4.64-3.5l4.18,0.34c-0.72,3.98-4.01,6.85-8.82,6.85c-6.13,0-9.92-4.64-9.92-11.24c0-6.49,3.86-11.09,9.88-11.09
		c4.71,0,8.2,2.76,8.88,6.95L932.98,650.33z"/>
	<path d="M953.96,662.22h-0.2c-0.72,1.38-2.57,3.15-6.01,3.15c-3.98,0-7.2-2.38-7.2-6.58c0-4.54,3.81-6.05,8.53-6.56
		c2.48-0.3,4.78-0.28,4.78-1.56v-0.18c0-2.8-1.59-3.91-3.86-3.91c-2.66,0-4.28,1.43-4.84,2.95l-4.09-0.94
		c1.37-3.95,5.01-5.57,8.91-5.57c3.47,0,8.23,1.31,8.23,7.53v14.36h-4.25V662.22z M953.87,654.42c-0.49,0.56-3.42,0.9-4.63,1.06
		c-2.59,0.32-4.43,1.14-4.43,3.38c0,1.94,1.59,3,3.84,3c3.22,0,5.22-2.15,5.22-4.49V654.42z"/>
	<path d="M980.07,664.9h-4.29v-13.93c0-2.95-1.45-4.14-3.62-4.14c-2.19,0-4.21,1.8-4.21,4.94v13.13h-4.33v-21.61h4.28v3.22h0.21
		c0.82-1.74,2.9-3.5,5.63-3.5c2.66,0,4.53,1.53,5.47,3.6h0.22c0.8-1.79,3.17-3.6,6.19-3.6c3.63,0,6.56,2.36,6.56,7.96v13.93h-4.33
		v-14c0-3.1-2.03-4.07-3.74-4.07c-2.55,0-4.04,1.73-4.04,4.56V664.9z"/>
	<path d="M997.6,643.29h4.24v3.07h0.35c0.73-1.28,2.21-3.35,5.8-3.35c5.11,0,8.95,4.08,8.95,11.13c0,7.02-3.77,11.17-8.91,11.17
		c-3.54,0-5.11-2.04-5.84-3.36h-0.25v11.06h-4.33V643.29z M1007.11,646.68c-3.71,0-5.46,3.07-5.46,7.41c0,4.38,1.77,7.55,5.46,7.55
		c3.71,0,5.61-3.21,5.61-7.55C1012.73,649.79,1010.87,646.68,1007.11,646.68z"/>
	<path d="M1033.97,662.22h-0.2c-0.72,1.38-2.57,3.15-6.01,3.15c-3.98,0-7.2-2.38-7.2-6.58c0-4.54,3.81-6.05,8.53-6.56
		c2.48-0.3,4.78-0.28,4.78-1.56v-0.18c0-2.8-1.59-3.91-3.86-3.91c-2.66,0-4.28,1.43-4.84,2.95l-4.09-0.94
		c1.37-3.95,5.01-5.57,8.91-5.57c3.47,0,8.23,1.31,8.23,7.53v14.36h-4.25V662.22z M1033.87,654.42c-0.49,0.56-3.42,0.9-4.63,1.06
		c-2.59,0.32-4.43,1.14-4.43,3.38c0,1.94,1.59,3,3.84,3c3.22,0,5.22-2.15,5.22-4.49V654.42z"/>
	<path d="M1061.9,643.34v21.37c0,5.7-4.38,8.36-9.78,8.36c-4.39,0-7.3-1.87-8.61-3.81l2.67-2.67c1,1.06,2.62,2.79,5.85,2.79
		c3.12,0,5.61-1.53,5.58-4.99v-3.05h-0.31c-0.67,1.17-2.15,3.21-5.85,3.21c-4.94,0-8.89-3.6-8.89-10.55
		c0-6.88,3.84-10.96,8.93-10.96c3.59,0,5.11,2.07,5.84,3.35h0.32v-3.03H1061.9z M1052.39,660.89c3.62,0,5.44-2.67,5.44-6.96
		c0-4.18-1.77-7.25-5.44-7.25c-3.76,0-5.63,3.12-5.63,7.25C1046.76,658.19,1048.75,660.89,1052.39,660.89z"/>
	<path d="M1071.66,664.9h-4.33v-21.61h4.17v3.22h0.22c1.08-2,3.21-3.5,6.22-3.5c3.92,0,7.06,2.48,7.06,8.23v13.66h-4.32v-13.44
		c0-2.88-1.77-4.63-4.21-4.63c-2.46,0-4.81,1.97-4.81,5.7V664.9z"/>
	<path d="M1089.36,654.32c0-6.63,3.83-11.31,9.96-11.31c4.98,0,9.47,3.08,9.47,10.61v1.82h-15.18c0.34,4,2.43,6.22,5.98,6.22
		c2.63,0,4.21-1.25,4.92-3.19l4,1.1c-0.9,3.11-3.94,5.78-8.91,5.78C1093.26,665.34,1089.36,661.02,1089.36,654.32z M1093.71,652.16
		h10.86c0-3.14-2-5.47-5.26-5.47C1096.36,646.68,1094.29,648.68,1093.71,652.16z"/>
	<path d="M1125.42,649.3c-0.34-1.17-1.42-2.88-4.16-2.88c-2.27,0-4.07,1.18-4.07,2.81c0,1.37,1.18,2.36,3.24,2.86l3.59,0.83
		c3.66,0.84,5.68,2.81,5.68,5.75c0,3.85-3.46,6.67-8.83,6.67c-5.28,0-7.95-2.62-8.91-5.97l4.07-0.87c0.66,1.97,2.22,3.4,4.94,3.4
		c2.62,0,4.32-1.34,4.32-2.9c0-1.44-1.11-2.14-2.88-2.56l-3.69-0.89c-3.73-0.91-5.84-3.04-5.84-6.06c0-3.91,3.53-6.49,8.5-6.49
		c4.5,0,7.05,2.1,7.98,5.61L1125.42,649.3z"/>
</g>
<g>
	<path class="st11" d="M888.61,363.45l9.55,23.49h0.39l9.52-23.49h8.17v33.72h-6.42v-23h-0.28l-8.86,22.56H896l-8.87-22.66h-0.28
		v23.1h-6.42v-33.72H888.61z"/>
	<path class="st11" d="M935.96,394.32h-0.3c-0.87,1.61-2.91,3.36-6.47,3.36c-4.5,0-8.23-2.75-8.23-7.64s3.77-7.34,10.17-7.94
		c2.24-0.25,4.54-0.33,4.54-1.66v-0.38c0-2.26-1.43-3.52-3.66-3.52c-2.35,0-4.08,1.35-4.54,3.06l-6.01-0.87
		c1.17-4.66,5.33-7.18,10.72-7.18c5.02,0,9.93,2.22,9.93,8.64v16.97h-6.16V394.32z M935.68,385.39c-0.48,0.53-2.78,0.86-3.94,1
		c-3.03,0.35-4.56,1.37-4.56,3.56c0,1.81,1.43,2.88,3.54,2.88c2.82,0,4.96-1.89,4.96-4.1V385.39z"/>
	<path class="st11" d="M961.52,377.9c-0.35-0.2-1.32-0.53-2.35-0.53c-3.03,0-5.12,2.65-5.15,5.45v14.34h-6.39v-25.29h6.26v3.59h0.36
		c0.72-2.57,3.31-3.93,5.78-3.93c1.32,0,2.7,0.36,3.49,0.82L961.52,377.9z"/>
	<path class="st11" d="M975.33,386.73l-2.21,2.49v7.95h-6.39v-33.72h6.39v17.76h0.38l7.85-9.33h7.49l-9.34,10.78l9.94,14.5h-7.01
		L975.33,386.73z"/>
	<path class="st11" d="M990.1,384.85c0-7.72,4.41-13.3,11.99-13.3c6.42,0,11.31,4.03,11.31,12.15v2.68h-17.12
		c0.41,3.75,2.39,6.03,6.03,6.03c3.05,0,4.43-1.63,5.1-3.51l5.73,1.55c-0.92,3.47-4.21,7.2-10.78,7.2
		C994.76,397.64,990.1,392.75,990.1,384.85z M996.46,381.99h10.88c0-2.98-1.94-5.25-5.3-5.25
		C999.11,376.73,997.13,378.66,996.46,381.99z"/>
	<path class="st11" d="M1030.12,376.62h-4.41v12.81c0,2.35,1.15,2.7,2.55,2.7c0.59,0,1.2-0.08,1.63-0.2l1,4.92
		c-0.48,0.2-2.07,0.64-4.41,0.64c-3.84,0-7.16-2.65-7.16-7.1v-13.78h-3.14v-4.74h3.14v-5.4h6.39v5.4h4.41V376.62z"/>
	<path class="st11" d="M1034.54,366.38c0-1.81,1.6-3.39,3.67-3.39c2.07,0,3.61,1.58,3.61,3.39c0,1.86-1.53,3.39-3.61,3.39
		C1036.14,369.77,1034.54,368.24,1034.54,366.38z M1041.39,397.17H1035v-25.29h6.39V397.17z"/>
	<path class="st11" d="M1053.45,397.17h-6.39v-25.29h5.99v3.21h0.26c1.37-2.08,3.82-3.54,7.01-3.54c4.43,0,8.4,2.7,8.4,9.73v15.89
		h-6.4v-15.62c0-3.01-1.81-4.72-4.23-4.72c-2.85,0-4.64,2.5-4.64,6.44V397.17z"/>
	<path class="st11" d="M1096.04,371.96v24.52c0,6.83-5.02,10.31-11.87,10.31c-4.81,0-8.45-1.96-9.88-3.77l3.13-4.18
		c1.4,1.2,3.39,2.67,6.59,2.67c3.39,0,5.81-1.56,5.78-5.42v-2.55h-0.36c-0.72,1.33-2.62,3.16-6.26,3.16
		c-5.42,0-10.08-3.95-10.08-12.35c0-8.35,4.59-12.79,10.09-12.79c3.38,0,5.35,1.73,6.21,3.46h0.35v-3.05H1096.04z M1084.84,391.58
		c3.74,0,5.42-2.87,5.42-7.26c0-4.26-1.61-7.59-5.42-7.59c-3.77,0-5.66,3.13-5.66,7.59
		C1079.18,389.02,1081.27,391.58,1084.84,391.58z"/>
	<path class="st11" d="M816.82,441.4c-2.47,1.75-5.27,2.57-8.53,2.57c-6.65,0-10.73-3.95-10.73-9.5c0-3.95,2.47-6.27,6.09-8.84
		c-1.98-2.67-3.26-4.97-3.26-7.49c0-5.29,3.49-8.76,8.92-8.76c5.12,0,8.35,3.56,8.35,7.75c0,3.14-1.79,5.57-4.38,7.46l-2.16,1.58
		l5.89,7.01c0.84-1.66,1.35-3.62,1.35-5.81h5.37c0,4-0.84,7.49-2.93,10.31l4.91,5.83h-7.1L816.82,441.4z M808.6,438.8
		c1.65,0,3.29-0.53,4.76-1.48l-6.68-7.89l-0.61,0.44c-1.83,1.53-2.27,3-2.27,4.28C803.8,436.78,805.77,438.8,808.6,438.8z
		 M808.16,422.57l1.76-1.2c1.91-1.25,2.49-2.42,2.49-3.82s-1.19-2.98-3.14-2.98c-2.07,0-3.31,1.55-3.31,3.49
		C805.95,419.47,806.86,420.92,808.16,422.57z"/>
	<path class="st11" d="M865.16,421.09c-0.99-3.92-3.97-5.88-7.56-5.88c-4.86,0-8.38,3.62-8.38,11.49c0,7.85,3.52,11.39,8.38,11.39
		c3.59,0,6.49-1.93,7.47-5.75l6.37,0.71c-1.66,6.96-7.1,10.92-13.85,10.92c-8.58,0-14.88-6.42-14.88-17.27
		c0-10.9,6.31-17.37,14.88-17.37c6.75,0,12.23,4,13.88,11.05L865.16,421.09z"/>
	<path class="st11" d="M875.3,430.92c0-7.74,4.53-13.02,11.77-13.02c7.26,0,11.77,5.29,11.77,13.02c0,7.69-4.51,13.07-11.77,13.07
		C879.83,443.99,875.3,438.6,875.3,430.92z M892.72,430.92c0-4.5-1.65-7.84-5.65-7.84c-3.98,0-5.65,3.34-5.65,7.84
		c0,4.48,1.66,7.84,5.65,7.84C891.08,438.75,892.72,435.39,892.72,430.92z"/>
	<path class="st11" d="M923.65,443.51h-6.24v-16.04c0-3.06-1.6-4.31-3.8-4.31c-2.11,0-3.97,1.51-3.97,4.69v15.66h-6.39v-25.29h6.26
		v3.21h0.21c1.22-1.91,3.46-3.54,6.59-3.54c3.08,0,5.24,1.5,6.31,3.82h0.26c1.17-2.06,3.8-3.82,7.18-3.82
		c4.25,0,7.67,2.63,7.67,9.58v16.04h-6.39v-16.09c0-3.23-1.84-4.26-3.72-4.26c-2.49,0-3.97,1.6-3.97,4.61V443.51z"/>
	<path class="st11" d="M963.61,443.51h-6.24v-16.04c0-3.06-1.6-4.31-3.8-4.31c-2.11,0-3.97,1.51-3.97,4.69v15.66h-6.39v-25.29h6.26
		v3.21h0.21c1.22-1.91,3.46-3.54,6.59-3.54c3.08,0,5.24,1.5,6.31,3.82h0.26c1.17-2.06,3.8-3.82,7.18-3.82
		c4.25,0,7.67,2.63,7.67,9.58v16.04h-6.39v-16.09c0-3.23-1.84-4.26-3.72-4.26c-2.49,0-3.97,1.6-3.97,4.61V443.51z"/>
	<path class="st11" d="M998.43,418.22h6.4v25.29h-5.99v-2.98h-0.26c-1.38,1.88-3.82,3.31-7.01,3.31c-4.1,0-8.4-2.63-8.4-9.73v-15.89
		h6.39v15.71c0,3.01,1.81,4.64,4.23,4.64c2.86,0,4.64-2.39,4.64-6.32V418.22z"/>
	<path class="st11" d="M1016.71,443.51h-6.39v-25.29h5.99v3.21h0.26c1.37-2.08,3.82-3.54,7.01-3.54c4.43,0,8.4,2.7,8.4,9.73v15.89
		h-6.4v-15.62c0-3.01-1.81-4.72-4.23-4.72c-2.85,0-4.64,2.5-4.64,6.44V443.51z"/>
	<path class="st11" d="M1037.2,412.72c0-1.81,1.6-3.39,3.67-3.39c2.07,0,3.61,1.58,3.61,3.39c0,1.86-1.53,3.39-3.61,3.39
		C1038.79,416.11,1037.2,414.58,1037.2,412.72z M1044.05,443.51h-6.39v-25.29h6.39V443.51z"/>
	<path class="st11" d="M1065.25,427.18c-0.59-2.39-2.06-4.1-4.86-4.1c-3.77,0-5.65,3.09-5.65,7.79c0,4.74,1.84,7.89,5.65,7.89
		c2.54,0,4.13-1.47,4.77-3.74l5.98,0.86c-1,4.82-5.05,8.12-10.75,8.12c-7.31,0-11.77-5.43-11.77-13.12
		c0-7.62,4.51-12.97,11.76-12.97c5.75,0,9.89,3.29,10.82,8.4L1065.25,427.18z"/>
	<path class="st11" d="M1089.67,440.66h-0.3c-0.87,1.61-2.91,3.36-6.47,3.36c-4.5,0-8.23-2.75-8.23-7.64s3.77-7.34,10.17-7.94
		c2.24-0.25,4.54-0.33,4.54-1.66v-0.38c0-2.26-1.43-3.52-3.66-3.52c-2.35,0-4.08,1.35-4.54,3.06l-6.01-0.87
		c1.17-4.66,5.33-7.18,10.72-7.18c5.02,0,9.93,2.22,9.93,8.64v16.97h-6.16V440.66z M1089.39,431.74c-0.48,0.53-2.78,0.86-3.94,1
		c-3.03,0.35-4.56,1.37-4.56,3.56c0,1.81,1.43,2.88,3.54,2.88c2.82,0,4.96-1.89,4.96-4.1V431.74z"/>
	<path class="st11" d="M1113.01,422.96h-4.41v12.81c0,2.35,1.15,2.7,2.55,2.7c0.59,0,1.2-0.08,1.63-0.2l1,4.92
		c-0.48,0.2-2.07,0.64-4.41,0.64c-3.84,0-7.16-2.65-7.16-7.1v-13.78h-3.14v-4.74h3.14v-5.4h6.39v5.4h4.41V422.96z"/>
	<path class="st11" d="M1117.43,412.72c0-1.81,1.6-3.39,3.67-3.39c2.07,0,3.61,1.58,3.61,3.39c0,1.86-1.53,3.39-3.61,3.39
		C1119.03,416.11,1117.43,414.58,1117.43,412.72z M1124.28,443.51h-6.39v-25.29h6.39V443.51z"/>
	<path class="st11" d="M1128.85,430.92c0-7.74,4.53-13.02,11.77-13.02c7.26,0,11.77,5.29,11.77,13.02c0,7.69-4.51,13.07-11.77,13.07
		C1133.38,443.99,1128.85,438.6,1128.85,430.92z M1146.27,430.92c0-4.5-1.65-7.84-5.65-7.84c-3.98,0-5.65,3.34-5.65,7.84
		c0,4.48,1.66,7.84,5.65,7.84C1144.62,438.75,1146.27,435.39,1146.27,430.92z"/>
	<path class="st11" d="M1163.18,443.51h-6.39v-25.29h5.99v3.21h0.26c1.37-2.08,3.82-3.54,7.01-3.54c4.43,0,8.4,2.7,8.4,9.73v15.89
		h-6.4v-15.62c0-3.01-1.81-4.72-4.23-4.72c-2.85,0-4.64,2.5-4.64,6.44V443.51z"/>
</g>
<g>
	<path class="st11" d="M112.93,396.17h-6.5v-33.72h6.5V396.17z"/>
	<path class="st11" d="M124.98,396.17h-6.39v-25.29h5.99v3.21h0.26c1.37-2.08,3.82-3.54,7.01-3.54c4.43,0,8.4,2.7,8.4,9.73v15.89
		h-6.4v-15.62c0-3.01-1.81-4.72-4.23-4.72c-2.85,0-4.64,2.5-4.64,6.44V396.17z"/>
	<path class="st11" d="M147.64,375.62h-3.41v-4.74h3.41v-1.02c0-5.3,3.44-7.87,7.92-7.87c2.17,0,3.85,0.44,4.68,0.71l-1.22,4.87
		c-0.58-0.18-1.32-0.35-2.17-0.35c-1.98,0-2.82,0.96-2.82,2.93v0.72h4.99v4.74h-4.99v20.55h-6.39V375.62z"/>
	<path class="st11" d="M161.45,383.57c0-7.74,4.53-13.02,11.77-13.02c7.26,0,11.77,5.29,11.77,13.02c0,7.69-4.51,13.07-11.77,13.07
		C165.97,396.64,161.45,391.26,161.45,383.57z M178.87,383.57c0-4.5-1.65-7.84-5.65-7.84c-3.98,0-5.65,3.34-5.65,7.84
		c0,4.48,1.66,7.84,5.65,7.84C177.22,391.41,178.87,388.05,178.87,383.57z"/>
	<path class="st11" d="M203.29,376.9c-0.35-0.2-1.32-0.53-2.35-0.53c-3.03,0-5.12,2.65-5.15,5.45v14.34h-6.39v-25.29h6.26v3.59h0.36
		c0.72-2.57,3.31-3.93,5.78-3.93c1.32,0,2.7,0.36,3.49,0.82L203.29,376.9z"/>
	<path class="st11" d="M229.19,396.17h-6.24v-16.04c0-3.06-1.6-4.31-3.8-4.31c-2.11,0-3.97,1.51-3.97,4.69v15.66h-6.39v-25.29h6.26
		v3.21h0.21c1.22-1.91,3.46-3.54,6.59-3.54c3.08,0,5.24,1.5,6.31,3.82h0.26c1.17-2.06,3.8-3.82,7.18-3.82
		c4.25,0,7.67,2.63,7.67,9.58v16.04h-6.39v-16.09c0-3.23-1.84-4.26-3.72-4.26c-2.49,0-3.97,1.6-3.97,4.61V396.17z"/>
	<path class="st11" d="M262.83,393.32h-0.3c-0.87,1.61-2.91,3.36-6.47,3.36c-4.5,0-8.23-2.75-8.23-7.64s3.77-7.34,10.17-7.94
		c2.24-0.25,4.54-0.33,4.54-1.66v-0.38c0-2.26-1.43-3.52-3.66-3.52c-2.35,0-4.08,1.35-4.54,3.06l-6.01-0.87
		c1.17-4.66,5.33-7.18,10.72-7.18c5.02,0,9.93,2.22,9.93,8.64v16.97h-6.16V393.32z M262.55,384.39c-0.48,0.53-2.78,0.86-3.94,1
		c-3.03,0.35-4.56,1.37-4.56,3.56c0,1.81,1.43,2.88,3.54,2.88c2.82,0,4.96-1.89,4.96-4.1V384.39z"/>
	<path class="st11" d="M286.17,375.62h-4.41v12.81c0,2.35,1.15,2.7,2.55,2.7c0.59,0,1.2-0.08,1.63-0.2l1,4.92
		c-0.48,0.2-2.07,0.64-4.41,0.64c-3.84,0-7.16-2.65-7.16-7.1v-13.78h-3.14v-4.74h3.14v-5.4h6.39v5.4h4.41V375.62z"/>
	<path class="st11" d="M290.59,365.38c0-1.81,1.6-3.39,3.67-3.39c2.07,0,3.61,1.58,3.61,3.39c0,1.86-1.53,3.39-3.61,3.39
		C292.19,368.77,290.59,367.24,290.59,365.38z M297.44,396.17h-6.39v-25.29h6.39V396.17z"/>
	<path class="st11" d="M324.96,405.65h-6.39v-12.48h-0.26c-0.86,1.75-2.88,3.44-6.22,3.44c-5.66,0-10.08-4.63-10.08-13.07
		c0-8.54,4.59-12.99,10.09-12.99c3.38,0,5.35,1.73,6.21,3.46h0.35v-3.13h6.31V405.65z M313.77,391.41c3.92,0,5.42-3.46,5.42-7.89
		c0-4.46-1.51-7.79-5.42-7.79c-3.77,0-5.66,3.08-5.66,7.79C308.1,388.25,310.01,391.41,313.77,391.41z"/>
	<path class="st11" d="M345.71,370.88h6.4v25.29h-5.99v-2.98h-0.26c-1.38,1.88-3.82,3.31-7.01,3.31c-4.1,0-8.4-2.63-8.4-9.73v-15.89
		h6.39v15.71c0,3.01,1.81,4.64,4.23,4.64c2.86,0,4.64-2.39,4.64-6.32V370.88z"/>
	<path class="st11" d="M356.68,383.85c0-7.72,4.41-13.3,11.99-13.3c6.42,0,11.31,4.03,11.31,12.15v2.68h-17.12
		c0.41,3.75,2.39,6.03,6.03,6.03c3.05,0,4.43-1.63,5.1-3.51l5.73,1.55c-0.92,3.47-4.21,7.2-10.78,7.2
		C361.34,396.64,356.68,391.75,356.68,383.85z M363.04,380.99h10.88c0-2.98-1.94-5.25-5.3-5.25
		C365.69,375.73,363.71,377.66,363.04,380.99z"/>
	<path class="st11" d="M130.08,440.4c-2.47,1.75-5.27,2.57-8.53,2.57c-6.65,0-10.73-3.95-10.73-9.5c0-3.95,2.47-6.27,6.09-8.84
		c-1.98-2.67-3.26-4.97-3.26-7.49c0-5.29,3.49-8.76,8.92-8.76c5.12,0,8.35,3.56,8.35,7.75c0,3.14-1.79,5.57-4.38,7.46l-2.16,1.58
		l5.89,7.01c0.84-1.66,1.35-3.62,1.35-5.81H137c0,4-0.84,7.49-2.93,10.31l4.91,5.83h-7.1L130.08,440.4z M121.87,437.8
		c1.65,0,3.29-0.53,4.76-1.48l-6.68-7.89l-0.61,0.44c-1.83,1.53-2.27,3-2.27,4.28C117.06,435.78,119.04,437.8,121.87,437.8z
		 M121.42,421.57l1.76-1.2c1.91-1.25,2.49-2.42,2.49-3.82s-1.19-2.98-3.14-2.98c-2.07,0-3.31,1.55-3.31,3.49
		C119.22,418.47,120.12,419.92,121.42,421.57z"/>
	<path class="st11" d="M163.18,442.51h-6.5v-33.72h6.5V442.51z"/>
	<path class="st11" d="M175.22,442.51h-6.39v-25.29h5.99v3.21h0.26c1.37-2.08,3.82-3.54,7.01-3.54c4.43,0,8.4,2.7,8.4,9.73v15.89
		h-6.4v-15.62c0-3.01-1.81-4.72-4.23-4.72c-2.85,0-4.64,2.5-4.64,6.44V442.51z"/>
	<path class="st11" d="M207.66,421.96h-4.41v12.81c0,2.35,1.15,2.7,2.55,2.7c0.59,0,1.2-0.08,1.63-0.2l1,4.92
		c-0.48,0.2-2.07,0.64-4.41,0.64c-3.84,0-7.16-2.65-7.16-7.1v-13.78h-3.14v-4.74h3.14v-5.4h6.39v5.4h4.41V421.96z"/>
	<path class="st11" d="M210.98,430.19c0-7.72,4.41-13.3,11.99-13.3c6.42,0,11.31,4.03,11.31,12.15v2.68h-17.12
		c0.41,3.75,2.39,6.03,6.03,6.03c3.05,0,4.43-1.63,5.1-3.51l5.73,1.55c-0.92,3.47-4.21,7.2-10.78,7.2
		C215.64,442.99,210.98,438.1,210.98,430.19z M217.34,427.33h10.88c0-2.98-1.94-5.25-5.3-5.25
		C219.99,422.08,218.01,424,217.34,427.33z"/>
	<path class="st11" d="M252.78,423.25c-0.35-0.2-1.32-0.53-2.35-0.53c-3.03,0-5.12,2.65-5.15,5.45v14.34h-6.39v-25.29h6.26v3.59
		h0.36c0.72-2.57,3.31-3.93,5.78-3.93c1.32,0,2.7,0.36,3.49,0.82L252.78,423.25z"/>
	<path class="st11" d="M261.03,421.96h-3.41v-4.74h3.41v-1.02c0-5.3,3.44-7.87,7.92-7.87c2.17,0,3.85,0.44,4.68,0.71l-1.22,4.87
		c-0.58-0.18-1.32-0.35-2.17-0.35c-1.98,0-2.82,0.96-2.82,2.93v0.72h4.99v4.74h-4.99v20.55h-6.39V421.96z"/>
	<path class="st11" d="M290.12,439.66h-0.3c-0.87,1.61-2.91,3.36-6.47,3.36c-4.5,0-8.23-2.75-8.23-7.64s3.77-7.34,10.17-7.94
		c2.24-0.25,4.54-0.33,4.54-1.66v-0.38c0-2.26-1.43-3.52-3.66-3.52c-2.35,0-4.08,1.35-4.54,3.06l-6.01-0.87
		c1.17-4.66,5.33-7.18,10.72-7.18c5.02,0,9.93,2.22,9.93,8.64v16.97h-6.16V439.66z M289.84,430.74c-0.48,0.53-2.78,0.86-3.94,1
		c-3.03,0.35-4.56,1.37-4.56,3.56c0,1.81,1.43,2.88,3.54,2.88c2.82,0,4.96-1.89,4.96-4.1V430.74z"/>
	<path class="st11" d="M317.27,426.18c-0.59-2.39-2.06-4.1-4.86-4.1c-3.77,0-5.65,3.09-5.65,7.79c0,4.74,1.84,7.89,5.65,7.89
		c2.54,0,4.13-1.47,4.77-3.74l5.98,0.86c-1,4.82-5.05,8.12-10.75,8.12c-7.31,0-11.77-5.43-11.77-13.12
		c0-7.62,4.51-12.97,11.76-12.97c5.75,0,9.89,3.29,10.82,8.4L317.27,426.18z"/>
	<path class="st11" d="M326.78,430.19c0-7.72,4.41-13.3,11.99-13.3c6.42,0,11.31,4.03,11.31,12.15v2.68h-17.12
		c0.41,3.75,2.39,6.03,6.03,6.03c3.05,0,4.43-1.63,5.1-3.51l5.73,1.55c-0.92,3.47-4.21,7.2-10.78,7.2
		C331.44,442.99,326.78,438.1,326.78,430.19z M333.13,427.33h10.88c0-2.98-1.94-5.25-5.3-5.25
		C335.79,422.08,333.81,424,333.13,427.33z"/>
	<path class="st11" d="M369,424.68c-0.33-1.66-1.89-3.01-4.35-3.01c-2.16,0-4.07,1.05-4.07,2.7c0,1.43,1.38,2.24,3.26,2.65l4.69,1
		c3.89,0.86,6.78,2.77,6.78,6.83c0,5.24-4.84,8.13-11.13,8.13c-6.34,0-9.86-2.87-10.85-7.64l6.11-0.69c0.61,2.3,2.54,3.59,5.02,3.59
		c2.47,0,4.3-1.2,4.3-2.67c0-1.75-1.46-2.24-3.08-2.6l-4.45-1c-4.07-0.97-7-3.16-7-7.2c0-4.91,4.3-7.89,10.67-7.89
		c5.93,0,9.07,2.62,9.9,7.19L369,424.68z"/>
</g>
<g>
	<path class="st11" d="M582.53,857.1c0,7.94-6.16,13.12-13.9,13.12c-8.58,0-14.93-6.34-14.93-17.27c0-10.98,6.31-17.37,14.75-17.37
		c6.54,0,11.84,3.82,13.91,10.69l-6.57,0.71c-1.19-3.77-4.07-5.52-7.34-5.52c-4.64,0-8.25,3.54-8.25,11.49s3.66,11.39,8.43,11.39
		c4.3,0,7.57-2.82,7.57-7.24h-7.06v-4.96h13.39V857.1z"/>
	<path class="st11" d="M586.7,857.45c0-7.72,4.41-13.3,11.99-13.3c6.42,0,11.31,4.03,11.31,12.15v2.68h-17.12
		c0.41,3.75,2.39,6.03,6.03,6.03c3.05,0,4.43-1.63,5.1-3.51l5.73,1.55c-0.92,3.47-4.21,7.2-10.78,7.2
		C591.36,870.24,586.7,865.35,586.7,857.45z M593.06,854.59h10.88c0-2.98-1.94-5.25-5.3-5.25
		C595.71,849.33,593.73,851.26,593.06,854.59z"/>
	<path class="st11" d="M628.92,851.93c-0.33-1.66-1.89-3.01-4.35-3.01c-2.16,0-4.07,1.05-4.07,2.7c0,1.43,1.38,2.24,3.26,2.65
		l4.69,1c3.89,0.86,6.78,2.77,6.78,6.83c0,5.24-4.84,8.13-11.13,8.13c-6.34,0-9.86-2.87-10.85-7.64l6.11-0.69
		c0.61,2.3,2.54,3.59,5.02,3.59c2.47,0,4.3-1.2,4.3-2.67c0-1.75-1.46-2.24-3.08-2.6l-4.45-1c-4.07-0.97-7-3.16-7-7.2
		c0-4.91,4.3-7.89,10.67-7.89c5.93,0,9.07,2.62,9.9,7.19L628.92,851.93z"/>
	<path class="st11" d="M651.8,849.22h-4.41v12.81c0,2.35,1.15,2.7,2.55,2.7c0.59,0,1.2-0.08,1.63-0.2l1,4.92
		c-0.48,0.2-2.07,0.64-4.41,0.64c-3.84,0-7.16-2.65-7.16-7.1v-13.78h-3.14v-4.74H641v-5.4h6.39v5.4h4.41V849.22z"/>
	<path class="st11" d="M656.22,838.98c0-1.81,1.6-3.39,3.67-3.39c2.07,0,3.61,1.58,3.61,3.39c0,1.86-1.53,3.39-3.61,3.39
		C657.82,842.37,656.22,840.84,656.22,838.98z M663.07,869.77h-6.39v-25.29h6.39V869.77z"/>
	<path class="st11" d="M667.64,857.17c0-7.74,4.53-13.02,11.77-13.02c7.26,0,11.77,5.29,11.77,13.02c0,7.69-4.51,13.07-11.77,13.07
		C672.17,870.24,667.64,864.86,667.64,857.17z M685.06,857.17c0-4.5-1.65-7.84-5.65-7.84c-3.98,0-5.65,3.34-5.65,7.84
		c0,4.48,1.66,7.84,5.65,7.84C683.42,865.01,685.06,861.65,685.06,857.17z"/>
	<path class="st11" d="M701.98,869.77h-6.39v-25.29h5.99v3.21h0.26c1.37-2.08,3.82-3.54,7.01-3.54c4.43,0,8.4,2.7,8.4,9.73v15.89
		h-6.4v-15.62c0-3.01-1.81-4.72-4.23-4.72c-2.85,0-4.64,2.5-4.64,6.44V869.77z"/>
	<path class="st11" d="M556.4,916.11v-3h-0.35c-0.86,1.75-2.88,3.44-6.22,3.44c-5.66,0-10.08-4.63-10.08-13.07
		c0-8.54,4.59-12.99,10.09-12.99c3.38,0,5.35,1.73,6.21,3.46h0.26v-11.56h6.39v33.72H556.4z M551.51,911.35
		c3.92,0,5.42-3.46,5.42-7.89c0-4.46-1.51-7.79-5.42-7.79c-3.77,0-5.66,3.08-5.66,7.79C545.85,908.19,547.76,911.35,551.51,911.35z"
		/>
	<path class="st11" d="M567.27,903.79c0-7.72,4.41-13.3,11.99-13.3c6.42,0,11.31,4.03,11.31,12.15v2.68h-17.12
		c0.41,3.75,2.39,6.03,6.03,6.03c3.05,0,4.43-1.63,5.1-3.51l5.73,1.55c-0.92,3.47-4.21,7.2-10.78,7.2
		C571.93,916.59,567.27,911.7,567.27,903.79z M573.63,900.93h10.88c0-2.98-1.94-5.25-5.3-5.25
		C576.28,895.68,574.3,897.6,573.63,900.93z"/>
	<path class="st11" d="M607.94,890.82h6.31v3.13h0.38c0.86-1.73,2.82-3.46,6.19-3.46c5.48,0,10.08,4.45,10.08,12.99
		c0,8.45-4.41,13.07-10.06,13.07c-3.36,0-5.35-1.7-6.21-3.44h-0.3v12.48h-6.39V890.82z M619.14,895.68c-3.89,0-5.4,3.33-5.4,7.79
		c0,4.43,1.48,7.89,5.4,7.89c3.75,0,5.68-3.16,5.68-7.89C624.82,898.76,622.91,895.68,619.14,895.68z"/>
	<path class="st11" d="M649.17,896.85c-0.35-0.2-1.32-0.53-2.35-0.53c-3.03,0-5.12,2.65-5.15,5.45v14.34h-6.39v-25.29h6.26v3.59
		h0.36c0.72-2.57,3.31-3.93,5.78-3.93c1.32,0,2.7,0.36,3.49,0.82L649.17,896.85z"/>
	<path class="st11" d="M652.41,903.52c0-7.74,4.53-13.02,11.77-13.02c7.26,0,11.77,5.29,11.77,13.02c0,7.69-4.51,13.07-11.77,13.07
		C656.94,916.59,652.41,911.2,652.41,903.52z M669.83,903.52c0-4.5-1.65-7.84-5.65-7.84c-3.98,0-5.65,3.34-5.65,7.84
		c0,4.48,1.66,7.84,5.65,7.84C668.18,911.35,669.83,907.99,669.83,903.52z"/>
	<path class="st11" d="M687.06,890.82v26.41c0,5.66-3.67,8.43-9.07,8.43h-2.14v-5.19h1.3c2.78,0,3.52-1.38,3.52-3.33v-26.33H687.06z
		 M680.21,885.32c0-1.81,1.6-3.39,3.67-3.39s3.61,1.58,3.61,3.39c0,1.86-1.53,3.39-3.61,3.39S680.21,887.18,680.21,885.32z"/>
	<path class="st11" d="M691.58,903.79c0-7.72,4.41-13.3,11.99-13.3c6.42,0,11.31,4.03,11.31,12.15v2.68h-17.12
		c0.41,3.75,2.39,6.03,6.03,6.03c3.05,0,4.43-1.63,5.1-3.51l5.73,1.55c-0.92,3.47-4.21,7.2-10.78,7.2
		C696.24,916.59,691.58,911.7,691.58,903.79z M697.94,900.93h10.88c0-2.98-1.94-5.25-5.3-5.25
		C700.59,895.68,698.61,897.6,697.94,900.93z"/>
	<path class="st11" d="M731.59,895.56h-4.41v12.81c0,2.35,1.15,2.7,2.55,2.7c0.59,0,1.2-0.08,1.63-0.2l1,4.92
		c-0.48,0.2-2.07,0.64-4.41,0.64c-3.84,0-7.16-2.65-7.16-7.1v-13.78h-3.14v-4.74h3.14v-5.4h6.39v5.4h4.41V895.56z"/>
</g>
<g>
	<path d="M783.79,809.53h-4.46v-28.81h4.46V809.53z"/>
	<path d="M805.97,809.53h-4.29v-13.93c0-2.95-1.45-4.14-3.62-4.14c-2.19,0-4.21,1.8-4.21,4.94v13.13h-4.33v-21.61h4.28v3.22h0.21
		c0.82-1.74,2.9-3.5,5.63-3.5c2.66,0,4.53,1.53,5.47,3.6h0.22c0.8-1.79,3.17-3.6,6.19-3.6c3.63,0,6.56,2.36,6.56,7.96v13.93h-4.33
		v-14c0-3.1-2.03-4.07-3.74-4.07c-2.55,0-4.04,1.73-4.04,4.56V809.53z"/>
	<path d="M836.01,806.85h-0.2c-0.72,1.38-2.57,3.15-6.01,3.15c-3.98,0-7.2-2.38-7.2-6.58c0-4.54,3.81-6.05,8.53-6.56
		c2.48-0.3,4.78-0.28,4.78-1.56v-0.18c0-2.8-1.59-3.91-3.86-3.91c-2.66,0-4.28,1.43-4.84,2.95l-4.09-0.94
		c1.37-3.95,5.01-5.57,8.91-5.57c3.47,0,8.23,1.31,8.23,7.53v14.36h-4.25V806.85z M835.92,799.05c-0.49,0.56-3.42,0.9-4.63,1.06
		c-2.59,0.32-4.43,1.14-4.43,3.38c0,1.94,1.59,3,3.84,3c3.22,0,5.22-2.15,5.22-4.49V799.05z"/>
	<path d="M863.95,787.97v21.37c0,5.7-4.38,8.36-9.78,8.36c-4.39,0-7.3-1.87-8.61-3.81l2.67-2.67c1,1.06,2.62,2.79,5.85,2.79
		c3.12,0,5.61-1.53,5.58-4.99v-3.05h-0.31c-0.67,1.17-2.15,3.21-5.85,3.21c-4.94,0-8.89-3.6-8.89-10.55
		c0-6.88,3.84-10.96,8.93-10.96c3.59,0,5.11,2.07,5.84,3.35h0.32v-3.03H863.95z M854.44,805.52c3.62,0,5.44-2.67,5.44-6.96
		c0-4.18-1.77-7.25-5.44-7.25c-3.76,0-5.63,3.12-5.63,7.25C848.81,802.82,850.79,805.52,854.44,805.52z"/>
	<path d="M868.88,782.89c0-1.32,1.11-2.56,2.72-2.56c1.6,0,2.71,1.24,2.71,2.56c0,1.39-1.11,2.56-2.71,2.56
		C869.99,785.45,868.88,784.28,868.88,782.89z M873.78,809.53h-4.33v-21.61h4.33V809.53z"/>
	<path d="M883.61,809.53h-4.33v-21.61h4.17v3.22h0.22c1.08-2,3.21-3.5,6.22-3.5c3.92,0,7.06,2.48,7.06,8.23v13.66h-4.32V796.1
		c0-2.88-1.77-4.63-4.21-4.63c-2.46,0-4.81,1.97-4.81,5.7V809.53z"/>
	<path d="M901.31,798.96c0-6.63,3.83-11.31,9.96-11.31c4.98,0,9.47,3.08,9.47,10.61v1.82h-15.18c0.34,4,2.43,6.22,5.98,6.22
		c2.63,0,4.21-1.25,4.92-3.19l4,1.1c-0.9,3.11-3.94,5.78-8.91,5.78C905.21,809.97,901.31,805.65,901.31,798.96z M905.66,796.79
		h10.86c0-3.14-2-5.47-5.26-5.47C908.31,791.32,906.24,793.31,905.66,796.79z"/>
	<path d="M936.61,792.23c-0.32-0.17-1.01-0.45-1.93-0.45c-3.09,0-5.02,2.86-5.05,5.53v12.23h-4.33v-21.61h4.28v3.4h0.25
		c0.62-2.14,2.91-3.73,5.25-3.73c1.12,0,2.25,0.37,2.93,0.76L936.61,792.23z"/>
	<path d="M951.22,798.96c0-6.63,3.83-11.31,9.96-11.31c4.98,0,9.47,3.08,9.47,10.61v1.82h-15.18c0.34,4,2.43,6.22,5.98,6.22
		c2.63,0,4.21-1.25,4.92-3.19l4,1.1c-0.9,3.11-3.94,5.78-8.91,5.78C955.11,809.97,951.22,805.65,951.22,798.96z M955.56,796.79
		h10.86c0-3.14-2-5.47-5.26-5.47C958.21,791.32,956.14,793.31,955.56,796.79z"/>
	<path d="M984.88,791.47h-4.22v11.68c0,2.43,1.21,2.81,2.55,2.81c0.62,0,1.11-0.1,1.42-0.17l0.77,3.56
		c-0.44,0.17-1.49,0.46-3.09,0.46c-3.03,0-5.98-2.01-5.98-5.81v-12.54h-3v-3.54h3v-4.61h4.33v4.61h4.22V791.47z"/>
	<path d="M999.53,798.96c0-6.63,3.83-11.31,9.96-11.31c4.98,0,9.47,3.08,9.47,10.61v1.82h-15.18c0.34,4,2.43,6.22,5.98,6.22
		c2.63,0,4.21-1.25,4.92-3.19l4,1.1c-0.9,3.11-3.94,5.78-8.91,5.78C1003.43,809.97,999.53,805.65,999.53,798.96z M1003.88,796.79
		h10.86c0-3.14-2-5.47-5.26-5.47C1006.52,791.32,1004.45,793.31,1003.88,796.79z M1010.73,779.67h4.46l-4.66,5.85h-3.32
		L1010.73,779.67z"/>
	<path d="M1027.84,809.53h-4.33v-28.81h4.33V809.53z"/>
	<path d="M1045.78,806.85h-0.2c-0.72,1.38-2.57,3.15-6.01,3.15c-3.98,0-7.2-2.38-7.2-6.58c0-4.54,3.81-6.05,8.53-6.56
		c2.48-0.3,4.78-0.28,4.78-1.56v-0.18c0-2.8-1.59-3.91-3.86-3.91c-2.66,0-4.28,1.43-4.84,2.95l-4.09-0.94
		c1.37-3.95,5.01-5.57,8.91-5.57c3.47,0,8.23,1.31,8.23,7.53v14.36h-4.25V806.85z M1045.68,799.05c-0.49,0.56-3.42,0.9-4.63,1.06
		c-2.59,0.32-4.43,1.14-4.43,3.38c0,1.94,1.59,3,3.84,3c3.22,0,5.22-2.15,5.22-4.49V799.05z"/>
	<path d="M1059.77,780.72v10.27h0.25c0.73-1.28,2.21-3.35,5.8-3.35c5.11,0,8.95,4.08,8.95,11.13c0,7.02-3.77,11.17-8.91,11.17
		c-3.54,0-5.11-2.04-5.84-3.36h-0.35v2.95h-4.24v-28.81H1059.77z M1064.95,791.32c-3.71,0-5.46,3.07-5.46,7.41
		c0,4.38,1.77,7.55,5.46,7.55c3.71,0,5.61-3.21,5.61-7.55C1070.56,794.42,1068.71,791.32,1064.95,791.32z"/>
	<path d="M1078.39,798.8c0-6.67,3.9-11.16,9.92-11.16c6.01,0,9.92,4.49,9.92,11.16c0,6.65-3.91,11.17-9.92,11.17
		C1082.29,809.97,1078.39,805.45,1078.39,798.8z M1094.01,798.8c0-4.09-1.74-7.48-5.7-7.48c-3.97,0-5.7,3.39-5.7,7.48
		c0,4.11,1.73,7.48,5.7,7.48C1092.26,806.28,1094.01,802.91,1094.01,798.8z"/>
	<path d="M1113.98,792.23c-0.32-0.17-1.01-0.45-1.93-0.45c-3.09,0-5.02,2.86-5.05,5.53v12.23h-4.33v-21.61h4.28v3.4h0.25
		c0.62-2.14,2.91-3.73,5.25-3.73c1.12,0,2.25,0.37,2.93,0.76L1113.98,792.23z"/>
	<path d="M1116.66,798.96c0-6.63,3.83-11.31,9.96-11.31c4.98,0,9.47,3.08,9.47,10.61v1.82h-15.18c0.34,4,2.43,6.22,5.98,6.22
		c2.63,0,4.21-1.25,4.92-3.19l4,1.1c-0.9,3.11-3.94,5.78-8.91,5.78C1120.56,809.97,1116.66,805.65,1116.66,798.96z M1121.01,796.79
		h10.86c0-3.14-2-5.47-5.26-5.47C1123.66,791.32,1121.59,793.31,1121.01,796.79z"/>
	<path d="M1151.96,792.23c-0.32-0.17-1.01-0.45-1.93-0.45c-3.09,0-5.02,2.86-5.05,5.53v12.23h-4.33v-21.61h4.28v3.4h0.25
		c0.62-2.14,2.91-3.73,5.25-3.73c1.12,0,2.25,0.37,2.93,0.76L1151.96,792.23z"/>
	<path d="M792.37,827.53h4.32v21.61h-4.17v-2.8h-0.22c-1.13,1.6-3.21,3.08-6.22,3.08c-3.31,0-7.06-2.36-7.06-8.23v-13.66h4.33v13.59
		c0,2.88,1.77,4.47,4.21,4.47c2.45,0,4.81-1.79,4.81-5.52V827.53z"/>
	<path d="M806.45,849.14h-4.33v-21.61h4.17v3.22h0.22c1.08-2,3.21-3.5,6.22-3.5c3.92,0,7.06,2.48,7.06,8.23v13.66h-4.32v-13.44
		c0-2.88-1.77-4.63-4.21-4.63c-2.46,0-4.81,1.97-4.81,5.7V849.14z"/>
	<path d="M840.57,820.33v10.27h0.25c0.73-1.28,2.21-3.35,5.8-3.35c5.11,0,8.95,4.08,8.95,11.13c0,7.02-3.77,11.17-8.91,11.17
		c-3.54,0-5.11-2.04-5.84-3.36h-0.35v2.95h-4.24v-28.81H840.57z M845.75,830.92c-3.71,0-5.46,3.07-5.46,7.41
		c0,4.38,1.77,7.55,5.46,7.55c3.71,0,5.61-3.21,5.61-7.55C851.36,834.03,849.5,830.92,845.75,830.92z"/>
	<path d="M873.29,827.53h4.32v21.61h-4.17v-2.8h-0.22c-1.13,1.6-3.21,3.08-6.22,3.08c-3.31,0-7.06-2.36-7.06-8.23v-13.66h4.33v13.59
		c0,2.88,1.77,4.47,4.21,4.47c2.45,0,4.81-1.79,4.81-5.52V827.53z"/>
	<path d="M895.1,833.54c-0.34-1.17-1.42-2.88-4.16-2.88c-2.27,0-4.07,1.18-4.07,2.81c0,1.37,1.18,2.36,3.24,2.86l3.59,0.83
		c3.66,0.84,5.68,2.81,5.68,5.75c0,3.85-3.46,6.67-8.83,6.67c-5.28,0-7.95-2.62-8.91-5.97l4.07-0.87c0.66,1.97,2.22,3.4,4.94,3.4
		c2.62,0,4.32-1.34,4.32-2.9c0-1.44-1.11-2.14-2.88-2.56l-3.69-0.89c-3.73-0.91-5.84-3.04-5.84-6.06c0-3.91,3.53-6.49,8.5-6.49
		c4.5,0,7.05,2.1,7.98,5.61L895.1,833.54z"/>
	<path d="M902.86,822.5c0-1.32,1.11-2.56,2.72-2.56c1.6,0,2.71,1.24,2.71,2.56c0,1.39-1.11,2.56-2.71,2.56
		C903.97,825.06,902.86,823.89,902.86,822.5z M907.76,849.14h-4.33v-21.61h4.33V849.14z"/>
	<path d="M917.59,849.14h-4.33v-21.61h4.17v3.22h0.22c1.08-2,3.21-3.5,6.22-3.5c3.92,0,7.06,2.48,7.06,8.23v13.66h-4.32v-13.44
		c0-2.88-1.77-4.63-4.21-4.63c-2.46,0-4.81,1.97-4.81,5.7V849.14z"/>
	<path d="M935.29,838.56c0-6.63,3.83-11.31,9.96-11.31c4.98,0,9.47,3.08,9.47,10.61v1.82h-15.18c0.34,4,2.43,6.22,5.98,6.22
		c2.63,0,4.21-1.25,4.92-3.19l4,1.1c-0.9,3.11-3.94,5.78-8.91,5.78C939.19,849.58,935.29,845.26,935.29,838.56z M939.64,836.4h10.86
		c0-3.14-2-5.47-5.26-5.47C942.29,830.92,940.22,832.92,939.64,836.4z"/>
	<path d="M971.35,833.54c-0.34-1.17-1.42-2.88-4.16-2.88c-2.27,0-4.07,1.18-4.07,2.81c0,1.37,1.18,2.36,3.24,2.86l3.59,0.83
		c3.66,0.84,5.68,2.81,5.68,5.75c0,3.85-3.46,6.67-8.83,6.67c-5.28,0-7.95-2.62-8.91-5.97l4.07-0.87c0.66,1.97,2.22,3.4,4.94,3.4
		c2.62,0,4.32-1.34,4.32-2.9c0-1.44-1.11-2.14-2.88-2.56l-3.69-0.89c-3.73-0.91-5.84-3.04-5.84-6.06c0-3.91,3.53-6.49,8.5-6.49
		c4.5,0,7.05,2.1,7.98,5.61L971.35,833.54z"/>
	<path d="M991.9,833.54c-0.34-1.17-1.42-2.88-4.16-2.88c-2.27,0-4.07,1.18-4.07,2.81c0,1.37,1.18,2.36,3.24,2.86l3.59,0.83
		c3.66,0.84,5.68,2.81,5.68,5.75c0,3.85-3.46,6.67-8.83,6.67c-5.28,0-7.95-2.62-8.91-5.97l4.07-0.87c0.66,1.97,2.22,3.4,4.94,3.4
		c2.62,0,4.32-1.34,4.32-2.9c0-1.44-1.11-2.14-2.88-2.56l-3.69-0.89c-3.73-0.91-5.84-3.04-5.84-6.06c0-3.91,3.53-6.49,8.5-6.49
		c4.5,0,7.05,2.1,7.98,5.61L991.9,833.54z"/>
	<path d="M1028.24,849.14h-4.29v-13.93c0-2.95-1.45-4.14-3.62-4.14c-2.19,0-4.21,1.8-4.21,4.94v13.13h-4.33v-21.61h4.28v3.22h0.21
		c0.82-1.74,2.9-3.5,5.63-3.5c2.66,0,4.53,1.53,5.47,3.6h0.22c0.8-1.79,3.17-3.6,6.19-3.6c3.63,0,6.56,2.36,6.56,7.96v13.93h-4.33
		v-14c0-3.1-2.03-4.07-3.74-4.07c-2.55,0-4.04,1.73-4.04,4.56V849.14z"/>
	<path d="M1044.72,838.41c0-6.67,3.9-11.16,9.92-11.16c6.01,0,9.92,4.49,9.92,11.16c0,6.65-3.91,11.17-9.92,11.17
		C1048.62,849.58,1044.72,845.06,1044.72,838.41z M1060.34,838.41c0-4.09-1.74-7.48-5.7-7.48c-3.97,0-5.7,3.39-5.7,7.48
		c0,4.11,1.73,7.48,5.7,7.48C1058.59,845.89,1060.34,842.52,1060.34,838.41z"/>
	<path d="M1083.26,849.14v-2.95h-0.32c-0.73,1.32-2.32,3.36-5.88,3.36c-5.12,0-8.89-4.15-8.89-11.17c0-7.05,3.84-11.13,8.93-11.13
		c3.59,0,5.11,2.07,5.84,3.35h0.22v-10.27h4.33v28.81H1083.26z M1077.99,845.89c3.69,0,5.44-3.18,5.44-7.55
		c0-4.35-1.74-7.41-5.44-7.41c-3.76,0-5.63,3.11-5.63,7.41C1072.36,842.68,1074.27,845.89,1077.99,845.89z"/>
	<path d="M1092.02,838.56c0-6.63,3.83-11.31,9.96-11.31c4.98,0,9.47,3.08,9.47,10.61v1.82h-15.18c0.34,4,2.43,6.22,5.98,6.22
		c2.63,0,4.21-1.25,4.92-3.19l4,1.1c-0.9,3.11-3.94,5.78-8.91,5.78C1095.92,849.58,1092.02,845.26,1092.02,838.56z M1096.37,836.4
		h10.86c0-3.14-2-5.47-5.26-5.47C1099.01,830.92,1096.95,832.92,1096.37,836.4z"/>
	<path d="M1120.34,849.14H1116v-28.81h4.33V849.14z"/>
</g>
<g>
	<path d="M111.83,784.18c-3.4,0-5.71,1.72-5.71,4.15c0,2.15,1.93,3.33,5.53,4.39l2.24,0.65c5.45,1.6,8.26,4.01,8.26,8.22
		c0,4.97-3.97,8.41-10.48,8.41c-6.04,0-10.44-3.11-10.68-8.51h4.47c0.22,3.12,2.9,4.64,6.2,4.64c3.7,0,6.18-1.9,6.18-4.53
		c0-2.32-1.75-3.43-5.81-4.66l-2.59-0.75c-4.6-1.35-7.64-3.8-7.64-7.81c0-4.84,4.38-8.06,10.12-8.06c5.77,0,9.78,3.33,9.96,8.19
		h-4.28C117.22,785.72,115.11,784.18,111.83,784.18z"/>
	<path d="M136.71,791.47h-4.22v11.68c0,2.43,1.21,2.81,2.55,2.81c0.62,0,1.11-0.1,1.42-0.17l0.77,3.56
		c-0.44,0.17-1.49,0.46-3.09,0.46c-3.03,0-5.98-2.01-5.98-5.81v-12.54h-3v-3.54h3v-4.61h4.33v4.61h4.22V791.47z"/>
	<path d="M152.62,792.23c-0.32-0.17-1.01-0.45-1.93-0.45c-3.09,0-5.02,2.86-5.05,5.53v12.23h-4.33v-21.61h4.28v3.4h0.25
		c0.62-2.14,2.91-3.73,5.25-3.73c1.12,0,2.25,0.37,2.93,0.76L152.62,792.23z"/>
	<path d="M170.46,787.92h4.32v21.61h-4.17v-2.8h-0.22c-1.13,1.6-3.21,3.08-6.22,3.08c-3.31,0-7.06-2.36-7.06-8.23v-13.66h4.33v13.59
		c0,2.88,1.77,4.47,4.21,4.47c2.45,0,4.81-1.79,4.81-5.52V787.92z"/>
	<path d="M193.9,794.96c-0.51-2.01-2.01-3.64-4.68-3.64c-3.59,0-5.7,2.93-5.7,7.41c0,4.56,2.08,7.55,5.7,7.55
		c2.39,0,4.07-1.34,4.64-3.5l4.18,0.34c-0.72,3.98-4.01,6.85-8.82,6.85c-6.13,0-9.92-4.64-9.92-11.24c0-6.49,3.86-11.09,9.88-11.09
		c4.71,0,8.2,2.76,8.88,6.95L193.9,794.96z"/>
	<path d="M212.36,791.47h-4.22v11.68c0,2.43,1.21,2.81,2.55,2.81c0.62,0,1.11-0.1,1.42-0.17l0.77,3.56
		c-0.44,0.17-1.49,0.46-3.09,0.46c-3.03,0-5.98-2.01-5.98-5.81v-12.54h-3v-3.54h3v-4.61h4.33v4.61h4.22V791.47z"/>
	<path d="M230.23,787.92h4.32v21.61h-4.17v-2.8h-0.22c-1.13,1.6-3.21,3.08-6.22,3.08c-3.31,0-7.06-2.36-7.06-8.23v-13.66h4.33v13.59
		c0,2.88,1.77,4.47,4.21,4.47c2.45,0,4.81-1.79,4.81-5.52V787.92z"/>
	<path d="M251.29,792.23c-0.32-0.17-1.01-0.45-1.93-0.45c-3.09,0-5.02,2.86-5.05,5.53v12.23h-4.33v-21.61h4.28v3.4h0.25
		c0.62-2.14,2.91-3.73,5.25-3.73c1.12,0,2.25,0.37,2.93,0.76L251.29,792.23z"/>
	<path d="M253.97,798.96c0-6.63,3.83-11.31,9.96-11.31c4.98,0,9.47,3.08,9.47,10.61v1.82h-15.18c0.34,4,2.43,6.22,5.98,6.22
		c2.63,0,4.21-1.25,4.92-3.19l4,1.1c-0.9,3.11-3.94,5.78-8.91,5.78C257.87,809.97,253.97,805.65,253.97,798.96z M258.32,796.79
		h10.86c0-3.14-2-5.47-5.26-5.47C260.96,791.32,258.9,793.31,258.32,796.79z"/>
	<path d="M289.26,792.23c-0.32-0.17-1.01-0.45-1.93-0.45c-3.09,0-5.02,2.86-5.05,5.53v12.23h-4.33v-21.61h4.28v3.4h0.25
		c0.62-2.14,2.91-3.73,5.25-3.73c1.12,0,2.25,0.37,2.93,0.76L289.26,792.23z"/>
	<path d="M303.87,798.96c0-6.63,3.83-11.31,9.96-11.31c4.98,0,9.47,3.08,9.47,10.61v1.82h-15.18c0.34,4,2.43,6.22,5.98,6.22
		c2.63,0,4.21-1.25,4.92-3.19l4,1.1c-0.9,3.11-3.94,5.78-8.91,5.78C307.77,809.97,303.87,805.65,303.87,798.96z M308.22,796.79
		h10.86c0-3.14-2-5.47-5.26-5.47C310.87,791.32,308.8,793.31,308.22,796.79z"/>
	<path d="M337.54,791.47h-4.22v11.68c0,2.43,1.21,2.81,2.55,2.81c0.62,0,1.11-0.1,1.42-0.17l0.77,3.56
		c-0.44,0.17-1.49,0.46-3.09,0.46c-3.03,0-5.98-2.01-5.98-5.81v-12.54h-3v-3.54h3v-4.61h4.33v4.61h4.22V791.47z"/>
	<path d="M353.09,787.92h4.24v3.07h0.35c0.73-1.28,2.21-3.35,5.8-3.35c5.11,0,8.95,4.08,8.95,11.13c0,7.02-3.77,11.17-8.91,11.17
		c-3.54,0-5.11-2.04-5.84-3.36h-0.25v11.06h-4.33V787.92z M362.6,791.32c-3.71,0-5.46,3.07-5.46,7.41c0,4.38,1.77,7.55,5.46,7.55
		c3.71,0,5.61-3.21,5.61-7.55C368.21,794.42,366.36,791.32,362.6,791.32z"/>
	<path d="M381.28,809.53h-4.33v-28.81h4.33V809.53z"/>
	<path d="M399.21,806.85h-0.2c-0.72,1.38-2.57,3.15-6.01,3.15c-3.98,0-7.2-2.38-7.2-6.58c0-4.54,3.81-6.05,8.53-6.56
		c2.48-0.3,4.78-0.28,4.78-1.56v-0.18c0-2.8-1.59-3.91-3.86-3.91c-2.66,0-4.28,1.43-4.84,2.95l-4.09-0.94
		c1.37-3.95,5.01-5.57,8.91-5.57c3.47,0,8.23,1.31,8.23,7.53v14.36h-4.25V806.85z M399.11,799.05c-0.49,0.56-3.42,0.9-4.63,1.06
		c-2.59,0.32-4.43,1.14-4.43,3.38c0,1.94,1.59,3,3.84,3c3.22,0,5.22-2.15,5.22-4.49V799.05z"/>
	<path d="M413.2,809.53h-4.33v-21.61h4.17v3.22h0.22c1.08-2,3.21-3.5,6.22-3.5c3.92,0,7.06,2.48,7.06,8.23v13.66h-4.32V796.1
		c0-2.88-1.77-4.63-4.21-4.63c-2.46,0-4.81,1.97-4.81,5.7V809.53z"/>
	<path d="M431.47,782.89c0-1.32,1.11-2.56,2.72-2.56c1.6,0,2.71,1.24,2.71,2.56c0,1.39-1.11,2.56-2.71,2.56
		C432.58,785.45,431.47,784.28,431.47,782.89z M436.37,809.53h-4.33v-21.61h4.33V809.53z"/>
	<path d="M443.4,791.47h-3.22v-3.54h3.22v-1.49c0-4.08,2.97-6.11,6.4-6.11c1.74,0,2.95,0.35,3.54,0.58l-0.99,3.49
		c-0.41-0.13-1.01-0.32-1.86-0.32c-1.97,0-2.77,0.98-2.77,2.9v0.96h4.57v3.54h-4.57v18.06h-4.33V791.47z"/>
	<path d="M455.99,782.89c0-1.32,1.11-2.56,2.72-2.56c1.6,0,2.71,1.24,2.71,2.56c0,1.39-1.11,2.56-2.71,2.56
		C457.1,785.45,455.99,784.28,455.99,782.89z M460.88,809.53h-4.33v-21.61h4.33V809.53z"/>
	<path d="M465.41,798.96c0-6.63,3.83-11.31,9.96-11.31c4.98,0,9.47,3.08,9.47,10.61v1.82h-15.18c0.34,4,2.43,6.22,5.98,6.22
		c2.63,0,4.21-1.25,4.92-3.19l4,1.1c-0.9,3.11-3.94,5.78-8.91,5.78C469.31,809.97,465.41,805.65,465.41,798.96z M469.76,796.79
		h10.86c0-3.14-2-5.47-5.26-5.47C472.4,791.32,470.34,793.31,469.76,796.79z"/>
	<path d="M500.7,792.23c-0.32-0.17-1.01-0.45-1.93-0.45c-3.09,0-5.02,2.86-5.05,5.53v12.23h-4.33v-21.61h4.28v3.4h0.25
		c0.62-2.14,2.91-3.73,5.25-3.73c1.12,0,2.25,0.37,2.93,0.76L500.7,792.23z"/>
	<path d="M79.61,849.14v-2.95h-0.32c-0.73,1.32-2.32,3.36-5.88,3.36c-5.12,0-8.89-4.15-8.89-11.17c0-7.05,3.84-11.13,8.93-11.13
		c3.59,0,5.11,2.07,5.84,3.35h0.22v-10.27h4.33v28.81H79.61z M74.34,845.89c3.69,0,5.44-3.18,5.44-7.55c0-4.35-1.74-7.41-5.44-7.41
		c-3.76,0-5.63,3.11-5.63,7.41C68.71,842.68,70.62,845.89,74.34,845.89z"/>
	<path d="M88.37,838.56c0-6.63,3.83-11.31,9.96-11.31c4.98,0,9.47,3.08,9.47,10.61v1.82H92.62c0.34,4,2.43,6.22,5.98,6.22
		c2.63,0,4.21-1.25,4.92-3.19l4,1.1c-0.9,3.11-3.94,5.78-8.91,5.78C92.27,849.58,88.37,845.26,88.37,838.56z M92.72,836.4h10.86
		c0-3.14-2-5.47-5.26-5.47C95.36,830.92,93.29,832.92,92.72,836.4z"/>
	<path d="M124.42,833.54c-0.34-1.17-1.42-2.88-4.16-2.88c-2.27,0-4.07,1.18-4.07,2.81c0,1.37,1.18,2.36,3.24,2.86l3.59,0.83
		c3.66,0.84,5.68,2.81,5.68,5.75c0,3.85-3.46,6.67-8.83,6.67c-5.28,0-7.95-2.62-8.91-5.97l4.07-0.87c0.66,1.97,2.22,3.4,4.94,3.4
		c2.62,0,4.32-1.34,4.32-2.9c0-1.44-1.11-2.14-2.88-2.56l-3.69-0.89c-3.73-0.91-5.84-3.04-5.84-6.06c0-3.91,3.53-6.49,8.5-6.49
		c4.5,0,7.05,2.1,7.98,5.61L124.42,833.54z"/>
	<path d="M144.32,827.53h4.24v3.07h0.35c0.73-1.28,2.21-3.35,5.8-3.35c5.11,0,8.95,4.08,8.95,11.13c0,7.02-3.77,11.17-8.91,11.17
		c-3.54,0-5.11-2.04-5.84-3.36h-0.25v11.06h-4.33V827.53z M153.83,830.92c-3.71,0-5.46,3.07-5.46,7.41c0,4.38,1.77,7.55,5.46,7.55
		c3.71,0,5.61-3.21,5.61-7.55C159.44,834.03,157.59,830.92,153.83,830.92z"/>
	<path d="M179.42,831.84c-0.32-0.17-1.01-0.45-1.93-0.45c-3.09,0-5.02,2.86-5.05,5.53v12.23h-4.33v-21.61h4.28v3.4h0.25
		c0.62-2.14,2.91-3.73,5.25-3.73c1.12,0,2.25,0.37,2.93,0.76L179.42,831.84z"/>
	<path d="M182.1,838.41c0-6.67,3.9-11.16,9.92-11.16c6.01,0,9.92,4.49,9.92,11.16c0,6.65-3.91,11.17-9.92,11.17
		C186,849.58,182.1,845.06,182.1,838.41z M197.72,838.41c0-4.09-1.74-7.48-5.7-7.48c-3.97,0-5.7,3.39-5.7,7.48
		c0,4.11,1.73,7.48,5.7,7.48C195.97,845.89,197.72,842.52,197.72,838.41z"/>
	<path d="M210.84,827.53v22.9c0,4.39-2.55,6.87-6.94,6.87h-1.21v-3.73h0.86c2.18,0,2.96-1.24,2.96-3.18v-22.86H210.84z
		 M205.94,822.5c0-1.32,1.11-2.56,2.71-2.56s2.71,1.24,2.71,2.56c0,1.39-1.11,2.56-2.71,2.56S205.94,823.89,205.94,822.5z"/>
	<path d="M215.35,838.56c0-6.63,3.83-11.31,9.96-11.31c4.98,0,9.47,3.08,9.47,10.61v1.82H219.6c0.34,4,2.43,6.22,5.98,6.22
		c2.63,0,4.21-1.25,4.92-3.19l4,1.1c-0.9,3.11-3.94,5.78-8.91,5.78C219.25,849.58,215.35,845.26,215.35,838.56z M219.7,836.4h10.86
		c0-3.14-2-5.47-5.26-5.47C222.34,830.92,220.27,832.92,219.7,836.4z"/>
	<path d="M249.01,831.08h-4.22v11.68c0,2.43,1.21,2.81,2.55,2.81c0.62,0,1.11-0.1,1.42-0.17l0.77,3.56
		c-0.44,0.17-1.49,0.46-3.09,0.46c-3.03,0-5.98-2.01-5.98-5.81v-12.54h-3v-3.54h3v-4.61h4.33v4.61h4.22V831.08z"/>
	<path d="M265.3,833.54c-0.34-1.17-1.42-2.88-4.16-2.88c-2.27,0-4.07,1.18-4.07,2.81c0,1.37,1.18,2.36,3.24,2.86l3.59,0.83
		c3.66,0.84,5.68,2.81,5.68,5.75c0,3.85-3.46,6.67-8.83,6.67c-5.28,0-7.95-2.62-8.91-5.97l4.07-0.87c0.66,1.97,2.22,3.4,4.94,3.4
		c2.62,0,4.32-1.34,4.32-2.9c0-1.44-1.11-2.14-2.88-2.56l-3.69-0.89c-3.73-0.91-5.84-3.04-5.84-6.06c0-3.91,3.53-6.49,8.5-6.49
		c4.5,0,7.05,2.1,7.98,5.61L265.3,833.54z"/>
	<path d="M289.53,849.14h-4.33v-21.61h4.17v3.22h0.22c1.08-2,3.21-3.5,6.22-3.5c3.92,0,7.06,2.48,7.06,8.23v13.66h-4.32v-13.44
		c0-2.88-1.77-4.63-4.21-4.63c-2.46,0-4.81,1.97-4.81,5.7V849.14z"/>
	<path d="M321.64,827.53h4.32v21.61h-4.17v-2.8h-0.22c-1.13,1.6-3.21,3.08-6.22,3.08c-3.31,0-7.06-2.36-7.06-8.23v-13.66h4.33v13.59
		c0,2.88,1.77,4.47,4.21,4.47c2.45,0,4.81-1.79,4.81-5.52V827.53z"/>
	<path d="M347.83,849.14h-4.29v-13.93c0-2.95-1.45-4.14-3.62-4.14c-2.19,0-4.21,1.8-4.21,4.94v13.13h-4.33v-21.61h4.28v3.22h0.21
		c0.82-1.74,2.9-3.5,5.63-3.5c2.66,0,4.53,1.53,5.47,3.6h0.22c0.8-1.79,3.17-3.6,6.19-3.6c3.63,0,6.56,2.36,6.56,7.96v13.93h-4.33
		v-14c0-3.1-2.03-4.07-3.74-4.07c-2.55,0-4.04,1.73-4.04,4.56V849.14z"/>
	<path d="M364.31,838.56c0-6.63,3.83-11.31,9.96-11.31c4.98,0,9.47,3.08,9.47,10.61v1.82h-15.18c0.34,4,2.43,6.22,5.98,6.22
		c2.63,0,4.21-1.25,4.92-3.19l4,1.1c-0.9,3.11-3.94,5.78-8.91,5.78C368.21,849.58,364.31,845.26,364.31,838.56z M368.66,836.4h10.86
		c0-3.14-2-5.47-5.26-5.47C371.3,830.92,369.24,832.92,368.66,836.4z M375.51,819.27h4.46l-4.66,5.85h-3.32L375.51,819.27z"/>
	<path d="M399.6,831.84c-0.32-0.17-1.01-0.45-1.93-0.45c-3.09,0-5.02,2.86-5.05,5.53v12.23h-4.33v-21.61h4.28v3.4h0.25
		c0.62-2.14,2.91-3.73,5.25-3.73c1.12,0,2.25,0.37,2.93,0.76L399.6,831.84z"/>
	<path d="M403.89,822.5c0-1.32,1.11-2.56,2.72-2.56c1.6,0,2.71,1.24,2.71,2.56c0,1.39-1.11,2.56-2.71,2.56
		C405,825.06,403.89,823.89,403.89,822.5z M408.79,849.14h-4.33v-21.61h4.33V849.14z"/>
	<path d="M432.65,857.25h-4.33v-11.06h-0.22c-0.73,1.32-2.32,3.36-5.88,3.36c-5.12,0-8.89-4.15-8.89-11.17
		c0-7.05,3.84-11.13,8.93-11.13c3.59,0,5.11,2.07,5.84,3.35h0.32v-3.07h4.24V857.25z M423.13,845.89c3.69,0,5.44-3.18,5.44-7.55
		c0-4.35-1.74-7.41-5.44-7.41c-3.76,0-5.63,3.11-5.63,7.41C417.51,842.68,419.42,845.89,423.13,845.89z"/>
	<path d="M451.42,827.53h4.32v21.61h-4.17v-2.8h-0.22c-1.13,1.6-3.21,3.08-6.22,3.08c-3.31,0-7.06-2.36-7.06-8.23v-13.66h4.33v13.59
		c0,2.88,1.77,4.47,4.21,4.47c2.45,0,4.81-1.79,4.81-5.52V827.53z"/>
	<path d="M460.26,838.56c0-6.63,3.83-11.31,9.96-11.31c4.98,0,9.47,3.08,9.47,10.61v1.82h-15.18c0.34,4,2.43,6.22,5.98,6.22
		c2.63,0,4.21-1.25,4.92-3.19l4,1.1c-0.9,3.11-3.94,5.78-8.91,5.78C464.16,849.58,460.26,845.26,460.26,838.56z M464.61,836.4h10.86
		c0-3.14-2-5.47-5.26-5.47C467.26,830.92,465.19,832.92,464.61,836.4z"/>
	<path d="M496.32,833.54c-0.34-1.17-1.42-2.88-4.16-2.88c-2.27,0-4.07,1.18-4.07,2.81c0,1.37,1.18,2.36,3.24,2.86l3.59,0.83
		c3.66,0.84,5.68,2.81,5.68,5.75c0,3.85-3.46,6.67-8.83,6.67c-5.28,0-7.95-2.62-8.91-5.97l4.07-0.87c0.66,1.97,2.22,3.4,4.94,3.4
		c2.62,0,4.32-1.34,4.32-2.9c0-1.44-1.11-2.14-2.88-2.56l-3.69-0.89c-3.73-0.91-5.84-3.04-5.84-6.06c0-3.91,3.53-6.49,8.5-6.49
		c4.5,0,7.05,2.1,7.98,5.61L496.32,833.54z"/>
</g>
<g>
	<path d="M89.94,526.58c-0.84-3.69-3.87-5.61-7.33-5.61c-4.74,0-8.31,3.6-8.31,10.72c0,7.13,3.57,10.69,8.31,10.69
		c3.46,0,6.44-1.9,7.29-5.56l4.4,0.29c-1.22,5.92-5.92,9.36-11.69,9.36c-7.36,0-12.72-5.6-12.72-14.79c0-9.2,5.36-14.81,12.72-14.81
		c5.77,0,10.48,3.45,11.72,9.41L89.94,526.58z"/>
	<path d="M98.08,535.35c0-6.67,3.9-11.16,9.92-11.16c6.01,0,9.92,4.49,9.92,11.16c0,6.65-3.91,11.17-9.92,11.17
		C101.98,546.52,98.08,542,98.08,535.35z M113.7,535.35c0-4.09-1.74-7.48-5.7-7.48c-3.97,0-5.7,3.39-5.7,7.48
		c0,4.11,1.73,7.48,5.7,7.48C111.95,542.83,113.7,539.46,113.7,535.35z"/>
	<path d="M126.69,546.08h-4.33v-21.61h4.17v3.22h0.22c1.08-2,3.21-3.5,6.22-3.5c3.92,0,7.06,2.48,7.06,8.23v13.66h-4.32v-13.44
		c0-2.88-1.77-4.63-4.21-4.63c-2.46,0-4.81,1.97-4.81,5.7V546.08z"/>
	<path d="M159,531.51c-0.51-2.01-2.01-3.64-4.68-3.64c-3.59,0-5.7,2.93-5.7,7.41c0,4.56,2.08,7.55,5.7,7.55
		c2.39,0,4.07-1.34,4.64-3.5l4.18,0.34c-0.72,3.98-4.01,6.85-8.82,6.85c-6.13,0-9.92-4.64-9.92-11.24c0-6.49,3.86-11.09,9.88-11.09
		c4.71,0,8.2,2.76,8.88,6.95L159,531.51z"/>
	<path d="M166.65,535.5c0-6.63,3.83-11.31,9.96-11.31c4.98,0,9.47,3.08,9.47,10.61v1.82H170.9c0.34,4,2.43,6.22,5.98,6.22
		c2.63,0,4.21-1.25,4.92-3.19l4,1.1c-0.9,3.11-3.94,5.78-8.91,5.78C170.55,546.52,166.65,542.2,166.65,535.5z M171,533.34h10.86
		c0-3.14-2-5.47-5.26-5.47C173.64,527.86,171.57,529.86,171,533.34z"/>
	<path d="M200.56,546.08h-4.23l-7.96-21.61h4.57l5.42,16.01h0.23l5.39-16.01h4.57L200.56,546.08z"/>
	<path d="M210.73,535.35c0-6.67,3.9-11.16,9.92-11.16c6.01,0,9.92,4.49,9.92,11.16c0,6.65-3.91,11.17-9.92,11.17
		C214.63,546.52,210.73,542,210.73,535.35z M226.35,535.35c0-4.09-1.74-7.48-5.7-7.48c-3.97,0-5.7,3.39-5.7,7.48
		c0,4.11,1.73,7.48,5.7,7.48C224.6,542.83,226.35,539.46,226.35,535.35z"/>
	<path d="M234.44,519.44c0-1.32,1.11-2.56,2.72-2.56c1.6,0,2.71,1.24,2.71,2.56c0,1.39-1.11,2.56-2.71,2.56
		C235.56,522,234.44,520.83,234.44,519.44z M239.34,546.08h-4.33v-21.61h4.33V546.08z"/>
	<path d="M256.15,528.78c-0.32-0.17-1.01-0.45-1.93-0.45c-3.09,0-5.02,2.86-5.05,5.53v12.23h-4.33v-21.61h4.28v3.4h0.25
		c0.62-2.14,2.91-3.73,5.25-3.73c1.12,0,2.25,0.37,2.93,0.76L256.15,528.78z"/>
	<path d="M285.86,546.08v-2.95h-0.32c-0.73,1.32-2.32,3.36-5.88,3.36c-5.12,0-8.89-4.15-8.89-11.17c0-7.05,3.84-11.13,8.93-11.13
		c3.59,0,5.11,2.07,5.84,3.35h0.22v-10.27h4.33v28.81H285.86z M280.58,542.83c3.69,0,5.44-3.18,5.44-7.55
		c0-4.35-1.74-7.41-5.44-7.41c-3.76,0-5.63,3.11-5.63,7.41C274.95,539.62,276.87,542.83,280.58,542.83z"/>
	<path d="M294.61,535.5c0-6.63,3.83-11.31,9.96-11.31c4.98,0,9.47,3.08,9.47,10.61v1.82h-15.18c0.34,4,2.43,6.22,5.98,6.22
		c2.63,0,4.21-1.25,4.92-3.19l4,1.1c-0.9,3.11-3.94,5.78-8.91,5.78C298.51,546.52,294.61,542.2,294.61,535.5z M298.96,533.34h10.86
		c0-3.14-2-5.47-5.26-5.47C301.61,527.86,299.54,529.86,298.96,533.34z"/>
	<path d="M330.67,530.48c-0.34-1.17-1.42-2.88-4.16-2.88c-2.27,0-4.07,1.18-4.07,2.81c0,1.37,1.18,2.36,3.24,2.86l3.59,0.83
		c3.66,0.84,5.68,2.81,5.68,5.75c0,3.85-3.46,6.67-8.83,6.67c-5.28,0-7.95-2.62-8.91-5.97l4.07-0.87c0.66,1.97,2.22,3.4,4.94,3.4
		c2.62,0,4.32-1.34,4.32-2.9c0-1.44-1.11-2.14-2.88-2.56l-3.69-0.89c-3.73-0.91-5.84-3.04-5.84-6.06c0-3.91,3.53-6.49,8.5-6.49
		c4.5,0,7.05,2.1,7.98,5.61L330.67,530.48z"/>
	<path d="M67.9,559.04c0-1.32,1.11-2.56,2.72-2.56c1.6,0,2.71,1.24,2.71,2.56c0,1.39-1.11,2.56-2.71,2.56
		C69.01,561.6,67.9,560.44,67.9,559.04z M72.8,585.69h-4.33v-21.61h4.33V585.69z"/>
	<path d="M82.63,585.69h-4.33v-21.61h4.17v3.22h0.22c1.08-2,3.21-3.5,6.22-3.5c3.92,0,7.06,2.48,7.06,8.23v13.66h-4.32v-13.44
		c0-2.88-1.77-4.63-4.21-4.63c-2.46,0-4.81,1.97-4.81,5.7V585.69z"/>
	<path d="M110.77,567.62h-4.22v11.68c0,2.43,1.21,2.81,2.55,2.81c0.62,0,1.11-0.1,1.42-0.17l0.77,3.56
		c-0.44,0.17-1.49,0.46-3.09,0.46c-3.03,0-5.98-2.01-5.98-5.81v-12.54h-3v-3.54h3v-4.61h4.33v4.61h4.22V567.62z"/>
	<path d="M114.06,575.11c0-6.63,3.83-11.31,9.96-11.31c4.98,0,9.47,3.08,9.47,10.61v1.82h-15.18c0.34,4,2.43,6.22,5.98,6.22
		c2.63,0,4.21-1.25,4.92-3.19l4,1.1c-0.9,3.11-3.94,5.78-8.91,5.78C117.96,586.13,114.06,581.81,114.06,575.11z M118.41,572.94
		h10.86c0-3.14-2-5.47-5.26-5.47C121.06,567.47,118.99,569.47,118.41,572.94z"/>
	<path d="M149.36,568.38c-0.32-0.17-1.01-0.45-1.93-0.45c-3.09,0-5.02,2.86-5.05,5.53v12.23h-4.33v-21.61h4.28v3.4h0.25
		c0.62-2.14,2.91-3.73,5.25-3.73c1.12,0,2.25,0.37,2.93,0.76L149.36,568.38z"/>
	<path d="M156.46,567.62h-3.22v-3.54h3.22v-1.49c0-4.08,2.97-6.11,6.4-6.11c1.74,0,2.95,0.35,3.54,0.58l-0.99,3.49
		c-0.41-0.13-1.01-0.32-1.86-0.32c-1.97,0-2.77,0.98-2.77,2.9v0.96h4.57v3.54h-4.57v18.06h-4.33V567.62z"/>
	<path d="M181.42,583h-0.2c-0.72,1.38-2.57,3.15-6.01,3.15c-3.98,0-7.2-2.38-7.2-6.58c0-4.54,3.81-6.05,8.53-6.56
		c2.48-0.3,4.78-0.28,4.78-1.56v-0.18c0-2.8-1.59-3.91-3.86-3.91c-2.66,0-4.28,1.43-4.84,2.95l-4.09-0.94
		c1.37-3.95,5.01-5.57,8.91-5.57c3.47,0,8.23,1.31,8.23,7.53v14.36h-4.25V583z M181.33,575.21c-0.49,0.56-3.42,0.9-4.63,1.06
		c-2.59,0.32-4.43,1.14-4.43,3.38c0,1.94,1.59,3,3.84,3c3.22,0,5.22-2.15,5.22-4.49V575.21z"/>
	<path d="M204.63,571.11c-0.51-2.01-2.01-3.64-4.68-3.64c-3.59,0-5.7,2.93-5.7,7.41c0,4.56,2.08,7.55,5.7,7.55
		c2.39,0,4.07-1.34,4.64-3.5l4.18,0.34c-0.72,3.98-4.01,6.85-8.82,6.85c-6.13,0-9.92-4.64-9.92-11.24c0-6.49,3.86-11.09,9.88-11.09
		c4.71,0,8.2,2.76,8.88,6.95L204.63,571.11z"/>
	<path d="M212.28,575.11c0-6.63,3.83-11.31,9.96-11.31c4.98,0,9.47,3.08,9.47,10.61v1.82h-15.18c0.34,4,2.43,6.22,5.98,6.22
		c2.63,0,4.21-1.25,4.92-3.19l4,1.1c-0.9,3.11-3.94,5.78-8.91,5.78C216.18,586.13,212.28,581.81,212.28,575.11z M216.63,572.94
		h10.86c0-3.14-2-5.47-5.26-5.47C219.27,567.47,217.2,569.47,216.63,572.94z"/>
	<path d="M248.33,570.09c-0.34-1.17-1.42-2.88-4.16-2.88c-2.27,0-4.07,1.18-4.07,2.81c0,1.37,1.18,2.36,3.24,2.86l3.59,0.83
		c3.66,0.84,5.68,2.81,5.68,5.75c0,3.85-3.46,6.67-8.83,6.67c-5.28,0-7.95-2.62-8.91-5.97l4.07-0.87c0.66,1.97,2.22,3.4,4.94,3.4
		c2.62,0,4.32-1.34,4.32-2.9c0-1.44-1.11-2.14-2.88-2.56l-3.69-0.89c-3.73-0.91-5.84-3.04-5.84-6.06c0-3.91,3.53-6.49,8.5-6.49
		c4.5,0,7.05,2.1,7.98,5.61L248.33,570.09z"/>
	<path d="M274.01,588.39c-2.94-4.16-5.06-10.47-5.06-17.11s2.12-12.94,5.26-17.11h3.74c-3.38,5.74-4.78,10.86-4.78,17.11
		c0,6.02,1.41,11.37,4.73,17.11H274.01z"/>
	<path d="M304.96,556.88v19.06c0,6.5-4.99,10.21-11.34,10.21c-6.37,0-11.38-3.71-11.38-10.21v-19.06h4.46v18.99
		c0,3.95,3.14,6.21,6.92,6.21c3.77,0,6.88-2.25,6.88-6.21v-18.99H304.96z"/>
	<path d="M320.95,568.03h0.22l6.71-11.16h5.15l-8.85,14.41l8.92,14.41h-5.19l-6.74-11.03h-0.22l-6.74,11.03h-5.19l9.06-14.41
		l-8.99-14.41h5.15L320.95,568.03z"/>
	<path d="M339.91,571.28c0-6.25-1.41-11.37-4.78-17.11h3.74c3.14,4.16,5.26,10.47,5.26,17.11s-2.12,12.94-5.06,17.11h-3.88
		C338.5,582.65,339.91,577.3,339.91,571.28z"/>
</g>
<polygon class="st0" points="181.2,1101.06 165.89,1086.83 163.52,1089.38 174.22,1099.32 116.38,1099.32 116.38,1102.8 
	174.21,1102.8 163.52,1112.74 165.89,1115.29 "/>
<g>
	<path class="st11" d="M258.92,1081.95c-0.84-3.69-3.87-5.61-7.33-5.61c-4.74,0-8.31,3.6-8.31,10.72c0,7.13,3.57,10.69,8.31,10.69
		c3.46,0,6.44-1.9,7.29-5.56l4.4,0.29c-1.22,5.92-5.92,9.36-11.69,9.36c-7.36,0-12.72-5.6-12.72-14.79c0-9.2,5.36-14.81,12.72-14.81
		c5.77,0,10.48,3.45,11.72,9.41L258.92,1081.95z"/>
	<path class="st11" d="M267.06,1090.71c0-6.67,3.9-11.16,9.92-11.16c6.01,0,9.92,4.49,9.92,11.16c0,6.65-3.91,11.17-9.92,11.17
		C270.95,1101.89,267.06,1097.37,267.06,1090.71z M282.67,1090.71c0-4.09-1.74-7.48-5.7-7.48c-3.97,0-5.7,3.39-5.7,7.48
		c0,4.11,1.73,7.48,5.7,7.48C280.93,1098.2,282.67,1094.82,282.67,1090.71z"/>
	<path class="st11" d="M307.78,1101.45h-4.29v-13.93c0-2.95-1.45-4.14-3.62-4.14c-2.19,0-4.21,1.8-4.21,4.94v13.13h-4.33v-21.61
		h4.28v3.22h0.21c0.82-1.74,2.9-3.5,5.63-3.5c2.66,0,4.53,1.53,5.47,3.6h0.22c0.8-1.79,3.17-3.6,6.19-3.6
		c3.63,0,6.56,2.36,6.56,7.96v13.93h-4.33v-14c0-3.1-2.03-4.07-3.74-4.07c-2.55,0-4.04,1.73-4.04,4.56V1101.45z"/>
	<path class="st11" d="M325.32,1079.84h4.24v3.07h0.35c0.73-1.28,2.21-3.35,5.8-3.35c5.11,0,8.95,4.08,8.95,11.13
		c0,7.02-3.77,11.17-8.91,11.17c-3.54,0-5.11-2.04-5.84-3.36h-0.25v11.06h-4.33V1079.84z M334.83,1083.23
		c-3.71,0-5.46,3.07-5.46,7.41c0,4.38,1.77,7.55,5.46,7.55c3.71,0,5.61-3.21,5.61-7.55
		C340.44,1086.34,338.58,1083.23,334.83,1083.23z"/>
	<path class="st11" d="M348.27,1090.87c0-6.63,3.83-11.31,9.96-11.31c4.98,0,9.47,3.08,9.47,10.61v1.82h-15.18
		c0.34,4,2.43,6.22,5.98,6.22c2.63,0,4.21-1.25,4.92-3.19l4,1.1c-0.9,3.11-3.94,5.78-8.91,5.78
		C352.17,1101.89,348.27,1097.57,348.27,1090.87z M352.62,1088.7h10.86c0-3.14-2-5.47-5.26-5.47
		C355.27,1083.23,353.2,1085.23,352.62,1088.7z M359.47,1071.58h4.46l-4.66,5.85h-3.32L359.47,1071.58z"/>
	<path class="st11" d="M381.94,1083.38h-4.22v11.68c0,2.43,1.21,2.81,2.55,2.81c0.62,0,1.11-0.1,1.42-0.17l0.77,3.56
		c-0.44,0.17-1.49,0.46-3.09,0.46c-3.03,0-5.98-2.01-5.98-5.81v-12.54h-3v-3.54h3v-4.61h4.33v4.61h4.22V1083.38z"/>
	<path class="st11" d="M385.23,1090.87c0-6.63,3.83-11.31,9.96-11.31c4.98,0,9.47,3.08,9.47,10.61v1.82h-15.18
		c0.34,4,2.43,6.22,5.98,6.22c2.63,0,4.21-1.25,4.92-3.19l4,1.1c-0.9,3.11-3.94,5.78-8.91,5.78
		C389.12,1101.89,385.23,1097.57,385.23,1090.87z M389.57,1088.7h10.86c0-3.14-2-5.47-5.26-5.47
		C392.22,1083.23,390.15,1085.23,389.57,1088.7z"/>
	<path class="st11" d="M413.54,1101.45h-4.33v-21.61h4.17v3.22h0.22c1.08-2,3.21-3.5,6.22-3.5c3.92,0,7.06,2.48,7.06,8.23v13.66
		h-4.32v-13.44c0-2.88-1.77-4.63-4.21-4.63c-2.46,0-4.81,1.97-4.81,5.7V1101.45z"/>
	<path class="st11" d="M445.85,1086.87c-0.51-2.01-2.01-3.64-4.68-3.64c-3.59,0-5.7,2.93-5.7,7.41c0,4.56,2.08,7.55,5.7,7.55
		c2.39,0,4.07-1.34,4.64-3.5l4.18,0.34c-0.72,3.98-4.01,6.85-8.82,6.85c-6.13,0-9.92-4.64-9.92-11.24c0-6.49,3.86-11.09,9.88-11.09
		c4.71,0,8.2,2.76,8.88,6.95L445.85,1086.87z"/>
	<path class="st11" d="M453.5,1090.87c0-6.63,3.83-11.31,9.96-11.31c4.98,0,9.47,3.08,9.47,10.61v1.82h-15.18
		c0.34,4,2.43,6.22,5.98,6.22c2.63,0,4.21-1.25,4.92-3.19l4,1.1c-0.9,3.11-3.94,5.78-8.91,5.78
		C457.4,1101.89,453.5,1097.57,453.5,1090.87z M457.85,1088.7h10.86c0-3.14-2-5.47-5.26-5.47
		C460.49,1083.23,458.43,1085.23,457.85,1088.7z"/>
	<path class="st11" d="M489.55,1085.85c-0.34-1.17-1.42-2.88-4.16-2.88c-2.27,0-4.07,1.18-4.07,2.81c0,1.37,1.18,2.36,3.24,2.86
		l3.59,0.83c3.66,0.84,5.68,2.81,5.68,5.75c0,3.85-3.46,6.67-8.83,6.67c-5.28,0-7.95-2.62-8.91-5.97l4.07-0.87
		c0.66,1.97,2.22,3.4,4.94,3.4c2.62,0,4.32-1.34,4.32-2.9c0-1.44-1.11-2.14-2.88-2.56l-3.69-0.89c-3.73-0.91-5.84-3.04-5.84-6.06
		c0-3.91,3.53-6.49,8.5-6.49c4.5,0,7.05,2.1,7.98,5.61L489.55,1085.85z"/>
	<path class="st11" d="M520.77,1084.14c-0.32-0.17-1.01-0.45-1.93-0.45c-3.09,0-5.02,2.86-5.05,5.53v12.23h-4.33v-21.61h4.28v3.4
		h0.25c0.62-2.14,2.91-3.73,5.25-3.73c1.12,0,2.25,0.37,2.93,0.76L520.77,1084.14z"/>
	<path class="st11" d="M523.45,1090.87c0-6.63,3.83-11.31,9.96-11.31c4.98,0,9.47,3.08,9.47,10.61v1.82H527.7
		c0.34,4,2.43,6.22,5.98,6.22c2.63,0,4.21-1.25,4.92-3.19l4,1.1c-0.9,3.11-3.94,5.78-8.91,5.78
		C527.35,1101.89,523.45,1097.57,523.45,1090.87z M527.8,1088.7h10.86c0-3.14-2-5.47-5.26-5.47
		C530.44,1083.23,528.38,1085.23,527.8,1088.7z"/>
	<path class="st11" d="M551.77,1101.45h-4.33v-28.81h4.33V1101.45z"/>
	<path class="st11" d="M569.7,1098.76h-0.2c-0.72,1.38-2.57,3.15-6.01,3.15c-3.98,0-7.2-2.38-7.2-6.58c0-4.54,3.81-6.05,8.53-6.56
		c2.48-0.3,4.78-0.28,4.78-1.56v-0.18c0-2.8-1.59-3.91-3.86-3.91c-2.66,0-4.28,1.43-4.84,2.95l-4.09-0.94
		c1.37-3.95,5.01-5.57,8.91-5.57c3.47,0,8.23,1.31,8.23,7.53v14.36h-4.25V1098.76z M569.6,1090.97c-0.49,0.56-3.42,0.9-4.63,1.06
		c-2.59,0.32-4.43,1.14-4.43,3.38c0,1.94,1.59,3,3.84,3c3.22,0,5.22-2.15,5.22-4.49V1090.97z"/>
	<path class="st11" d="M588.75,1083.38h-4.22v11.68c0,2.43,1.21,2.81,2.55,2.81c0.62,0,1.11-0.1,1.42-0.17l0.77,3.56
		c-0.44,0.17-1.49,0.46-3.09,0.46c-3.03,0-5.98-2.01-5.98-5.81v-12.54h-3v-3.54h3v-4.61h4.33v4.61h4.22V1083.38z"/>
	<path class="st11" d="M592.78,1074.8c0-1.32,1.11-2.56,2.72-2.56c1.6,0,2.71,1.24,2.71,2.56c0,1.39-1.11,2.56-2.71,2.56
		C593.89,1077.36,592.78,1076.2,592.78,1074.8z M597.68,1101.45h-4.33v-21.61h4.33V1101.45z"/>
	<path class="st11" d="M602.21,1090.71c0-6.67,3.9-11.16,9.92-11.16c6.01,0,9.92,4.49,9.92,11.16c0,6.65-3.91,11.17-9.92,11.17
		C606.1,1101.89,602.21,1097.37,602.21,1090.71z M617.82,1090.71c0-4.09-1.74-7.48-5.7-7.48c-3.97,0-5.7,3.39-5.7,7.48
		c0,4.11,1.73,7.48,5.7,7.48C616.08,1098.2,617.82,1094.82,617.82,1090.71z"/>
	<path class="st11" d="M630.82,1101.45h-4.33v-21.61h4.17v3.22h0.22c1.08-2,3.21-3.5,6.22-3.5c3.92,0,7.06,2.48,7.06,8.23v13.66
		h-4.32v-13.44c0-2.88-1.77-4.63-4.21-4.63c-2.46,0-4.81,1.97-4.81,5.7V1101.45z"/>
	<path class="st11" d="M653.92,1101.45h-4.33v-21.61h4.17v3.22h0.22c1.08-2,3.21-3.5,6.22-3.5c3.92,0,7.06,2.48,7.06,8.23v13.66
		h-4.32v-13.44c0-2.88-1.77-4.63-4.21-4.63c-2.46,0-4.81,1.97-4.81,5.7V1101.45z"/>
	<path class="st11" d="M671.62,1090.87c0-6.63,3.83-11.31,9.96-11.31c4.98,0,9.47,3.08,9.47,10.61v1.82h-15.18
		c0.34,4,2.43,6.22,5.98,6.22c2.63,0,4.21-1.25,4.92-3.19l4,1.1c-0.9,3.11-3.94,5.78-8.91,5.78
		C675.52,1101.89,671.62,1097.57,671.62,1090.87z M675.97,1088.7h10.86c0-3.14-2-5.47-5.26-5.47
		C678.62,1083.23,676.55,1085.23,675.97,1088.7z"/>
	<path class="st11" d="M699.94,1101.45h-4.33v-28.81h4.33V1101.45z"/>
	<path class="st11" d="M709.39,1101.45h-4.33v-28.81h4.33V1101.45z"/>
	<path class="st11" d="M713.92,1090.87c0-6.63,3.83-11.31,9.96-11.31c4.98,0,9.47,3.08,9.47,10.61v1.82h-15.18
		c0.34,4,2.43,6.22,5.98,6.22c2.63,0,4.21-1.25,4.92-3.19l4,1.1c-0.9,3.11-3.94,5.78-8.91,5.78
		C717.82,1101.89,713.92,1097.57,713.92,1090.87z M718.27,1088.7h10.86c0-3.14-2-5.47-5.26-5.47
		C720.91,1083.23,718.84,1085.23,718.27,1088.7z"/>
	<path class="st11" d="M749.97,1085.85c-0.34-1.17-1.42-2.88-4.16-2.88c-2.27,0-4.07,1.18-4.07,2.81c0,1.37,1.18,2.36,3.24,2.86
		l3.59,0.83c3.66,0.84,5.68,2.81,5.68,5.75c0,3.85-3.46,6.67-8.83,6.67c-5.28,0-7.95-2.62-8.91-5.97l4.07-0.87
		c0.66,1.97,2.22,3.4,4.94,3.4c2.62,0,4.32-1.34,4.32-2.9c0-1.44-1.11-2.14-2.88-2.56l-3.69-0.89c-3.73-0.91-5.84-3.04-5.84-6.06
		c0-3.91,3.53-6.49,8.5-6.49c4.5,0,7.05,2.1,7.98,5.61L749.97,1085.85z"/>
	<path class="st11" d="M255.19,1140.34c-2.07,1.7-4.71,2.5-7.41,2.5c-5.68,0-9.17-3.38-9.17-8.09c0-3.42,2.22-5.51,5.46-7.77
		c-1.83-2.32-3.09-4.32-3.09-6.47c0-4.49,2.87-7.2,7.34-7.2c4.29,0,6.99,2.93,6.99,6.32c0,2.71-1.51,4.7-3.8,6.4l-1.98,1.46
		l5.7,6.85c0.73-1.43,1.17-3.14,1.17-5.06h3.85c0,3.31-0.72,6.01-2.41,8.23l4.09,4.94h-4.97L255.19,1140.34z M247.9,1139.21
		c1.69,0,3.4-0.63,4.84-1.8l-6.36-7.61l-0.82,0.6c-2.15,1.67-2.67,3.29-2.67,4.22C242.89,1137.12,244.86,1139.21,247.9,1139.21z
		 M247.24,1124.72l1.73-1.22c1.63-1.07,2.43-2.1,2.43-3.71c0-1.34-1.24-2.86-3.11-2.86c-2,0-3.31,1.6-3.31,3.49
		C244.99,1121.71,245.97,1123.15,247.24,1124.72z"/>
	<path class="st11" d="M296.29,1122.95c-0.84-3.69-3.87-5.61-7.33-5.61c-4.74,0-8.31,3.6-8.31,10.72c0,7.13,3.57,10.69,8.31,10.69
		c3.46,0,6.44-1.9,7.29-5.56l4.4,0.29c-1.22,5.92-5.92,9.36-11.69,9.36c-7.36,0-12.72-5.6-12.72-14.79c0-9.2,5.36-14.81,12.72-14.81
		c5.77,0,10.48,3.45,11.72,9.41L296.29,1122.95z"/>
	<path class="st11" d="M318.68,1120.84H323v21.61h-4.17v-2.8h-0.22c-1.13,1.6-3.21,3.08-6.22,3.08c-3.31,0-7.06-2.36-7.06-8.23
		v-13.66h4.33v13.59c0,2.88,1.77,4.47,4.21,4.47c2.45,0,4.81-1.79,4.81-5.52V1120.84z"/>
	<path class="st11" d="M332.76,1142.45h-4.33v-28.81h4.33V1142.45z"/>
	<path class="st11" d="M347.94,1124.38h-4.22v11.68c0,2.43,1.21,2.81,2.55,2.81c0.62,0,1.11-0.1,1.42-0.17l0.77,3.56
		c-0.44,0.17-1.49,0.46-3.09,0.46c-3.03,0-5.98-2.01-5.98-5.81v-12.54h-3v-3.54h3v-4.61h4.33v4.61h4.22V1124.38z"/>
	<path class="st11" d="M365.82,1120.84h4.32v21.61h-4.17v-2.8h-0.22c-1.13,1.6-3.21,3.08-6.22,3.08c-3.31,0-7.06-2.36-7.06-8.23
		v-13.66h4.33v13.59c0,2.88,1.77,4.47,4.21,4.47c2.45,0,4.81-1.79,4.81-5.52V1120.84z"/>
	<path class="st11" d="M386.87,1125.14c-0.32-0.17-1.01-0.45-1.93-0.45c-3.09,0-5.02,2.86-5.05,5.53v12.23h-4.33v-21.61h4.28v3.4
		h0.25c0.62-2.14,2.91-3.73,5.25-3.73c1.12,0,2.25,0.37,2.93,0.76L386.87,1125.14z"/>
	<path class="st11" d="M389.56,1131.87c0-6.63,3.83-11.31,9.96-11.31c4.98,0,9.47,3.08,9.47,10.61v1.82h-15.18
		c0.34,4,2.43,6.22,5.98,6.22c2.63,0,4.21-1.25,4.92-3.19l4,1.1c-0.9,3.11-3.94,5.78-8.91,5.78
		C393.45,1142.89,389.56,1138.57,389.56,1131.87z M393.9,1129.7h10.86c0-3.14-2-5.47-5.26-5.47
		C396.55,1124.23,394.48,1126.23,393.9,1129.7z"/>
	<path class="st11" d="M438.76,1142.45v-2.95h-0.32c-0.73,1.32-2.32,3.36-5.88,3.36c-5.12,0-8.89-4.15-8.89-11.17
		c0-7.05,3.84-11.13,8.93-11.13c3.59,0,5.11,2.07,5.84,3.35h0.22v-10.27H443v28.81H438.76z M433.49,1139.2
		c3.69,0,5.44-3.18,5.44-7.55c0-4.35-1.74-7.41-5.44-7.41c-3.76,0-5.63,3.11-5.63,7.41C427.86,1135.99,429.77,1139.2,433.49,1139.2z
		"/>
	<path class="st11" d="M447.93,1115.8c0-1.32,1.11-2.56,2.72-2.56c1.6,0,2.71,1.24,2.71,2.56c0,1.39-1.11,2.56-2.71,2.56
		C449.04,1118.36,447.93,1117.2,447.93,1115.8z M452.83,1142.45h-4.33v-21.61h4.33V1142.45z"/>
	<path class="st11" d="M476.69,1120.88v21.37c0,5.7-4.38,8.36-9.78,8.36c-4.39,0-7.3-1.87-8.61-3.81l2.67-2.67
		c1,1.06,2.62,2.79,5.85,2.79c3.12,0,5.61-1.53,5.58-4.99v-3.05h-0.31c-0.67,1.17-2.15,3.21-5.85,3.21c-4.94,0-8.89-3.6-8.89-10.55
		c0-6.88,3.84-10.96,8.93-10.96c3.59,0,5.11,2.07,5.84,3.35h0.32v-3.03H476.69z M467.18,1138.44c3.62,0,5.44-2.67,5.44-6.96
		c0-4.18-1.77-7.25-5.44-7.25c-3.76,0-5.63,3.12-5.63,7.25C461.55,1135.74,463.53,1138.44,467.18,1138.44z"/>
	<path class="st11" d="M481.62,1115.8c0-1.32,1.11-2.56,2.72-2.56c1.6,0,2.71,1.24,2.71,2.56c0,1.39-1.11,2.56-2.71,2.56
		C482.73,1118.36,481.62,1117.2,481.62,1115.8z M486.52,1142.45h-4.33v-21.61h4.33V1142.45z"/>
	<path class="st11" d="M501.76,1124.38h-4.22v11.68c0,2.43,1.21,2.81,2.55,2.81c0.62,0,1.11-0.1,1.42-0.17l0.77,3.56
		c-0.44,0.17-1.49,0.46-3.09,0.46c-3.03,0-5.98-2.01-5.98-5.81v-12.54h-3v-3.54h3v-4.61h4.33v4.61h4.22V1124.38z"/>
	<path class="st11" d="M518.8,1139.76h-0.2c-0.72,1.38-2.57,3.15-6.01,3.15c-3.98,0-7.2-2.38-7.2-6.58c0-4.54,3.81-6.05,8.53-6.56
		c2.48-0.3,4.78-0.28,4.78-1.56v-0.18c0-2.8-1.59-3.91-3.86-3.91c-2.66,0-4.28,1.43-4.84,2.95l-4.09-0.94
		c1.37-3.95,5.01-5.57,8.91-5.57c3.47,0,8.23,1.31,8.23,7.53v14.36h-4.25V1139.76z M518.7,1131.97c-0.49,0.56-3.42,0.9-4.63,1.06
		c-2.59,0.32-4.43,1.14-4.43,3.38c0,1.94,1.59,3,3.84,3c3.22,0,5.22-2.15,5.22-4.49V1131.97z"/>
	<path class="st11" d="M532.79,1142.45h-4.33v-28.81h4.33V1142.45z"/>
	<path class="st11" d="M537.32,1131.87c0-6.63,3.83-11.31,9.96-11.31c4.98,0,9.47,3.08,9.47,10.61v1.82h-15.18
		c0.34,4,2.43,6.22,5.98,6.22c2.63,0,4.21-1.25,4.92-3.19l4,1.1c-0.9,3.11-3.94,5.78-8.91,5.78
		C541.22,1142.89,537.32,1138.57,537.32,1131.87z M541.67,1129.7h10.86c0-3.14-2-5.47-5.26-5.47
		C544.31,1124.23,542.25,1126.23,541.67,1129.7z"/>
</g>
</svg>
