<svg id="f8d6ef84-989f-4602-8f75-dd6821a3c274" data-name="Calque 1" xmlns="http://www.w3.org/2000/svg" viewBox="0 0 1113.93 1001.95"><polygon points="643.27 252.74 494.74 252.74 420.47 381.37 494.74 510 643.27 510 717.54 381.37 643.27 252.74" style="fill:#fecccb"/><polygon points="495.28 383.6 495.28 381.02 423.46 381.02 423.46 376.5 420.88 376.5 420.88 381.02 349.06 381.02 349.06 376.5 346.48 376.5 346.48 388.12 349.06 388.12 349.06 383.6 420.88 383.6 420.88 388.12 423.46 388.12 423.46 383.6 495.28 383.6" style="fill:red"/><polygon points="790.3 376.5 790.3 381.02 718.48 381.02 718.48 376.5 715.9 376.5 715.9 381.02 644.08 381.02 644.08 376.5 641.5 376.5 641.5 381.02 571.95 381.02 606.27 321.57 610.18 323.83 611.48 321.59 607.56 319.34 643.47 257.14 647.38 259.4 648.68 257.16 644.76 254.9 680.67 192.71 684.58 194.97 685.88 192.73 675.81 186.92 674.52 189.16 678.43 191.42 642.52 253.61 638.61 251.35 637.32 253.59 641.23 255.85 605.33 318.04 601.41 315.79 600.12 318.02 604.03 320.28 569.57 379.98 534.62 319.44 538.53 317.19 537.24 314.95 533.33 317.21 497.42 255.01 501.33 252.75 500.04 250.52 496.13 252.77 460.22 190.58 464.13 188.32 462.84 186.08 452.78 191.89 454.07 194.13 457.98 191.87 493.89 254.07 489.98 256.33 491.27 258.56 495.18 256.3 531.09 318.5 527.18 320.76 528.47 323 532.38 320.74 567.19 381.02 497.87 381.02 497.87 376.5 495.28 376.5 495.28 388.12 497.87 388.12 497.87 383.6 567.3 383.6 532.38 444.07 528.47 441.81 527.18 444.05 531.09 446.31 495.18 508.51 491.27 506.25 489.98 508.48 493.89 510.74 457.98 572.94 454.07 570.68 452.78 572.92 462.84 578.72 464.13 576.49 460.22 574.23 496.13 512.03 500.04 514.29 501.33 512.06 497.42 509.8 533.33 447.6 537.24 449.86 538.53 447.62 534.62 445.36 569.63 384.73 604.64 445.36 600.73 447.62 602.02 449.86 605.93 447.6 641.84 509.8 637.93 512.06 639.22 514.29 643.13 512.03 679.04 574.23 675.13 576.49 676.42 578.73 686.48 572.92 685.19 570.68 681.27 572.94 645.36 510.74 649.28 508.48 647.99 506.25 644.07 508.51 608.17 446.31 612.08 444.05 610.79 441.81 606.87 444.07 571.96 383.6 641.5 383.6 641.5 388.12 644.08 388.12 644.08 383.6 715.9 383.6 715.9 388.12 718.48 388.12 718.48 383.6 790.3 383.6 790.3 388.12 792.89 388.12 792.89 376.5 790.3 376.5" style="fill:red"/><path d="M207.86,63V73.2H203.4V44.39h10.1c6.95,0,9.88,3.9,9.88,9.24s-3,9.33-9.83,9.33Zm0-3.83h5.68c4,0,5.43-2.36,5.43-5.5s-1.39-5.42-5.47-5.42h-5.64V59.13Z"/><path d="M239.11,55.89a4.21,4.21,0,0,0-1.93-.45c-3.09,0-5,2.86-5.05,5.53V73.2H227.8V51.59h4.28V55h.25a5.56,5.56,0,0,1,5.25-3.73,6.31,6.31,0,0,1,2.93.76Z"/><path d="M241.8,62.46c0-6.67,3.9-11.16,9.92-11.16s9.92,4.49,9.92,11.16-3.91,11.17-9.92,11.17S241.8,69.12,241.8,62.46Zm15.61,0c0-4.09-1.74-7.48-5.7-7.48s-5.7,3.39-5.7,7.48,1.73,7.48,5.7,7.48S257.41,66.57,257.41,62.46Z"/><path d="M284.57,51.63V73c0,5.7-4.38,8.36-9.78,8.36-4.39,0-7.3-1.87-8.61-3.81l2.67-2.67a7.45,7.45,0,0,0,5.85,2.79c3.12,0,5.61-1.53,5.58-5V69.63H280a6.16,6.16,0,0,1-5.85,3.21c-4.94,0-8.89-3.6-8.89-10.55s3.84-11,8.93-11A6.23,6.23,0,0,1,280,54.68h.32v-3h4.25Zm-9.51,17.56c3.62,0,5.44-2.67,5.44-7S278.73,55,275.06,55s-5.63,3.12-5.63,7.25S271.42,69.19,275.06,69.19Z"/><path d="M301.31,55.89a4.21,4.21,0,0,0-1.93-.45c-3.09,0-5,2.86-5.05,5.53V73.2H290V51.59h4.28V55h.25a5.56,5.56,0,0,1,5.25-3.73,6.31,6.31,0,0,1,2.93.76Z"/><path d="M318.17,70.51H318c-.72,1.38-2.57,3.15-6,3.15-4,0-7.2-2.38-7.2-6.58,0-4.54,3.81-6,8.53-6.56,2.48-.3,4.78-.28,4.78-1.56v-.18c0-2.8-1.59-3.91-3.86-3.91a4.86,4.86,0,0,0-4.84,3l-4.09-.94c1.37-4,5-5.57,8.91-5.57,3.47,0,8.23,1.31,8.23,7.53V73.2h-4.25Zm-.09-7.79c-.49.56-3.42.9-4.63,1.06-2.59.32-4.43,1.14-4.43,3.38,0,1.94,1.59,3,3.84,3,3.22,0,5.22-2.15,5.22-4.49Z"/><path d="M344.28,73.2H340V59.27c0-3-1.45-4.14-3.62-4.14s-4.21,1.8-4.21,4.94V73.2h-4.33V51.59h4.28v3.22h.21a6.33,6.33,0,0,1,5.63-3.5,5.84,5.84,0,0,1,5.47,3.6h.22a6.85,6.85,0,0,1,6.19-3.6c3.63,0,6.56,2.36,6.56,8V73.2h-4.33v-14c0-3.1-2-4.07-3.74-4.07-2.55,0-4,1.73-4,4.56V73.2Z"/><path d="M378.26,73.2H374V59.27c0-3-1.45-4.14-3.62-4.14s-4.21,1.8-4.21,4.94V73.2h-4.33V51.59h4.28v3.22h.21a6.33,6.33,0,0,1,5.63-3.5,5.84,5.84,0,0,1,5.47,3.6h.22a6.85,6.85,0,0,1,6.19-3.6c3.63,0,6.56,2.36,6.56,8V73.2H386v-14c0-3.1-2-4.07-3.74-4.07-2.55,0-4,1.73-4,4.56V73.2Z"/><path d="M394.74,62.62c0-6.63,3.83-11.31,10-11.31,5,0,9.47,3.08,9.47,10.61v1.82H399c.34,4,2.43,6.22,6,6.22a4.77,4.77,0,0,0,4.92-3.19l4,1.1C413,71,410,73.65,405,73.65,398.64,73.63,394.74,69.31,394.74,62.62Zm4.35-2.17H410c0-3.14-2-5.47-5.26-5.47C401.73,55,399.67,57,399.09,60.45Z"/><path d="M430,55.89a4.21,4.21,0,0,0-1.93-.45c-3.09,0-5,2.86-5.05,5.53V73.2h-4.33V51.59H423V55h.25a5.56,5.56,0,0,1,5.25-3.73,6.31,6.31,0,0,1,2.93.76Z"/><path d="M215.66,91.2h4.24v3.07h.35a6.16,6.16,0,0,1,5.8-3.35c5.11,0,8.95,4.08,8.95,11.13s-3.77,11.17-8.91,11.17a6.22,6.22,0,0,1-5.84-3.36H220v11.06h-4.33V91.2Zm9.51,3.39c-3.71,0-5.46,3.07-5.46,7.41s1.77,7.55,5.46,7.55,5.61-3.21,5.61-7.55S228.93,94.59,225.17,94.59Z"/><path d="M238.62,102.07c0-6.67,3.9-11.16,9.92-11.16s9.92,4.49,9.92,11.16-3.91,11.17-9.92,11.17S238.62,108.72,238.62,102.07Zm15.61,0c0-4.09-1.74-7.48-5.7-7.48s-5.7,3.39-5.7,7.48,1.73,7.48,5.7,7.48S254.23,106.18,254.23,102.07Z"/><path d="M276.16,91.2h4.32v21.61h-4.17V110h-.22a7.44,7.44,0,0,1-6.22,3.08c-3.31,0-7.06-2.36-7.06-8.23V91.2h4.33v13.59c0,2.88,1.77,4.47,4.21,4.47s4.81-1.79,4.81-5.52V91.2Z"/><path d="M297.22,95.5a4.21,4.21,0,0,0-1.93-.45c-3.09,0-5,2.86-5.05,5.53v12.23h-4.33V91.2h4.28v3.4h.25a5.56,5.56,0,0,1,5.25-3.73,6.31,6.31,0,0,1,2.93.76Z"/><path d="M317.06,112.8h-4.33V84h4.33Z"/><path d="M321.59,102.22c0-6.63,3.83-11.31,10-11.31,5,0,9.47,3.08,9.47,10.61v1.82H325.84c.34,4,2.43,6.22,6,6.22a4.77,4.77,0,0,0,4.92-3.19l4,1.1c-.9,3.11-3.94,5.78-8.91,5.78C325.48,113.24,321.59,108.92,321.59,102.22Zm4.35-2.16H336.8c0-3.14-2-5.47-5.26-5.47C328.58,94.59,326.51,96.58,325.94,100.06Z"/><path d="M378.18,112.8h-3.9L370,97.68h-.34l-4.32,15.12h-3.88l-6.18-21.61h4.35l3.87,15.39h.24l4.21-15.39h3.81l4.16,15.32h.24L380,91.19h4.35Z"/><path d="M386.68,102.22c0-6.63,3.83-11.31,10-11.31,5,0,9.47,3.08,9.47,10.61v1.82H390.93c.34,4,2.43,6.22,6,6.22a4.77,4.77,0,0,0,4.92-3.19l4,1.1c-.9,3.11-3.94,5.78-8.91,5.78C390.58,113.24,386.68,108.92,386.68,102.22Zm4.35-2.16h10.86c0-3.14-2-5.47-5.26-5.47C393.67,94.59,391.6,96.58,391,100.06Z"/><path d="M415,84V94.26h.25a6.16,6.16,0,0,1,5.8-3.35C426.16,90.91,430,95,430,102s-3.77,11.17-8.91,11.17a6.22,6.22,0,0,1-5.84-3.36h-.35v3h-4.24V84Zm5.17,10.6c-3.71,0-5.46,3.07-5.46,7.41s1.77,7.55,5.46,7.55,5.61-3.21,5.61-7.55S423.93,94.59,420.17,94.59Z"/><path d="M646.31,9.71A7.13,7.13,0,0,0,639,4.1c-4.74,0-8.31,3.6-8.31,10.72s3.57,10.69,8.31,10.69A7.08,7.08,0,0,0,646.27,20l4.4.29c-1.22,5.92-5.92,9.36-11.69,9.36-7.36,0-12.72-5.6-12.72-14.79S631.62,0,639,0A11.46,11.46,0,0,1,650.7,9.41Z"/><path d="M654.45,18.47c0-6.67,3.9-11.16,9.92-11.16s9.92,4.49,9.92,11.16-3.91,11.17-9.92,11.17S654.45,25.13,654.45,18.47Zm15.62,0c0-4.09-1.74-7.48-5.7-7.48s-5.7,3.39-5.7,7.48S660.4,26,664.37,26,670.07,22.58,670.07,18.47Z"/><path d="M695.18,29.21h-4.29V15.28c0-3-1.45-4.14-3.62-4.14s-4.21,1.8-4.21,4.94V29.21h-4.33V7.6H683v3.22h.21a6.33,6.33,0,0,1,5.63-3.5,5.84,5.84,0,0,1,5.47,3.6h.22a6.85,6.85,0,0,1,6.19-3.6c3.63,0,6.56,2.36,6.56,8V29.21H703v-14c0-3.1-2-4.07-3.74-4.07-2.55,0-4,1.73-4,4.56Z"/><path d="M712.71,7.6H717v3.07h.35a6.16,6.16,0,0,1,5.8-3.35c5.11,0,8.95,4.08,8.95,11.13s-3.77,11.17-8.91,11.17a6.22,6.22,0,0,1-5.84-3.36h-.25V37.32h-4.33V7.6ZM722.22,11c-3.71,0-5.46,3.07-5.46,7.41S718.53,26,722.22,26s5.61-3.21,5.61-7.55S726,11,722.22,11Z"/><path d="M747.81,11.9a4.21,4.21,0,0,0-1.93-.45c-3.09,0-5,2.86-5,5.53V29.21H736.5V7.6h4.28V11H741a5.56,5.56,0,0,1,5.25-3.73,6.31,6.31,0,0,1,2.93.76Z"/><path d="M750.49,18.63c0-6.63,3.83-11.31,10-11.31,5,0,9.47,3.08,9.47,10.61v1.82H754.74c.34,4,2.43,6.22,6,6.22a4.77,4.77,0,0,0,4.92-3.19l4,1.1c-.9,3.11-3.94,5.78-8.91,5.78C754.39,29.64,750.49,25.32,750.49,18.63Zm4.35-2.17H765.7c0-3.14-2-5.47-5.26-5.47C757.48,11,755.41,13,754.84,16.46Z"/><path d="M778.8,29.21h-4.33V7.6h4.17v3.22h.22a6.79,6.79,0,0,1,6.22-3.5c3.92,0,7.06,2.48,7.06,8.23V29.21h-4.32V15.77c0-2.88-1.77-4.63-4.21-4.63s-4.81,2-4.81,5.7V29.21Z"/><path d="M811.6,29.21V26.26h-.32a6.27,6.27,0,0,1-5.88,3.36c-5.12,0-8.89-4.15-8.89-11.17s3.84-11.13,8.93-11.13a6.23,6.23,0,0,1,5.84,3.35h.22V.4h4.33V29.21ZM806.33,26c3.69,0,5.44-3.18,5.44-7.55S810,11,806.33,11s-5.63,3.11-5.63,7.41S802.62,26,806.33,26Z"/><path d="M832.58,11.9a4.21,4.21,0,0,0-1.93-.45c-3.09,0-5,2.86-5,5.53V29.21h-4.33V7.6h4.28V11h.25a5.56,5.56,0,0,1,5.25-3.73A6.31,6.31,0,0,1,834,8Z"/><path d="M835.26,18.63c0-6.63,3.83-11.31,10-11.31,5,0,9.47,3.08,9.47,10.61v1.82H839.51c.34,4,2.43,6.22,6,6.22a4.77,4.77,0,0,0,4.92-3.19l4,1.1c-.9,3.11-3.94,5.78-8.91,5.78C839.16,29.64,835.26,25.32,835.26,18.63Zm4.35-2.17h10.86c0-3.14-2-5.47-5.26-5.47C842.25,11,840.18,13,839.61,16.46Z"/><path d="M874.6,29.21h-4.33V.4h4.33Z"/><path d="M879.13,18.63c0-6.63,3.83-11.31,10-11.31,5,0,9.47,3.08,9.47,10.61v1.82H883.38c.34,4,2.43,6.22,6,6.22a4.77,4.77,0,0,0,4.92-3.19l4,1.1c-.9,3.11-3.94,5.78-8.91,5.78C883,29.64,879.13,25.32,879.13,18.63Zm4.35-2.17h10.86c0-3.14-2-5.47-5.26-5.47C886.12,11,884.05,13,883.48,16.46Z"/><path d="M930.58,29.21h-4.29V15.28c0-3-1.45-4.14-3.62-4.14s-4.21,1.8-4.21,4.94V29.21h-4.33V7.6h4.28v3.22h.21a6.33,6.33,0,0,1,5.63-3.5,5.84,5.84,0,0,1,5.47,3.6h.22a6.85,6.85,0,0,1,6.19-3.6c3.63,0,6.56,2.36,6.56,8V29.21h-4.33v-14c0-3.1-2-4.07-3.74-4.07-2.55,0-4,1.73-4,4.56Z"/><path d="M960.62,26.52h-.2c-.72,1.38-2.57,3.15-6,3.15-4,0-7.2-2.38-7.2-6.58,0-4.54,3.81-6.05,8.53-6.56,2.48-.3,4.78-.28,4.78-1.56v-.18c0-2.8-1.59-3.91-3.86-3.91a4.86,4.86,0,0,0-4.84,2.95l-4.09-.94c1.37-4,5-5.57,8.91-5.57,3.47,0,8.23,1.31,8.23,7.53V29.21h-4.25Zm-.09-7.79c-.49.56-3.42.9-4.63,1.06-2.59.32-4.43,1.14-4.43,3.38,0,1.94,1.59,3,3.84,3,3.22,0,5.22-2.15,5.22-4.49Z"/><path d="M981.59,11.9a4.21,4.21,0,0,0-1.93-.45c-3.09,0-5,2.86-5,5.53V29.21h-4.33V7.6h4.28V11h.25a5.56,5.56,0,0,1,5.25-3.73A6.31,6.31,0,0,1,983,8Z"/><path d="M992.65,19.56,990.41,22v7.19h-4.33V.4h4.33V16.51h.35l7.81-8.91h5.19l-8.24,9.21,9,12.39h-4.87Z"/><path d="M1005.6,18.63c0-6.63,3.83-11.31,10-11.31,5,0,9.47,3.08,9.47,10.61v1.82h-15.18c.34,4,2.43,6.22,6,6.22a4.77,4.77,0,0,0,4.92-3.19l4,1.1c-.9,3.11-3.94,5.78-8.91,5.78C1009.5,29.64,1005.6,25.32,1005.6,18.63Zm4.35-2.17h10.86c0-3.14-2-5.47-5.26-5.47C1012.59,11,1010.52,13,1010,16.46Z"/><path d="M1039.26,11.14H1035V22.82c0,2.43,1.21,2.81,2.55,2.81a6.27,6.27,0,0,0,1.42-.17l.77,3.56a9,9,0,0,1-3.09.46,5.69,5.69,0,0,1-6-5.81V11.14h-3V7.6h3V3H1035V7.6h4.22v3.54Z"/><path d="M1043.29,2.56a2.72,2.72,0,0,1,5.43,0,2.72,2.72,0,0,1-5.43,0Zm4.9,26.65h-4.33V7.6h4.33Z"/><path d="M1058,29.21h-4.33V7.6h4.17v3.22h.22a6.79,6.79,0,0,1,6.22-3.5c3.92,0,7.06,2.48,7.06,8.23V29.21H1067V15.77c0-2.88-1.77-4.63-4.21-4.63s-4.81,2-4.81,5.7V29.21Z"/><path d="M1095.06,7.64V29c0,5.7-4.38,8.36-9.78,8.36-4.39,0-7.3-1.87-8.61-3.81l2.67-2.67a7.45,7.45,0,0,0,5.85,2.79c3.12,0,5.61-1.53,5.58-5V25.64h-.31a6.16,6.16,0,0,1-5.85,3.21c-4.94,0-8.89-3.6-8.89-10.55s3.84-11,8.93-11a6.23,6.23,0,0,1,5.84,3.35h.32v-3h4.25Zm-9.51,17.56c3.62,0,5.44-2.67,5.44-7s-1.77-7.25-5.44-7.25-5.63,3.12-5.63,7.25S1081.9,25.2,1085.55,25.2Z"/><path d="M625.93,58.23c0-6.63,3.83-11.31,10-11.31,5,0,9.47,3.08,9.47,10.61v1.82H630.18c.34,4,2.43,6.22,6,6.22a4.77,4.77,0,0,0,4.92-3.19l4,1.1c-.9,3.11-3.94,5.78-8.91,5.78C629.83,69.25,625.93,64.93,625.93,58.23Zm4.35-2.16h10.86c0-3.14-2-5.47-5.26-5.47C632.92,50.6,630.85,52.59,630.28,56.07Z"/><path d="M659.59,50.75h-4.22V62.43c0,2.43,1.21,2.81,2.55,2.81a6.27,6.27,0,0,0,1.42-.17l.77,3.56a9,9,0,0,1-3.09.46,5.69,5.69,0,0,1-6-5.81V50.74h-3V47.2h3V42.59h4.33V47.2h4.22Z"/><path d="M679.48,68.81h-4.33V40h4.33Z"/><path d="M697.41,66.13h-.2c-.72,1.38-2.57,3.15-6,3.15-4,0-7.2-2.38-7.2-6.58,0-4.54,3.81-6.05,8.53-6.56,2.48-.3,4.78-.28,4.78-1.56V54.4c0-2.8-1.59-3.91-3.86-3.91a4.86,4.86,0,0,0-4.84,2.95l-4.09-.94c1.37-4,5-5.57,8.91-5.57,3.47,0,8.23,1.31,8.23,7.53V68.82h-4.25V66.13Zm-.1-7.8c-.49.56-3.42.9-4.63,1.06-2.59.32-4.43,1.14-4.43,3.38,0,1.94,1.59,3,3.84,3,3.22,0,5.22-2.15,5.22-4.49Z"/><path d="M731.8,54.24a4.56,4.56,0,0,0-4.68-3.64c-3.59,0-5.7,2.93-5.7,7.41s2.08,7.55,5.7,7.55a4.52,4.52,0,0,0,4.64-3.5l4.18.34c-.72,4-4,6.85-8.82,6.85-6.13,0-9.92-4.64-9.92-11.24s3.86-11.09,9.88-11.09c4.71,0,8.2,2.76,8.88,6.95Z"/><path d="M739.45,58.08c0-6.67,3.9-11.16,9.92-11.16s9.92,4.49,9.92,11.16-3.91,11.17-9.92,11.17S739.45,64.73,739.45,58.08Zm15.61,0c0-4.09-1.74-7.48-5.7-7.48s-5.7,3.39-5.7,7.48,1.73,7.48,5.7,7.48S755.06,62.19,755.06,58.08Z"/><path d="M780.17,68.81h-4.29V54.88c0-3-1.45-4.14-3.62-4.14s-4.21,1.8-4.21,4.94V68.81h-4.33V47.2H768v3.22h.21a6.33,6.33,0,0,1,5.63-3.5,5.84,5.84,0,0,1,5.47,3.6h.22a6.85,6.85,0,0,1,6.19-3.6c3.63,0,6.56,2.36,6.56,8V68.81H788v-14c0-3.1-2-4.07-3.74-4.07-2.55,0-4,1.73-4,4.56Z"/><path d="M814.15,68.81h-4.29V54.88c0-3-1.45-4.14-3.62-4.14S802,52.54,802,55.68V68.81H797.7V47.2H802v3.22h.21a6.33,6.33,0,0,1,5.63-3.5,5.84,5.84,0,0,1,5.47,3.6h.22a6.85,6.85,0,0,1,6.19-3.6c3.63,0,6.56,2.36,6.56,8V68.81h-4.33v-14c0-3.1-2-4.07-3.74-4.07-2.55,0-4,1.73-4,4.56Z"/><path d="M845,47.21h4.32V68.82h-4.17V66H845a7.44,7.44,0,0,1-6.22,3.08c-3.31,0-7.06-2.36-7.06-8.23V47.21H836V60.8c0,2.88,1.77,4.47,4.21,4.47S845,63.48,845,59.75V47.21Z"/><path d="M859.11,68.81h-4.33V47.2H859v3.22h.22a6.79,6.79,0,0,1,6.22-3.5c3.92,0,7.06,2.48,7.06,8.23V68.81h-4.32V55.37c0-2.88-1.77-4.63-4.21-4.63s-4.81,2-4.81,5.7V68.81Z"/><path d="M877.38,42.17a2.72,2.72,0,0,1,5.43,0,2.72,2.72,0,0,1-5.43,0Zm4.9,26.64H878V47.2h4.33Z"/><path d="M901.41,54.24a4.56,4.56,0,0,0-4.68-3.64c-3.59,0-5.7,2.93-5.7,7.41s2.08,7.55,5.7,7.55a4.52,4.52,0,0,0,4.64-3.5l4.18.34c-.72,4-4,6.85-8.82,6.85-6.13,0-9.92-4.64-9.92-11.24s3.86-11.09,9.88-11.09c4.71,0,8.2,2.76,8.88,6.95Z"/><path d="M922.4,66.13h-.2c-.72,1.38-2.57,3.15-6,3.15-4,0-7.2-2.38-7.2-6.58,0-4.54,3.81-6.05,8.53-6.56,2.48-.3,4.78-.28,4.78-1.56V54.4c0-2.8-1.59-3.91-3.86-3.91a4.86,4.86,0,0,0-4.84,2.95l-4.09-.94c1.37-4,5-5.57,8.91-5.57,3.47,0,8.23,1.31,8.23,7.53V68.82H922.4V66.13Zm-.1-7.8c-.49.56-3.42.9-4.63,1.06-2.59.32-4.43,1.14-4.43,3.38,0,1.94,1.59,3,3.84,3,3.22,0,5.22-2.15,5.22-4.49Z"/><path d="M941.44,50.75h-4.22V62.43c0,2.43,1.21,2.81,2.55,2.81a6.27,6.27,0,0,0,1.42-.17l.77,3.56a9,9,0,0,1-3.09.46,5.69,5.69,0,0,1-6-5.81V50.74h-3V47.2h3V42.59h4.33V47.2h4.22Z"/><path d="M945.47,42.17a2.72,2.72,0,0,1,5.43,0,2.72,2.72,0,0,1-5.43,0Zm4.9,26.64H946V47.2h4.33Z"/><path d="M954.9,58.08c0-6.67,3.9-11.16,9.92-11.16s9.92,4.49,9.92,11.16-3.91,11.17-9.92,11.17S954.9,64.73,954.9,58.08Zm15.61,0c0-4.09-1.74-7.48-5.7-7.48s-5.7,3.39-5.7,7.48,1.73,7.48,5.7,7.48S970.51,62.19,970.51,58.08Z"/><path d="M983.51,68.81h-4.33V47.2h4.17v3.22h.22a6.79,6.79,0,0,1,6.22-3.5c3.92,0,7.06,2.48,7.06,8.23V68.81h-4.32V55.37c0-2.88-1.77-4.63-4.21-4.63s-4.81,2-4.81,5.7V68.81Z"/><path d="M641,108.42v-3h-.32a6.27,6.27,0,0,1-5.88,3.36c-5.12,0-8.89-4.15-8.89-11.17s3.84-11.13,8.93-11.13a6.23,6.23,0,0,1,5.84,3.35h.22V79.61h4.33v28.81Zm-5.27-3.25c3.69,0,5.44-3.18,5.44-7.55s-1.74-7.41-5.44-7.41-5.63,3.11-5.63,7.41S632,105.17,635.75,105.17Z"/><path d="M650.19,81.78a2.72,2.72,0,0,1,5.43,0,2.72,2.72,0,0,1-5.43,0Zm4.9,26.64h-4.33V86.81h4.33Z"/><path d="M679,86.85v21.37c0,5.7-4.38,8.36-9.78,8.36-4.39,0-7.3-1.87-8.61-3.81l2.67-2.67a7.45,7.45,0,0,0,5.85,2.79c3.12,0,5.61-1.53,5.58-5v-3.05h-.31a6.16,6.16,0,0,1-5.85,3.21c-4.94,0-8.89-3.6-8.89-10.55s3.84-11,8.93-11a6.23,6.23,0,0,1,5.84,3.35h.32v-3H679Zm-9.51,17.56c3.62,0,5.44-2.67,5.44-7s-1.77-7.25-5.44-7.25-5.63,3.12-5.63,7.25S665.79,104.41,669.44,104.41Z"/><path d="M683.88,81.78a2.72,2.72,0,0,1,5.43,0,2.72,2.72,0,0,1-5.43,0Zm4.89,26.64h-4.33V86.81h4.33Z"/><path d="M704,90.36H699.8V102c0,2.43,1.21,2.81,2.55,2.81a6.27,6.27,0,0,0,1.42-.17l.77,3.56a9,9,0,0,1-3.09.46,5.69,5.69,0,0,1-6-5.81V90.35h-3V86.81h3V82.2h4.33v4.61H704Z"/><path d="M721.06,105.73h-.2c-.72,1.38-2.57,3.15-6,3.15-4,0-7.2-2.38-7.2-6.58,0-4.54,3.81-6,8.53-6.56,2.48-.3,4.78-.28,4.78-1.56V94c0-2.8-1.59-3.91-3.86-3.91a4.86,4.86,0,0,0-4.84,3l-4.09-.94c1.37-3.95,5-5.57,8.91-5.57,3.47,0,8.23,1.31,8.23,7.53v14.36h-4.25v-2.69Zm-.1-7.79c-.49.56-3.42.9-4.63,1.06-2.59.32-4.43,1.14-4.43,3.38,0,1.94,1.59,3,3.84,3,3.22,0,5.22-2.15,5.22-4.49Z"/><path d="M735.05,108.42h-4.33V79.61h4.33Z"/><path d="M739.57,97.84c0-6.63,3.83-11.31,10-11.31,5,0,9.47,3.08,9.47,10.61V99H743.82c.34,4,2.43,6.22,6,6.22a4.77,4.77,0,0,0,4.92-3.19l4,1.1c-.9,3.11-3.94,5.78-8.91,5.78C743.47,108.86,739.57,104.54,739.57,97.84Zm4.35-2.17h10.86c0-3.14-2-5.47-5.26-5.47C746.57,90.2,744.5,92.2,743.92,95.67Z"/><path d="M874.24,377.92a7.13,7.13,0,0,0-7.33-5.61c-4.74,0-8.31,3.6-8.31,10.72s3.57,10.69,8.31,10.69a7.08,7.08,0,0,0,7.29-5.56l4.4.29c-1.22,5.92-5.92,9.36-11.69,9.36-7.36,0-12.72-5.6-12.72-14.79s5.36-14.81,12.72-14.81a11.46,11.46,0,0,1,11.72,9.41Z"/><path d="M894.59,380.12a4.21,4.21,0,0,0-1.93-.45c-3.09,0-5,2.86-5,5.53v12.23h-4.33V375.82h4.28v3.4h.25a5.56,5.56,0,0,1,5.25-3.73,6.31,6.31,0,0,1,2.93.76Z"/><path d="M897.27,386.84c0-6.63,3.83-11.31,10-11.31,5,0,9.47,3.08,9.47,10.61V388H901.52c.34,4,2.43,6.22,6,6.22a4.77,4.77,0,0,0,4.92-3.19l4,1.1c-.9,3.11-3.94,5.78-8.91,5.78C901.17,397.86,897.27,393.54,897.27,386.84Zm4.35-2.16h10.86c0-3.14-2-5.47-5.26-5.47C904.27,379.2,902.2,381.2,901.62,384.68Zm6.85-17.13h4.46l-4.66,5.85H905Z"/><path d="M920.35,386.84c0-6.63,3.83-11.31,10-11.31,5,0,9.47,3.08,9.47,10.61V388H924.6c.34,4,2.43,6.22,6,6.22A4.77,4.77,0,0,0,935.5,391l4,1.1c-.9,3.11-3.94,5.78-8.91,5.78C924.25,397.86,920.35,393.54,920.35,386.84Zm4.35-2.16h10.86c0-3.14-2-5.47-5.26-5.47C927.35,379.2,925.28,381.2,924.7,384.68Z"/><path d="M955.65,380.12a4.21,4.21,0,0,0-1.93-.45c-3.09,0-5,2.86-5.05,5.53v12.23h-4.33V375.82h4.28v3.4h.25a5.56,5.56,0,0,1,5.25-3.73,6.31,6.31,0,0,1,2.93.76Z"/><path d="M985.35,397.42v-2.95H985a6.27,6.27,0,0,1-5.88,3.36c-5.12,0-8.89-4.15-8.89-11.17s3.84-11.13,8.93-11.13a6.23,6.23,0,0,1,5.84,3.35h.22V368.61h4.33v28.81Zm-5.27-3.25c3.69,0,5.44-3.18,5.44-7.55s-1.74-7.41-5.44-7.41-5.63,3.11-5.63,7.41S976.36,394.17,980.08,394.17Z"/><path d="M994.11,386.84c0-6.63,3.83-11.31,10-11.31,5,0,9.47,3.08,9.47,10.61V388H998.36c.34,4,2.43,6.22,6,6.22a4.77,4.77,0,0,0,4.92-3.19l4,1.1c-.9,3.11-3.94,5.78-8.91,5.78C998,397.86,994.11,393.54,994.11,386.84Zm4.35-2.16h10.86c0-3.14-2-5.47-5.26-5.47C1001.1,379.2,999,381.2,998.46,384.68Z"/><path d="M1030.16,381.82a4,4,0,0,0-4.16-2.88c-2.27,0-4.07,1.18-4.07,2.81,0,1.37,1.18,2.36,3.24,2.86l3.59.83c3.66.84,5.68,2.81,5.68,5.75,0,3.85-3.46,6.67-8.83,6.67s-7.95-2.62-8.91-6l4.07-.87a4.8,4.8,0,0,0,4.94,3.4c2.62,0,4.32-1.34,4.32-2.9s-1.11-2.14-2.88-2.56l-3.69-.89c-3.73-.91-5.84-3-5.84-6.06,0-3.91,3.53-6.49,8.5-6.49,4.5,0,7.05,2.1,8,5.61Z"/><path d="M868.46,422.45a4.56,4.56,0,0,0-4.68-3.64c-3.59,0-5.7,2.93-5.7,7.41s2.08,7.55,5.7,7.55a4.52,4.52,0,0,0,4.64-3.5l4.18.34c-.72,4-4,6.85-8.82,6.85-6.13,0-9.92-4.64-9.92-11.24s3.86-11.09,9.88-11.09c4.71,0,8.2,2.76,8.88,6.95Z"/><path d="M876.11,426.3c0-6.67,3.9-11.16,9.92-11.16S896,419.63,896,426.3,892,437.47,886,437.47,876.11,433,876.11,426.3Zm15.61,0c0-4.09-1.74-7.48-5.7-7.48s-5.7,3.39-5.7,7.48,1.73,7.48,5.7,7.48S891.72,430.4,891.72,426.3Z"/><path d="M904.72,437h-4.33V415.42h4.17v3.22h.22a6.79,6.79,0,0,1,6.22-3.5c3.92,0,7.06,2.48,7.06,8.23V437h-4.32V423.59c0-2.88-1.77-4.63-4.21-4.63s-4.81,2-4.81,5.7V437Z"/><path d="M932.86,419h-4.22v11.68c0,2.43,1.21,2.81,2.55,2.81a6.27,6.27,0,0,0,1.42-.17l.77,3.56a9,9,0,0,1-3.09.46,5.69,5.69,0,0,1-6-5.81V419h-3v-3.54h3V410.8h4.33v4.61h4.22Z"/><path d="M936.15,426.45c0-6.63,3.83-11.31,10-11.31,5,0,9.47,3.08,9.47,10.61v1.82H940.4c.34,4,2.43,6.22,6,6.22a4.77,4.77,0,0,0,4.92-3.19l4,1.1c-.9,3.11-3.94,5.78-8.91,5.78C940.05,437.47,936.15,433.15,936.15,426.45Zm4.35-2.17h10.86c0-3.14-2-5.47-5.26-5.47C943.14,418.81,941.07,420.81,940.5,424.28Z"/><path d="M964.46,437h-4.33V415.42h4.17v3.22h.22a6.79,6.79,0,0,1,6.22-3.5c3.92,0,7.06,2.48,7.06,8.23V437h-4.32V423.59c0-2.88-1.77-4.63-4.21-4.63s-4.81,2-4.81,5.7Z"/><path d="M996.58,415.42h4.32V437h-4.17v-2.8h-.22a7.44,7.44,0,0,1-6.22,3.08c-3.31,0-7.06-2.36-7.06-8.23V415.42h4.33V429c0,2.88,1.77,4.47,4.21,4.47s4.81-1.79,4.81-5.52V415.42Z"/><path d="M1018.39,421.43a4,4,0,0,0-4.16-2.88c-2.27,0-4.07,1.18-4.07,2.81,0,1.37,1.18,2.36,3.24,2.86l3.59.83c3.66.84,5.68,2.81,5.68,5.75,0,3.85-3.46,6.67-8.83,6.67s-8-2.62-8.91-6l4.07-.87a4.8,4.8,0,0,0,4.94,3.4c2.62,0,4.32-1.34,4.32-2.9s-1.11-2.14-2.88-2.56l-3.69-.89c-3.73-.91-5.84-3-5.84-6.06,0-3.91,3.53-6.49,8.5-6.49,4.5,0,7,2.1,8,5.61Z"/><path d="M878.8,465.62c0,6.95-5.15,11.41-11.82,11.41-7.41,0-12.79-5.56-12.79-14.79s5.36-14.81,12.61-14.81c5.67,0,10.09,3.38,11.8,9.27l-4.52.3a7.41,7.41,0,0,0-7.29-5.47c-4.59,0-8.2,3.56-8.2,10.72s3.63,10.69,8.38,10.69c4.32,0,7.49-2.94,7.49-7.32h-6.57V462h10.9v3.64Z"/><path d="M882.87,466.06c0-6.63,3.83-11.31,10-11.31,5,0,9.47,3.08,9.47,10.61v1.82H887.12c.34,4,2.43,6.22,6,6.22a4.77,4.77,0,0,0,4.92-3.19l4,1.1c-.9,3.11-3.94,5.78-8.91,5.78C886.77,477.07,882.87,472.75,882.87,466.06Zm4.35-2.17h10.86c0-3.14-2-5.47-5.26-5.47C889.86,458.42,887.8,460.42,887.22,463.89Zm6.85-17.12h4.46l-4.66,5.85h-3.32Z"/><path d="M918.16,459.33a4.21,4.21,0,0,0-1.93-.45c-3.09,0-5,2.86-5.05,5.53v12.23h-4.33V455h4.28v3.4h.25a5.56,5.56,0,0,1,5.25-3.73,6.31,6.31,0,0,1,2.93.76Z"/><path d="M920.85,466.06c0-6.63,3.83-11.31,10-11.31,5,0,9.47,3.08,9.47,10.61v1.82H925.1c.34,4,2.43,6.22,6,6.22a4.77,4.77,0,0,0,4.92-3.19l4,1.1c-.9,3.11-3.94,5.78-8.91,5.78C924.74,477.07,920.85,472.75,920.85,466.06Zm4.34-2.17h10.86c0-3.14-2-5.47-5.26-5.47C927.84,458.42,925.77,460.42,925.19,463.89Z"/><path d="M956.14,459.33a4.21,4.21,0,0,0-1.93-.45c-3.09,0-5,2.86-5.05,5.53v12.23h-4.33V455h4.28v3.4h.25a5.56,5.56,0,0,1,5.25-3.73,6.31,6.31,0,0,1,2.93.76Z"/><path d="M985.84,476.64v-2.95h-.32a6.27,6.27,0,0,1-5.88,3.36c-5.12,0-8.89-4.15-8.89-11.17s3.84-11.13,8.93-11.13a6.23,6.23,0,0,1,5.84,3.35h.22V447.83h4.33v28.81Zm-5.27-3.25c3.69,0,5.44-3.18,5.44-7.55s-1.74-7.41-5.44-7.41-5.63,3.11-5.63,7.41S976.86,473.39,980.57,473.39Z"/><path d="M994.6,466.06c0-6.63,3.83-11.31,10-11.31,5,0,9.47,3.08,9.47,10.61v1.82H998.85c.34,4,2.43,6.22,6,6.22a4.77,4.77,0,0,0,4.92-3.19l4,1.1c-.9,3.11-3.94,5.78-8.91,5.78C998.5,477.07,994.6,472.75,994.6,466.06Zm4.35-2.17h10.86c0-3.14-2-5.47-5.26-5.47C1001.6,458.42,999.53,460.42,999,463.89Z"/><path d="M1030.66,461a4,4,0,0,0-4.16-2.88c-2.27,0-4.07,1.18-4.07,2.81,0,1.37,1.18,2.36,3.24,2.86l3.59.83c3.66.84,5.68,2.81,5.68,5.75,0,3.85-3.46,6.67-8.83,6.67s-7.95-2.62-8.91-6l4.07-.87a4.8,4.8,0,0,0,4.94,3.4c2.62,0,4.32-1.34,4.32-2.9s-1.11-2.14-2.88-2.56l-3.69-.89c-3.73-.91-5.84-3-5.84-6.06,0-3.91,3.53-6.49,8.5-6.49,4.5,0,7.05,2.1,8,5.61Z"/><path d="M868.46,501.67a4.56,4.56,0,0,0-4.68-3.64c-3.59,0-5.7,2.93-5.7,7.41s2.08,7.55,5.7,7.55a4.52,4.52,0,0,0,4.64-3.5l4.18.34c-.72,4-4,6.85-8.82,6.85-6.13,0-9.92-4.64-9.92-11.24s3.86-11.09,9.88-11.09c4.71,0,8.2,2.76,8.88,6.95Z"/><path d="M889.44,513.56h-.2c-.72,1.38-2.57,3.15-6,3.15-4,0-7.2-2.38-7.2-6.58,0-4.54,3.81-6.05,8.53-6.56,2.48-.3,4.78-.28,4.78-1.56v-.18c0-2.8-1.59-3.91-3.86-3.91a4.86,4.86,0,0,0-4.84,2.95l-4.09-.94c1.37-3.95,5-5.57,8.91-5.57,3.47,0,8.23,1.31,8.23,7.53v14.36h-4.25v-2.69Zm-.09-7.8c-.49.56-3.42.9-4.63,1.06-2.59.32-4.43,1.14-4.43,3.38,0,1.94,1.59,3,3.84,3,3.22,0,5.22-2.15,5.22-4.49Z"/><path d="M915.55,516.24h-4.29V502.31c0-2.95-1.45-4.14-3.62-4.14s-4.21,1.8-4.21,4.94v13.13H899.1V494.63h4.28v3.22h.21a6.33,6.33,0,0,1,5.63-3.5,5.84,5.84,0,0,1,5.47,3.6h.22a6.85,6.85,0,0,1,6.19-3.6c3.63,0,6.56,2.36,6.56,8v13.93h-4.33v-14c0-3.1-2-4.07-3.74-4.07-2.55,0-4,1.73-4,4.56Z"/><path d="M933.08,494.63h4.24v3.07h.35a6.16,6.16,0,0,1,5.8-3.35c5.11,0,8.95,4.08,8.95,11.13s-3.77,11.17-8.91,11.17a6.22,6.22,0,0,1-5.84-3.36h-.25v11.06h-4.33V494.63Zm9.51,3.39c-3.71,0-5.46,3.07-5.46,7.41s1.77,7.55,5.46,7.55,5.61-3.21,5.61-7.55S946.35,498,942.59,498Z"/><path d="M969.45,513.56h-.2c-.72,1.38-2.57,3.15-6,3.15-4,0-7.2-2.38-7.2-6.58,0-4.54,3.81-6.05,8.53-6.56,2.48-.3,4.78-.28,4.78-1.56v-.18c0-2.8-1.59-3.91-3.86-3.91a4.86,4.86,0,0,0-4.84,2.95l-4.09-.94c1.37-3.95,5-5.57,8.91-5.57,3.47,0,8.23,1.31,8.23,7.53v14.36h-4.25Zm-.1-7.8c-.49.56-3.42.9-4.63,1.06-2.59.32-4.43,1.14-4.43,3.38,0,1.94,1.59,3,3.84,3,3.22,0,5.22-2.15,5.22-4.49v-2.95Z"/><path d="M997.38,494.68v21.37c0,5.7-4.38,8.36-9.78,8.36-4.39,0-7.3-1.87-8.61-3.81l2.67-2.67a7.45,7.45,0,0,0,5.85,2.79c3.12,0,5.61-1.53,5.58-5v-3.05h-.31a6.16,6.16,0,0,1-5.85,3.21c-4.94,0-8.89-3.6-8.89-10.55s3.84-11,8.93-11a6.23,6.23,0,0,1,5.84,3.35h.32v-3h4.25Zm-9.51,17.55c3.62,0,5.44-2.67,5.44-7s-1.77-7.25-5.44-7.25-5.63,3.12-5.63,7.25S984.23,512.23,987.87,512.23Z"/><path d="M1007.14,516.24h-4.33V494.63H1007v3.22h.22a6.79,6.79,0,0,1,6.22-3.5c3.92,0,7.06,2.48,7.06,8.23v13.66h-4.32V502.8c0-2.88-1.77-4.63-4.21-4.63s-4.81,2-4.81,5.7v12.37Z"/><path d="M1024.84,505.66c0-6.63,3.83-11.31,10-11.31,5,0,9.47,3.08,9.47,10.61v1.82h-15.18c.34,4,2.43,6.22,6,6.22a4.77,4.77,0,0,0,4.92-3.19l4,1.1c-.9,3.11-3.94,5.78-8.91,5.78C1028.74,516.68,1024.84,512.36,1024.84,505.66Zm4.35-2.16h10.86c0-3.14-2-5.47-5.26-5.47C1031.84,498,1029.77,500,1029.19,503.5Z"/><path d="M1060.9,500.64a4,4,0,0,0-4.16-2.88c-2.27,0-4.07,1.18-4.07,2.81,0,1.37,1.18,2.36,3.24,2.86l3.59.83c3.66.84,5.68,2.81,5.68,5.75,0,3.85-3.46,6.67-8.83,6.67s-7.95-2.62-8.91-6l4.07-.87a4.8,4.8,0,0,0,4.94,3.4c2.62,0,4.32-1.34,4.32-2.9s-1.11-2.14-2.88-2.56l-3.69-.89c-3.73-.91-5.84-3-5.84-6.06,0-3.91,3.53-6.49,8.5-6.49,4.5,0,7.05,2.1,8,5.61Z"/><path d="M824.09,214.79l9.55,23.49H834l9.52-23.49h8.17v33.72H845.3v-23H845l-8.86,22.56h-4.68l-8.87-22.66h-.28v23.1h-6.42V214.79Z" style="fill:#e30a18"/><path d="M871.44,245.66h-.3c-.87,1.61-2.91,3.36-6.47,3.36-4.5,0-8.23-2.75-8.23-7.64s3.77-7.34,10.17-7.94c2.24-.25,4.54-.33,4.54-1.66v-.38c0-2.26-1.43-3.52-3.66-3.52a4.48,4.48,0,0,0-4.54,3.06l-6-.87c1.17-4.66,5.33-7.18,10.72-7.18,5,0,9.93,2.22,9.93,8.64v17h-6.16v-2.84Zm-.28-8.93c-.48.53-2.78.86-3.94,1-3,.35-4.56,1.37-4.56,3.56,0,1.81,1.43,2.88,3.54,2.88,2.82,0,5-1.89,5-4.1Z" style="fill:#e30a18"/><path d="M897,229.24a5.47,5.47,0,0,0-2.35-.53,5.34,5.34,0,0,0-5.15,5.45V248.5h-6.39V223.21h6.26v3.59h.36a5.82,5.82,0,0,1,5.78-3.93,7.58,7.58,0,0,1,3.49.82Z" style="fill:#e30a18"/><path d="M910.81,238.07l-2.21,2.49v7.95h-6.39V214.79h6.39v17.76H909l7.85-9.33h7.49L915,234l9.94,14.5h-7Z" style="fill:#e30a18"/><path d="M925.58,236.19c0-7.72,4.41-13.3,12-13.3,6.42,0,11.31,4,11.31,12.15v2.68H931.76c.41,3.75,2.39,6,6,6a4.91,4.91,0,0,0,5.1-3.51l5.73,1.55c-.92,3.47-4.21,7.2-10.78,7.2C930.24,249,925.58,244.09,925.58,236.19Zm6.36-2.86h10.88a5,5,0,0,0-5.3-5.25C934.59,228.07,932.61,230,931.94,233.33Z" style="fill:#e30a18"/><path d="M965.6,228h-4.41v12.81c0,2.35,1.15,2.7,2.55,2.7a6.48,6.48,0,0,0,1.63-.2l1,4.92a13,13,0,0,1-4.41.64,6.88,6.88,0,0,1-7.16-7.1V228h-3.14v-4.74h3.14v-5.4h6.39v5.4h4.41Z" style="fill:#e30a18"/><path d="M970,217.72a3.55,3.55,0,0,1,3.67-3.39,3.5,3.5,0,0,1,3.61,3.39,3.46,3.46,0,0,1-3.61,3.39A3.52,3.52,0,0,1,970,217.72Zm6.85,30.79h-6.39V223.22h6.39Z" style="fill:#e30a18"/><path d="M988.93,248.51h-6.39V223.22h6v3.21h.26a8.15,8.15,0,0,1,7-3.54c4.43,0,8.4,2.7,8.4,9.73v15.89h-6.4V232.89c0-3-1.81-4.72-4.23-4.72-2.85,0-4.64,2.5-4.64,6.44Z" style="fill:#e30a18"/><path d="M1031.52,223.3v24.52c0,6.83-5,10.31-11.87,10.31-4.81,0-8.45-2-9.88-3.77l3.13-4.18a9.62,9.62,0,0,0,6.59,2.67c3.39,0,5.81-1.56,5.78-5.42v-2.55h-.36c-.72,1.33-2.62,3.16-6.26,3.16-5.42,0-10.08-3.95-10.08-12.35s4.59-12.79,10.09-12.79a6.56,6.56,0,0,1,6.21,3.46h.35v-3.05h6.3Zm-11.2,19.62c3.74,0,5.42-2.87,5.42-7.26s-1.61-7.59-5.42-7.59-5.66,3.13-5.66,7.59C1014.66,240.36,1016.75,242.92,1020.32,242.92Z" style="fill:#e30a18"/><path d="M752.3,292.74a14.25,14.25,0,0,1-8.53,2.57c-6.65,0-10.73-3.95-10.73-9.5,0-3.95,2.47-6.27,6.09-8.84-2-2.67-3.26-5-3.26-7.49,0-5.29,3.49-8.76,8.92-8.76,5.12,0,8.35,3.56,8.35,7.75,0,3.14-1.79,5.57-4.38,7.46l-2.16,1.58,5.89,7a12.8,12.8,0,0,0,1.35-5.81h5.37c0,4-.84,7.49-2.93,10.31l4.91,5.83h-7.1Zm-8.22-2.6a8.8,8.8,0,0,0,4.76-1.48l-6.68-7.89-.61.44a5.37,5.37,0,0,0-2.27,4.28A4.58,4.58,0,0,0,744.08,290.14Zm-.44-16.23,1.76-1.2c1.91-1.25,2.49-2.42,2.49-3.82a3.08,3.08,0,0,0-3.14-3,3.25,3.25,0,0,0-3.31,3.49C741.43,270.81,742.34,272.26,743.64,273.91Z" style="fill:#e30a18"/><path d="M800.64,272.43a7.39,7.39,0,0,0-7.56-5.88c-4.86,0-8.38,3.62-8.38,11.49s3.52,11.39,8.38,11.39a7.28,7.28,0,0,0,7.47-5.75l6.37.71a13.65,13.65,0,0,1-13.85,10.92c-8.58,0-14.88-6.42-14.88-17.27s6.31-17.37,14.88-17.37A13.7,13.7,0,0,1,807,271.72Z" style="fill:#e30a18"/><path d="M810.78,282.26c0-7.74,4.53-13,11.77-13s11.77,5.29,11.77,13-4.51,13.07-11.77,13.07S810.78,289.94,810.78,282.26Zm17.42,0c0-4.5-1.65-7.84-5.65-7.84s-5.65,3.34-5.65,7.84,1.66,7.84,5.65,7.84S828.2,286.73,828.2,282.26Z" style="fill:#e30a18"/><path d="M859.13,294.85h-6.24v-16c0-3.06-1.6-4.31-3.8-4.31s-4,1.51-4,4.69v15.66h-6.39V269.56H845v3.21h.21a7.66,7.66,0,0,1,6.59-3.54,6.55,6.55,0,0,1,6.31,3.82h.26a8.2,8.2,0,0,1,7.18-3.82c4.25,0,7.67,2.63,7.67,9.58v16h-6.39V278.76c0-3.23-1.84-4.26-3.72-4.26-2.49,0-4,1.6-4,4.61v15.74Z" style="fill:#e30a18"/><path d="M899.09,294.85h-6.24v-16c0-3.06-1.6-4.31-3.8-4.31s-4,1.51-4,4.69v15.66h-6.39V269.56H885v3.21h.21a7.66,7.66,0,0,1,6.59-3.54,6.55,6.55,0,0,1,6.31,3.82h.26a8.2,8.2,0,0,1,7.18-3.82c4.25,0,7.67,2.63,7.67,9.58v16h-6.39V278.76c0-3.23-1.84-4.26-3.72-4.26-2.49,0-4,1.6-4,4.61v15.74Z" style="fill:#e30a18"/><path d="M933.91,269.56h6.4v25.29h-6v-3h-.26a8.52,8.52,0,0,1-7,3.31c-4.1,0-8.4-2.63-8.4-9.73V269.56H925v15.71c0,3,1.81,4.64,4.23,4.64,2.86,0,4.64-2.39,4.64-6.32Z" style="fill:#e30a18"/><path d="M952.19,294.85H945.8V269.56h6v3.21h.26a8.15,8.15,0,0,1,7-3.54c4.43,0,8.4,2.7,8.4,9.73v15.89h-6.4V279.23c0-3-1.81-4.72-4.23-4.72-2.85,0-4.64,2.5-4.64,6.44v13.9Z" style="fill:#e30a18"/><path d="M972.68,264.06a3.55,3.55,0,0,1,3.67-3.39,3.5,3.5,0,0,1,3.61,3.39,3.46,3.46,0,0,1-3.61,3.39A3.51,3.51,0,0,1,972.68,264.06Zm6.85,30.79h-6.39V269.56h6.39Z" style="fill:#e30a18"/><path d="M1000.73,278.52c-.59-2.39-2.06-4.1-4.86-4.1-3.77,0-5.65,3.09-5.65,7.79s1.84,7.89,5.65,7.89a4.69,4.69,0,0,0,4.77-3.74l6,.86c-1,4.82-5,8.12-10.75,8.12-7.31,0-11.77-5.43-11.77-13.12s4.51-13,11.76-13c5.75,0,9.89,3.29,10.82,8.4Z" style="fill:#e30a18"/><path d="M1025.15,292h-.3c-.87,1.61-2.91,3.36-6.47,3.36-4.5,0-8.23-2.75-8.23-7.64s3.77-7.34,10.17-7.94c2.24-.25,4.54-.33,4.54-1.66v-.38c0-2.26-1.43-3.52-3.66-3.52a4.48,4.48,0,0,0-4.54,3.06l-6-.87c1.17-4.66,5.33-7.18,10.72-7.18,5,0,9.93,2.22,9.93,8.64v17h-6.16V292Zm-.28-8.92c-.48.53-2.78.86-3.94,1-3,.35-4.56,1.37-4.56,3.56,0,1.81,1.43,2.88,3.54,2.88,2.82,0,5-1.89,5-4.1Z" style="fill:#e30a18"/><path d="M1048.49,274.3h-4.41v12.81c0,2.35,1.15,2.7,2.55,2.7a6.48,6.48,0,0,0,1.63-.2l1,4.92a13,13,0,0,1-4.41.64,6.88,6.88,0,0,1-7.16-7.1V274.29h-3.14v-4.74h3.14v-5.4h6.39v5.4h4.41Z" style="fill:#e30a18"/><path d="M1052.91,264.06a3.55,3.55,0,0,1,3.67-3.39,3.5,3.5,0,0,1,3.61,3.39,3.46,3.46,0,0,1-3.61,3.39A3.52,3.52,0,0,1,1052.91,264.06Zm6.85,30.79h-6.39V269.56h6.39Z" style="fill:#e30a18"/><path d="M1064.33,282.26c0-7.74,4.53-13,11.77-13s11.77,5.29,11.77,13-4.51,13.07-11.77,13.07S1064.33,289.94,1064.33,282.26Zm17.42,0c0-4.5-1.65-7.84-5.65-7.84s-5.65,3.34-5.65,7.84,1.66,7.84,5.65,7.84S1081.75,286.73,1081.75,282.26Z" style="fill:#e30a18"/><path d="M1098.66,294.85h-6.39V269.56h6v3.21h.26a8.15,8.15,0,0,1,7-3.54c4.43,0,8.4,2.7,8.4,9.73v15.89h-6.4V279.23c0-3-1.81-4.72-4.23-4.72-2.85,0-4.64,2.5-4.64,6.44Z" style="fill:#e30a18"/><path d="M48.41,247.51h-6.5V213.79h6.5Z" style="fill:#e30a18"/><path d="M60.46,247.51H54.07V222.22h6v3.21h.26a8.15,8.15,0,0,1,7-3.54c4.43,0,8.4,2.7,8.4,9.73v15.89h-6.4V231.89c0-3-1.81-4.72-4.23-4.72-2.85,0-4.64,2.5-4.64,6.44Z" style="fill:#e30a18"/><path d="M83.12,227H79.71v-4.74h3.41v-1c0-5.3,3.44-7.87,7.92-7.87a15.4,15.4,0,0,1,4.68.71l-1.22,4.87a7.29,7.29,0,0,0-2.17-.35c-2,0-2.82,1-2.82,2.93v.72h5V227h-5V247.5H83.12V227Z" style="fill:#e30a18"/><path d="M96.93,234.91c0-7.74,4.53-13,11.77-13s11.77,5.29,11.77,13S116,248,108.7,248,96.93,242.6,96.93,234.91Zm17.42,0c0-4.5-1.65-7.84-5.65-7.84s-5.65,3.34-5.65,7.84,1.66,7.84,5.65,7.84S114.35,239.39,114.35,234.91Z" style="fill:#e30a18"/><path d="M138.77,228.24a5.47,5.47,0,0,0-2.35-.53,5.34,5.34,0,0,0-5.15,5.45V247.5h-6.39V222.21h6.26v3.59h.36a5.82,5.82,0,0,1,5.78-3.93,7.58,7.58,0,0,1,3.49.82Z" style="fill:#e30a18"/><path d="M164.67,247.51h-6.24v-16c0-3.06-1.6-4.31-3.8-4.31s-4,1.51-4,4.69v15.66h-6.39V222.22h6.26v3.21h.21a7.66,7.66,0,0,1,6.59-3.54,6.55,6.55,0,0,1,6.31,3.82h.26a8.2,8.2,0,0,1,7.18-3.82c4.25,0,7.67,2.63,7.67,9.58v16h-6.39V231.42c0-3.23-1.84-4.26-3.72-4.26-2.49,0-4,1.6-4,4.61v15.74Z" style="fill:#e30a18"/><path d="M198.31,244.66H198c-.87,1.61-2.91,3.36-6.47,3.36-4.5,0-8.23-2.75-8.23-7.64s3.77-7.34,10.17-7.94c2.24-.25,4.54-.33,4.54-1.66v-.38c0-2.26-1.43-3.52-3.66-3.52a4.48,4.48,0,0,0-4.54,3.06l-6-.87c1.17-4.66,5.33-7.18,10.72-7.18,5,0,9.93,2.22,9.93,8.64v17H198.3v-2.84Zm-.28-8.93c-.48.53-2.78.86-3.94,1-3,.35-4.56,1.37-4.56,3.56,0,1.81,1.43,2.88,3.54,2.88,2.82,0,5-1.89,5-4.1Z" style="fill:#e30a18"/><path d="M221.65,227h-4.41v12.81c0,2.35,1.15,2.7,2.55,2.7a6.48,6.48,0,0,0,1.63-.2l1,4.92a13,13,0,0,1-4.41.64,6.88,6.88,0,0,1-7.16-7.1V227h-3.14v-4.74h3.14v-5.4h6.39v5.4h4.41Z" style="fill:#e30a18"/><path d="M226.07,216.72a3.55,3.55,0,0,1,3.67-3.39,3.5,3.5,0,0,1,3.61,3.39,3.46,3.46,0,0,1-3.61,3.39A3.52,3.52,0,0,1,226.07,216.72Zm6.85,30.79h-6.39V222.22h6.39Z" style="fill:#e30a18"/><path d="M260.44,257h-6.39V244.51h-.26a6.58,6.58,0,0,1-6.22,3.44c-5.66,0-10.08-4.63-10.08-13.07s4.59-13,10.09-13a6.56,6.56,0,0,1,6.21,3.46h.35v-3.13h6.31V257Zm-11.19-14.24c3.92,0,5.42-3.46,5.42-7.89s-1.51-7.79-5.42-7.79-5.66,3.08-5.66,7.79S245.49,242.75,249.25,242.75Z" style="fill:#e30a18"/><path d="M281.19,222.22h6.4v25.29h-6v-3h-.26a8.52,8.52,0,0,1-7,3.31c-4.1,0-8.4-2.63-8.4-9.73V222.22h6.39v15.71c0,3,1.81,4.64,4.23,4.64,2.86,0,4.64-2.39,4.64-6.32v-14Z" style="fill:#e30a18"/><path d="M292.16,235.19c0-7.72,4.41-13.3,12-13.3,6.42,0,11.31,4,11.31,12.15v2.68H298.34c.41,3.75,2.39,6,6,6a4.91,4.91,0,0,0,5.1-3.51l5.73,1.55c-.92,3.47-4.21,7.2-10.78,7.2C296.82,248,292.16,243.09,292.16,235.19Zm6.36-2.86H309.4a5,5,0,0,0-5.3-5.25C301.17,227.07,299.19,229,298.52,232.33Z" style="fill:#e30a18"/><path d="M65.56,291.74A14.25,14.25,0,0,1,57,294.31c-6.65,0-10.73-3.95-10.73-9.5,0-3.95,2.47-6.27,6.09-8.84-2-2.67-3.26-5-3.26-7.49,0-5.29,3.49-8.76,8.92-8.76,5.12,0,8.35,3.56,8.35,7.75,0,3.14-1.79,5.57-4.38,7.46l-2.16,1.58,5.89,7a12.8,12.8,0,0,0,1.35-5.81h5.38c0,4-.84,7.49-2.93,10.31l4.91,5.83h-7.1Zm-8.21-2.6a8.8,8.8,0,0,0,4.76-1.48l-6.68-7.89-.61.44a5.37,5.37,0,0,0-2.27,4.28A4.58,4.58,0,0,0,57.35,289.14Zm-.45-16.23,1.76-1.2c1.91-1.25,2.49-2.42,2.49-3.82a3.08,3.08,0,0,0-3.14-3,3.25,3.25,0,0,0-3.31,3.49C54.7,269.81,55.6,271.26,56.9,272.91Z" style="fill:#e30a18"/><path d="M98.66,293.85h-6.5V260.13h6.5Z" style="fill:#e30a18"/><path d="M110.7,293.85h-6.39V268.56h6v3.21h.26a8.15,8.15,0,0,1,7-3.54c4.43,0,8.4,2.7,8.4,9.73v15.89h-6.4V278.23c0-3-1.81-4.72-4.23-4.72-2.85,0-4.64,2.5-4.64,6.44Z" style="fill:#e30a18"/><path d="M143.14,273.3h-4.41v12.81c0,2.35,1.15,2.7,2.55,2.7a6.48,6.48,0,0,0,1.63-.2l1,4.92a13,13,0,0,1-4.41.64,6.88,6.88,0,0,1-7.16-7.1V273.29H129.2v-4.74h3.14v-5.4h6.39v5.4h4.41Z" style="fill:#e30a18"/><path d="M146.46,281.53c0-7.72,4.41-13.3,12-13.3,6.42,0,11.31,4,11.31,12.15v2.68H152.64c.41,3.75,2.39,6,6,6a4.91,4.91,0,0,0,5.1-3.51l5.73,1.55c-.92,3.47-4.21,7.2-10.78,7.2C151.12,294.33,146.46,289.44,146.46,281.53Zm6.36-2.86H163.7a5,5,0,0,0-5.3-5.25C155.47,273.42,153.49,275.34,152.82,278.67Z" style="fill:#e30a18"/><path d="M188.26,274.59a5.47,5.47,0,0,0-2.35-.53,5.34,5.34,0,0,0-5.15,5.45v14.34h-6.39V268.56h6.26v3.59H181a5.82,5.82,0,0,1,5.78-3.93,7.58,7.58,0,0,1,3.49.82Z" style="fill:#e30a18"/><path d="M196.51,273.3H193.1v-4.74h3.41v-1c0-5.3,3.44-7.87,7.92-7.87a15.4,15.4,0,0,1,4.68.71l-1.22,4.87a7.29,7.29,0,0,0-2.17-.35c-2,0-2.82,1-2.82,2.93v.72h5v4.74h-5v20.55h-6.39V273.3Z" style="fill:#e30a18"/><path d="M225.6,291h-.3c-.87,1.61-2.91,3.36-6.47,3.36-4.5,0-8.23-2.75-8.23-7.64s3.77-7.34,10.17-7.94c2.24-.25,4.54-.33,4.54-1.66v-.38c0-2.26-1.43-3.52-3.66-3.52a4.48,4.48,0,0,0-4.54,3.06l-6-.87c1.17-4.66,5.33-7.18,10.72-7.18,5,0,9.93,2.22,9.93,8.64v17h-6.16V291Zm-.28-8.92c-.48.53-2.78.86-3.94,1-3,.35-4.56,1.37-4.56,3.56,0,1.81,1.43,2.88,3.54,2.88,2.82,0,5-1.89,5-4.1Z" style="fill:#e30a18"/><path d="M252.75,277.52c-.59-2.39-2.06-4.1-4.86-4.1-3.77,0-5.65,3.09-5.65,7.79s1.84,7.89,5.65,7.89a4.69,4.69,0,0,0,4.77-3.74l6,.86c-1,4.82-5,8.12-10.75,8.12-7.31,0-11.77-5.43-11.77-13.12s4.51-13,11.76-13c5.75,0,9.89,3.29,10.82,8.4Z" style="fill:#e30a18"/><path d="M262.26,281.53c0-7.72,4.41-13.3,12-13.3,6.42,0,11.31,4,11.31,12.15v2.68H268.44c.41,3.75,2.39,6,6,6a4.91,4.91,0,0,0,5.1-3.51l5.73,1.55c-.92,3.47-4.21,7.2-10.78,7.2C266.92,294.33,262.26,289.44,262.26,281.53Zm6.35-2.86h10.88a5,5,0,0,0-5.3-5.25C271.27,273.42,269.29,275.34,268.61,278.67Z" style="fill:#e30a18"/><path d="M304.48,276c-.33-1.66-1.89-3-4.35-3-2.16,0-4.07,1.05-4.07,2.7,0,1.43,1.38,2.24,3.26,2.65l4.69,1c3.89.86,6.78,2.77,6.78,6.83,0,5.24-4.84,8.13-11.13,8.13s-9.86-2.87-10.85-7.64l6.11-.69a4.84,4.84,0,0,0,5,3.59c2.47,0,4.3-1.2,4.3-2.67,0-1.75-1.46-2.24-3.08-2.6l-4.45-1c-4.07-1-7-3.16-7-7.2,0-4.91,4.3-7.89,10.67-7.89,5.93,0,9.07,2.62,9.9,7.19Z" style="fill:#e30a18"/><path d="M518,708.44c0,7.94-6.16,13.12-13.9,13.12-8.58,0-14.93-6.34-14.93-17.27s6.31-17.37,14.75-17.37c6.54,0,11.84,3.82,13.91,10.69l-6.57.71a7.38,7.38,0,0,0-7.34-5.52c-4.64,0-8.25,3.54-8.25,11.49s3.66,11.39,8.43,11.39c4.3,0,7.57-2.82,7.57-7.24h-7.06v-5H518v5Z" style="fill:#e30a18"/><path d="M522.18,708.79c0-7.72,4.41-13.3,12-13.3,6.42,0,11.31,4,11.31,12.15v2.68H528.36c.41,3.75,2.39,6,6,6a4.91,4.91,0,0,0,5.1-3.51l5.73,1.55c-.92,3.47-4.21,7.2-10.78,7.2C526.84,721.58,522.18,716.69,522.18,708.79Zm6.36-2.86h10.88a5,5,0,0,0-5.3-5.25C531.19,700.67,529.21,702.6,528.54,705.93Z" style="fill:#e30a18"/><path d="M564.4,703.27c-.33-1.66-1.89-3-4.35-3-2.16,0-4.07,1-4.07,2.7,0,1.43,1.38,2.24,3.26,2.65l4.69,1c3.89.86,6.78,2.77,6.78,6.83,0,5.24-4.84,8.13-11.13,8.13s-9.86-2.87-10.85-7.64l6.11-.69a4.84,4.84,0,0,0,5,3.59c2.47,0,4.3-1.2,4.3-2.67,0-1.75-1.46-2.24-3.08-2.6l-4.45-1c-4.07-1-7-3.16-7-7.2,0-4.91,4.3-7.89,10.67-7.89,5.93,0,9.07,2.62,9.9,7.19Z" style="fill:#e30a18"/><path d="M587.28,700.56h-4.41v12.81c0,2.35,1.15,2.7,2.55,2.7a6.48,6.48,0,0,0,1.63-.2l1,4.92a13,13,0,0,1-4.41.64,6.88,6.88,0,0,1-7.16-7.1V700.55h-3.14v-4.74h3.14v-5.4h6.39v5.4h4.41Z" style="fill:#e30a18"/><path d="M591.7,690.32a3.55,3.55,0,0,1,3.67-3.39,3.5,3.5,0,0,1,3.61,3.39,3.46,3.46,0,0,1-3.61,3.39A3.52,3.52,0,0,1,591.7,690.32Zm6.85,30.79h-6.39V695.82h6.39Z" style="fill:#e30a18"/><path d="M603.12,708.51c0-7.74,4.53-13,11.77-13s11.77,5.29,11.77,13-4.51,13.07-11.77,13.07S603.12,716.2,603.12,708.51Zm17.42,0c0-4.5-1.65-7.84-5.65-7.84s-5.65,3.34-5.65,7.84,1.66,7.84,5.65,7.84S620.54,713,620.54,708.51Z" style="fill:#e30a18"/><path d="M637.46,721.11h-6.39V695.82h6V699h.26a8.15,8.15,0,0,1,7-3.54c4.43,0,8.4,2.7,8.4,9.73v15.89h-6.4V705.49c0-3-1.81-4.72-4.23-4.72-2.85,0-4.64,2.5-4.64,6.44Z" style="fill:#e30a18"/><path d="M491.88,767.45v-3h-.35a6.58,6.58,0,0,1-6.22,3.44c-5.66,0-10.08-4.63-10.08-13.07s4.59-13,10.09-13a6.56,6.56,0,0,1,6.21,3.46h.26V733.73h6.39v33.72ZM487,762.69c3.92,0,5.42-3.46,5.42-7.89S490.9,747,487,747s-5.66,3.08-5.66,7.79S483.24,762.69,487,762.69Z" style="fill:#e30a18"/><path d="M502.75,755.13c0-7.72,4.41-13.3,12-13.3,6.42,0,11.31,4,11.31,12.15v2.68H508.93c.41,3.75,2.39,6,6,6a4.91,4.91,0,0,0,5.1-3.51l5.73,1.55c-.92,3.47-4.21,7.2-10.78,7.2C507.41,767.93,502.75,763,502.75,755.13Zm6.36-2.86H520a5,5,0,0,0-5.3-5.25C511.76,747,509.78,748.94,509.11,752.27Z" style="fill:#e30a18"/><path d="M543.42,742.16h6.31v3.13h.38a6.54,6.54,0,0,1,6.19-3.46c5.48,0,10.08,4.45,10.08,13s-4.41,13.07-10.06,13.07a6.55,6.55,0,0,1-6.21-3.44h-.3v12.48h-6.39Zm11.2,4.86c-3.89,0-5.4,3.33-5.4,7.79s1.48,7.89,5.4,7.89c3.75,0,5.68-3.16,5.68-7.89S558.39,747,554.62,747Z" style="fill:#e30a18"/><path d="M584.65,748.19a5.47,5.47,0,0,0-2.35-.53,5.34,5.34,0,0,0-5.15,5.45v14.34h-6.39V742.16H577v3.59h.36a5.82,5.82,0,0,1,5.78-3.93,7.58,7.58,0,0,1,3.49.82Z" style="fill:#e30a18"/><path d="M587.89,754.86c0-7.74,4.53-13,11.77-13s11.77,5.29,11.77,13-4.51,13.07-11.77,13.07S587.89,762.54,587.89,754.86Zm17.42,0c0-4.5-1.65-7.84-5.65-7.84s-5.65,3.34-5.65,7.84,1.66,7.84,5.65,7.84S605.31,759.33,605.31,754.86Z" style="fill:#e30a18"/><path d="M622.54,742.16v26.41c0,5.66-3.67,8.43-9.07,8.43h-2.14v-5.19h1.3c2.78,0,3.52-1.38,3.52-3.33V742.15h6.39Zm-6.85-5.5a3.55,3.55,0,0,1,3.67-3.39,3.5,3.5,0,0,1,3.61,3.39,3.46,3.46,0,0,1-3.61,3.39A3.51,3.51,0,0,1,615.69,736.66Z" style="fill:#e30a18"/><path d="M627.06,755.13c0-7.72,4.41-13.3,12-13.3,6.42,0,11.31,4,11.31,12.15v2.68H633.24c.41,3.75,2.39,6,6,6a4.91,4.91,0,0,0,5.1-3.51l5.73,1.55c-.92,3.47-4.21,7.2-10.78,7.2C631.72,767.93,627.06,763,627.06,755.13Zm6.36-2.86H644.3A5,5,0,0,0,639,747C636.07,747,634.09,748.94,633.42,752.27Z" style="fill:#e30a18"/><path d="M667.07,746.9h-4.41v12.81c0,2.35,1.15,2.7,2.55,2.7a6.48,6.48,0,0,0,1.63-.2l1,4.92a13,13,0,0,1-4.41.64,6.88,6.88,0,0,1-7.16-7.1V746.89h-3.14v-4.74h3.14v-5.4h6.39v5.4h4.41v4.75Z" style="fill:#e30a18"/><path d="M719.27,660.87h-4.46V632.06h4.46Z"/><path d="M741.45,660.87h-4.29V646.94c0-3-1.45-4.14-3.62-4.14s-4.21,1.8-4.21,4.94v13.13H725V639.26h4.28v3.22h.21a6.33,6.33,0,0,1,5.63-3.5,5.84,5.84,0,0,1,5.47,3.6h.22A6.85,6.85,0,0,1,747,639c3.63,0,6.56,2.36,6.56,8v13.93h-4.33v-14c0-3.1-2-4.07-3.74-4.07-2.55,0-4,1.73-4,4.56Z"/><path d="M771.49,658.19h-.2c-.72,1.38-2.57,3.15-6,3.15-4,0-7.2-2.38-7.2-6.58,0-4.54,3.81-6,8.53-6.56,2.48-.3,4.78-.28,4.78-1.56v-.18c0-2.8-1.59-3.91-3.86-3.91a4.86,4.86,0,0,0-4.84,3l-4.09-.94c1.37-3.95,5-5.57,8.91-5.57,3.47,0,8.23,1.31,8.23,7.53v14.36h-4.25v-2.69Zm-.09-7.8c-.49.56-3.42.9-4.63,1.06-2.59.32-4.43,1.14-4.43,3.38,0,1.94,1.59,3,3.84,3,3.22,0,5.22-2.15,5.22-4.49Z"/><path d="M799.43,639.31v21.37c0,5.7-4.38,8.36-9.78,8.36-4.39,0-7.3-1.87-8.61-3.81l2.67-2.67a7.45,7.45,0,0,0,5.85,2.79c3.12,0,5.61-1.53,5.58-5v-3.05h-.31a6.16,6.16,0,0,1-5.85,3.21c-4.94,0-8.89-3.6-8.89-10.55s3.84-11,8.93-11a6.23,6.23,0,0,1,5.84,3.35h.32v-3h4.25Zm-9.51,17.55c3.62,0,5.44-2.67,5.44-7s-1.77-7.25-5.44-7.25-5.63,3.12-5.63,7.25S786.27,656.86,789.92,656.86Z"/><path d="M804.36,634.23a2.72,2.72,0,0,1,5.43,0,2.72,2.72,0,0,1-5.43,0Zm4.9,26.64h-4.33V639.26h4.33Z"/><path d="M819.09,660.87h-4.33V639.26h4.17v3.22h.22a6.79,6.79,0,0,1,6.22-3.5c3.92,0,7.06,2.48,7.06,8.23v13.66h-4.32V647.44c0-2.88-1.77-4.63-4.21-4.63s-4.81,2-4.81,5.7v12.36Z"/><path d="M836.79,650.3c0-6.63,3.83-11.31,10-11.31,5,0,9.47,3.08,9.47,10.61v1.82H841c.34,4,2.43,6.22,6,6.22a4.77,4.77,0,0,0,4.92-3.19l4,1.1c-.9,3.11-3.94,5.78-8.91,5.78C840.69,661.31,836.79,657,836.79,650.3Zm4.35-2.17H852c0-3.14-2-5.47-5.26-5.47C843.79,642.66,841.72,644.65,841.14,648.13Z"/><path d="M872.09,643.57a4.21,4.21,0,0,0-1.93-.45c-3.09,0-5,2.86-5,5.53v12.23h-4.33V639.27h4.28v3.4h.25a5.56,5.56,0,0,1,5.25-3.73,6.31,6.31,0,0,1,2.93.76Z"/><path d="M886.7,650.3c0-6.63,3.83-11.31,10-11.31,5,0,9.47,3.08,9.47,10.61v1.82H891c.34,4,2.43,6.22,6,6.22a4.77,4.77,0,0,0,4.92-3.19l4,1.1c-.9,3.11-3.94,5.78-8.91,5.78C890.59,661.31,886.7,657,886.7,650.3Zm4.34-2.17H901.9c0-3.14-2-5.47-5.26-5.47C893.69,642.66,891.62,644.65,891,648.13Z"/><path d="M920.36,642.81h-4.22v11.68c0,2.43,1.21,2.81,2.55,2.81a6.27,6.27,0,0,0,1.42-.17l.77,3.56a9,9,0,0,1-3.09.46,5.69,5.69,0,0,1-6-5.81V642.8h-3v-3.54h3v-4.61h4.33v4.61h4.22Z"/><path d="M935,650.3c0-6.63,3.83-11.31,10-11.31,5,0,9.47,3.08,9.47,10.61v1.82H939.26c.34,4,2.43,6.22,6,6.22a4.77,4.77,0,0,0,4.92-3.19l4,1.1c-.9,3.11-3.94,5.78-8.91,5.78C938.91,661.31,935,657,935,650.3Zm4.35-2.17h10.86c0-3.14-2-5.47-5.26-5.47C942,642.66,939.93,644.65,939.36,648.13ZM946.21,631h4.46L946,636.86h-3.32Z"/><path d="M963.32,660.87H959V632.06h4.33Z"/><path d="M981.26,658.19h-.2c-.72,1.38-2.57,3.15-6,3.15-4,0-7.2-2.38-7.2-6.58,0-4.54,3.81-6,8.53-6.56,2.48-.3,4.78-.28,4.78-1.56v-.18c0-2.8-1.59-3.91-3.86-3.91a4.86,4.86,0,0,0-4.84,3l-4.09-.94c1.37-3.95,5-5.57,8.91-5.57,3.47,0,8.23,1.31,8.23,7.53v14.36h-4.25v-2.69Zm-.1-7.8c-.49.56-3.42.9-4.63,1.06-2.59.32-4.43,1.14-4.43,3.38,0,1.94,1.59,3,3.84,3,3.22,0,5.22-2.15,5.22-4.49v-3Z"/><path d="M995.25,632.06v10.27h.25a6.16,6.16,0,0,1,5.8-3.35c5.11,0,9,4.08,9,11.13s-3.77,11.17-8.91,11.17a6.22,6.22,0,0,1-5.84-3.36h-.35v3h-4.24V632.06Zm5.18,10.6c-3.71,0-5.46,3.07-5.46,7.41s1.77,7.55,5.46,7.55,5.61-3.21,5.61-7.55S1004.19,642.66,1000.43,642.66Z"/><path d="M1013.87,650.14c0-6.67,3.9-11.16,9.92-11.16s9.92,4.49,9.92,11.16-3.91,11.17-9.92,11.17S1013.87,656.79,1013.87,650.14Zm15.62,0c0-4.09-1.74-7.48-5.7-7.48s-5.7,3.39-5.7,7.48,1.73,7.48,5.7,7.48S1029.49,654.25,1029.49,650.14Z"/><path d="M1049.46,643.57a4.21,4.21,0,0,0-1.93-.45c-3.09,0-5,2.86-5,5.53v12.23h-4.33V639.27h4.28v3.4h.25a5.56,5.56,0,0,1,5.25-3.73,6.31,6.31,0,0,1,2.93.76Z"/><path d="M1052.14,650.3c0-6.63,3.83-11.31,10-11.31,5,0,9.47,3.08,9.47,10.61v1.82h-15.18c.34,4,2.43,6.22,6,6.22a4.77,4.77,0,0,0,4.92-3.19l4,1.1c-.9,3.11-3.94,5.78-8.91,5.78C1056,661.31,1052.14,657,1052.14,650.3Zm4.35-2.17h10.86c0-3.14-2-5.47-5.26-5.47C1059.14,642.66,1057.07,644.65,1056.49,648.13Z"/><path d="M1087.44,643.57a4.21,4.21,0,0,0-1.93-.45c-3.09,0-5,2.86-5,5.53v12.23h-4.33V639.27h4.28v3.4h.25a5.56,5.56,0,0,1,5.25-3.73,6.31,6.31,0,0,1,2.93.76Z"/><path d="M727.85,678.87h4.32v21.61H728v-2.8h-.22a7.44,7.44,0,0,1-6.22,3.08c-3.31,0-7.06-2.36-7.06-8.23V678.87h4.33v13.59c0,2.88,1.77,4.47,4.21,4.47s4.81-1.79,4.81-5.52V678.87Z"/><path d="M741.93,700.48H737.6V678.87h4.17v3.22H742a6.79,6.79,0,0,1,6.22-3.5c3.92,0,7.06,2.48,7.06,8.23v13.66H751V687c0-2.88-1.77-4.63-4.21-4.63s-4.81,2-4.81,5.7v12.37Z"/><path d="M776.05,671.67v10.27h.25a6.16,6.16,0,0,1,5.8-3.35c5.11,0,8.95,4.08,8.95,11.13s-3.77,11.17-8.91,11.17a6.22,6.22,0,0,1-5.84-3.36H776v3h-4.24V671.67Zm5.18,10.59c-3.71,0-5.46,3.07-5.46,7.41s1.77,7.55,5.46,7.55,5.61-3.21,5.61-7.55S785,682.26,781.23,682.26Z"/><path d="M808.77,678.87h4.32v21.61h-4.17v-2.8h-.22a7.44,7.44,0,0,1-6.22,3.08c-3.31,0-7.06-2.36-7.06-8.23V678.87h4.33v13.59c0,2.88,1.77,4.47,4.21,4.47s4.81-1.79,4.81-5.52V678.87Z"/><path d="M830.58,684.88a4,4,0,0,0-4.16-2.88c-2.27,0-4.07,1.18-4.07,2.81,0,1.37,1.18,2.36,3.24,2.86l3.59.83c3.66.84,5.68,2.81,5.68,5.75,0,3.85-3.46,6.67-8.83,6.67s-7.95-2.62-8.91-6l4.07-.87a4.8,4.8,0,0,0,4.94,3.4c2.62,0,4.32-1.34,4.32-2.9s-1.11-2.14-2.88-2.56l-3.69-.89c-3.73-.91-5.84-3-5.84-6.06,0-3.91,3.53-6.49,8.5-6.49,4.5,0,7.05,2.1,8,5.61Z"/><path d="M838.34,673.84a2.72,2.72,0,0,1,5.43,0,2.72,2.72,0,0,1-5.43,0Zm4.9,26.64h-4.33V678.87h4.33Z"/><path d="M853.07,700.48h-4.33V678.87h4.17v3.22h.22a6.79,6.79,0,0,1,6.22-3.5c3.92,0,7.06,2.48,7.06,8.23v13.66h-4.32V687c0-2.88-1.77-4.63-4.21-4.63s-4.81,2-4.81,5.7v12.37Z"/><path d="M870.77,689.9c0-6.63,3.83-11.31,10-11.31,5,0,9.47,3.08,9.47,10.61V691H875c.34,4,2.43,6.22,6,6.22a4.77,4.77,0,0,0,4.92-3.19l4,1.1c-.9,3.11-3.94,5.78-8.91,5.78C874.67,700.92,870.77,696.6,870.77,689.9Zm4.35-2.16H886c0-3.14-2-5.47-5.26-5.47C877.77,682.26,875.7,684.26,875.12,687.74Z"/><path d="M906.83,684.88a4,4,0,0,0-4.16-2.88c-2.27,0-4.07,1.18-4.07,2.81,0,1.37,1.18,2.36,3.24,2.86l3.59.83c3.66.84,5.68,2.81,5.68,5.75,0,3.85-3.46,6.67-8.83,6.67s-7.95-2.62-8.91-6l4.07-.87a4.8,4.8,0,0,0,4.94,3.4c2.62,0,4.32-1.34,4.32-2.9s-1.11-2.14-2.88-2.56l-3.69-.89c-3.73-.91-5.84-3-5.84-6.06,0-3.91,3.53-6.49,8.5-6.49,4.5,0,7.05,2.1,8,5.61Z"/><path d="M927.38,684.88a4,4,0,0,0-4.16-2.88c-2.27,0-4.07,1.18-4.07,2.81,0,1.37,1.18,2.36,3.24,2.86l3.59.83c3.66.84,5.68,2.81,5.68,5.75,0,3.85-3.46,6.67-8.83,6.67s-8-2.62-8.91-6l4.07-.87a4.8,4.8,0,0,0,4.94,3.4c2.62,0,4.32-1.34,4.32-2.9s-1.11-2.14-2.88-2.56l-3.69-.89c-3.73-.91-5.84-3-5.84-6.06,0-3.91,3.53-6.49,8.5-6.49,4.5,0,7,2.1,8,5.61Z"/><path d="M963.72,700.48h-4.29V686.55c0-2.95-1.45-4.14-3.62-4.14s-4.21,1.8-4.21,4.94v13.13h-4.33V678.87h4.28v3.22h.21a6.33,6.33,0,0,1,5.63-3.5,5.84,5.84,0,0,1,5.47,3.6h.22a6.85,6.85,0,0,1,6.19-3.6c3.63,0,6.56,2.36,6.56,8v13.93H971.5v-14c0-3.1-2-4.07-3.74-4.07-2.55,0-4,1.73-4,4.56Z"/><path d="M980.2,689.75c0-6.67,3.9-11.16,9.92-11.16s9.92,4.49,9.92,11.16-3.91,11.17-9.92,11.17S980.2,696.4,980.2,689.75Zm15.62,0c0-4.09-1.74-7.48-5.7-7.48s-5.7,3.39-5.7,7.48,1.73,7.48,5.7,7.48S995.82,693.86,995.82,689.75Z"/><path d="M1018.74,700.48v-3h-.32a6.27,6.27,0,0,1-5.88,3.36c-5.12,0-8.89-4.15-8.89-11.17s3.84-11.13,8.93-11.13a6.23,6.23,0,0,1,5.84,3.35h.22V671.67H1023v28.81Zm-5.27-3.25c3.69,0,5.44-3.18,5.44-7.55s-1.74-7.41-5.44-7.41-5.63,3.11-5.63,7.41S1009.75,697.23,1013.47,697.23Z"/><path d="M1027.5,689.9c0-6.63,3.83-11.31,10-11.31,5,0,9.47,3.08,9.47,10.61V691h-15.18c.34,4,2.43,6.22,6,6.22a4.77,4.77,0,0,0,4.92-3.19l4,1.1c-.9,3.11-3.94,5.78-8.91,5.78C1031.4,700.92,1027.5,696.6,1027.5,689.9Zm4.35-2.16h10.86c0-3.14-2-5.47-5.26-5.47C1034.49,682.26,1032.43,684.26,1031.85,687.74Z"/><path d="M1055.82,700.48h-4.34V671.67h4.33v28.81Z"/><path d="M47.31,635.52c-3.4,0-5.71,1.72-5.71,4.15,0,2.15,1.93,3.33,5.53,4.39l2.24.65c5.45,1.6,8.26,4,8.26,8.22,0,5-4,8.41-10.48,8.41-6,0-10.44-3.11-10.68-8.51h4.47c.22,3.12,2.9,4.64,6.2,4.64,3.7,0,6.18-1.9,6.18-4.53,0-2.32-1.75-3.43-5.81-4.66l-2.59-.75c-4.6-1.35-7.64-3.8-7.64-7.81,0-4.84,4.38-8.06,10.12-8.06s9.78,3.33,10,8.19H53.08C52.7,637.06,50.59,635.52,47.31,635.52Z"/><path d="M72.19,642.81H68v11.68c0,2.43,1.21,2.81,2.55,2.81a6.27,6.27,0,0,0,1.42-.17l.77,3.56a9,9,0,0,1-3.09.46,5.69,5.69,0,0,1-6-5.81V642.8h-3v-3.54h3v-4.61H68v4.61h4.22v3.55Z"/><path d="M88.1,643.57a4.21,4.21,0,0,0-1.93-.45c-3.09,0-5,2.86-5,5.53v12.23H76.79V639.27h4.28v3.4h.25a5.56,5.56,0,0,1,5.25-3.73,6.31,6.31,0,0,1,2.93.76Z"/><path d="M105.94,639.26h4.32v21.61h-4.17v-2.8h-.22a7.44,7.44,0,0,1-6.22,3.08c-3.31,0-7.06-2.36-7.06-8.23V639.26h4.33v13.59c0,2.88,1.77,4.47,4.21,4.47s4.81-1.79,4.81-5.52V639.26Z"/><path d="M129.38,646.3a4.56,4.56,0,0,0-4.68-3.64c-3.59,0-5.7,2.93-5.7,7.41s2.08,7.55,5.7,7.55a4.52,4.52,0,0,0,4.64-3.5l4.18.34c-.72,4-4,6.85-8.82,6.85-6.13,0-9.92-4.64-9.92-11.24S118.64,639,124.66,639c4.71,0,8.2,2.76,8.88,6.95Z"/><path d="M147.84,642.81h-4.22v11.68c0,2.43,1.21,2.81,2.55,2.81a6.27,6.27,0,0,0,1.42-.17l.77,3.56a9,9,0,0,1-3.09.46,5.69,5.69,0,0,1-6-5.81V642.8h-3v-3.54h3v-4.61h4.33v4.61h4.22v3.55Z"/><path d="M165.71,639.26H170v21.61h-4.17v-2.8h-.22a7.44,7.44,0,0,1-6.22,3.08c-3.31,0-7.06-2.36-7.06-8.23V639.26h4.33v13.59c0,2.88,1.77,4.47,4.21,4.47s4.81-1.79,4.81-5.52V639.26Z"/><path d="M186.77,643.57a4.21,4.21,0,0,0-1.93-.45c-3.09,0-5,2.86-5.05,5.53v12.23h-4.33V639.27h4.28v3.4H180a5.56,5.56,0,0,1,5.25-3.73,6.31,6.31,0,0,1,2.93.76Z"/><path d="M189.45,650.3c0-6.63,3.83-11.31,10-11.31,5,0,9.47,3.08,9.47,10.61v1.82H193.7c.34,4,2.43,6.22,6,6.22a4.77,4.77,0,0,0,4.92-3.19l4,1.1c-.9,3.11-3.94,5.78-8.91,5.78C193.35,661.31,189.45,657,189.45,650.3Zm4.35-2.17h10.86c0-3.14-2-5.47-5.26-5.47C196.44,642.66,194.38,644.65,193.8,648.13Z"/><path d="M224.74,643.57a4.21,4.21,0,0,0-1.93-.45c-3.09,0-5,2.86-5.05,5.53v12.23h-4.33V639.27h4.28v3.4H218a5.56,5.56,0,0,1,5.25-3.73,6.31,6.31,0,0,1,2.93.76Z"/><path d="M239.35,650.3c0-6.63,3.83-11.31,10-11.31,5,0,9.47,3.08,9.47,10.61v1.82H243.6c.34,4,2.43,6.22,6,6.22a4.77,4.77,0,0,0,4.92-3.19l4,1.1c-.9,3.11-3.94,5.78-8.91,5.78C243.25,661.31,239.35,657,239.35,650.3Zm4.35-2.17h10.86c0-3.14-2-5.47-5.26-5.47C246.35,642.66,244.28,644.65,243.7,648.13Z"/><path d="M273,642.81H268.8v11.68c0,2.43,1.21,2.81,2.55,2.81a6.27,6.27,0,0,0,1.42-.17l.77,3.56a9,9,0,0,1-3.09.46,5.69,5.69,0,0,1-6-5.81V642.8h-3v-3.54h3v-4.61h4.33v4.61H273v3.55Z"/><path d="M288.57,639.26h4.24v3.07h.35A6.16,6.16,0,0,1,299,639c5.11,0,9,4.08,9,11.13s-3.77,11.17-8.91,11.17a6.22,6.22,0,0,1-5.84-3.36h-.25V669h-4.33V639.26Zm9.51,3.4c-3.71,0-5.46,3.07-5.46,7.41s1.77,7.55,5.46,7.55,5.61-3.21,5.61-7.55S301.84,642.66,298.08,642.66Z"/><path d="M316.76,660.87h-4.33V632.06h4.33Z"/><path d="M334.69,658.19h-.2c-.72,1.38-2.57,3.15-6,3.15-4,0-7.2-2.38-7.2-6.58,0-4.54,3.81-6,8.53-6.56,2.48-.3,4.78-.28,4.78-1.56v-.18c0-2.8-1.59-3.91-3.86-3.91a4.86,4.86,0,0,0-4.84,3l-4.09-.94c1.37-3.95,5-5.57,8.91-5.57,3.47,0,8.23,1.31,8.23,7.53v14.36h-4.25Zm-.1-7.8c-.49.56-3.42.9-4.63,1.06-2.59.32-4.43,1.14-4.43,3.38,0,1.94,1.59,3,3.84,3,3.22,0,5.22-2.15,5.22-4.49Z"/><path d="M348.68,660.87h-4.33V639.26h4.17v3.22h.22A6.79,6.79,0,0,1,355,639c3.92,0,7.06,2.48,7.06,8.23v13.66H357.7V647.44c0-2.88-1.77-4.63-4.21-4.63s-4.81,2-4.81,5.7v12.36Z"/><path d="M367,634.23a2.72,2.72,0,0,1,5.43,0,2.72,2.72,0,0,1-5.43,0Zm4.9,26.64h-4.33V639.26h4.33Z"/><path d="M378.88,642.81h-3.22v-3.54h3.22v-1.49c0-4.08,3-6.11,6.4-6.11a9.93,9.93,0,0,1,3.54.58l-1,3.49a5.74,5.74,0,0,0-1.86-.32c-2,0-2.77,1-2.77,2.9v1h4.57v3.54H383.2v18.06h-4.33V642.81Z"/><path d="M391.47,634.23a2.72,2.72,0,0,1,5.43,0,2.72,2.72,0,0,1-5.43,0Zm4.89,26.64H392V639.26h4.33Z"/><path d="M400.89,650.3c0-6.63,3.83-11.31,10-11.31,5,0,9.47,3.08,9.47,10.61v1.82H405.14c.34,4,2.43,6.22,6,6.22a4.77,4.77,0,0,0,4.92-3.19l4,1.1c-.9,3.11-3.94,5.78-8.91,5.78C404.79,661.31,400.89,657,400.89,650.3Zm4.35-2.17H416.1c0-3.14-2-5.47-5.26-5.47C407.88,642.66,405.82,644.65,405.24,648.13Z"/><path d="M436.18,643.57a4.21,4.21,0,0,0-1.93-.45c-3.09,0-5,2.86-5.05,5.53v12.23h-4.33V639.27h4.28v3.4h.25a5.56,5.56,0,0,1,5.25-3.73,6.31,6.31,0,0,1,2.93.76Z"/><path d="M15.09,700.48v-3h-.32a6.27,6.27,0,0,1-5.88,3.36c-5.12,0-8.89-4.15-8.89-11.17s3.84-11.13,8.93-11.13a6.23,6.23,0,0,1,5.84,3.35H15V671.67h4.33v28.81Zm-5.27-3.25c3.69,0,5.44-3.18,5.44-7.55s-1.74-7.41-5.44-7.41-5.63,3.11-5.63,7.41S6.1,697.23,9.82,697.23Z"/><path d="M23.85,689.9c0-6.63,3.83-11.31,10-11.31,5,0,9.47,3.08,9.47,10.61V691H28.1c.34,4,2.43,6.22,6,6.22A4.77,4.77,0,0,0,39,694.05l4,1.1c-.9,3.11-3.94,5.78-8.91,5.78C27.75,700.92,23.85,696.6,23.85,689.9Zm4.35-2.16H39.06c0-3.14-2-5.47-5.26-5.47C30.84,682.26,28.77,684.26,28.2,687.74Z"/><path d="M59.9,684.88A4,4,0,0,0,55.74,682c-2.27,0-4.07,1.18-4.07,2.81,0,1.37,1.18,2.36,3.24,2.86l3.59.83c3.66.84,5.68,2.81,5.68,5.75,0,3.85-3.46,6.67-8.83,6.67s-8-2.62-8.91-6l4.07-.87a4.8,4.8,0,0,0,4.94,3.4c2.62,0,4.32-1.34,4.32-2.9s-1.11-2.14-2.88-2.56l-3.69-.89c-3.73-.91-5.84-3-5.84-6.06,0-3.91,3.53-6.49,8.5-6.49,4.5,0,7,2.1,8,5.61Z"/><path d="M79.8,678.87H84v3.07h.35a6.16,6.16,0,0,1,5.8-3.35c5.11,0,9,4.08,9,11.13s-3.77,11.17-8.91,11.17a6.22,6.22,0,0,1-5.84-3.36h-.25v11.06H79.81V678.87Zm9.51,3.39c-3.71,0-5.46,3.07-5.46,7.41s1.77,7.55,5.46,7.55,5.61-3.21,5.61-7.55S93.07,682.26,89.31,682.26Z"/><path d="M114.9,683.18a4.21,4.21,0,0,0-1.93-.45c-3.09,0-5,2.86-5,5.53v12.23h-4.33V678.88h4.28v3.4h.25a5.56,5.56,0,0,1,5.25-3.73,6.31,6.31,0,0,1,2.93.76Z"/><path d="M117.58,689.75c0-6.67,3.9-11.16,9.92-11.16s9.92,4.49,9.92,11.16-3.91,11.17-9.92,11.17S117.58,696.4,117.58,689.75Zm15.62,0c0-4.09-1.74-7.48-5.7-7.48s-5.7,3.39-5.7,7.48,1.73,7.48,5.7,7.48S133.2,693.86,133.2,689.75Z"/><path d="M146.32,678.87v22.9c0,4.39-2.55,6.87-6.94,6.87h-1.21v-3.73H139c2.18,0,3-1.24,3-3.18V678.87Zm-4.9-5a2.71,2.71,0,0,1,5.42,0,2.71,2.71,0,0,1-5.42,0Z"/><path d="M150.83,689.9c0-6.63,3.83-11.31,10-11.31,5,0,9.47,3.08,9.47,10.61V691H155.08c.34,4,2.43,6.22,6,6.22a4.77,4.77,0,0,0,4.92-3.19l4,1.1c-.9,3.11-3.94,5.78-8.91,5.78C154.73,700.92,150.83,696.6,150.83,689.9Zm4.35-2.16H166c0-3.14-2-5.47-5.26-5.47C157.82,682.26,155.75,684.26,155.18,687.74Z"/><path d="M184.49,682.42h-4.22V694.1c0,2.43,1.21,2.81,2.55,2.81a6.27,6.27,0,0,0,1.42-.17l.77,3.56a9,9,0,0,1-3.09.46,5.69,5.69,0,0,1-6-5.81V682.41h-3v-3.54h3v-4.61h4.33v4.61h4.22v3.55Z"/><path d="M200.78,684.88a4,4,0,0,0-4.16-2.88c-2.27,0-4.07,1.18-4.07,2.81,0,1.37,1.18,2.36,3.24,2.86l3.59.83c3.66.84,5.68,2.81,5.68,5.75,0,3.85-3.46,6.67-8.83,6.67s-7.95-2.62-8.91-6l4.07-.87a4.8,4.8,0,0,0,4.94,3.4c2.62,0,4.32-1.34,4.32-2.9s-1.11-2.14-2.88-2.56l-3.69-.89c-3.73-.91-5.84-3-5.84-6.06,0-3.91,3.53-6.49,8.5-6.49,4.5,0,7,2.1,8,5.61Z"/><path d="M225,700.48h-4.33V678.87h4.17v3.22h.22a6.79,6.79,0,0,1,6.22-3.5c3.92,0,7.06,2.48,7.06,8.23v13.66H234V687c0-2.88-1.77-4.63-4.21-4.63s-4.81,2-4.81,5.7v12.37Z"/><path d="M257.12,678.87h4.32v21.61h-4.17v-2.8h-.22a7.44,7.44,0,0,1-6.22,3.08c-3.31,0-7.06-2.36-7.06-8.23V678.87h4.33v13.59c0,2.88,1.77,4.47,4.21,4.47s4.81-1.79,4.81-5.52V678.87Z"/><path d="M283.31,700.48H279V686.55c0-2.95-1.45-4.14-3.62-4.14s-4.21,1.8-4.21,4.94v13.13h-4.33V678.87h4.28v3.22h.21a6.33,6.33,0,0,1,5.63-3.5,5.84,5.84,0,0,1,5.47,3.6h.22a6.85,6.85,0,0,1,6.19-3.6c3.63,0,6.56,2.36,6.56,8v13.93h-4.33v-14c0-3.1-2-4.07-3.74-4.07-2.55,0-4,1.73-4,4.56v13.51Z"/><path d="M299.79,689.9c0-6.63,3.83-11.31,10-11.31,5,0,9.47,3.08,9.47,10.61V691H304c.34,4,2.43,6.22,6,6.22a4.77,4.77,0,0,0,4.92-3.19l4,1.1c-.9,3.11-3.94,5.78-8.91,5.78C303.69,700.92,299.79,696.6,299.79,689.9Zm4.35-2.16H315c0-3.14-2-5.47-5.26-5.47C306.78,682.26,304.72,684.26,304.14,687.74ZM311,670.61h4.46l-4.66,5.85h-3.32Z"/><path d="M335.08,683.18a4.21,4.21,0,0,0-1.93-.45c-3.09,0-5,2.86-5,5.53v12.23h-4.33V678.88h4.28v3.4h.25a5.56,5.56,0,0,1,5.25-3.73,6.31,6.31,0,0,1,2.93.76Z"/><path d="M339.37,673.84a2.72,2.72,0,0,1,5.43,0,2.72,2.72,0,0,1-5.43,0Zm4.9,26.64h-4.33V678.87h4.33Z"/><path d="M368.13,708.59H363.8V697.53h-.22a6.27,6.27,0,0,1-5.88,3.36c-5.12,0-8.89-4.15-8.89-11.17s3.84-11.13,8.93-11.13a6.23,6.23,0,0,1,5.84,3.35h.32v-3.07h4.24v29.72Zm-9.52-11.36c3.69,0,5.44-3.18,5.44-7.55s-1.74-7.41-5.44-7.41-5.63,3.11-5.63,7.41S354.9,697.23,358.61,697.23Z"/><path d="M386.9,678.87h4.32v21.61h-4.17v-2.8h-.22a7.44,7.44,0,0,1-6.22,3.08c-3.31,0-7.06-2.36-7.06-8.23V678.87h4.33v13.59c0,2.88,1.77,4.47,4.21,4.47s4.81-1.79,4.81-5.52V678.87Z"/><path d="M395.74,689.9c0-6.63,3.83-11.31,10-11.31,5,0,9.47,3.08,9.47,10.61V691H400c.34,4,2.43,6.22,6,6.22a4.77,4.77,0,0,0,4.92-3.19l4,1.1c-.9,3.11-3.94,5.78-8.91,5.78C399.64,700.92,395.74,696.6,395.74,689.9Zm4.35-2.16H411c0-3.14-2-5.47-5.26-5.47C402.74,682.26,400.67,684.26,400.09,687.74Z"/><path d="M431.8,684.88a4,4,0,0,0-4.16-2.88c-2.27,0-4.07,1.18-4.07,2.81,0,1.37,1.18,2.36,3.24,2.86l3.59.83c3.66.84,5.68,2.81,5.68,5.75,0,3.85-3.46,6.67-8.83,6.67s-7.95-2.62-8.91-6l4.07-.87a4.8,4.8,0,0,0,4.94,3.4c2.62,0,4.32-1.34,4.32-2.9s-1.11-2.14-2.88-2.56l-3.69-.89c-3.73-.91-5.84-3-5.84-6.06,0-3.91,3.53-6.49,8.5-6.49,4.5,0,7.05,2.1,8,5.61Z"/><path d="M25.42,377.92a7.13,7.13,0,0,0-7.33-5.61c-4.74,0-8.31,3.6-8.31,10.72s3.57,10.69,8.31,10.69a7.08,7.08,0,0,0,7.29-5.56l4.4.29c-1.22,5.92-5.92,9.36-11.69,9.36-7.36,0-12.72-5.6-12.72-14.79s5.36-14.81,12.72-14.81a11.46,11.46,0,0,1,11.72,9.41Z"/><path d="M33.56,386.69c0-6.67,3.9-11.16,9.92-11.16S53.4,380,53.4,386.69s-3.91,11.17-9.92,11.17S33.56,393.34,33.56,386.69Zm15.62,0c0-4.09-1.74-7.48-5.7-7.48s-5.7,3.39-5.7,7.48,1.73,7.48,5.7,7.48S49.18,390.8,49.18,386.69Z"/><path d="M62.17,397.42H57.84V375.81H62V379h.22a6.79,6.79,0,0,1,6.22-3.5c3.92,0,7.06,2.48,7.06,8.23v13.66H71.19V384c0-2.88-1.77-4.63-4.21-4.63s-4.81,2-4.81,5.7v12.37Z"/><path d="M94.48,382.85a4.56,4.56,0,0,0-4.68-3.64c-3.59,0-5.7,2.93-5.7,7.41s2.08,7.55,5.7,7.55a4.52,4.52,0,0,0,4.64-3.5l4.18.34c-.72,4-4,6.85-8.82,6.85-6.13,0-9.92-4.64-9.92-11.24s3.86-11.09,9.88-11.09c4.71,0,8.2,2.76,8.88,7Z"/><path d="M102.13,386.84c0-6.63,3.83-11.31,10-11.31,5,0,9.47,3.08,9.47,10.61V388H106.38c.34,4,2.43,6.22,6,6.22a4.77,4.77,0,0,0,4.92-3.19l4,1.1c-.9,3.11-3.94,5.78-8.91,5.78C106,397.86,102.13,393.54,102.13,386.84Zm4.35-2.16h10.86c0-3.14-2-5.47-5.26-5.47C109.12,379.2,107.05,381.2,106.48,384.68Z"/><path d="M136,397.42h-4.23l-8-21.61h4.57l5.42,16h.23l5.39-16H144Z"/><path d="M146.21,386.69c0-6.67,3.9-11.16,9.92-11.16s9.92,4.49,9.92,11.16-3.91,11.17-9.92,11.17S146.21,393.34,146.21,386.69Zm15.62,0c0-4.09-1.74-7.48-5.7-7.48s-5.7,3.39-5.7,7.48,1.73,7.48,5.7,7.48S161.83,390.8,161.83,386.69Z"/><path d="M169.92,370.78a2.72,2.72,0,0,1,5.43,0,2.72,2.72,0,0,1-5.43,0Zm4.9,26.64h-4.33V375.81h4.33Z"/><path d="M191.63,380.12a4.21,4.21,0,0,0-1.93-.45c-3.09,0-5,2.86-5,5.53v12.23h-4.33V375.82h4.28v3.4h.25a5.56,5.56,0,0,1,5.25-3.73,6.31,6.31,0,0,1,2.93.76Z"/><path d="M221.34,397.42v-2.95H221a6.27,6.27,0,0,1-5.88,3.36c-5.12,0-8.89-4.15-8.89-11.17s3.84-11.13,8.93-11.13a6.23,6.23,0,0,1,5.84,3.35h.22V368.61h4.33v28.81Zm-5.28-3.25c3.69,0,5.44-3.18,5.44-7.55s-1.74-7.41-5.44-7.41-5.63,3.11-5.63,7.41S212.35,394.17,216.06,394.17Z"/><path d="M230.09,386.84c0-6.63,3.83-11.31,10-11.31,5,0,9.47,3.08,9.47,10.61V388H234.34c.34,4,2.43,6.22,6,6.22a4.77,4.77,0,0,0,4.92-3.19l4,1.1c-.9,3.11-3.94,5.78-8.91,5.78C234,397.86,230.09,393.54,230.09,386.84Zm4.35-2.16H245.3c0-3.14-2-5.47-5.26-5.47C237.09,379.2,235,381.2,234.44,384.68Z"/><path d="M266.15,381.82a4,4,0,0,0-4.16-2.88c-2.27,0-4.07,1.18-4.07,2.81,0,1.37,1.18,2.36,3.24,2.86l3.59.83c3.66.84,5.68,2.81,5.68,5.75,0,3.85-3.46,6.67-8.83,6.67s-8-2.62-8.91-6l4.07-.87a4.8,4.8,0,0,0,4.94,3.4c2.62,0,4.32-1.34,4.32-2.9s-1.11-2.14-2.88-2.56l-3.69-.89c-3.73-.91-5.84-3-5.84-6.06,0-3.91,3.53-6.49,8.5-6.49,4.5,0,7.05,2.1,8,5.61Z"/><path d="M3.38,410.38a2.64,2.64,0,0,1,2.72-2.56,2.63,2.63,0,0,1,2.71,2.56,2.59,2.59,0,0,1-2.71,2.56A2.59,2.59,0,0,1,3.38,410.38ZM8.28,437H4V415.42H8.28Z"/><path d="M18.11,437H13.78V415.42H18v3.22h.22a6.79,6.79,0,0,1,6.22-3.5c3.92,0,7.06,2.48,7.06,8.23V437H27.13V423.59c0-2.88-1.77-4.63-4.21-4.63s-4.81,2-4.81,5.7Z"/><path d="M46.25,419H42v11.68c0,2.43,1.21,2.81,2.55,2.81a6.27,6.27,0,0,0,1.42-.17l.77,3.56a9,9,0,0,1-3.09.46,5.69,5.69,0,0,1-6-5.81V419h-3v-3.54h3V410.8H42v4.61h4.22Z"/><path d="M49.54,426.45c0-6.63,3.83-11.31,10-11.31,5,0,9.47,3.08,9.47,10.61v1.82H53.79c.34,4,2.43,6.22,6,6.22a4.77,4.77,0,0,0,4.92-3.19l4,1.1c-.9,3.11-3.94,5.78-8.91,5.78C53.44,437.47,49.54,433.15,49.54,426.45Zm4.35-2.17H64.75c0-3.14-2-5.47-5.26-5.47C56.54,418.81,54.47,420.81,53.89,424.28Z"/><path d="M84.84,419.72a4.21,4.21,0,0,0-1.93-.45c-3.09,0-5,2.86-5,5.53V437H73.53V415.42h4.28v3.4h.25a5.56,5.56,0,0,1,5.25-3.73,6.31,6.31,0,0,1,2.93.76Z"/><path d="M91.94,419H88.72v-3.54h3.22v-1.49c0-4.08,3-6.11,6.4-6.11a9.93,9.93,0,0,1,3.54.58l-1,3.49a5.74,5.74,0,0,0-1.86-.32c-2,0-2.77,1-2.77,2.9v1h4.57V419H96.26V437H91.93V419Z"/><path d="M116.9,434.34h-.2c-.72,1.38-2.57,3.15-6,3.15-4,0-7.2-2.38-7.2-6.58,0-4.54,3.81-6.05,8.53-6.56,2.48-.3,4.78-.28,4.78-1.56v-.18c0-2.8-1.59-3.91-3.86-3.91a4.86,4.86,0,0,0-4.84,2.95l-4.09-.94c1.37-3.95,5-5.57,8.91-5.57,3.47,0,8.23,1.31,8.23,7.53V437H116.9v-2.69Zm-.09-7.79c-.49.56-3.42.9-4.63,1.06-2.59.32-4.43,1.14-4.43,3.38,0,1.94,1.59,3,3.84,3,3.22,0,5.22-2.15,5.22-4.49Z"/><path d="M140.11,422.45a4.56,4.56,0,0,0-4.68-3.64c-3.59,0-5.7,2.93-5.7,7.41s2.08,7.55,5.7,7.55a4.52,4.52,0,0,0,4.64-3.5l4.18.34c-.72,4-4,6.85-8.82,6.85-6.13,0-9.92-4.64-9.92-11.24s3.86-11.09,9.88-11.09c4.71,0,8.2,2.76,8.88,6.95Z"/><path d="M147.76,426.45c0-6.63,3.83-11.31,10-11.31,5,0,9.47,3.08,9.47,10.61v1.82H152c.34,4,2.43,6.22,6,6.22a4.77,4.77,0,0,0,4.92-3.19l4,1.1c-.9,3.11-3.94,5.78-8.91,5.78C151.66,437.47,147.76,433.15,147.76,426.45Zm4.35-2.17H163c0-3.14-2-5.47-5.26-5.47C154.75,418.81,152.68,420.81,152.11,424.28Z"/><path d="M183.81,421.43a4,4,0,0,0-4.16-2.88c-2.27,0-4.07,1.18-4.07,2.81,0,1.37,1.18,2.36,3.24,2.86l3.59.83c3.66.84,5.68,2.81,5.68,5.75,0,3.85-3.46,6.67-8.83,6.67s-7.95-2.62-8.91-6l4.07-.87a4.8,4.8,0,0,0,4.94,3.4c2.62,0,4.32-1.34,4.32-2.9s-1.11-2.14-2.88-2.56l-3.69-.89c-3.73-.91-5.84-3-5.84-6.06,0-3.91,3.53-6.49,8.5-6.49,4.5,0,7,2.1,8,5.61Z"/><path d="M209.49,439.73a30.66,30.66,0,0,1-5.06-17.11,29.26,29.26,0,0,1,5.26-17.11h3.74a31.64,31.64,0,0,0-4.78,17.11,32.67,32.67,0,0,0,4.73,17.11Z"/><path d="M240.44,408.22v19.06c0,6.5-5,10.21-11.34,10.21s-11.38-3.71-11.38-10.21V408.22h4.46v19c0,4,3.14,6.21,6.92,6.21s6.88-2.25,6.88-6.21v-19Z"/><path d="M256.43,419.37h.22l6.71-11.16h5.15l-8.85,14.41L268.58,437h-5.19l-6.74-11h-.22l-6.74,11H244.5l9.06-14.41-9-14.41h5.15Z"/><path d="M275.39,422.62a31.72,31.72,0,0,0-4.78-17.11h3.74c3.14,4.16,5.26,10.47,5.26,17.11a30.69,30.69,0,0,1-5.06,17.11h-3.88A32.75,32.75,0,0,0,275.39,422.62Z"/><polygon points="116.68 952.4 101.37 938.17 99 940.72 109.7 950.66 51.86 950.66 51.86 954.14 109.69 954.14 99 964.08 101.37 966.63 116.68 952.4" style="fill:red"/><path d="M194.4,933.29a7.13,7.13,0,0,0-7.33-5.61c-4.74,0-8.31,3.6-8.31,10.72s3.57,10.69,8.31,10.69a7.08,7.08,0,0,0,7.29-5.56l4.4.29c-1.22,5.92-5.92,9.36-11.69,9.36-7.36,0-12.72-5.6-12.72-14.79s5.36-14.81,12.72-14.81A11.46,11.46,0,0,1,198.79,933Z" style="fill:#e30a18"/><path d="M202.54,942.05c0-6.67,3.9-11.16,9.92-11.16s9.92,4.49,9.92,11.16-3.91,11.17-9.92,11.17S202.54,948.71,202.54,942.05Zm15.61,0c0-4.09-1.74-7.48-5.7-7.48s-5.7,3.39-5.7,7.48,1.73,7.48,5.7,7.48S218.15,946.16,218.15,942.05Z" style="fill:#e30a18"/><path d="M243.26,952.79H239V938.86c0-3-1.45-4.14-3.62-4.14s-4.21,1.8-4.21,4.94v13.13h-4.33V931.18h4.28v3.22h.21a6.33,6.33,0,0,1,5.63-3.5,5.84,5.84,0,0,1,5.47,3.6h.22a6.85,6.85,0,0,1,6.19-3.6c3.63,0,6.56,2.36,6.56,8v13.93H251v-14c0-3.1-2-4.07-3.74-4.07-2.55,0-4,1.73-4,4.56v13.51Z" style="fill:#e30a18"/><path d="M260.8,931.18H265v3.07h.35a6.16,6.16,0,0,1,5.8-3.35c5.11,0,8.95,4.08,8.95,11.13s-3.77,11.17-8.91,11.17a6.22,6.22,0,0,1-5.84-3.36h-.25V960.9h-4.33V931.18Zm9.51,3.39c-3.71,0-5.46,3.07-5.46,7.41s1.77,7.55,5.46,7.55,5.61-3.21,5.61-7.55S274.06,934.57,270.31,934.57Z" style="fill:#e30a18"/><path d="M283.75,942.21c0-6.63,3.83-11.31,10-11.31,5,0,9.47,3.08,9.47,10.61v1.82H288c.34,4,2.43,6.22,6,6.22a4.77,4.77,0,0,0,4.92-3.19l4,1.1c-.9,3.11-3.94,5.78-8.91,5.78C287.65,953.23,283.75,948.91,283.75,942.21ZM288.1,940H299c0-3.14-2-5.47-5.26-5.47C290.75,934.57,288.68,936.57,288.1,940ZM295,922.92h4.46l-4.66,5.85h-3.32Z" style="fill:#e30a18"/><path d="M317.42,934.72H313.2V946.4c0,2.43,1.21,2.81,2.55,2.81a6.27,6.27,0,0,0,1.42-.17l.77,3.56a9,9,0,0,1-3.09.46,5.69,5.69,0,0,1-6-5.81V934.71h-3v-3.54h3v-4.61h4.33v4.61h4.22v3.55Z" style="fill:#e30a18"/><path d="M320.71,942.21c0-6.63,3.83-11.31,10-11.31,5,0,9.47,3.08,9.47,10.61v1.82H325c.34,4,2.43,6.22,6,6.22a4.77,4.77,0,0,0,4.92-3.19l4,1.1c-.9,3.11-3.94,5.78-8.91,5.78C324.6,953.23,320.71,948.91,320.71,942.21Zm4.34-2.17h10.86c0-3.14-2-5.47-5.26-5.47C327.7,934.57,325.63,936.57,325.05,940Z" style="fill:#e30a18"/><path d="M349,952.79h-4.33V931.18h4.17v3.22h.22a6.79,6.79,0,0,1,6.22-3.5c3.92,0,7.06,2.48,7.06,8.23v13.66H358V939.35c0-2.88-1.77-4.63-4.21-4.63s-4.81,2-4.81,5.7v12.37Z" style="fill:#e30a18"/><path d="M381.33,938.21a4.56,4.56,0,0,0-4.68-3.64c-3.59,0-5.7,2.93-5.7,7.41s2.08,7.55,5.7,7.55a4.52,4.52,0,0,0,4.64-3.5l4.18.34c-.72,4-4,6.85-8.82,6.85-6.13,0-9.92-4.64-9.92-11.24s3.86-11.09,9.88-11.09c4.71,0,8.2,2.76,8.88,7Z" style="fill:#e30a18"/><path d="M389,942.21c0-6.63,3.83-11.31,10-11.31,5,0,9.47,3.08,9.47,10.61v1.82H393.23c.34,4,2.43,6.22,6,6.22a4.77,4.77,0,0,0,4.92-3.19l4,1.1c-.9,3.11-3.94,5.78-8.91,5.78C392.88,953.23,389,948.91,389,942.21Zm4.35-2.17h10.86c0-3.14-2-5.47-5.26-5.47C396,934.57,393.91,936.57,393.33,940Z" style="fill:#e30a18"/><path d="M425,937.19a4,4,0,0,0-4.16-2.88c-2.27,0-4.07,1.18-4.07,2.81,0,1.37,1.18,2.36,3.24,2.86l3.59.83c3.66.84,5.68,2.81,5.68,5.75,0,3.85-3.46,6.67-8.83,6.67s-8-2.62-8.91-6l4.07-.87a4.8,4.8,0,0,0,4.94,3.4c2.62,0,4.32-1.34,4.32-2.9s-1.11-2.14-2.88-2.56l-3.69-.89c-3.73-.91-5.84-3-5.84-6.06,0-3.91,3.53-6.49,8.5-6.49,4.5,0,7.05,2.1,8,5.61Z" style="fill:#e30a18"/><path d="M456.25,935.48a4.21,4.21,0,0,0-1.93-.45c-3.09,0-5,2.86-5.05,5.53v12.23h-4.33V931.18h4.28v3.4h.25a5.56,5.56,0,0,1,5.25-3.73,6.31,6.31,0,0,1,2.93.76Z" style="fill:#e30a18"/><path d="M458.93,942.21c0-6.63,3.83-11.31,10-11.31,5,0,9.47,3.08,9.47,10.61v1.82H463.18c.34,4,2.43,6.22,6,6.22a4.77,4.77,0,0,0,4.92-3.19l4,1.1c-.9,3.11-3.94,5.78-8.91,5.78C462.83,953.23,458.93,948.91,458.93,942.21Zm4.35-2.17h10.86c0-3.14-2-5.47-5.26-5.47C465.92,934.57,463.86,936.57,463.28,940Z" style="fill:#e30a18"/><path d="M487.25,952.79h-4.33V924h4.33Z" style="fill:#e30a18"/><path d="M505.18,950.1H505c-.72,1.38-2.57,3.15-6,3.15-4,0-7.2-2.38-7.2-6.58,0-4.54,3.81-6,8.53-6.56,2.48-.3,4.78-.28,4.78-1.56v-.18c0-2.8-1.59-3.91-3.86-3.91a4.86,4.86,0,0,0-4.84,2.95l-4.09-.94c1.37-4,5-5.57,8.91-5.57,3.47,0,8.23,1.31,8.23,7.53v14.36h-4.25V950.1Zm-.1-7.79c-.49.56-3.42.9-4.63,1.06-2.59.32-4.43,1.14-4.43,3.38,0,1.94,1.59,3,3.84,3,3.22,0,5.22-2.15,5.22-4.49Z" style="fill:#e30a18"/><path d="M524.23,934.72H520V946.4c0,2.43,1.21,2.81,2.55,2.81A6.27,6.27,0,0,0,524,949l.77,3.56a9,9,0,0,1-3.09.46,5.69,5.69,0,0,1-6-5.81V934.71h-3v-3.54h3v-4.61H520v4.61h4.22Z" style="fill:#e30a18"/><path d="M528.26,926.14a2.72,2.72,0,0,1,5.43,0,2.72,2.72,0,0,1-5.43,0Zm4.9,26.65h-4.33V931.18h4.33Z" style="fill:#e30a18"/><path d="M537.69,942.05c0-6.67,3.9-11.16,9.92-11.16s9.92,4.49,9.92,11.16-3.91,11.17-9.92,11.17S537.69,948.71,537.69,942.05Zm15.61,0c0-4.09-1.74-7.48-5.7-7.48s-5.7,3.39-5.7,7.48,1.73,7.48,5.7,7.48S553.3,946.16,553.3,942.05Z" style="fill:#e30a18"/><path d="M566.3,952.79H562V931.18h4.17v3.22h.22a6.79,6.79,0,0,1,6.22-3.5c3.92,0,7.06,2.48,7.06,8.23v13.66h-4.32V939.35c0-2.88-1.77-4.63-4.21-4.63s-4.81,2-4.81,5.7v12.37Z" style="fill:#e30a18"/><path d="M589.4,952.79h-4.33V931.18h4.17v3.22h.22a6.79,6.79,0,0,1,6.22-3.5c3.92,0,7.06,2.48,7.06,8.23v13.66h-4.32V939.35c0-2.88-1.77-4.63-4.21-4.63s-4.81,2-4.81,5.7v12.37Z" style="fill:#e30a18"/><path d="M607.1,942.21c0-6.63,3.83-11.31,10-11.31,5,0,9.47,3.08,9.47,10.61v1.82H611.35c.34,4,2.43,6.22,6,6.22a4.77,4.77,0,0,0,4.92-3.19l4,1.1c-.9,3.11-3.94,5.78-8.91,5.78C611,953.23,607.1,948.91,607.1,942.21Zm4.35-2.17h10.86c0-3.14-2-5.47-5.26-5.47C614.1,934.57,612,936.57,611.45,940Z" style="fill:#e30a18"/><path d="M635.42,952.79h-4.33V924h4.33Z" style="fill:#e30a18"/><path d="M644.87,952.79h-4.33V924h4.33Z" style="fill:#e30a18"/><path d="M649.4,942.21c0-6.63,3.83-11.31,10-11.31,5,0,9.47,3.08,9.47,10.61v1.82H653.65c.34,4,2.43,6.22,6,6.22a4.77,4.77,0,0,0,4.92-3.19l4,1.1c-.9,3.11-3.94,5.78-8.91,5.78C653.3,953.23,649.4,948.91,649.4,942.21Zm4.35-2.17h10.86c0-3.14-2-5.47-5.26-5.47C656.39,934.57,654.32,936.57,653.75,940Z" style="fill:#e30a18"/><path d="M685.45,937.19a4,4,0,0,0-4.16-2.88c-2.27,0-4.07,1.18-4.07,2.81,0,1.37,1.18,2.36,3.24,2.86l3.59.83c3.66.84,5.68,2.81,5.68,5.75,0,3.85-3.46,6.67-8.83,6.67s-7.95-2.62-8.91-6l4.07-.87a4.8,4.8,0,0,0,4.94,3.4c2.62,0,4.32-1.34,4.32-2.9s-1.11-2.14-2.88-2.56l-3.69-.89c-3.73-.91-5.84-3-5.84-6.06,0-3.91,3.53-6.49,8.5-6.49,4.5,0,7.05,2.1,8,5.61Z" style="fill:#e30a18"/><path d="M190.67,991.68a11.59,11.59,0,0,1-7.41,2.5c-5.68,0-9.17-3.38-9.17-8.09,0-3.42,2.22-5.51,5.46-7.77-1.83-2.32-3.09-4.32-3.09-6.47,0-4.49,2.87-7.2,7.34-7.2,4.29,0,7,2.93,7,6.32,0,2.71-1.51,4.7-3.8,6.4l-2,1.46,5.7,6.85a11.08,11.08,0,0,0,1.17-5.06h3.85a13,13,0,0,1-2.41,8.23l4.09,4.94h-5Zm-7.29-1.13a7.73,7.73,0,0,0,4.84-1.8l-6.36-7.61-.82.6c-2.15,1.67-2.67,3.29-2.67,4.22A4.67,4.67,0,0,0,183.38,990.55Zm-.66-14.49,1.73-1.22c1.63-1.07,2.43-2.1,2.43-3.71a3.05,3.05,0,0,0-3.11-2.86,3.32,3.32,0,0,0-3.31,3.49C180.47,973.05,181.45,974.49,182.72,976.06Z" style="fill:#e30a18"/><path d="M231.77,974.29a7.13,7.13,0,0,0-7.33-5.61c-4.74,0-8.31,3.6-8.31,10.72s3.57,10.69,8.31,10.69a7.08,7.08,0,0,0,7.29-5.56l4.4.29c-1.22,5.92-5.92,9.36-11.69,9.36-7.36,0-12.72-5.6-12.72-14.79s5.36-14.81,12.72-14.81A11.46,11.46,0,0,1,236.16,974Z" style="fill:#e30a18"/><path d="M254.16,972.18h4.32v21.61h-4.17V991h-.22a7.44,7.44,0,0,1-6.22,3.08c-3.31,0-7.06-2.36-7.06-8.23V972.18h4.33v13.59c0,2.88,1.77,4.47,4.21,4.47s4.81-1.79,4.81-5.52V972.18Z" style="fill:#e30a18"/><path d="M268.24,993.79h-4.33V965h4.33Z" style="fill:#e30a18"/><path d="M283.42,975.72H279.2V987.4c0,2.43,1.21,2.81,2.55,2.81a6.27,6.27,0,0,0,1.42-.17l.77,3.56a9,9,0,0,1-3.09.46,5.69,5.69,0,0,1-6-5.81V975.71h-3v-3.54h3v-4.61h4.33v4.61h4.22v3.55Z" style="fill:#e30a18"/><path d="M301.3,972.18h4.32v21.61h-4.17V991h-.22a7.44,7.44,0,0,1-6.22,3.08c-3.31,0-7.06-2.36-7.06-8.23V972.18h4.33v13.59c0,2.88,1.77,4.47,4.21,4.47s4.81-1.79,4.81-5.52V972.18Z" style="fill:#e30a18"/><path d="M322.35,976.48a4.21,4.21,0,0,0-1.93-.45c-3.09,0-5,2.86-5.05,5.53v12.23H311V972.18h4.28v3.4h.25a5.56,5.56,0,0,1,5.25-3.73,6.31,6.31,0,0,1,2.93.76Z" style="fill:#e30a18"/><path d="M325,983.21c0-6.63,3.83-11.31,10-11.31,5,0,9.47,3.08,9.47,10.61v1.82H329.29c.34,4,2.43,6.22,6,6.22a4.77,4.77,0,0,0,4.92-3.19l4,1.1c-.9,3.11-3.94,5.78-8.91,5.78C328.93,994.23,325,989.91,325,983.21Zm4.34-2.17h10.86c0-3.14-2-5.47-5.26-5.47C332,975.57,330,977.57,329.38,981Z" style="fill:#e30a18"/><path d="M374.24,993.79v-2.95h-.32A6.27,6.27,0,0,1,368,994.2c-5.12,0-8.89-4.15-8.89-11.17s3.84-11.13,8.93-11.13a6.23,6.23,0,0,1,5.84,3.35h.22V965h4.34v28.81ZM369,990.54c3.69,0,5.44-3.18,5.44-7.55s-1.74-7.41-5.44-7.41-5.63,3.11-5.63,7.41S365.25,990.54,369,990.54Z" style="fill:#e30a18"/><path d="M383.41,967.14a2.72,2.72,0,0,1,5.43,0,2.72,2.72,0,0,1-5.43,0Zm4.9,26.65H384V972.18h4.33Z" style="fill:#e30a18"/><path d="M412.17,972.22v21.37c0,5.7-4.38,8.36-9.78,8.36-4.39,0-7.3-1.87-8.61-3.81l2.67-2.67a7.45,7.45,0,0,0,5.85,2.79c3.12,0,5.61-1.53,5.58-5v-3h-.31a6.16,6.16,0,0,1-5.85,3.21c-4.94,0-8.89-3.6-8.89-10.55s3.84-11,8.93-11a6.23,6.23,0,0,1,5.84,3.35h.32v-3h4.25Zm-9.51,17.56c3.62,0,5.44-2.67,5.44-7s-1.77-7.25-5.44-7.25-5.63,3.12-5.63,7.25S399,989.78,402.66,989.78Z" style="fill:#e30a18"/><path d="M417.1,967.14a2.72,2.72,0,0,1,5.43,0,2.72,2.72,0,0,1-5.43,0Zm4.9,26.65h-4.33V972.18H422Z" style="fill:#e30a18"/><path d="M437.24,975.72H433V987.4c0,2.43,1.21,2.81,2.55,2.81A6.27,6.27,0,0,0,437,990l.77,3.56a9,9,0,0,1-3.09.46,5.69,5.69,0,0,1-6-5.81V975.71h-3v-3.54h3v-4.61H433v4.61h4.22v3.55Z" style="fill:#e30a18"/><path d="M454.28,991.1h-.2c-.72,1.38-2.57,3.15-6,3.15-4,0-7.2-2.38-7.2-6.58,0-4.54,3.81-6,8.53-6.56,2.48-.3,4.78-.28,4.78-1.56v-.18c0-2.8-1.59-3.91-3.86-3.91a4.86,4.86,0,0,0-4.84,2.95l-4.09-.94c1.37-4,5-5.57,8.91-5.57,3.47,0,8.23,1.31,8.23,7.53v14.36h-4.25Zm-.1-7.79c-.49.56-3.42.9-4.63,1.06-2.59.32-4.43,1.14-4.43,3.38,0,1.94,1.59,3,3.84,3,3.22,0,5.22-2.15,5.22-4.49Z" style="fill:#e30a18"/><path d="M468.27,993.79h-4.33V965h4.33Z" style="fill:#e30a18"/><path d="M472.8,983.21c0-6.63,3.83-11.31,10-11.31,5,0,9.47,3.08,9.47,10.61v1.82H477.05c.34,4,2.43,6.22,6,6.22a4.77,4.77,0,0,0,4.92-3.19l4,1.1c-.9,3.11-3.94,5.78-8.91,5.78C476.7,994.23,472.8,989.91,472.8,983.21Zm4.35-2.17H488c0-3.14-2-5.47-5.26-5.47C479.79,975.57,477.73,977.57,477.15,981Z" style="fill:#e30a18"/></svg>