<svg xmlns="http://www.w3.org/2000/svg" width="100%" viewbox="0 0 1500 1510"><defs><clipPath id="a" clipPathUnits="userSpaceOnUse"><path d="M0 1034.645h1125.065V0H0z"/></clipPath><clipPath id="b" clipPathUnits="userSpaceOnUse"><path d="M0 1034.645h1125.065V0H0z"/></clipPath><clipPath id="c" clipPathUnits="userSpaceOnUse"><path d="M0 1034.645h1125.065V0H0z"/></clipPath></defs><path d="M858.258 343.642H660.214L561.19 515.153l99.023 171.512h198.044l99.023-171.512z" fill="#fecccb"/><path d="M464.264 516.405h97.479M464.264 508.66v15.491M563.465 516.405h97.478M563.465 508.66v15.491M662.667 516.405h97.477M662.667 508.66v15.491M908.303 772.929l-48.741-84.419M901.595 776.803l13.417-7.747M858.703 687.019l-48.741-84.42M851.995 690.891l13.417-7.747M809.103 601.109l-48.742-84.42M802.395 604.981l13.417-7.747M1056.026 516.407h-97.479M1056.026 524.153V508.66M956.825 516.407h-97.478M956.825 524.153V508.66M857.625 516.407h-97.479M857.625 524.153V508.66M611.839 772.929l48.742-84.419M605.13 769.055l13.418 7.747M661.439 687.019l48.742-84.42M654.73 683.145l13.418 7.747M711.039 601.109l48.743-84.42M704.33 597.235l13.418 7.746M611.839 260.135l48.742 84.418M618.547 256.261l-13.417 7.747M661.439 346.045l48.742 84.42M668.147 342.171l-13.417 7.747M711.039 431.955l48.743 84.42M717.747 428.083l-13.417 7.746M907.499 261.25l-48.743 84.42M914.207 265.123l-13.417-7.747M857.898 347.16l-48.741 84.42M864.607 351.033l-13.418-7.747M808.298 433.07l-48.743 84.42M815.007 436.943l-13.418-7.746" fill="none" stroke="#e2051c" stroke-width="3.4426580599999994"/><text style="-inkscape-font-specification:Inter-Regular" transform="matrix(1.33333 0 0 1.33333 284.206 104.256)" font-weight="400" font-size="37.607" font-family="Inter"><tspan y="0" x="0 23.880508 37.234791 59.68623 82.588951 96.578796 117.7892 150.46977 183.15034 205.03767">Programmer</tspan><tspan y="39.6" x="10.793238 33.695961 56.1474 77.997124 91.986969 102.55457 111.46745 133.37733 143.94493 173.80498 195.69231">pour le web</tspan></text><g clip-path="url(#a)" transform="matrix(1.33333 0 0 -1.33333 0 1379.52)"><text style="-inkscape-font-specification:Inter-Regular" transform="matrix(1 0 0 -1 624.54 1000.438)" font-weight="400" font-size="37.607" font-family="Inter"><tspan y="0" x="0 27.340363 49.772995 82.453568 105.35629 118.71433 140.60167 162.60182 185.95583 199.3101 221.19743 231.76503 240.67792 262.58783 273.1554 305.83597 327.04639 341.03622 360.64081 382.52814 396.21713 405.13 427.13016 450.0329">Comprendre le marketing</tspan></text></g><text style="-inkscape-font-specification:Inter-Regular" transform="matrix(1.33333 0 0 1.33333 832.719 98.412)" font-weight="400" font-size="37.607" font-family="Inter"><tspan y="0" x="0 21.887333 35.576317 46.143913 55.056793 76.267197 86.834793 107.81956 130.2522 162.93275 195.61333 217.46306 239.46321 248.3761 269.36084 290.57126 304.26025 313.17313 335.62457 357.62473">et la communication digitale</tspan><tspan y="328.611" x="227.93663 255.27699 268.63129 290.51862 312.40594 326.39578 336.96338 360.31738 382.20471 401.87323">Créer des </tspan><tspan y="368.211" x="227.93663 248.9214 271.37283 293.37299 306.83258 328.71991 350.72006 372.56979">contenus</tspan><tspan y="407.811" x="227.93663 255.87871 277.76605 291.12033 313.00766 326.9975 337.56509 360.9191 382.80643 402.47495">Gérer des </tspan><tspan y="447.412" x="227.93663 248.9214 270.13181 302.81238 325.71509 346.92551 369.82822 391.82837 413.7157">campagnes</tspan></text><text style="-inkscape-font-specification:Inter-Bold" transform="matrix(1.33333 0 0 1.33333 1078.328 338)" font-weight="700" font-size="46.345" font-family="Inter" fill="#e2051c"><tspan y="0" x="0 42.405766 69.285927 88.241074 114.14798 141.86235 159.84425 172.45012 201.27676">Marketing</tspan></text><g clip-path="url(#b)" transform="matrix(1.33333 0 0 -1.33333 0 1379.52)"><text style="-inkscape-font-specification:Inter-Bold" transform="matrix(1 0 0 -1 723.033 734.796)" font-weight="700" font-size="46.345" font-family="Inter" fill="#e2051c"><tspan y="0" x="0 31.236597 41.988659 76.840179 105.29607 147.56281 189.82953 218.65619 247.48283 260.08871 287.29327 314.17343 332.15533 344.7612 373.2171">&amp; Communication</tspan></text></g><text style="-inkscape-font-specification:Inter-Bold" transform="matrix(1.33333 0 0 1.33333 43.582 336.666)" font-weight="700" font-size="46.345" font-family="Inter" fill="#e2051c"><tspan y="0" x="0 12.999801 41.826454 58.811932 87.267822 106.22297 148.4897 175.36986 193.35176 205.95763 235.24773 264.07437">Informatique</tspan><tspan y="46.345" x="8.7592239 39.995823 50.747883 63.747684 92.574341 110.31988 138.03424 158.24535 175.19838 202.07854 229.28311 256.9975">&amp; Interfaces</tspan><tspan y="473.601" x="450.52072 485.78934 513.50372 539.54968 557.53156 570.13739 598.59332">Gestion</tspan><tspan y="519.946" x="438.10022 467.52936 495.24374 505.99579 535.28589 553.04535 581.50122 594.10712 621.82147">de projet</tspan></text><text style="-inkscape-font-specification:Inter-Regular" transform="matrix(1.33333 0 0 1.33333 949.612 887.825)" font-weight="400" font-size="37.607" font-family="Inter"><tspan y="0" x="0 9.9282742 42.608845 63.819248 86.72197 95.634857 117.63501 139.52234 153.51218 164.07977 185.9671 199.6561 210.22369 232.11102 241.02391 262.23431 285.58832 308.03976 321.39404 343.28137 357.27121">Imaginer et élaborer </tspan><tspan y="39.6" x="0 21.849726 43.84988 54.417473 77.771484 99.621208 119.28972 128.20261 150.20276 172.09009 191.75861 211.42711 221.99471 254.67528 277.12671 300.48074 322.36807">un business model</tspan><tspan y="0" x="-652.18231 -628.18903 -614.5 -600.51019 -578.66046 -557.67566 -543.98669 -522.13696 -508.78268 -486.89536 -472.90552 -462.33792 -440.45059 -426.7616 -416.194 -393.29129 -384.37842 -363.168 -341.16785 -332.25497 -318.6788 -309.76593 -287.85602">Structurer et planifier</tspan><tspan y="39.6" x="-690.05267 -666.69867 -644.81134 -625.14282 -614.57526 -591.67249 -578.31824 -555.86676 -546.95392 -525.04401 -511.74237 -492.07385 -481.50626 -459.5061 -437.65637 -404.97583 -383.08847 -369.09863 -360.18576 -337.26047 -315.41074 -293.52341">des projets numériques</tspan><tspan y="-263.475" x="-694.07666 -666.73627 -644.30365 -622.30347 -601.31873 -580.05566 -559.86444 -537.41296 -528.50012 -514.51025 -503.94266 -480.58865 -458.70132 -439.03281">Concevoir des </tspan><tspan y="-223.875" x="-696.59631 -687.68341 -665.68329 -652.21991 -630.33258 -615.05658 -602.07465 -580.8642 -559.87946 -537.99213 -518.32361 -507.75601 -494.14224 -466.27539 -442.13162">interfaces (UX</tspan></text><text style="-inkscape-font-specification:Inter-Medium" transform="matrix(1.33333 0 0 1.33333 48.522 1309.827)" font-weight="500" font-size="39.61" font-family="Inter" fill="#e2051c"><tspan y="0" x="0 28.598419 52.126759 67.150833 89.688927 113.33609 128.07101 138.56766 153.06888 176.91411 200.44244 214.9397 238.19078 248.68742 258.55032 281.08841 291.58505 305.34161 329.18683 344.39706 379.39252 401.9306 416.6655 426.52841 450.37363 474.02078 484.96503 495.46167 520.25757 542.87488 564.55341 587.8045 597.66736 621.51257 645.95197 670.39136 693.6424 704.13904 728.93494 752.18597 773.41693">Durant toute la formation, développe des</tspan></text><g clip-path="url(#c)" font-size="39.61" fill="#e2051c" transform="matrix(1.33333 0 0 -1.33333 0 1379.52)"><text style="-inkscape-font-specification:Inter-Bold" transform="matrix(1 0 0 -1 36.392 12.66)" font-weight="700" font-family="Inter"><tspan y="0" x="0 23.25107 47.571609 83.69593 108.72945 132.41623 147.5829 171.26968 195.9071 219.15817 242.84496 265.10577 274.29529 289.47385 313.16061 323.93454 346.90836 362.27701 373.05093 397.37149 422.00891 446.64633 470.3331 481.10703 491.88095 515.56775">compétences relationnelles</tspan></text><text style="-inkscape-font-specification:Inter-Medium" transform="matrix(1 0 0 -1 584.717 12.66)" font-weight="500" font-family="Inter"><tspan y="0" x="0 23.25107 37.985989 48.482639 72.010979 95.65815 118.90922">et une</tspan></text><text style="-inkscape-font-specification:Inter-Bold" transform="matrix(1 0 0 -1 714.123 12.66)" font-weight="700" font-family="Inter"><tspan y="0" x="0 23.25107 47.888489 58.662411 74.03109 98.66851 113.84706 137.53384 146.72336 171.87572 182.64963 207.72276 218.49669 233.86536 256.83917 267.61307">culture digitale</tspan></text></g></svg>
