<?xml version="1.0" encoding="UTF-8" standalone="no"?><!DOCTYPE svg PUBLIC "-//W3C//DTD SVG 1.1//EN" "http://www.w3.org/Graphics/SVG/1.1/DTD/svg11.dtd"><svg viewbox="0 0 1116 1026" version="1.1" xmlns="http://www.w3.org/2000/svg" xmlns:xlink="http://www.w3.org/1999/xlink" xml:space="preserve" xmlns:serif="http://www.serif.com/" style="fill-rule:evenodd;clip-rule:evenodd;"><rect id="Plan-de-travail1" serif:id="Plan de travail1" x="0" y="0" width="1116" height="1025.55" style="fill:none;"/><g id="Calque-1" serif:id="Calque 1"><g transform="matrix(1,0,0,1,-15,-5)"><text x="213.154px" y="78.192px" style="font-family:'Inter-Regular', 'Inter', sans-serif;font-size:37.607px;">Pr<tspan x="250.387px " y="78.192px ">o</tspan>grammer</text><text x="223.948px" y="117.792px" style="font-family:'Inter-Regular', 'Inter', sans-serif;font-size:37.607px;">pour le w<tspan x="386.983px " y="117.792px ">e</tspan>b</text></g><g transform="matrix(1,0,0,1,-15,-5)"><text x="624.539px" y="34.201px" style="font-family:'Inter-Regular', 'Inter', sans-serif;font-size:37.607px;">Compr<tspan x="743.29px " y="34.201px ">e</tspan>ndr<tspan x="823.899px " y="34.201px ">e</tspan> le mark<tspan x="985.279px " y="34.201px ">e</tspan>ting</text><text x="624.539px" y="73.805px" style="font-family:'Inter-Regular', 'Inter', sans-serif;font-size:37.607px;">et la communication</text><text x="624.539px" y="113.409px" style="font-family:'Inter-Regular', 'Inter', sans-serif;font-size:37.607px;">digitale</text></g><g transform="matrix(1,0,0,1,-15,-5)"><text x="852.476px" y="402.42px" style="font-family:'Inter-Regular', 'Inter', sans-serif;font-size:37.607px;">Cr<tspan x="893.181px " y="402.42px ">é</tspan>er des</text><text x="852.476px" y="442.02px" style="font-family:'Inter-Regular', 'Inter', sans-serif;font-size:37.607px;">cont<tspan x="931.376px " y="442.02px ">e</tspan>nus</text><text x="852.476px" y="481.62px" style="font-family:'Inter-Regular', 'Inter', sans-serif;font-size:37.607px;">Gér<tspan x="915.671px " y="481.62px ">e</tspan>r des</text><text x="852.476px" y="521.221px" style="font-family:'Inter-Regular', 'Inter', sans-serif;font-size:37.607px;">campagnes</text></g><g transform="matrix(1,0,0,1,-15,-5)"><text x="808.745px" y="253.499px" style="font-family:'Inter-Bold', 'Inter';font-weight:700;font-size:46.345px;fill:#e2051c;">Mark<tspan x="922.88px " y="253.499px ">e</tspan>ting</text><text x="723.033px" y="299.844px" style="font-family:'Inter-Bold', 'Inter';font-weight:700;font-size:46.345px;fill:#e2051c;">&amp; Communication</text></g><g transform="matrix(1,0,0,1,-15,-5)"><text x="33.131px" y="252.499px" style="font-family:'Inter-Bold', 'Inter';font-weight:700;font-size:46.345px;fill:#e2051c;">Inf<tspan x="91.934px " y="252.499px ">o</tspan>rmatique</text><text x="41.895px" y="298.844px" style="font-family:'Inter-Bold', 'Inter';font-weight:700;font-size:46.345px;fill:#e2051c;">&amp; Int<tspan x="143.439px 171.138px 191.348px 208.299px " y="298.844px 298.844px 298.844px 298.844px ">erfa</tspan>ces</text></g><g transform="matrix(1,0,0,1,-15,-5)"><text x="483.805px" y="726.1px" style="font-family:'Inter-Bold', 'Inter';font-weight:700;font-size:46.345px;fill:#e2051c;">Gestion</text><text x="471.388px" y="772.445px" style="font-family:'Inter-Bold', 'Inter';font-weight:700;font-size:46.345px;fill:#e2051c;">de pr<tspan x="586.346px " y="772.445px ">o</tspan>jet</text></g><g transform="matrix(1,0,0,1,-15,-5)"><text x="712.209px" y="665.868px" style="font-family:'Inter-Regular', 'Inter', sans-serif;font-size:37.607px;">Imaginer et élabor<tspan x="1033.69px " y="665.868px ">e</tspan>r</text><text x="712.209px" y="705.469px" style="font-family:'Inter-Regular', 'Inter', sans-serif;font-size:37.607px;">un business model</text></g><g transform="matrix(1,0,0,1,-15,-5)"><text x="60.027px" y="665.868px" style="font-family:'Inter-Regular', 'Inter', sans-serif;font-size:37.607px;">Structur<tspan x="203.404px " y="665.868px ">e</tspan>r et planifier</text><text x="22.156px" y="705.469px" style="font-family:'Inter-Regular', 'Inter', sans-serif;font-size:37.607px;">des pr<tspan x="133.909px " y="705.469px ">o</tspan>jet<tspan x="200.47px " y="705.469px ">s</tspan> numériques</text></g><g transform="matrix(1,0,0,1,-15,-5)"><text x="18.132px" y="402.393px" style="font-family:'Inter-Regular', 'Inter', sans-serif;font-size:37.607px;">Conce<tspan x="132.182px 152.375px " y="402.393px 402.393px ">vo</tspan>ir des</text><text x="15.613px" y="441.993px" style="font-family:'Inter-Regular', 'Inter', sans-serif;font-size:37.607px;">int<tspan x="60.004px 81.906px 97.184px 110.165px " y="441.993px 441.993px 441.993px 441.993px ">erfa</tspan>ces (UX)</text></g><g transform="matrix(1,0,0,1,-15,-5)"><text x="36.142px" y="982.37px" style="font-family:'Inter-Medium', 'Inter';font-weight:500;font-size:39.61px;fill:#e2051c;">Dur<tspan x="103.293px " y="982.37px ">a</tspan>nt t<tspan x="189.222px " y="982.37px ">o</tspan>ut<tspan x="251.127px " y="982.37px ">e</tspan> la f<tspan x="341.544px " y="982.37px ">o</tspan>rmation,<tspan x="521.209px " y="982.37px "> </tspan>dé<tspan x="579.105px 600.781px " y="982.37px 982.37px ">ve</tspan>loppe des</text><text x="37.517px" y="1021.98px" style="font-family:'Inter-Bold', 'Inter';font-weight:700;font-size:39.61px;fill:#e2051c;">compét<tspan x="185.098px " y="1021.98px ">e</tspan>nces r<tspan x="326.954px " y="1021.98px ">e</tspan>lationnelles</text><text x="585.755px" y="1021.98px" style="font-family:'Inter-Medium', 'Inter';font-weight:500;font-size:39.61px;fill:#e2051c;">et une</text><text x="715.205px" y="1021.98px" style="font-family:'Inter-Bold', 'Inter';font-weight:700;font-size:39.61px;fill:#e2051c;">cultur<tspan x="829.07px " y="1021.98px ">e</tspan> digitale</text></g><path d="M628.693,252.732l-148.533,0l-74.267,128.633l74.267,128.634l148.533,0l74.267,-128.634l-74.267,-128.633Z" style="fill:#ffd7d5;fill-rule:nonzero;"/><path d="M333.198,382.304l73.109,0" style="fill:none;fill-rule:nonzero;stroke:#e2051c;stroke-width:2.58px;"/><path d="M333.198,376.494l0,11.619" style="fill:none;fill-rule:nonzero;stroke:#e2051c;stroke-width:2.58px;"/><path d="M407.599,382.304l73.109,0" style="fill:none;fill-rule:nonzero;stroke:#e2051c;stroke-width:2.58px;"/><path d="M407.599,376.494l0,11.619" style="fill:none;fill-rule:nonzero;stroke:#e2051c;stroke-width:2.58px;"/><path d="M482,382.304l73.108,0" style="fill:none;fill-rule:nonzero;stroke:#e2051c;stroke-width:2.58px;"/><path d="M482,376.494l0,11.619" style="fill:none;fill-rule:nonzero;stroke:#e2051c;stroke-width:2.58px;"/><path d="M666.228,574.697l-36.557,-63.314" style="fill:none;fill-rule:nonzero;stroke:#e2051c;stroke-width:2.58px;"/><path d="M661.196,577.602l10.063,-5.81" style="fill:none;fill-rule:nonzero;stroke:#e2051c;stroke-width:2.58px;"/><path d="M629.027,510.264l-36.556,-63.315" style="fill:none;fill-rule:nonzero;stroke:#e2051c;stroke-width:2.58px;"/><path d="M623.996,513.168l10.063,-5.81" style="fill:none;fill-rule:nonzero;stroke:#e2051c;stroke-width:2.58px;"/><path d="M591.827,445.831l-36.556,-63.315" style="fill:none;fill-rule:nonzero;stroke:#e2051c;stroke-width:2.58px;"/><path d="M586.796,448.736l10.063,-5.81" style="fill:none;fill-rule:nonzero;stroke:#e2051c;stroke-width:2.58px;"/><path d="M777.02,382.305l-73.11,0" style="fill:none;fill-rule:nonzero;stroke:#e2051c;stroke-width:2.58px;"/><path d="M777.02,388.115l0,-11.619" style="fill:none;fill-rule:nonzero;stroke:#e2051c;stroke-width:2.58px;"/><path d="M702.619,382.305l-73.109,0" style="fill:none;fill-rule:nonzero;stroke:#e2051c;stroke-width:2.58px;"/><path d="M702.619,388.115l0,-11.619" style="fill:none;fill-rule:nonzero;stroke:#e2051c;stroke-width:2.58px;"/><path d="M628.219,382.305l-73.109,0" style="fill:none;fill-rule:nonzero;stroke:#e2051c;stroke-width:2.58px;"/><path d="M628.219,388.115l0,-11.619" style="fill:none;fill-rule:nonzero;stroke:#e2051c;stroke-width:2.58px;"/><path d="M443.879,574.697l36.557,-63.314" style="fill:none;fill-rule:nonzero;stroke:#e2051c;stroke-width:2.58px;"/><path d="M438.848,571.791l10.063,5.81" style="fill:none;fill-rule:nonzero;stroke:#e2051c;stroke-width:2.58px;"/><path d="M481.079,510.264l36.557,-63.315" style="fill:none;fill-rule:nonzero;stroke:#e2051c;stroke-width:2.58px;"/><path d="M476.048,507.359l10.063,5.81" style="fill:none;fill-rule:nonzero;stroke:#e2051c;stroke-width:2.58px;"/><path d="M518.279,445.831l36.557,-63.315" style="fill:none;fill-rule:nonzero;stroke:#e2051c;stroke-width:2.58px;"/><path d="M513.248,442.926l10.063,5.81" style="fill:none;fill-rule:nonzero;stroke:#e2051c;stroke-width:2.58px;"/><path d="M443.879,190.101l36.557,63.314" style="fill:none;fill-rule:nonzero;stroke:#e2051c;stroke-width:2.58px;"/><path d="M448.91,187.196l-10.063,5.81" style="fill:none;fill-rule:nonzero;stroke:#e2051c;stroke-width:2.58px;"/><path d="M481.079,254.534l36.557,63.315" style="fill:none;fill-rule:nonzero;stroke:#e2051c;stroke-width:2.58px;"/><path d="M486.11,251.628l-10.063,5.81" style="fill:none;fill-rule:nonzero;stroke:#e2051c;stroke-width:2.58px;"/><path d="M518.279,318.966l36.557,63.315" style="fill:none;fill-rule:nonzero;stroke:#e2051c;stroke-width:2.58px;"/><path d="M523.31,316.062l-10.063,5.81" style="fill:none;fill-rule:nonzero;stroke:#e2051c;stroke-width:2.58px;"/><path d="M665.624,190.937l-36.557,63.315" style="fill:none;fill-rule:nonzero;stroke:#e2051c;stroke-width:2.58px;"/><path d="M670.655,193.842l-10.063,-5.81" style="fill:none;fill-rule:nonzero;stroke:#e2051c;stroke-width:2.58px;"/><path d="M628.424,255.369l-36.556,63.315" style="fill:none;fill-rule:nonzero;stroke:#e2051c;stroke-width:2.58px;"/><path d="M633.455,258.275l-10.063,-5.81" style="fill:none;fill-rule:nonzero;stroke:#e2051c;stroke-width:2.58px;"/><path d="M591.224,319.803l-36.557,63.314" style="fill:none;fill-rule:nonzero;stroke:#e2051c;stroke-width:2.58px;"/><path d="M596.255,322.707l-10.063,-5.81" style="fill:none;fill-rule:nonzero;stroke:#e2051c;stroke-width:2.58px;"/></g></svg>
