<svg id="b6c36b29-e76b-4746-84a7-fabd61a402f9" data-name="Calque 1" xmlns="http://www.w3.org/2000/svg" xmlns:xlink="http://www.w3.org/1999/xlink" viewBox="0 0 1555.64 1538.59"><defs><clipPath id="be06d5ae-25bd-4cde-b5af-2b47f23fb4a1" transform="translate(-33.7 0)"><rect width="1635.65" height="1574.27" style="fill:none"/></clipPath><clipPath id="a865ab07-1e45-4f35-8d65-8d95372f933c" transform="translate(-33.7 0)"><rect width="1635.65" height="1574.27" style="fill:none"/></clipPath><clipPath id="a6f6501b-6491-4be3-b248-aa8f8c8c5137" transform="translate(-33.7 0)"><rect x="335.72" y="325.68" width="420.79" height="129.83" style="fill:none"/></clipPath><clipPath id="b10ff1d7-d6e5-4f33-8e54-5e240580fa34" transform="translate(-33.7 0)"><rect x="335.72" y="1096.68" width="420.79" height="129.83" style="fill:none"/></clipPath><clipPath id="fc5b3894-e7d0-4c1b-847b-7452a6d87f61" transform="translate(-33.7 0)"><rect x="855.39" y="1096.68" width="420.8" height="129.83" style="fill:none"/></clipPath><clipPath id="aed5894a-2711-4a15-8940-5f266f8e5412" transform="translate(-33.7 0)"><rect y="714.84" width="515.9" height="147.92" style="fill:none"/></clipPath><clipPath id="a111765c-456b-4e11-bdae-d2b4bbff38ca" transform="translate(-33.7 0)"><rect x="1119.75" y="714.84" width="515.9" height="147.92" style="fill:none"/></clipPath><clipPath id="a4eae8e1-0ab8-4641-bdbf-c0d8f7a25358" transform="translate(-33.7 0)"><rect x="858.21" y="325.68" width="420.8" height="129.83" style="fill:none"/></clipPath><clipPath id="a896542d-7b63-4786-91a8-135a10e99be7" transform="translate(-33.7 0)"><rect x="557.01" y="556.38" width="500.5" height="425.85" style="fill:none"/></clipPath></defs><g style="clip-path:url(#be06d5ae-25bd-4cde-b5af-2b47f23fb4a1)"><path d="M711.49,1477.24a13,13,0,0,0,6.55,1.84c3.73,0,5.91-2,5.91-4.82,0-2.65-1.51-4.16-5.33-5.62-4.61-1.64-7.46-4-7.46-8,0-4.4,3.65-7.67,9.14-7.67a12.88,12.88,0,0,1,6.25,1.38l-1,3a11.37,11.37,0,0,0-5.37-1.34c-3.86,0-5.33,2.31-5.33,4.23,0,2.65,1.72,4,5.62,5.46,4.78,1.84,7.21,4.15,7.21,8.3,0,4.37-3.22,8.14-9.89,8.14a14.7,14.7,0,0,1-7.22-1.8Z" transform="translate(-33.7 0)" style="fill:#1d1d1b"/><path d="M751.13,1471.36c0,7.51-5.2,10.78-10.11,10.78-5.5,0-9.73-4-9.73-10.44,0-6.8,4.44-10.78,10.07-10.78C747.19,1460.92,751.13,1465.15,751.13,1471.36Zm-16.11.21c0,4.45,2.56,7.8,6.17,7.8s6.16-3.31,6.16-7.88c0-3.44-1.72-7.8-6.08-7.8S735,1467.71,735,1471.57Z" transform="translate(-33.7 0)" style="fill:#1d1d1b"/><path d="M756.16,1481.68v-17.49h-2.85v-2.81h2.85v-1c0-2.85.63-5.45,2.35-7.08a7,7,0,0,1,5-1.89,8.38,8.38,0,0,1,3.14.59l-.5,2.85a5.56,5.56,0,0,0-2.35-.46c-3.15,0-3.94,2.76-3.94,5.87v1.09h4.91v2.81h-4.91v17.49Z" transform="translate(-33.7 0)" style="fill:#1d1d1b"/><path d="M772.93,1455.55v5.83h5.29v2.81h-5.29v11c0,2.52.72,3.94,2.77,3.94a8.46,8.46,0,0,0,2.14-.25l.17,2.77a9.13,9.13,0,0,1-3.27.5,5.11,5.11,0,0,1-4-1.55c-1-1.09-1.42-2.89-1.42-5.29v-11.07h-3.15v-2.81h3.15v-4.87Z" transform="translate(-33.7 0)" style="fill:#1d1d1b"/><path d="M790.76,1477.91a9.7,9.7,0,0,0,4.86,1.46c2.69,0,4-1.34,4-3s-1.05-2.72-3.78-3.73c-3.65-1.3-5.37-3.31-5.37-5.75,0-3.27,2.64-5.95,7-5.95a10.15,10.15,0,0,1,5,1.26l-.92,2.68a8,8,0,0,0-4.16-1.17c-2.18,0-3.39,1.26-3.39,2.76,0,1.68,1.21,2.44,3.85,3.44,3.53,1.35,5.33,3.11,5.33,6.13,0,3.56-2.77,6.08-7.59,6.08a11.61,11.61,0,0,1-5.71-1.38Z" transform="translate(-33.7 0)" style="fill:#1d1d1b"/><path d="M811.52,1470.69h.08c.5-.71,1.22-1.59,1.8-2.31l6-7h4.45l-7.85,8.35,8.94,12h-4.49l-7-9.73-1.88,2.1v7.63h-3.65V1451.9h3.65Z" transform="translate(-33.7 0)" style="fill:#1d1d1b"/><path d="M832.32,1455.67a2.29,2.29,0,0,1-4.57,0,2.24,2.24,0,0,1,2.3-2.3A2.19,2.19,0,0,1,832.32,1455.67Zm-4.11,26v-20.3h3.69v20.3Z" transform="translate(-33.7 0)" style="fill:#1d1d1b"/><path d="M838,1451.9h3.69v29.78H838Z" transform="translate(-33.7 0)" style="fill:#1d1d1b"/><path d="M847.92,1451.9h3.69v29.78h-3.69Z" transform="translate(-33.7 0)" style="fill:#1d1d1b"/><path d="M857.31,1477.91a9.7,9.7,0,0,0,4.87,1.46c2.68,0,3.94-1.34,3.94-3s-1-2.72-3.77-3.73c-3.65-1.3-5.37-3.31-5.37-5.75,0-3.27,2.64-5.95,7-5.95a10.12,10.12,0,0,1,5,1.26l-.92,2.68a7.93,7.93,0,0,0-4.15-1.17c-2.18,0-3.4,1.26-3.4,2.76,0,1.68,1.22,2.44,3.86,3.44,3.52,1.35,5.33,3.11,5.33,6.13,0,3.56-2.77,6.08-7.6,6.08a11.57,11.57,0,0,1-5.7-1.38Z" transform="translate(-33.7 0)" style="fill:#1d1d1b"/><path d="M901.14,1481.68c-.8-.8-1.55-1.59-2.64-2.77a11.56,11.56,0,0,1-8.26,3.23c-5.5,0-8.69-3.69-8.69-7.93,0-3.85,2.31-6.5,5.54-8.26v-.12a9.74,9.74,0,0,1-2.35-5.92,6.86,6.86,0,0,1,7.17-7c3.53,0,6.25,2.35,6.25,6,0,3-1.72,5.32-6.2,7.55v.12c2.39,2.77,5.07,5.87,6.87,7.89a20.65,20.65,0,0,0,2.73-8.27h3.36c-.76,4.45-2,8-4.07,10.45,1.51,1.59,3,3.19,4.65,5Zm-4.44-4.86c-1.68-1.85-4.83-5.29-8-8.9-1.51,1-3.65,2.77-3.65,5.75a5.57,5.57,0,0,0,5.78,5.7A8,8,0,0,0,896.7,1476.82Zm-8.6-17.24a7.9,7.9,0,0,0,2.14,5.07c2.85-1.63,4.69-3.14,4.69-5.54,0-1.72-1-3.65-3.27-3.65S888.1,1457.39,888.1,1459.58Z" transform="translate(-33.7 0)" style="fill:#1d1d1b"/><g style="clip-path:url(#a865ab07-1e45-4f35-8d65-8d95372f933c)"><g style="opacity:0.75"><g style="clip-path:url(#a6f6501b-6491-4be3-b248-aa8f8c8c5137)"><path d="M411.87,339.67a42.9,42.9,0,0,1,7-.54c3.61,0,6.25.83,7.93,2.34a7.62,7.62,0,0,1,2.47,5.92,8.31,8.31,0,0,1-2.18,6c-1.93,2.05-5.07,3.1-8.64,3.1a12.59,12.59,0,0,1-2.94-.25v11.33h-3.65Zm3.65,13.63a12.24,12.24,0,0,0,3,.3c4.41,0,7.09-2.14,7.09-6,0-3.74-2.64-5.54-6.67-5.54a15.9,15.9,0,0,0-3.44.29Z" transform="translate(-33.7 0)" style="fill:#1d1d1b"/><path d="M433.39,353.64c0-2.39,0-4.45-.17-6.34h3.23l.13,4h.17a6.08,6.08,0,0,1,5.62-4.45,4,4,0,0,1,1,.13v3.48a5.7,5.7,0,0,0-1.25-.12c-2.6,0-4.45,2-5,4.73a9.92,9.92,0,0,0-.17,1.72v10.83h-3.65Z" transform="translate(-33.7 0)" style="fill:#1d1d1b"/><path d="M465.1,357.29c0,7.51-5.2,10.78-10.11,10.78-5.5,0-9.73-4-9.73-10.45,0-6.79,4.44-10.78,10.06-10.78C461.15,346.84,465.1,351.08,465.1,357.29ZM449,357.5c0,4.44,2.56,7.8,6.17,7.8s6.16-3.31,6.16-7.89c0-3.44-1.72-7.8-6.08-7.8S449,353.64,449,357.5Z" transform="translate(-33.7 0)" style="fill:#1d1d1b"/><path d="M487.24,347.3c-.08,1.47-.17,3.11-.17,5.58v11.79c0,4.66-.92,7.51-2.89,9.27s-4.82,2.43-7.38,2.43A13.13,13.13,0,0,1,470,374.7l.93-2.81a11.52,11.52,0,0,0,5.95,1.59c3.78,0,6.55-2,6.55-7.09v-2.26h-.09a7.25,7.25,0,0,1-6.46,3.39c-5,0-8.64-4.28-8.64-9.9,0-6.88,4.49-10.78,9.15-10.78a6.75,6.75,0,0,1,6.33,3.53h.08l.17-3.07Zm-3.82,8a5.5,5.5,0,0,0-.2-1.68,5.33,5.33,0,0,0-5.17-3.9c-3.52,0-6,3-6,7.67,0,4,2,7.3,6,7.3a5.39,5.39,0,0,0,5.12-3.77,6.4,6.4,0,0,0,.29-2Z" transform="translate(-33.7 0)" style="fill:#1d1d1b"/><path d="M493,353.64c0-2.39,0-4.45-.16-6.34h3.23l.12,4h.17a6.09,6.09,0,0,1,5.62-4.45A4.19,4.19,0,0,1,503,347v3.48a5.86,5.86,0,0,0-1.26-.12c-2.6,0-4.45,2-4.95,4.73a11,11,0,0,0-.17,1.72v10.83H493Z" transform="translate(-33.7 0)" style="fill:#1d1d1b"/><path d="M517.73,367.61l-.29-2.56h-.13a7.56,7.56,0,0,1-6.21,3c-4.11,0-6.21-2.9-6.21-5.83,0-4.91,4.37-7.59,12.21-7.55v-.42c0-1.68-.46-4.7-4.61-4.7a10.16,10.16,0,0,0-5.29,1.51l-.84-2.43a12.61,12.61,0,0,1,6.67-1.81c6.21,0,7.72,4.24,7.72,8.31v7.59a27.83,27.83,0,0,0,.34,4.87Zm-.55-10.36c-4-.09-8.59.63-8.59,4.57a3.26,3.26,0,0,0,3.48,3.52,5,5,0,0,0,4.9-3.4,3.65,3.65,0,0,0,.21-1.17Z" transform="translate(-33.7 0)" style="fill:#1d1d1b"/><path d="M526.7,352.8c0-2.1,0-3.82-.16-5.5h3.22l.17,3.28h.13a7,7,0,0,1,6.37-3.74,6,6,0,0,1,5.75,4.07h.08a8.4,8.4,0,0,1,2.27-2.64,7,7,0,0,1,4.49-1.43c2.68,0,6.67,1.76,6.67,8.81v12h-3.61v-11.5c0-3.9-1.43-6.25-4.4-6.25a4.8,4.8,0,0,0-4.37,3.36,6.28,6.28,0,0,0-.29,1.84v12.55h-3.61V355.44c0-3.23-1.42-5.58-4.23-5.58a5.06,5.06,0,0,0-4.58,3.69,5.13,5.13,0,0,0-.29,1.81v12.25H526.7Z" transform="translate(-33.7 0)" style="fill:#1d1d1b"/><path d="M561.68,352.8c0-2.1,0-3.82-.17-5.5h3.23l.17,3.28H565a7,7,0,0,1,6.37-3.74,6,6,0,0,1,5.75,4.07h.08a8.4,8.4,0,0,1,2.27-2.64,6.94,6.94,0,0,1,4.49-1.43c2.68,0,6.66,1.76,6.66,8.81v12h-3.6v-11.5c0-3.9-1.43-6.25-4.41-6.25a4.78,4.78,0,0,0-4.36,3.36,6,6,0,0,0-.29,1.84v12.55h-3.61V355.44c0-3.23-1.43-5.58-4.24-5.58a5.06,5.06,0,0,0-4.57,3.69,5.13,5.13,0,0,0-.29,1.81v12.25h-3.61Z" transform="translate(-33.7 0)" style="fill:#1d1d1b"/><path d="M607.9,367.61l-.3-2.56h-.12a7.56,7.56,0,0,1-6.21,3c-4.11,0-6.21-2.9-6.21-5.83,0-4.91,4.36-7.59,12.21-7.55v-.42c0-1.68-.46-4.7-4.61-4.7a10.16,10.16,0,0,0-5.29,1.51l-.84-2.43a12.61,12.61,0,0,1,6.67-1.81c6.21,0,7.72,4.24,7.72,8.31v7.59a28.91,28.91,0,0,0,.33,4.87Zm-.55-10.36c-4-.09-8.6.63-8.6,4.57a3.27,3.27,0,0,0,3.49,3.52,5,5,0,0,0,4.9-3.4,3.65,3.65,0,0,0,.21-1.17Z" transform="translate(-33.7 0)" style="fill:#1d1d1b"/><path d="M621.15,341.47v5.83h5.29v2.82h-5.29v10.94c0,2.52.71,3.95,2.77,3.95a8,8,0,0,0,2.14-.26l.17,2.77A8.94,8.94,0,0,1,623,368a5.1,5.1,0,0,1-4-1.56c-1.05-1.09-1.43-2.89-1.43-5.28V350.12H614.4V347.3h3.14v-4.86Z" transform="translate(-33.7 0)" style="fill:#1d1d1b"/><path d="M634.7,341.6a2.29,2.29,0,0,1-4.58,0,2.26,2.26,0,0,1,2.31-2.31A2.2,2.2,0,0,1,634.7,341.6Zm-4.11,26V347.3h3.69v20.31Z" transform="translate(-33.7 0)" style="fill:#1d1d1b"/><path d="M658.77,357.29c0,7.51-5.2,10.78-10.11,10.78-5.49,0-9.73-4-9.73-10.45,0-6.79,4.45-10.78,10.07-10.78C654.83,346.84,658.77,351.08,658.77,357.29Zm-16.11.21c0,4.44,2.56,7.8,6.17,7.8S655,362,655,357.41c0-3.44-1.72-7.8-6.09-7.8S642.66,353.64,642.66,357.5Z" transform="translate(-33.7 0)" style="fill:#1d1d1b"/><path d="M663.42,352.8c0-2.1,0-3.82-.16-5.5h3.27l.21,3.36h.08a7.48,7.48,0,0,1,6.71-3.82c2.81,0,7.17,1.68,7.17,8.64v12.13H677V355.9c0-3.27-1.21-6-4.69-6a5.44,5.44,0,0,0-5.21,5.49v12.21h-3.69Z" transform="translate(-33.7 0)" style="fill:#1d1d1b"/><path d="M425.38,397.63,428.06,408c.59,2.27,1.14,4.36,1.51,6.46h.13c.46-2.06,1.13-4.24,1.8-6.42l3.32-10.36h3.1l3.15,10.15c.75,2.44,1.34,4.57,1.8,6.63H443a59.6,59.6,0,0,1,1.55-6.58l2.89-10.2h3.65l-6.54,20.3h-3.36l-3.1-9.69a67.08,67.08,0,0,1-1.8-6.66h-.09a60.69,60.69,0,0,1-1.84,6.71l-3.28,9.64h-3.35l-6.13-20.3Z" transform="translate(-33.7 0)" style="fill:#1d1d1b"/><path d="M456.46,408.45c.08,5,3.27,7.05,7,7.05a13.29,13.29,0,0,0,5.62-1.05l.63,2.65a16.61,16.61,0,0,1-6.75,1.25c-6.25,0-10-4.11-10-10.23s3.61-10.95,9.52-10.95c6.63,0,8.39,5.83,8.39,9.56a14.38,14.38,0,0,1-.12,1.72Zm10.82-2.64c0-2.35-1-6-5.12-6-3.73,0-5.37,3.44-5.66,6Z" transform="translate(-33.7 0)" style="fill:#1d1d1b"/><path d="M475.24,417.93c.09-1.38.17-3.44.17-5.24V388.15h3.65V400.9h.08a7.59,7.59,0,0,1,6.93-3.73c5,0,8.6,4.2,8.55,10.36,0,7.26-4.57,10.87-9.1,10.87a7.24,7.24,0,0,1-6.79-3.82h-.13l-.17,3.35Zm3.82-8.13a6.46,6.46,0,0,0,.17,1.34,5.69,5.69,0,0,0,5.54,4.32c3.86,0,6.16-3.15,6.16-7.8,0-4.07-2.09-7.55-6-7.55a5.89,5.89,0,0,0-5.62,4.53,7.52,7.52,0,0,0-.21,1.51Z" transform="translate(-33.7 0)" style="fill:#1d1d1b"/><path d="M510.22,408.45c.08,5,3.27,7.05,7,7.05a13.26,13.26,0,0,0,5.62-1.05l.63,2.65a16.58,16.58,0,0,1-6.75,1.25c-6.25,0-10-4.11-10-10.23s3.6-10.95,9.52-10.95c6.63,0,8.39,5.83,8.39,9.56a13.93,13.93,0,0,1-.13,1.72ZM521,405.81c0-2.35-1-6-5.12-6-3.73,0-5.36,3.44-5.66,6Z" transform="translate(-33.7 0)" style="fill:#1d1d1b"/><path d="M533.62,391.8v5.83h5.29v2.81h-5.29v10.95c0,2.52.72,3.94,2.77,3.94a8.07,8.07,0,0,0,2.14-.25l.17,2.77a9.17,9.17,0,0,1-3.27.5,5.11,5.11,0,0,1-4-1.55c-1.05-1.09-1.43-2.89-1.43-5.28V400.44h-3.14v-2.81H530v-4.86Z" transform="translate(-33.7 0)" style="fill:#1d1d1b"/><path d="M552,403.13c0-2.1,0-3.82-.17-5.5H555l.17,3.27h.12a7,7,0,0,1,6.38-3.73,6,6,0,0,1,5.75,4.07h.08a8.4,8.4,0,0,1,2.27-2.64,6.85,6.85,0,0,1,4.48-1.43c2.69,0,6.67,1.76,6.67,8.81v11.95h-3.6V406.44c0-3.9-1.43-6.25-4.41-6.25a4.77,4.77,0,0,0-4.36,3.36,6,6,0,0,0-.3,1.84v12.54h-3.6V405.77c0-3.23-1.43-5.58-4.24-5.58a5,5,0,0,0-4.57,3.69,5.13,5.13,0,0,0-.29,1.81v12.24H552Z" transform="translate(-33.7 0)" style="fill:#1d1d1b"/><path d="M605.3,407.62c0,7.5-5.2,10.78-10.11,10.78-5.5,0-9.73-4-9.73-10.45,0-6.79,4.44-10.78,10.06-10.78C601.35,397.17,605.3,401.41,605.3,407.62Zm-16.11.21c0,4.44,2.56,7.8,6.17,7.8s6.16-3.32,6.16-7.89c0-3.44-1.72-7.8-6.08-7.8S589.19,404,589.19,407.83Z" transform="translate(-33.7 0)" style="fill:#1d1d1b"/><path d="M609.78,417.93c.09-1.38.17-3.44.17-5.24V388.15h3.65V400.9h.08a7.57,7.57,0,0,1,6.92-3.73c5,0,8.6,4.2,8.56,10.36,0,7.26-4.57,10.87-9.1,10.87a7.25,7.25,0,0,1-6.8-3.82h-.12l-.17,3.35Zm3.82-8.13a6.46,6.46,0,0,0,.17,1.34,5.69,5.69,0,0,0,5.53,4.32c3.86,0,6.17-3.15,6.17-7.8,0-4.07-2.1-7.55-6-7.55a5.88,5.88,0,0,0-5.62,4.53,6.86,6.86,0,0,0-.21,1.51Z" transform="translate(-33.7 0)" style="fill:#1d1d1b"/><path d="M637.92,391.93a2.29,2.29,0,0,1-4.57,0,2.26,2.26,0,0,1,2.31-2.31A2.19,2.19,0,0,1,637.92,391.93Zm-4.11,26v-20.3h3.69v20.3Z" transform="translate(-33.7 0)" style="fill:#1d1d1b"/><path d="M643.63,388.15h3.69v29.78h-3.69Z" transform="translate(-33.7 0)" style="fill:#1d1d1b"/><path d="M655.58,408.45c.08,5,3.27,7.05,7,7.05a13.29,13.29,0,0,0,5.62-1.05l.63,2.65a16.58,16.58,0,0,1-6.75,1.25c-6.25,0-10-4.11-10-10.23s3.61-10.95,9.53-10.95c6.62,0,8.39,5.83,8.39,9.56a13.93,13.93,0,0,1-.13,1.72Zm10.82-2.64c0-2.35-1-6-5.12-6-3.73,0-5.37,3.44-5.66,6Z" transform="translate(-33.7 0)" style="fill:#1d1d1b"/></g></g></g><path d="M164.53,556.2h-12.3v-4.44h29.94v4.44H169.81v36h-5.28Z" transform="translate(-33.7 0)" style="fill:#e30613"/><path d="M185.23,578.64c.12,7.14,4.68,10.08,10,10.08a19.09,19.09,0,0,0,8-1.5l.9,3.78a23.52,23.52,0,0,1-9.66,1.8c-8.94,0-14.28-5.88-14.28-14.64s5.16-15.66,13.62-15.66c9.48,0,12,8.34,12,13.68a19.91,19.91,0,0,1-.18,2.46Zm15.48-3.78c.06-3.36-1.38-8.58-7.32-8.58-5.34,0-7.68,4.92-8.1,8.58Z" transform="translate(-33.7 0)" style="fill:#e30613"/><path d="M233.05,591.12a19.45,19.45,0,0,1-8.34,1.68c-8.76,0-14.46-5.94-14.46-14.82s6.12-15.42,15.6-15.42a17.65,17.65,0,0,1,7.32,1.5l-1.2,4.08a12.24,12.24,0,0,0-6.12-1.38c-6.66,0-10.26,4.92-10.26,11,0,6.72,4.32,10.86,10.08,10.86a15,15,0,0,0,6.48-1.44Z" transform="translate(-33.7 0)" style="fill:#e30613"/><path d="M239.23,549.6h5.28v18.12h.12a9.8,9.8,0,0,1,3.78-3.72,10.87,10.87,0,0,1,5.4-1.5c3.9,0,10.14,2.4,10.14,12.42V592.2h-5.28V575.52c0-4.68-1.74-8.64-6.72-8.64a7.59,7.59,0,0,0-7.08,5.28,6.39,6.39,0,0,0-.36,2.52V592.2h-5.28Z" transform="translate(-33.7 0)" style="fill:#e30613"/><path d="M272.53,571c0-3-.06-5.46-.24-7.86H277l.3,4.8h.12a10.68,10.68,0,0,1,9.6-5.46c4,0,10.26,2.4,10.26,12.36V592.2H292V575.46c0-4.68-1.74-8.58-6.72-8.58a7.5,7.5,0,0,0-7.08,5.4,7.59,7.59,0,0,0-.36,2.46V592.2h-5.28Z" transform="translate(-33.7 0)" style="fill:#e30613"/><path d="M332.11,577.44c0,10.74-7.44,15.42-14.46,15.42-7.86,0-13.92-5.76-13.92-14.94,0-9.72,6.36-15.42,14.4-15.42C326.47,562.5,332.11,568.56,332.11,577.44Zm-23,.3c0,6.36,3.66,11.16,8.82,11.16s8.82-4.74,8.82-11.28c0-4.92-2.46-11.16-8.7-11.16S309.07,572.22,309.07,577.74Z" transform="translate(-33.7 0)" style="fill:#e30613"/><path d="M338.77,549.6h5.28v42.6h-5.28Z" transform="translate(-33.7 0)" style="fill:#e30613"/><path d="M379.21,577.44c0,10.74-7.44,15.42-14.46,15.42-7.86,0-13.92-5.76-13.92-14.94,0-9.72,6.36-15.42,14.4-15.42C373.57,562.5,379.21,568.56,379.21,577.44Zm-23,.3c0,6.36,3.66,11.16,8.82,11.16s8.82-4.74,8.82-11.28c0-4.92-2.46-11.16-8.7-11.16S356.17,572.22,356.17,577.74Z" transform="translate(-33.7 0)" style="fill:#e30613"/><path d="M410.89,563.16c-.12,2.1-.24,4.44-.24,8V588c0,6.66-1.32,10.74-4.14,13.26s-6.9,3.48-10.56,3.48c-3.48,0-7.32-.84-9.66-2.4l1.32-4a16.38,16.38,0,0,0,8.52,2.28c5.4,0,9.36-2.82,9.36-10.14v-3.24h-.12a10.37,10.37,0,0,1-9.24,4.86c-7.2,0-12.36-6.12-12.36-14.16,0-9.84,6.42-15.42,13.08-15.42,5,0,7.8,2.64,9.06,5H406l.24-4.38Zm-5.46,11.46a7.52,7.52,0,0,0-.3-2.4,7.61,7.61,0,0,0-7.38-5.58c-5,0-8.64,4.26-8.64,11,0,5.7,2.88,10.44,8.58,10.44a7.72,7.72,0,0,0,7.32-5.4,9.19,9.19,0,0,0,.42-2.82Z" transform="translate(-33.7 0)" style="fill:#e30613"/><path d="M424.93,555a3.27,3.27,0,0,1-6.54,0,3.22,3.22,0,0,1,3.3-3.3A3.13,3.13,0,0,1,424.93,555Zm-5.88,37.2v-29h5.28v29Z" transform="translate(-33.7 0)" style="fill:#e30613"/><path d="M436,578.64c.12,7.14,4.68,10.08,10,10.08a19.09,19.09,0,0,0,8-1.5l.9,3.78a23.52,23.52,0,0,1-9.66,1.8c-8.94,0-14.28-5.88-14.28-14.64s5.16-15.66,13.62-15.66c9.48,0,12,8.34,12,13.68a19.91,19.91,0,0,1-.18,2.46Zm15.48-3.78c.06-3.36-1.38-8.58-7.32-8.58-5.34,0-7.68,4.92-8.1,8.58Z" transform="translate(-33.7 0)" style="fill:#e30613"/><path d="M680.59,1314.48c-.3-5.64-.66-12.42-.6-17.46h-.18c-1.38,4.74-3.06,9.78-5.1,15.36L667.57,1332h-4l-6.54-19.26c-1.92-5.7-3.54-10.92-4.68-15.72h-.12c-.12,5-.42,11.82-.78,17.88l-1.08,17.34h-5l2.82-40.44h6.66l6.9,19.56c1.68,5,3.06,9.42,4.08,13.62h.18c1-4.08,2.46-8.52,4.26-13.62l7.2-19.56h6.66l2.52,40.44h-5.1Z" transform="translate(-33.7 0)" style="fill:#e30613"/><path d="M711,1332.24l-.42-3.66h-.18a10.82,10.82,0,0,1-8.88,4.32c-5.88,0-8.88-4.14-8.88-8.34,0-7,6.24-10.86,17.46-10.8v-.6c0-2.4-.66-6.72-6.6-6.72a14.47,14.47,0,0,0-7.56,2.16l-1.2-3.48a18,18,0,0,1,9.54-2.58c8.88,0,11,6.06,11,11.88v10.86a40.89,40.89,0,0,0,.48,7Zm-.78-14.82c-5.76-.12-12.3.9-12.3,6.54a4.67,4.67,0,0,0,5,5,7.23,7.23,0,0,0,7-4.86,5.51,5.51,0,0,0,.3-1.68Z" transform="translate(-33.7 0)" style="fill:#e30613"/><path d="M723.85,1311.06c0-3-.06-5.46-.24-7.86h4.68l.3,4.8h.12a10.68,10.68,0,0,1,9.6-5.46c4,0,10.26,2.4,10.26,12.36v17.34h-5.28V1315.5c0-4.68-1.74-8.58-6.72-8.58a7.5,7.5,0,0,0-7.08,5.4,7.59,7.59,0,0,0-.36,2.46v17.46h-5.28Z" transform="translate(-33.7 0)" style="fill:#e30613"/><path d="M773.23,1332.24l-.42-3.66h-.18a10.82,10.82,0,0,1-8.88,4.32c-5.88,0-8.88-4.14-8.88-8.34,0-7,6.24-10.86,17.46-10.8v-.6c0-2.4-.66-6.72-6.6-6.72a14.47,14.47,0,0,0-7.56,2.16l-1.2-3.48a18,18,0,0,1,9.54-2.58c8.88,0,11,6.06,11,11.88v10.86a40.89,40.89,0,0,0,.48,7Zm-.78-14.82c-5.76-.12-12.3.9-12.3,6.54a4.67,4.67,0,0,0,5,5,7.23,7.23,0,0,0,7-4.86,5.51,5.51,0,0,0,.3-1.68Z" transform="translate(-33.7 0)" style="fill:#e30613"/><path d="M811.09,1303.2c-.12,2.1-.24,4.44-.24,8V1328c0,6.66-1.32,10.74-4.14,13.26s-6.9,3.48-10.56,3.48c-3.48,0-7.32-.84-9.66-2.4l1.32-4a16.38,16.38,0,0,0,8.52,2.28c5.4,0,9.36-2.82,9.36-10.14v-3.24h-.12a10.37,10.37,0,0,1-9.24,4.86c-7.2,0-12.36-6.12-12.36-14.16,0-9.84,6.42-15.42,13.08-15.42,5,0,7.8,2.64,9.06,5h.12l.24-4.38Zm-5.46,11.46a7.52,7.52,0,0,0-.3-2.4,7.61,7.61,0,0,0-7.38-5.58c-5,0-8.64,4.26-8.64,11,0,5.7,2.88,10.44,8.58,10.44a7.72,7.72,0,0,0,7.32-5.4,9.19,9.19,0,0,0,.42-2.82Z" transform="translate(-33.7 0)" style="fill:#e30613"/><path d="M822.55,1318.68c.12,7.14,4.68,10.08,10,10.08a19.09,19.09,0,0,0,8-1.5l.9,3.78a23.52,23.52,0,0,1-9.66,1.8c-8.94,0-14.28-5.88-14.28-14.64s5.16-15.66,13.62-15.66c9.48,0,12,8.34,12,13.68a19.91,19.91,0,0,1-.18,2.46ZM838,1314.9c.06-3.36-1.38-8.58-7.32-8.58-5.34,0-7.68,4.92-8.1,8.58Z" transform="translate(-33.7 0)" style="fill:#e30613"/><path d="M849.67,1311.06c0-3-.06-5.46-.24-7.86h4.62l.24,4.68h.18a10,10,0,0,1,9.12-5.34,8.58,8.58,0,0,1,8.22,5.82h.12a12,12,0,0,1,3.24-3.78,9.91,9.91,0,0,1,6.42-2c3.84,0,9.54,2.52,9.54,12.6v17.1H886V1315.8c0-5.58-2-8.94-6.3-8.94a6.84,6.84,0,0,0-6.24,4.8,8.7,8.7,0,0,0-.42,2.64v17.94h-5.16v-17.4c0-4.62-2-8-6.06-8-3.3,0-5.7,2.64-6.54,5.28a7.28,7.28,0,0,0-.42,2.58v17.52h-5.16Z" transform="translate(-33.7 0)" style="fill:#e30613"/><path d="M902.65,1318.68c.12,7.14,4.68,10.08,10,10.08a19.09,19.09,0,0,0,8-1.5l.9,3.78a23.52,23.52,0,0,1-9.66,1.8c-8.94,0-14.28-5.88-14.28-14.64s5.16-15.66,13.62-15.66c9.48,0,12,8.34,12,13.68a19.91,19.91,0,0,1-.18,2.46Zm15.48-3.78c.06-3.36-1.38-8.58-7.32-8.58-5.34,0-7.68,4.92-8.1,8.58Z" transform="translate(-33.7 0)" style="fill:#e30613"/><path d="M929.77,1311.06c0-3-.06-5.46-.24-7.86h4.68l.3,4.8h.12a10.68,10.68,0,0,1,9.6-5.46c4,0,10.26,2.4,10.26,12.36v17.34h-5.28V1315.5c0-4.68-1.74-8.58-6.72-8.58a7.5,7.5,0,0,0-7.08,5.4,7.59,7.59,0,0,0-.36,2.46v17.46h-5.28Z" transform="translate(-33.7 0)" style="fill:#e30613"/><path d="M969.19,1294.86v8.34h7.56v4h-7.56v15.66c0,3.6,1,5.64,4,5.64a11.75,11.75,0,0,0,3.06-.36l.24,4a12.93,12.93,0,0,1-4.68.72,7.32,7.32,0,0,1-5.7-2.22c-1.5-1.56-2-4.14-2-7.56v-15.84h-4.5v-4H964v-7Z" transform="translate(-33.7 0)" style="fill:#e30613"/><path d="M1092.61,596.16a25.91,25.91,0,0,1-10.68,1.92c-11.4,0-20-7.2-20-20.46,0-12.66,8.58-21.24,21.12-21.24,5,0,8.22,1.08,9.6,1.8l-1.26,4.26a19,19,0,0,0-8.16-1.68c-9.48,0-15.78,6.06-15.78,16.68,0,9.9,5.7,16.26,15.54,16.26a20.89,20.89,0,0,0,8.52-1.68Z" transform="translate(-33.7 0)" style="fill:#e30613"/><path d="M1124.65,582.72c0,10.74-7.44,15.42-14.46,15.42-7.86,0-13.92-5.76-13.92-14.94,0-9.72,6.36-15.42,14.4-15.42C1119,567.78,1124.65,573.84,1124.65,582.72Zm-23,.3c0,6.36,3.66,11.16,8.82,11.16s8.82-4.74,8.82-11.28c0-4.92-2.46-11.16-8.7-11.16S1101.61,577.5,1101.61,583Z" transform="translate(-33.7 0)" style="fill:#e30613"/><path d="M1131.31,576.3c0-3-.06-5.46-.24-7.86h4.62l.24,4.68h.18a10,10,0,0,1,9.12-5.34,8.58,8.58,0,0,1,8.22,5.82h.12a12,12,0,0,1,3.24-3.78,9.91,9.91,0,0,1,6.42-2c3.84,0,9.54,2.52,9.54,12.6v17.1h-5.16V581c0-5.58-2-8.94-6.3-8.94a6.84,6.84,0,0,0-6.24,4.8,8.7,8.7,0,0,0-.42,2.64v17.94h-5.16v-17.4c0-4.62-2-8-6.06-8-3.3,0-5.7,2.64-6.54,5.28a7.28,7.28,0,0,0-.42,2.58v17.52h-5.16Z" transform="translate(-33.7 0)" style="fill:#e30613"/><path d="M1181.35,576.3c0-3-.06-5.46-.24-7.86h4.62l.24,4.68h.18a10,10,0,0,1,9.12-5.34,8.58,8.58,0,0,1,8.22,5.82h.12a12,12,0,0,1,3.24-3.78,9.91,9.91,0,0,1,6.42-2c3.84,0,9.54,2.52,9.54,12.6v17.1h-5.16V581c0-5.58-2-8.94-6.3-8.94a6.84,6.84,0,0,0-6.24,4.8,8.7,8.7,0,0,0-.42,2.64v17.94h-5.16v-17.4c0-4.62-2-8-6.06-8-3.3,0-5.7,2.64-6.54,5.28a7.28,7.28,0,0,0-.42,2.58v17.52h-5.16Z" transform="translate(-33.7 0)" style="fill:#e30613"/><path d="M1255.69,589.56c0,3,.06,5.64.24,7.92h-4.68l-.3-4.74h-.12a10.93,10.93,0,0,1-9.6,5.4c-4.56,0-10-2.52-10-12.72v-17h5.28v16.08c0,5.52,1.68,9.24,6.48,9.24a7.63,7.63,0,0,0,7-4.8,7.72,7.72,0,0,0,.48-2.7V568.44h5.28Z" transform="translate(-33.7 0)" style="fill:#e30613"/><path d="M1264.45,576.3c0-3-.06-5.46-.24-7.86h4.68l.3,4.8h.12a10.68,10.68,0,0,1,9.6-5.46c4,0,10.26,2.4,10.26,12.36v17.34h-5.28V580.74c0-4.68-1.74-8.58-6.72-8.58a7.5,7.5,0,0,0-7.08,5.4,7.59,7.59,0,0,0-.36,2.46v17.46h-5.28Z" transform="translate(-33.7 0)" style="fill:#e30613"/><path d="M1303.63,560.28a3.27,3.27,0,0,1-6.54,0,3.22,3.22,0,0,1,3.3-3.3A3.13,3.13,0,0,1,1303.63,560.28Zm-5.88,37.2v-29H1303v29Z" transform="translate(-33.7 0)" style="fill:#e30613"/><path d="M1332.49,596.4a19.45,19.45,0,0,1-8.34,1.68c-8.76,0-14.46-5.94-14.46-14.82s6.12-15.42,15.6-15.42a17.65,17.65,0,0,1,7.32,1.5l-1.2,4.08a12.24,12.24,0,0,0-6.12-1.38c-6.66,0-10.26,4.92-10.26,11,0,6.72,4.32,10.86,10.08,10.86a15,15,0,0,0,6.48-1.44Z" transform="translate(-33.7 0)" style="fill:#e30613"/><path d="M1354.75,597.48l-.42-3.66h-.18a10.82,10.82,0,0,1-8.88,4.32c-5.88,0-8.88-4.14-8.88-8.34,0-7,6.24-10.86,17.46-10.8v-.6c0-2.4-.66-6.72-6.6-6.72a14.47,14.47,0,0,0-7.56,2.16l-1.2-3.48a18,18,0,0,1,9.54-2.58c8.88,0,11,6.06,11,11.88v10.86a40.89,40.89,0,0,0,.48,7Zm-.78-14.82c-5.76-.12-12.3.9-12.3,6.54a4.67,4.67,0,0,0,5,5,7.23,7.23,0,0,0,7-4.86,5.51,5.51,0,0,0,.3-1.68Z" transform="translate(-33.7 0)" style="fill:#e30613"/><path d="M1373.77,560.1v8.34h7.56v4h-7.56v15.66c0,3.6,1,5.64,4,5.64a11.75,11.75,0,0,0,3.06-.36l.24,4a12.93,12.93,0,0,1-4.68.72,7.32,7.32,0,0,1-5.7-2.22c-1.5-1.56-2-4.14-2-7.56V572.46h-4.5v-4h4.5v-7Z" transform="translate(-33.7 0)" style="fill:#e30613"/><path d="M1393.15,560.28a3.27,3.27,0,0,1-6.54,0,3.22,3.22,0,0,1,3.3-3.3A3.13,3.13,0,0,1,1393.15,560.28Zm-5.88,37.2v-29h5.28v29Z" transform="translate(-33.7 0)" style="fill:#e30613"/><path d="M1427.59,582.72c0,10.74-7.44,15.42-14.46,15.42-7.86,0-13.92-5.76-13.92-14.94,0-9.72,6.36-15.42,14.4-15.42C1422,567.78,1427.59,573.84,1427.59,582.72Zm-23,.3c0,6.36,3.66,11.16,8.82,11.16s8.82-4.74,8.82-11.28c0-4.92-2.46-11.16-8.7-11.16S1404.55,577.5,1404.55,583Z" transform="translate(-33.7 0)" style="fill:#e30613"/><path d="M1434.25,576.3c0-3-.06-5.46-.24-7.86h4.68l.3,4.8h.12a10.68,10.68,0,0,1,9.6-5.46c4,0,10.26,2.4,10.26,12.36v17.34h-5.28V580.74c0-4.68-1.74-8.58-6.72-8.58a7.5,7.5,0,0,0-7.08,5.4,7.59,7.59,0,0,0-.36,2.46v17.46h-5.28Z" transform="translate(-33.7 0)" style="fill:#e30613"/><g style="clip-path:url(#a865ab07-1e45-4f35-8d65-8d95372f933c)"><g style="opacity:0.75"><g style="clip-path:url(#b10ff1d7-d6e5-4f33-8e54-5e240580fa34)"><path d="M476.59,1137.35a26.47,26.47,0,0,1-8.68,1.55c-4.28,0-7.8-1.09-10.57-3.74a14.53,14.53,0,0,1-3.95-10.52c.05-8.44,5.84-14.6,15.32-14.6a17.37,17.37,0,0,1,7,1.3l-.88,3a14.67,14.67,0,0,0-6.25-1.22c-6.88,0-11.37,4.28-11.37,11.37s4.32,11.41,10.91,11.41a11.9,11.9,0,0,0,4.87-.76v-8.43h-5.75v-2.93h9.31Z" transform="translate(-33.7 0)" style="fill:#1d1d1b"/><path d="M484.26,1129.12c.09,5,3.27,7.05,7,7.05a13.34,13.34,0,0,0,5.63-1.05l.63,2.65a16.67,16.67,0,0,1-6.76,1.25c-6.25,0-10-4.11-10-10.23s3.61-11,9.52-11c6.63,0,8.39,5.83,8.39,9.57a12.14,12.14,0,0,1-.13,1.71Zm10.82-2.64c.05-2.35-1-6-5.11-6-3.74,0-5.37,3.44-5.67,6Z" transform="translate(-33.7 0)" style="fill:#1d1d1b"/><path d="M502.72,1134.83a9.7,9.7,0,0,0,4.86,1.47c2.69,0,3.94-1.35,3.94-3s-1-2.73-3.77-3.74c-3.65-1.3-5.37-3.31-5.37-5.74,0-3.27,2.64-6,7-6a10.19,10.19,0,0,1,5,1.26l-.93,2.68a7.9,7.9,0,0,0-4.15-1.17c-2.18,0-3.4,1.26-3.4,2.77,0,1.68,1.22,2.43,3.86,3.44,3.53,1.34,5.33,3.1,5.33,6.12,0,3.57-2.77,6.08-7.59,6.08a11.58,11.58,0,0,1-5.71-1.38Z" transform="translate(-33.7 0)" style="fill:#1d1d1b"/><path d="M524.27,1112.47v5.83h5.29v2.81h-5.29v11c0,2.52.72,3.94,2.77,3.94a8,8,0,0,0,2.14-.25l.17,2.77a9.17,9.17,0,0,1-3.27.5,5.11,5.11,0,0,1-4-1.55c-1.05-1.09-1.42-2.89-1.42-5.28v-11.08h-3.15v-2.81h3.15v-4.86Z" transform="translate(-33.7 0)" style="fill:#1d1d1b"/><path d="M537.82,1112.6a2.29,2.29,0,0,1-4.57,0,2.25,2.25,0,0,1,2.3-2.31A2.19,2.19,0,0,1,537.82,1112.6Zm-4.11,26v-20.3h3.69v20.3Z" transform="translate(-33.7 0)" style="fill:#1d1d1b"/><path d="M561.89,1128.29c0,7.5-5.2,10.78-10.11,10.78-5.49,0-9.73-4-9.73-10.45,0-6.79,4.45-10.78,10.07-10.78C558,1117.84,561.89,1122.08,561.89,1128.29Zm-16.1.21c0,4.44,2.55,7.8,6.16,7.8s6.17-3.32,6.17-7.89c0-3.44-1.72-7.8-6.08-7.8S545.79,1124.64,545.79,1128.5Z" transform="translate(-33.7 0)" style="fill:#1d1d1b"/><path d="M566.55,1123.8c0-2.1,0-3.82-.17-5.5h3.27l.21,3.36h.08a7.48,7.48,0,0,1,6.71-3.82c2.82,0,7.18,1.68,7.18,8.64v12.12h-3.69v-11.7c0-3.27-1.22-6-4.7-6a5.41,5.41,0,0,0-5.2,5.5v12.2h-3.69Z" transform="translate(-33.7 0)" style="fill:#1d1d1b"/><path d="M616.25,1108.82v24.54c0,1.8,0,3.86.16,5.24H613.1l-.17-3.52h-.08a7.5,7.5,0,0,1-6.92,4c-4.91,0-8.69-4.16-8.69-10.32,0-6.76,4.16-10.91,9.11-10.91a6.78,6.78,0,0,1,6.12,3.11h.08v-12.13Zm-3.7,17.75a6.89,6.89,0,0,0-.16-1.56,5.43,5.43,0,0,0-5.33-4.27c-3.82,0-6.08,3.35-6.08,7.84,0,4.11,2,7.51,6,7.51a5.56,5.56,0,0,0,5.42-4.41,6.64,6.64,0,0,0,.16-1.59Z" transform="translate(-33.7 0)" style="fill:#1d1d1b"/><path d="M624.42,1129.12c.09,5,3.27,7.05,7,7.05a13.34,13.34,0,0,0,5.63-1.05l.62,2.65a16.58,16.58,0,0,1-6.75,1.25c-6.25,0-10-4.11-10-10.23s3.61-11,9.52-11c6.63,0,8.39,5.83,8.39,9.57a13.9,13.9,0,0,1-.13,1.71Zm10.82-2.64c0-2.35-1-6-5.11-6-3.74,0-5.37,3.44-5.67,6Z" transform="translate(-33.7 0)" style="fill:#1d1d1b"/><path d="M395.23,1175.26c0-2.6-.09-4.7-.17-6.63h3.31l.17,3.48h.08a8,8,0,0,1,7.22-3.94c4.91,0,8.6,4.15,8.6,10.32,0,7.3-4.45,10.9-9.23,10.9a7.11,7.11,0,0,1-6.25-3.18h-.08v11h-3.65Zm3.65,5.41a8.74,8.74,0,0,0,.16,1.51,5.7,5.7,0,0,0,5.54,4.32c3.9,0,6.17-3.19,6.17-7.84,0-4.07-2.14-7.55-6-7.55a5.88,5.88,0,0,0-5.58,4.57,5.75,5.75,0,0,0-.25,1.51Z" transform="translate(-33.7 0)" style="fill:#1d1d1b"/><path d="M419.09,1175c0-2.39,0-4.44-.17-6.33h3.23l.13,4h.16a6.1,6.1,0,0,1,5.62-4.45,4.15,4.15,0,0,1,1.05.12v3.49a5.14,5.14,0,0,0-1.26-.13c-2.6,0-4.44,2-5,4.74a10.83,10.83,0,0,0-.16,1.72v10.82h-3.65Z" transform="translate(-33.7 0)" style="fill:#1d1d1b"/><path d="M450.8,1178.61c0,7.51-5.2,10.78-10.11,10.78-5.5,0-9.73-4-9.73-10.44,0-6.8,4.44-10.78,10.06-10.78C446.85,1168.17,450.8,1172.41,450.8,1178.61Zm-16.11.21c0,4.45,2.56,7.81,6.17,7.81s6.16-3.32,6.16-7.89c0-3.44-1.72-7.8-6.08-7.8S434.69,1175,434.69,1178.82Z" transform="translate(-33.7 0)" style="fill:#1d1d1b"/><path d="M450.5,1194.8a5.92,5.92,0,0,0,4-1.55c1-1.17,1.38-2.77,1.38-7.63v-17h3.69V1187c0,4-.63,6.51-2.43,8.35a9.36,9.36,0,0,1-6.29,2.31Zm9.52-31.87a2.17,2.17,0,0,1-2.31,2.26,2.2,2.2,0,0,1-2.26-2.26,2.26,2.26,0,0,1,2.35-2.31A2.18,2.18,0,0,1,460,1162.93Z" transform="translate(-33.7 0)" style="fill:#1d1d1b"/><path d="M467.7,1179.45c.08,5,3.27,7,7,7a13.29,13.29,0,0,0,5.62-1l.63,2.64a16.41,16.41,0,0,1-6.75,1.26c-6.25,0-10-4.11-10-10.23s3.61-10.95,9.52-10.95c6.63,0,8.39,5.83,8.39,9.56a14.38,14.38,0,0,1-.12,1.72Zm10.82-2.64c0-2.35-1-6-5.12-6-3.73,0-5.37,3.44-5.66,6Z" transform="translate(-33.7 0)" style="fill:#1d1d1b"/><path d="M491.1,1162.8v5.83h5.28v2.81H491.1v11c0,2.52.71,3.94,2.77,3.94a8.13,8.13,0,0,0,2.14-.25l.16,2.77a9.09,9.09,0,0,1-3.27.5,5.09,5.09,0,0,1-4-1.55c-1.05-1.09-1.43-2.89-1.43-5.29v-11.07h-3.15v-2.81h3.15v-4.87Z" transform="translate(-33.7 0)" style="fill:#1d1d1b"/><path d="M509.42,1174.13c0-2.1,0-3.82-.16-5.5h3.27l.21,3.36h.08a7.48,7.48,0,0,1,6.71-3.82c2.81,0,7.18,1.68,7.18,8.64v12.12H523v-11.7c0-3.27-1.21-6-4.69-6a5.45,5.45,0,0,0-5.21,5.5v12.2h-3.69Z" transform="translate(-33.7 0)" style="fill:#1d1d1b"/><path d="M549.69,1183.4c0,2.09,0,3.94.16,5.53h-3.27l-.21-3.31h-.08a7.65,7.65,0,0,1-6.71,3.77c-3.19,0-7-1.76-7-8.89v-11.87h3.69v11.24c0,3.86,1.18,6.46,4.54,6.46a5.34,5.34,0,0,0,4.86-3.35,5.43,5.43,0,0,0,.34-1.89v-12.46h3.69Z" transform="translate(-33.7 0)" style="fill:#1d1d1b"/><path d="M555.81,1174.13c0-2.1,0-3.82-.17-5.5h3.23l.17,3.27h.12a7,7,0,0,1,6.38-3.73,6,6,0,0,1,5.75,4.07h.08a8.39,8.39,0,0,1,2.26-2.64,6.9,6.9,0,0,1,4.49-1.43c2.69,0,6.67,1.76,6.67,8.81v12h-3.61v-11.49c0-3.9-1.42-6.25-4.4-6.25a4.77,4.77,0,0,0-4.36,3.35,6.07,6.07,0,0,0-.3,1.85v12.54h-3.6v-12.16c0-3.23-1.43-5.58-4.24-5.58a5.49,5.49,0,0,0-4.86,5.49v12.25h-3.61Z" transform="translate(-33.7 0)" style="fill:#1d1d1b"/><path d="M592.84,1179.45c.08,5,3.27,7,7,7a13.26,13.26,0,0,0,5.62-1l.63,2.64a16.37,16.37,0,0,1-6.75,1.26c-6.25,0-10-4.11-10-10.23s3.6-10.95,9.52-10.95c6.63,0,8.39,5.83,8.39,9.56a13.93,13.93,0,0,1-.13,1.72Zm10.82-2.64c0-2.35-1-6-5.11-6-3.74,0-5.37,3.44-5.67,6Zm.88-17-5.11,6h-2.65l3.69-6Z" transform="translate(-33.7 0)" style="fill:#1d1d1b"/><path d="M611.8,1175c0-2.39,0-4.44-.17-6.33h3.23l.12,4h.17a6.09,6.09,0,0,1,5.62-4.45,4.15,4.15,0,0,1,1.05.12v3.49a5.19,5.19,0,0,0-1.26-.13c-2.6,0-4.44,2-4.95,4.74a10.83,10.83,0,0,0-.16,1.72v10.82H611.8Z" transform="translate(-33.7 0)" style="fill:#1d1d1b"/><path d="M629.79,1162.93a2.29,2.29,0,0,1-4.57,0,2.25,2.25,0,0,1,2.3-2.31A2.19,2.19,0,0,1,629.79,1162.93Zm-4.11,26v-20.3h3.69v20.3Z" transform="translate(-33.7 0)" style="fill:#1d1d1b"/><path d="M649.33,1185.79h-.08a7.23,7.23,0,0,1-6.63,3.6c-4.74,0-8.6-4.11-8.6-10.27,0-7.6,4.91-10.95,9.19-10.95a6.68,6.68,0,0,1,6.25,3.52h.08l.13-3.06h3.48c-.08,1.72-.13,3.48-.13,5.58v23h-3.69Zm0-8.94a6.58,6.58,0,0,0-.16-1.55,5.4,5.4,0,0,0-5.29-4.19c-3.82,0-6.12,3.22-6.12,7.8,0,4,1.93,7.55,6,7.55a5.5,5.5,0,0,0,5.29-4,6.12,6.12,0,0,0,.29-1.76Z" transform="translate(-33.7 0)" style="fill:#1d1d1b"/><path d="M676.09,1183.4c0,2.09,0,3.94.17,5.53H673l-.21-3.31h-.09a7.64,7.64,0,0,1-6.71,3.77c-3.19,0-7-1.76-7-8.89v-11.87h3.69v11.24c0,3.86,1.17,6.46,4.53,6.46a5.34,5.34,0,0,0,4.86-3.35,5.43,5.43,0,0,0,.34-1.89v-12.46h3.69Z" transform="translate(-33.7 0)" style="fill:#1d1d1b"/><path d="M684.27,1179.45c.08,5,3.27,7,7,7a13.29,13.29,0,0,0,5.62-1l.63,2.64a16.37,16.37,0,0,1-6.75,1.26c-6.25,0-10-4.11-10-10.23s3.61-10.95,9.52-10.95c6.63,0,8.39,5.83,8.39,9.56a14.38,14.38,0,0,1-.12,1.72Zm10.82-2.64c0-2.35-1-6-5.12-6-3.73,0-5.37,3.44-5.66,6Z" transform="translate(-33.7 0)" style="fill:#1d1d1b"/></g></g><g style="opacity:0.75"><g style="clip-path:url(#fc5b3894-e7d0-4c1b-847b-7452a6d87f61)"><path d="M968.26,1134.16a13,13,0,0,0,6.55,1.84c3.73,0,5.91-2,5.91-4.82,0-2.64-1.51-4.15-5.33-5.62-4.61-1.64-7.46-4-7.46-8,0-4.41,3.65-7.68,9.14-7.68a12.75,12.75,0,0,1,6.25,1.39l-1,3a11.33,11.33,0,0,0-5.37-1.34c-3.86,0-5.33,2.31-5.33,4.24,0,2.64,1.72,3.94,5.62,5.45,4.78,1.85,7.22,4.15,7.22,8.31,0,4.36-3.23,8.13-9.9,8.13a14.59,14.59,0,0,1-7.22-1.8Z" transform="translate(-33.7 0)" style="fill:#1d1d1b"/><path d="M993.64,1112.47v5.83h5.28v2.81h-5.28v11c0,2.52.71,3.94,2.77,3.94a8.13,8.13,0,0,0,2.14-.25l.16,2.77a9.09,9.09,0,0,1-3.27.5,5.09,5.09,0,0,1-4-1.55c-1.05-1.09-1.43-2.89-1.43-5.28v-11.08h-3.15v-2.81H990v-4.86Z" transform="translate(-33.7 0)" style="fill:#1d1d1b"/><path d="M1003.07,1124.64c0-2.39,0-4.45-.16-6.34h3.22l.13,4h.17a6.08,6.08,0,0,1,5.62-4.45,3.77,3.77,0,0,1,1.05.13v3.48a5.81,5.81,0,0,0-1.26-.13c-2.6,0-4.45,2-5,4.74a10.88,10.88,0,0,0-.17,1.72v10.82h-3.65Z" transform="translate(-33.7 0)" style="fill:#1d1d1b"/><path d="M1027.82,1138.6l-.3-2.55h-.12a7.56,7.56,0,0,1-6.21,3c-4.11,0-6.21-2.9-6.21-5.83,0-4.91,4.36-7.6,12.21-7.55v-.42c0-1.68-.46-4.7-4.61-4.7a10.16,10.16,0,0,0-5.29,1.51l-.84-2.44a12.61,12.61,0,0,1,6.67-1.8c6.21,0,7.72,4.24,7.72,8.31v7.59a28.71,28.71,0,0,0,.33,4.86Zm-.55-10.36c-4-.08-8.6.63-8.6,4.58a3.27,3.27,0,0,0,3.49,3.52,5,5,0,0,0,4.9-3.4,3.75,3.75,0,0,0,.21-1.17Z" transform="translate(-33.7 0)" style="fill:#1d1d1b"/><path d="M1041.11,1112.47v5.83h5.29v2.81h-5.29v11c0,2.52.72,3.94,2.77,3.94a8.07,8.07,0,0,0,2.14-.25l.17,2.77a9.17,9.17,0,0,1-3.27.5,5.11,5.11,0,0,1-4-1.55c-1-1.09-1.42-2.89-1.42-5.28v-11.08h-3.15v-2.81h3.15v-4.86Z" transform="translate(-33.7 0)" style="fill:#1d1d1b"/><path d="M1052.35,1129.12c.08,5,3.27,7.05,7,7.05a13.26,13.26,0,0,0,5.62-1.05l.63,2.65a16.58,16.58,0,0,1-6.75,1.25c-6.25,0-10-4.11-10-10.23s3.6-11,9.52-11c6.63,0,8.39,5.83,8.39,9.57a13.9,13.9,0,0,1-.13,1.71Zm10.82-2.64c0-2.35-1-6-5.11-6-3.74,0-5.37,3.44-5.67,6Zm.88-16.94-5.11,6h-2.65l3.7-6Z" transform="translate(-33.7 0)" style="fill:#1d1d1b"/><path d="M1088.8,1118.3c-.09,1.47-.17,3.11-.17,5.58v11.79c0,4.65-.92,7.51-2.89,9.27a10.82,10.82,0,0,1-7.39,2.43,13.12,13.12,0,0,1-6.75-1.68l.92-2.81a11.46,11.46,0,0,0,6,1.6c3.77,0,6.54-2,6.54-7.09v-2.27h-.08a7.24,7.24,0,0,1-6.46,3.4c-5,0-8.64-4.28-8.64-9.9,0-6.88,4.49-10.78,9.14-10.78a6.75,6.75,0,0,1,6.34,3.53h.08l.17-3.07Zm-3.82,8a5.17,5.17,0,0,0-.21-1.67,5.31,5.31,0,0,0-5.16-3.9c-3.52,0-6,3-6,7.67,0,4,2,7.3,6,7.3a5.4,5.4,0,0,0,5.12-3.77,6.46,6.46,0,0,0,.29-2Z" transform="translate(-33.7 0)" style="fill:#1d1d1b"/><path d="M1098.65,1112.6a2.29,2.29,0,0,1-4.57,0,2.25,2.25,0,0,1,2.31-2.31A2.19,2.19,0,0,1,1098.65,1112.6Zm-4.11,26v-20.3h3.69v20.3Z" transform="translate(-33.7 0)" style="fill:#1d1d1b"/><path d="M1106.41,1129.12c.08,5,3.27,7.05,7,7.05a13.26,13.26,0,0,0,5.62-1.05l.63,2.65a16.58,16.58,0,0,1-6.75,1.25c-6.25,0-10-4.11-10-10.23s3.6-11,9.52-11c6.63,0,8.39,5.83,8.39,9.57a13.9,13.9,0,0,1-.13,1.71Zm10.82-2.64c0-2.35-1-6-5.12-6-3.73,0-5.36,3.44-5.66,6Z" transform="translate(-33.7 0)" style="fill:#1d1d1b"/><path d="M1136.31,1129.12c.08,5,3.27,7.05,7,7.05a13.26,13.26,0,0,0,5.62-1.05l.63,2.65a16.58,16.58,0,0,1-6.75,1.25c-6.25,0-10-4.11-10-10.23s3.6-11,9.52-11c6.63,0,8.39,5.83,8.39,9.57a13.9,13.9,0,0,1-.13,1.71Zm10.82-2.64c0-2.35-1-6-5.11-6-3.74,0-5.37,3.44-5.67,6Z" transform="translate(-33.7 0)" style="fill:#1d1d1b"/><path d="M1159.71,1112.47v5.83H1165v2.81h-5.29v11c0,2.52.72,3.94,2.77,3.94a8,8,0,0,0,2.14-.25l.17,2.77a9.13,9.13,0,0,1-3.27.5,5.11,5.11,0,0,1-4-1.55c-1-1.09-1.42-2.89-1.42-5.28v-11.08H1153v-2.81h3.15v-4.86Z" transform="translate(-33.7 0)" style="fill:#1d1d1b"/><path d="M943.36,1176.52c-.21-4-.47-8.69-.42-12.21h-.13c-1,3.31-2.14,6.84-3.57,10.74l-5,13.71h-2.77l-4.57-13.46c-1.34-4-2.47-7.64-3.27-11h-.08c-.09,3.52-.3,8.26-.55,12.5l-.75,12.12h-3.48l2-28.27h4.65l4.83,13.67c1.17,3.49,2.14,6.59,2.85,9.53h.12c.72-2.86,1.72-6,3-9.53l5-13.67h4.65l1.76,28.27h-3.56Zm28.39,2.09c0,7.51-5.2,10.78-10.11,10.78-5.5,0-9.73-4-9.73-10.44,0-6.8,4.44-10.78,10.06-10.78C967.8,1168.17,971.75,1172.4,971.75,1178.61Zm-16.11.21c0,4.45,2.56,7.8,6.17,7.8s6.16-3.31,6.16-7.88c0-3.44-1.72-7.8-6.08-7.8S955.64,1175,955.64,1178.82Zm38.29-19.67v24.54c0,1.8,0,3.86.17,5.24h-3.31l-.17-3.52h-.08a7.53,7.53,0,0,1-6.93,4c-4.9,0-8.68-4.15-8.68-10.32,0-6.75,4.15-10.9,9.1-10.9a6.81,6.81,0,0,1,6.13,3.1h.08v-12.12Zm-3.69,17.74a6.3,6.3,0,0,0-.17-1.55,5.42,5.42,0,0,0-5.32-4.28c-3.82,0-6.09,3.36-6.09,7.85,0,4.11,2,7.5,6,7.5a5.54,5.54,0,0,0,5.41-4.4,6.21,6.21,0,0,0,.17-1.59Zm11.87,2.56c.08,5,3.27,7,7,7a13.29,13.29,0,0,0,5.62-1l.63,2.64a16.37,16.37,0,0,1-6.75,1.26c-6.25,0-10-4.11-10-10.23s3.61-10.95,9.53-10.95c6.62,0,8.39,5.83,8.39,9.56a14.1,14.1,0,0,1-.13,1.72Zm10.82-2.64c0-2.35-1-6-5.12-6-3.73,0-5.37,3.44-5.66,6Zm-6.21-17,3.69,6h-2.64l-5.12-6Zm14.34-.71h3.7v29.78h-3.7Zm12,20.3c.08,5,3.27,7,7,7a13.29,13.29,0,0,0,5.62-1l.63,2.64a16.37,16.37,0,0,1-6.75,1.26c-6.25,0-10-4.11-10-10.23s3.61-10.95,9.53-10.95c6.62,0,8.38,5.83,8.38,9.56a14.55,14.55,0,0,1-.12,1.72Zm10.82-2.64c0-2.35-1-6-5.12-6-3.73,0-5.37,3.44-5.66,6Zm7.63,8.35a9.7,9.7,0,0,0,4.87,1.46c2.68,0,3.94-1.34,3.94-3s-1-2.72-3.78-3.73c-3.65-1.3-5.37-3.31-5.37-5.75,0-3.27,2.65-5.95,7-5.95a10.12,10.12,0,0,1,5,1.26l-.92,2.68a8,8,0,0,0-4.15-1.17c-2.19,0-3.4,1.26-3.4,2.77,0,1.67,1.21,2.43,3.86,3.43,3.52,1.35,5.32,3.11,5.32,6.13,0,3.56-2.76,6.08-7.59,6.08a11.54,11.54,0,0,1-5.7-1.38Zm43.54-26v24.54c0,1.8,0,3.86.16,5.24h-3.31l-.17-3.52h-.08a7.51,7.51,0,0,1-6.92,4c-4.91,0-8.69-4.15-8.69-10.32,0-6.75,4.16-10.9,9.11-10.9a6.79,6.79,0,0,1,6.12,3.1h.09v-12.12Zm-3.69,17.74a6.82,6.82,0,0,0-.17-1.55,5.43,5.43,0,0,0-5.33-4.28c-3.82,0-6.08,3.36-6.08,7.85,0,4.11,2,7.5,6,7.5a5.55,5.55,0,0,0,5.41-4.4,6.69,6.69,0,0,0,.17-1.59ZM1106,1160.2a47.9,47.9,0,0,1-3.94,9.94l-2.35.29a59.31,59.31,0,0,0,2.48-9.85Zm14.52,28.73-.3-2.56h-.12a7.57,7.57,0,0,1-6.21,3c-4.11,0-6.21-2.89-6.21-5.83,0-4.91,4.36-7.59,12.21-7.55v-.42c0-1.68-.46-4.7-4.62-4.7a10.13,10.13,0,0,0-5.28,1.51l-.84-2.43a12.61,12.61,0,0,1,6.67-1.8c6.21,0,7.72,4.23,7.72,8.3v7.6a28.71,28.71,0,0,0,.33,4.86Zm-.55-10.36c-4-.08-8.6.63-8.6,4.57a3.27,3.27,0,0,0,3.48,3.53,5.05,5.05,0,0,0,4.91-3.4,3.76,3.76,0,0,0,.21-1.18Zm22.06,10.36v-17.49h-8.51v17.49h-3.65v-17.49H1127v-2.81h2.86V1168c0-2.85.67-5.33,2.26-6.92a6.92,6.92,0,0,1,5.12-1.89,6.57,6.57,0,0,1,2.89.71l-.75,2.73a5.43,5.43,0,0,0-2.18-.5c-2.9,0-3.69,2.47-3.69,5.66v.88h8.51v-1c0-2.85.67-5.45,2.39-7.08a7,7,0,0,1,4.91-1.89,8.31,8.31,0,0,1,3.15.59l-.47,2.85a5.73,5.73,0,0,0-2.39-.46c-3.1,0-3.94,2.76-3.94,5.87v1.09h4.91v2.81h-4.87v17.49Zm23.15,0-.29-2.56h-.13a7.54,7.54,0,0,1-6.21,3c-4.11,0-6.21-2.89-6.21-5.83,0-4.91,4.37-7.59,12.21-7.55v-.42c0-1.68-.46-4.7-4.61-4.7a10.16,10.16,0,0,0-5.29,1.51l-.84-2.43a12.61,12.61,0,0,1,6.67-1.8c6.21,0,7.72,4.23,7.72,8.3v7.6a27.64,27.64,0,0,0,.34,4.86Zm-.54-10.36c-4-.08-8.6.63-8.6,4.57a3.27,3.27,0,0,0,3.48,3.53,5.06,5.06,0,0,0,4.91-3.4,4.07,4.07,0,0,0,.21-1.18Zm13.62-15.65a2.18,2.18,0,0,1-2.34,2.27,2.2,2.2,0,0,1-2.23-2.27,2.25,2.25,0,0,1,2.31-2.3A2.18,2.18,0,0,1,1178.29,1162.92Zm-4.11,26v-20.3h3.69v20.3Zm9.82-14c0-2.39,0-4.44-.17-6.33h3.23l.12,4h.17a6.1,6.1,0,0,1,5.62-4.44,4.15,4.15,0,0,1,1,.12v3.49a5.19,5.19,0,0,0-1.26-.13c-2.6,0-4.44,2-5,4.74a10.83,10.83,0,0,0-.16,1.72v10.82H1184Zm15.35,4.49c.08,5,3.27,7,7,7a13.29,13.29,0,0,0,5.62-1l.63,2.64a16.37,16.37,0,0,1-6.75,1.26c-6.25,0-10-4.11-10-10.23s3.61-10.95,9.53-10.95c6.62,0,8.38,5.83,8.38,9.56a14.55,14.55,0,0,1-.12,1.72Zm10.82-2.64c0-2.35-1-6-5.12-6-3.73,0-5.37,3.44-5.66,6Z" transform="translate(-33.7 0)" style="fill:#1d1d1b"/></g></g><g style="opacity:0.75"><g style="clip-path:url(#aed5894a-2711-4a15-8940-5f266f8e5412)"><path d="M149.12,755.84a18.1,18.1,0,0,1-7.46,1.34c-8,0-14-5-14-14.3,0-8.85,6-14.85,14.76-14.85a15.24,15.24,0,0,1,6.72,1.26l-.89,3a13.26,13.26,0,0,0-5.7-1.18c-6.63,0-11,4.24-11,11.66,0,6.93,4,11.37,10.86,11.37a14.7,14.7,0,0,0,6-1.17Z" transform="translate(-33.7 0)" style="fill:#1d1d1b"/><path d="M171.52,746.45c0,7.5-5.2,10.78-10.11,10.78-5.5,0-9.73-4-9.73-10.45,0-6.79,4.44-10.78,10.06-10.78C167.57,736,171.52,740.24,171.52,746.45Zm-16.11.21c0,4.44,2.56,7.8,6.17,7.8s6.16-3.32,6.16-7.89c0-3.44-1.72-7.8-6.08-7.8S155.41,742.8,155.41,746.66Z" transform="translate(-33.7 0)" style="fill:#1d1d1b"/><path d="M176.17,742c0-2.1,0-3.82-.17-5.5h3.27l.21,3.36h.09a7.45,7.45,0,0,1,6.71-3.82c2.81,0,7.17,1.68,7.17,8.64v12.12h-3.69v-11.7c0-3.27-1.22-6-4.7-6a5.25,5.25,0,0,0-4.95,3.78,5.52,5.52,0,0,0-.25,1.72v12.2h-3.69Z" transform="translate(-33.7 0)" style="fill:#1d1d1b"/><path d="M213.92,756a13.7,13.7,0,0,1-5.83,1.17C202,757.18,198,753,198,746.82S202.26,736,208.88,736a12.42,12.42,0,0,1,5.12,1.05l-.84,2.85a8.59,8.59,0,0,0-4.28-1c-4.65,0-7.17,3.44-7.17,7.68,0,4.69,3,7.59,7,7.59a10.49,10.49,0,0,0,4.53-1Z" transform="translate(-33.7 0)" style="fill:#1d1d1b"/><path d="M220.08,747.29c.08,5,3.27,7,7,7a13.26,13.26,0,0,0,5.62-1.05l.63,2.65a16.58,16.58,0,0,1-6.75,1.25c-6.25,0-10-4.11-10-10.23s3.6-11,9.52-11c6.63,0,8.39,5.83,8.39,9.57a14.28,14.28,0,0,1-.13,1.72Zm10.82-2.65c0-2.35-1-6-5.12-6-3.73,0-5.36,3.44-5.66,6Z" transform="translate(-33.7 0)" style="fill:#1d1d1b"/><path d="M239,743.09c0-2.6-.09-4.7-.17-6.63h3.31l.17,3.48h.08a8,8,0,0,1,7.22-3.94c4.91,0,8.6,4.15,8.6,10.32,0,7.3-4.45,10.91-9.23,10.91a7.13,7.13,0,0,1-6.25-3.19h-.09v11H239Zm3.64,5.41a8.6,8.6,0,0,0,.17,1.51,5.7,5.7,0,0,0,5.54,4.32c3.9,0,6.17-3.19,6.17-7.84,0-4.07-2.14-7.55-6-7.55a6.44,6.44,0,0,0-5.84,6.08Z" transform="translate(-33.7 0)" style="fill:#1d1d1b"/><path d="M267.34,730.63v5.83h5.29v2.81h-5.29v11c0,2.52.72,3.94,2.77,3.94a8,8,0,0,0,2.14-.25l.17,2.77a9.13,9.13,0,0,1-3.27.5,5.11,5.11,0,0,1-4-1.55c-1.05-1.09-1.42-2.89-1.42-5.28V739.27h-3.15v-2.81h3.15V731.6Z" transform="translate(-33.7 0)" style="fill:#1d1d1b"/><path d="M280.89,730.76a2.29,2.29,0,0,1-4.57,0,2.25,2.25,0,0,1,2.31-2.31A2.19,2.19,0,0,1,280.89,730.76Zm-4.11,26v-20.3h3.69v20.3Z" transform="translate(-33.7 0)" style="fill:#1d1d1b"/><path d="M305,746.45c0,7.5-5.21,10.78-10.11,10.78-5.5,0-9.73-4-9.73-10.45,0-6.79,4.44-10.78,10.06-10.78C301,736,305,740.24,305,746.45Zm-16.11.21c0,4.44,2.56,7.8,6.16,7.8s6.17-3.32,6.17-7.89c0-3.44-1.72-7.8-6.08-7.8S288.86,742.8,288.86,746.66Z" transform="translate(-33.7 0)" style="fill:#1d1d1b"/><path d="M309.62,742c0-2.1,0-3.82-.17-5.5h3.27l.21,3.36H313a7.45,7.45,0,0,1,6.71-3.82c2.81,0,7.17,1.68,7.17,8.64v12.12h-3.69v-11.7c0-3.27-1.22-6-4.7-6a5.41,5.41,0,0,0-5.2,5.5v12.2h-3.69Z" transform="translate(-33.7 0)" style="fill:#1d1d1b"/><path d="M345.56,728.49v16.74c0,6.33,2.81,9,6.58,9,4.2,0,6.88-2.77,6.88-9V728.49h3.7V745c0,8.68-4.58,12.25-10.7,12.25-5.79,0-10.15-3.32-10.15-12.08V728.49Z" transform="translate(-33.7 0)" style="fill:#1d1d1b"/><path d="M384.52,756.76l-3.6-6.25c-1.47-2.39-2.4-3.94-3.28-5.57h-.08c-.8,1.63-1.59,3.14-3.06,5.62l-3.4,6.2h-4.19l8.64-14.3-8.31-14h4.24l3.73,6.63c1.05,1.85,1.85,3.27,2.6,4.78h.13c.79-1.68,1.51-3,2.56-4.78l3.85-6.63h4.2L380,742.25l8.81,14.51Z" transform="translate(-33.7 0)" style="fill:#1d1d1b"/><path d="M122.11,779.2a51.67,51.67,0,0,1,7.76-.59c5.24,0,9,1.22,11.45,3.52s4,5.58,4,10.16-1.43,8.38-4.07,11-7,4.06-12.5,4.06a59.09,59.09,0,0,1-6.63-.33Zm3.65,25a22.79,22.79,0,0,0,3.69.21c7.8,0,12-4.36,12-12,0-6.67-3.73-10.91-11.45-10.91a20.72,20.72,0,0,0-4.28.38Z" transform="translate(-33.7 0)" style="fill:#1d1d1b"/><path d="M152.14,797.61c.08,5,3.27,7,7,7a13.29,13.29,0,0,0,5.62-1l.63,2.64a16.37,16.37,0,0,1-6.75,1.26c-6.25,0-10-4.11-10-10.23s3.6-10.95,9.52-10.95c6.62,0,8.39,5.83,8.39,9.56a13.93,13.93,0,0,1-.13,1.72ZM163,795c0-2.35-1-6-5.12-6-3.73,0-5.37,3.44-5.66,6Z" transform="translate(-33.7 0)" style="fill:#1d1d1b"/><path d="M170.59,803.32a9.71,9.71,0,0,0,4.87,1.47c2.68,0,3.94-1.35,3.94-3s-1.05-2.73-3.77-3.74c-3.65-1.3-5.37-3.31-5.37-5.74,0-3.28,2.64-6,7-6a10.12,10.12,0,0,1,5,1.26l-.92,2.68a8,8,0,0,0-4.15-1.17c-2.18,0-3.4,1.26-3.4,2.77,0,1.67,1.22,2.43,3.86,3.44,3.52,1.34,5.33,3.1,5.33,6.12,0,3.56-2.77,6.08-7.6,6.08a11.54,11.54,0,0,1-5.7-1.38Z" transform="translate(-33.7 0)" style="fill:#1d1d1b"/><path d="M191.81,781.09a2.29,2.29,0,0,1-4.57,0,2.26,2.26,0,0,1,2.31-2.31A2.19,2.19,0,0,1,191.81,781.09Zm-4.11,26v-20.3h3.69v20.3Z" transform="translate(-33.7 0)" style="fill:#1d1d1b"/><path d="M215,786.79c-.09,1.47-.17,3.1-.17,5.58v11.79c0,4.65-.92,7.5-2.89,9.27a10.82,10.82,0,0,1-7.39,2.43,13.12,13.12,0,0,1-6.75-1.68l.92-2.81a11.44,11.44,0,0,0,6,1.59c3.77,0,6.54-2,6.54-7.08v-2.27h-.08a7.25,7.25,0,0,1-6.46,3.4c-5,0-8.64-4.28-8.64-9.9,0-6.88,4.49-10.78,9.14-10.78a6.75,6.75,0,0,1,6.34,3.52h.08l.17-3.06Zm-3.82,8a5.23,5.23,0,0,0-.21-1.68,5.32,5.32,0,0,0-5.16-3.9c-3.52,0-6,3-6,7.68,0,4,2,7.3,6,7.3a5.41,5.41,0,0,0,5.12-3.78,6.4,6.4,0,0,0,.29-2Z" transform="translate(-33.7 0)" style="fill:#1d1d1b"/><path d="M220.75,792.29c0-2.1,0-3.82-.17-5.5h3.27l.21,3.36h.09a7.45,7.45,0,0,1,6.71-3.82c2.81,0,7.17,1.68,7.17,8.64v12.12h-3.69v-11.7c0-3.27-1.22-6-4.7-6a5.25,5.25,0,0,0-4.95,3.78,5.52,5.52,0,0,0-.25,1.72v12.2h-3.69Z" transform="translate(-33.7 0)" style="fill:#1d1d1b"/><path d="M257.36,781v5.83h5.29v2.81h-5.29v10.95c0,2.52.72,3.94,2.77,3.94a8,8,0,0,0,2.14-.25l.17,2.77a9.17,9.17,0,0,1-3.27.5,5.11,5.11,0,0,1-4-1.55c-1.05-1.09-1.42-2.89-1.42-5.29V789.6h-3.15v-2.81h3.15v-4.87Z" transform="translate(-33.7 0)" style="fill:#1d1d1b"/><path d="M266.8,777.31h3.69V790h.08a6.83,6.83,0,0,1,2.65-2.6,7.58,7.58,0,0,1,3.77-1c2.73,0,7.09,1.68,7.09,8.68v12.08h-3.69V795.43c0-3.27-1.22-6-4.7-6a5.31,5.31,0,0,0-4.95,3.69,4.48,4.48,0,0,0-.25,1.76v12.25H266.8Z" transform="translate(-33.7 0)" style="fill:#1d1d1b"/><path d="M294.18,781.09a2.17,2.17,0,0,1-2.34,2.26,2.2,2.2,0,0,1-2.23-2.26,2.26,2.26,0,0,1,2.31-2.31A2.19,2.19,0,0,1,294.18,781.09Zm-4.11,26v-20.3h3.7v20.3Z" transform="translate(-33.7 0)" style="fill:#1d1d1b"/><path d="M299.89,792.29c0-2.1,0-3.82-.17-5.5H303l.21,3.36h.09a7.45,7.45,0,0,1,6.71-3.82c2.81,0,7.17,1.68,7.17,8.64v12.12h-3.69v-11.7c0-3.27-1.22-6-4.7-6a5.41,5.41,0,0,0-5.2,5.5v12.2h-3.69Z" transform="translate(-33.7 0)" style="fill:#1d1d1b"/><path d="M326.81,796.1h.09c.5-.71,1.21-1.59,1.8-2.3l6-7h4.44l-7.84,8.35,8.93,12h-4.48l-7-9.73-1.89,2.1v7.63h-3.65V777.31h3.65Z" transform="translate(-33.7 0)" style="fill:#1d1d1b"/><path d="M347.66,781.09a2.29,2.29,0,0,1-4.58,0,2.26,2.26,0,0,1,2.31-2.31A2.19,2.19,0,0,1,347.66,781.09Zm-4.11,26v-20.3h3.69v20.3Z" transform="translate(-33.7 0)" style="fill:#1d1d1b"/><path d="M353.36,792.29c0-2.1,0-3.82-.17-5.5h3.27l.21,3.36h.09a7.45,7.45,0,0,1,6.71-3.82c2.81,0,7.17,1.68,7.17,8.64v12.12H367v-11.7c0-3.27-1.22-6-4.7-6a5.41,5.41,0,0,0-5.2,5.5v12.2h-3.69Z" transform="translate(-33.7 0)" style="fill:#1d1d1b"/><path d="M394.13,786.79c-.09,1.47-.17,3.1-.17,5.58v11.79c0,4.65-.92,7.5-2.9,9.27a10.78,10.78,0,0,1-7.38,2.43,13.09,13.09,0,0,1-6.75-1.68l.92-2.81a11.44,11.44,0,0,0,6,1.59c3.77,0,6.54-2,6.54-7.08v-2.27h-.08a7.26,7.26,0,0,1-6.46,3.4c-5,0-8.64-4.28-8.64-9.9,0-6.88,4.48-10.78,9.14-10.78a6.74,6.74,0,0,1,6.33,3.52h.09l.17-3.06Zm-3.82,8a5.23,5.23,0,0,0-.21-1.68,5.33,5.33,0,0,0-5.16-3.9c-3.52,0-6,3-6,7.68,0,4,2,7.3,6,7.3a5.41,5.41,0,0,0,5.12-3.78,6.72,6.72,0,0,0,.29-2Z" transform="translate(-33.7 0)" style="fill:#1d1d1b"/></g></g><g style="opacity:0.75"><g style="clip-path:url(#a111765c-456b-4e11-bdae-d2b4bbff38ca)"><path d="M1259.71,755.84a18.1,18.1,0,0,1-7.46,1.34c-8,0-14-5-14-14.3,0-8.85,6-14.85,14.76-14.85a15.15,15.15,0,0,1,6.71,1.26l-.88,3a13.26,13.26,0,0,0-5.7-1.18c-6.63,0-11,4.24-11,11.66,0,6.93,4,11.37,10.86,11.37a14.7,14.7,0,0,0,6-1.17Z" transform="translate(-33.7 0)" style="fill:#1d1d1b"/><path d="M1282.11,746.45c0,7.5-5.2,10.78-10.11,10.78-5.5,0-9.73-4-9.73-10.45,0-6.79,4.44-10.78,10.06-10.78C1278.16,736,1282.11,740.24,1282.11,746.45Zm-16.11.21c0,4.44,2.56,7.8,6.17,7.8s6.16-3.32,6.16-7.89c0-3.44-1.72-7.8-6.08-7.8S1266,742.8,1266,746.66Z" transform="translate(-33.7 0)" style="fill:#1d1d1b"/><path d="M1286.76,742c0-2.1,0-3.82-.17-5.5h3.23l.17,3.27h.12a7,7,0,0,1,6.38-3.73,6,6,0,0,1,5.75,4.07h.08a8.4,8.4,0,0,1,2.27-2.64,6.85,6.85,0,0,1,4.48-1.43c2.69,0,6.67,1.76,6.67,8.81v12h-3.6V745.27c0-3.9-1.43-6.25-4.41-6.25a4.77,4.77,0,0,0-4.36,3.36,6,6,0,0,0-.29,1.84v12.54h-3.61V744.6c0-3.23-1.43-5.58-4.24-5.58a5,5,0,0,0-4.57,3.69,5.13,5.13,0,0,0-.29,1.81v12.24h-3.61Z" transform="translate(-33.7 0)" style="fill:#1d1d1b"/><path d="M1321.74,742c0-2.1,0-3.82-.17-5.5h3.23l.17,3.27h.12a7,7,0,0,1,6.38-3.73,6,6,0,0,1,5.74,4.07h.09a8.37,8.37,0,0,1,2.26-2.64,6.9,6.9,0,0,1,4.49-1.43c2.69,0,6.67,1.76,6.67,8.81v12h-3.61V745.27c0-3.9-1.42-6.25-4.4-6.25a4.77,4.77,0,0,0-4.36,3.36,6,6,0,0,0-.3,1.84v12.54h-3.6V744.6c0-3.23-1.43-5.58-4.24-5.58a5,5,0,0,0-4.57,3.69,5.13,5.13,0,0,0-.3,1.81v12.24h-3.6Z" transform="translate(-33.7 0)" style="fill:#1d1d1b"/><path d="M1373.7,751.23c0,2.1,0,3.94.17,5.53h-3.27l-.21-3.31h-.09a7.62,7.62,0,0,1-6.71,3.78c-3.19,0-7-1.77-7-8.9V736.46h3.69V747.7c0,3.86,1.17,6.46,4.53,6.46a5.34,5.34,0,0,0,4.86-3.35,5.43,5.43,0,0,0,.34-1.89V736.46h3.69Z" transform="translate(-33.7 0)" style="fill:#1d1d1b"/><path d="M1379.82,742c0-2.1,0-3.82-.17-5.5h3.28l.21,3.36h.08a7.48,7.48,0,0,1,6.71-3.82c2.81,0,7.17,1.68,7.17,8.64v12.12h-3.69v-11.7c0-3.27-1.21-6-4.69-6a5.25,5.25,0,0,0-5,3.78,5.52,5.52,0,0,0-.25,1.72v12.2h-3.69Z" transform="translate(-33.7 0)" style="fill:#1d1d1b"/><path d="M1407.21,730.76a2.29,2.29,0,0,1-4.57,0,2.25,2.25,0,0,1,2.3-2.31A2.19,2.19,0,0,1,1407.21,730.76Zm-4.11,26v-20.3h3.69v20.3Z" transform="translate(-33.7 0)" style="fill:#1d1d1b"/><path d="M1427.38,756a13.63,13.63,0,0,1-5.83,1.17c-6.12,0-10.11-4.15-10.11-10.36s4.28-10.78,10.91-10.78a12.42,12.42,0,0,1,5.12,1.05l-.84,2.85a8.62,8.62,0,0,0-4.28-1c-4.66,0-7.17,3.44-7.17,7.68,0,4.69,3,7.59,7,7.59a10.49,10.49,0,0,0,4.53-1Z" transform="translate(-33.7 0)" style="fill:#1d1d1b"/><path d="M1442.94,756.76l-.29-2.55h-.13a7.56,7.56,0,0,1-6.21,3,5.78,5.78,0,0,1-6.2-5.83c0-4.91,4.36-7.6,12.2-7.55v-.42c0-1.68-.46-4.7-4.61-4.7a10.16,10.16,0,0,0-5.29,1.51l-.84-2.43a12.52,12.52,0,0,1,6.67-1.81c6.21,0,7.72,4.24,7.72,8.31v7.59a28.64,28.64,0,0,0,.34,4.86Zm-.54-10.36c-4-.08-8.6.63-8.6,4.58a3.26,3.26,0,0,0,3.48,3.52,5.06,5.06,0,0,0,4.91-3.4,4,4,0,0,0,.21-1.17Z" transform="translate(-33.7 0)" style="fill:#1d1d1b"/><path d="M1456.19,730.63v5.83h5.29v2.81h-5.29v11c0,2.52.72,3.94,2.77,3.94a8.07,8.07,0,0,0,2.14-.25l.17,2.77a9.17,9.17,0,0,1-3.27.5,5.11,5.11,0,0,1-4-1.55c-1-1.09-1.42-2.89-1.42-5.28V739.27h-3.15v-2.81h3.15V731.6Z" transform="translate(-33.7 0)" style="fill:#1d1d1b"/><path d="M1469.74,730.76a2.29,2.29,0,0,1-4.57,0,2.25,2.25,0,0,1,2.3-2.31A2.19,2.19,0,0,1,1469.74,730.76Zm-4.11,26v-20.3h3.69v20.3Z" transform="translate(-33.7 0)" style="fill:#1d1d1b"/><path d="M1493.81,746.45c0,7.5-5.2,10.78-10.11,10.78-5.49,0-9.73-4-9.73-10.45C1474,740,1478.42,736,1484,736,1489.87,736,1493.81,740.24,1493.81,746.45Zm-16.1.21c0,4.44,2.55,7.8,6.16,7.8s6.17-3.32,6.17-7.89c0-3.44-1.72-7.8-6.08-7.8S1477.71,742.8,1477.71,746.66Z" transform="translate(-33.7 0)" style="fill:#1d1d1b"/><path d="M1498.47,742c0-2.1,0-3.82-.17-5.5h3.27l.21,3.36h.08a7.48,7.48,0,0,1,6.71-3.82c2.81,0,7.18,1.68,7.18,8.64v12.12h-3.69v-11.7c0-3.27-1.22-6-4.7-6a5.41,5.41,0,0,0-5.2,5.5v12.2h-3.69Z" transform="translate(-33.7 0)" style="fill:#1d1d1b"/><path d="M1255.48,794.68c-.21-3.95-.46-8.69-.42-12.21h-.13c-1,3.31-2.14,6.84-3.56,10.74l-5,13.71h-2.77L1239,793.46c-1.34-4-2.47-7.63-3.27-11h-.08c-.09,3.52-.3,8.26-.55,12.5l-.75,12.12h-3.48l2-28.27h4.65l4.83,13.67c1.17,3.49,2.14,6.59,2.85,9.53h.13c.71-2.86,1.72-6,3-9.53l5-13.67H1258l1.77,28.27h-3.57Z" transform="translate(-33.7 0)" style="fill:#1d1d1b"/><path d="M1276.74,807.09l-.3-2.56h-.12a7.55,7.55,0,0,1-6.21,3c-4.11,0-6.21-2.89-6.21-5.83,0-4.9,4.36-7.59,12.21-7.55v-.42c0-1.67-.46-4.69-4.62-4.69a10,10,0,0,0-5.28,1.51l-.84-2.44a12.61,12.61,0,0,1,6.67-1.8c6.21,0,7.72,4.24,7.72,8.3v7.6a28.71,28.71,0,0,0,.33,4.86Zm-.55-10.36c-4-.08-8.6.63-8.6,4.57a3.27,3.27,0,0,0,3.48,3.53,5,5,0,0,0,4.91-3.4,3.76,3.76,0,0,0,.21-1.18Z" transform="translate(-33.7 0)" style="fill:#1d1d1b"/><path d="M1285.71,793.12c0-2.39,0-4.44-.17-6.33h3.23l.13,4h.17a6.08,6.08,0,0,1,5.62-4.45,4.21,4.21,0,0,1,1,.12v3.49a5.25,5.25,0,0,0-1.26-.13c-2.6,0-4.45,2-5,4.74a9.72,9.72,0,0,0-.17,1.72v10.82h-3.65Z" transform="translate(-33.7 0)" style="fill:#1d1d1b"/><path d="M1303.2,796.1h.08c.51-.71,1.22-1.59,1.81-2.3l6-7h4.45l-7.84,8.35,8.93,12h-4.49l-7-9.73-1.89,2.1v7.63h-3.65V777.31h3.65Z" transform="translate(-33.7 0)" style="fill:#1d1d1b"/><path d="M1321.27,797.61c.09,5,3.28,7,7,7a13.33,13.33,0,0,0,5.62-1l.63,2.64a16.43,16.43,0,0,1-6.76,1.26c-6.25,0-10-4.11-10-10.23s3.61-10.95,9.52-10.95c6.63,0,8.39,5.83,8.39,9.56a14.38,14.38,0,0,1-.12,1.72ZM1332.1,795c0-2.35-1-6-5.12-6-3.73,0-5.37,3.44-5.66,6Z" transform="translate(-33.7 0)" style="fill:#1d1d1b"/><path d="M1344.68,781v5.83H1350v2.81h-5.28v10.95c0,2.52.71,3.94,2.77,3.94a8,8,0,0,0,2.13-.25l.17,2.77a9.09,9.09,0,0,1-3.27.5,5.09,5.09,0,0,1-4-1.55c-1-1.09-1.43-2.89-1.43-5.29V789.6h-3.15v-2.81h3.15v-4.87Z" transform="translate(-33.7 0)" style="fill:#1d1d1b"/><path d="M1358.22,781.09a2.29,2.29,0,0,1-4.57,0,2.26,2.26,0,0,1,2.31-2.31A2.19,2.19,0,0,1,1358.22,781.09Zm-4.11,26v-20.3h3.69v20.3Z" transform="translate(-33.7 0)" style="fill:#1d1d1b"/><path d="M1363.93,792.29c0-2.1,0-3.82-.17-5.5H1367l.21,3.36h.08a7.48,7.48,0,0,1,6.71-3.82c2.81,0,7.18,1.68,7.18,8.64v12.12h-3.69v-11.7c0-3.27-1.22-6-4.7-6a5.41,5.41,0,0,0-5.2,5.5v12.2h-3.69Z" transform="translate(-33.7 0)" style="fill:#1d1d1b"/><path d="M1404.69,786.79c-.08,1.47-.16,3.1-.16,5.58v11.79c0,4.65-.93,7.5-2.9,9.27a10.78,10.78,0,0,1-7.38,2.43,13.09,13.09,0,0,1-6.75-1.68l.92-2.81a11.44,11.44,0,0,0,6,1.59c3.77,0,6.54-2,6.54-7.08v-2.27h-.09a7.23,7.23,0,0,1-6.45,3.4c-5,0-8.65-4.28-8.65-9.9,0-6.88,4.49-10.78,9.15-10.78a6.74,6.74,0,0,1,6.33,3.52h.09l.16-3.06Zm-3.81,8a5.52,5.52,0,0,0-.21-1.68,5.33,5.33,0,0,0-5.16-3.9c-3.53,0-6,3-6,7.68,0,4,2,7.3,6,7.3a5.39,5.39,0,0,0,5.11-3.78,6.41,6.41,0,0,0,.3-2Z" transform="translate(-33.7 0)" style="fill:#1d1d1b"/><path d="M1437.07,777.31v24.54c0,1.8,0,3.86.17,5.24h-3.32l-.16-3.52h-.09a7.51,7.51,0,0,1-6.92,4c-4.91,0-8.68-4.15-8.68-10.31,0-6.76,4.15-10.91,9.1-10.91a6.79,6.79,0,0,1,6.12,3.1h.09V777.31Zm-3.69,17.74a6.3,6.3,0,0,0-.17-1.55,5.43,5.43,0,0,0-5.33-4.28c-3.81,0-6.08,3.36-6.08,7.85,0,4.11,2,7.51,6,7.51a5.55,5.55,0,0,0,5.41-4.41,6.21,6.21,0,0,0,.17-1.59Z" transform="translate(-33.7 0)" style="fill:#1d1d1b"/><path d="M1447.3,781.09a2.29,2.29,0,0,1-4.57,0,2.25,2.25,0,0,1,2.31-2.31A2.19,2.19,0,0,1,1447.3,781.09Zm-4.11,26v-20.3h3.69v20.3Z" transform="translate(-33.7 0)" style="fill:#1d1d1b"/><path d="M1470.49,786.79c-.08,1.47-.16,3.1-.16,5.58v11.79c0,4.65-.93,7.5-2.9,9.27a10.78,10.78,0,0,1-7.38,2.43,13.09,13.09,0,0,1-6.75-1.68l.92-2.81a11.44,11.44,0,0,0,6,1.59c3.77,0,6.54-2,6.54-7.08v-2.27h-.09a7.23,7.23,0,0,1-6.45,3.4c-5,0-8.65-4.28-8.65-9.9,0-6.88,4.49-10.78,9.15-10.78a6.74,6.74,0,0,1,6.33,3.52h.09l.16-3.06Zm-3.81,8a5.52,5.52,0,0,0-.21-1.68,5.33,5.33,0,0,0-5.16-3.9c-3.53,0-6,3-6,7.68,0,4,2,7.3,6,7.3a5.39,5.39,0,0,0,5.11-3.78,6.41,6.41,0,0,0,.3-2Z" transform="translate(-33.7 0)" style="fill:#1d1d1b"/><path d="M1480.35,781.09a2.29,2.29,0,0,1-4.57,0,2.25,2.25,0,0,1,2.3-2.31A2.19,2.19,0,0,1,1480.35,781.09Zm-4.11,26v-20.3h3.69v20.3Z" transform="translate(-33.7 0)" style="fill:#1d1d1b"/><path d="M1490.5,781v5.83h5.28v2.81h-5.28v10.95c0,2.52.71,3.94,2.77,3.94a8,8,0,0,0,2.13-.25l.17,2.77a9.09,9.09,0,0,1-3.27.5,5.09,5.09,0,0,1-4-1.55c-1-1.09-1.43-2.89-1.43-5.29V789.6h-3.15v-2.81h3.15v-4.87Z" transform="translate(-33.7 0)" style="fill:#1d1d1b"/><path d="M1511.17,807.09l-.29-2.56h-.13a7.53,7.53,0,0,1-6.2,3c-4.12,0-6.21-2.89-6.21-5.83,0-4.9,4.36-7.59,12.2-7.55v-.42c0-1.67-.46-4.69-4.61-4.69a10.07,10.07,0,0,0-5.29,1.51l-.83-2.44a12.57,12.57,0,0,1,6.66-1.8c6.21,0,7.72,4.24,7.72,8.3v7.6a28.64,28.64,0,0,0,.34,4.86Zm-.54-10.36c-4-.08-8.6.63-8.6,4.57a3.26,3.26,0,0,0,3.48,3.53,5.06,5.06,0,0,0,4.91-3.4,4.07,4.07,0,0,0,.21-1.18Z" transform="translate(-33.7 0)" style="fill:#1d1d1b"/><path d="M1520.15,777.31h3.69v29.78h-3.69Z" transform="translate(-33.7 0)" style="fill:#1d1d1b"/></g></g><g style="opacity:0.75"><g style="clip-path:url(#a4eae8e1-0ab8-4641-bdbf-c0d8f7a25358)"><path d="M978.07,355.19c-.21-3.94-.46-8.68-.42-12.21h-.13c-1,3.32-2.14,6.84-3.56,10.74l-5,13.72H966.2L961.63,354c-1.35-4-2.48-7.63-3.28-11h-.08c-.08,3.53-.29,8.27-.55,12.5L957,367.61h-3.48l2-28.28h4.66L964.94,353c1.17,3.48,2.14,6.59,2.85,9.52h.13c.71-2.85,1.72-5.95,3-9.52l5-13.68h4.66l1.76,28.28h-3.57Z" transform="translate(-33.7 0)" style="fill:#1d1d1b"/><path d="M999.33,367.61l-.3-2.56h-.12a7.58,7.58,0,0,1-6.21,3c-4.11,0-6.21-2.9-6.21-5.83,0-4.91,4.36-7.59,12.21-7.55v-.42c0-1.68-.46-4.7-4.61-4.7a10.16,10.16,0,0,0-5.29,1.51l-.84-2.43a12.61,12.61,0,0,1,6.67-1.81c6.21,0,7.72,4.24,7.72,8.31v7.59a28.91,28.91,0,0,0,.33,4.87Zm-.55-10.36c-4-.09-8.6.63-8.6,4.57a3.27,3.27,0,0,0,3.49,3.52,5,5,0,0,0,4.9-3.4,3.65,3.65,0,0,0,.21-1.17Z" transform="translate(-33.7 0)" style="fill:#1d1d1b"/><path d="M1008.3,352.8c0-2.1,0-3.82-.17-5.5h3.28l.21,3.36h.08a7.46,7.46,0,0,1,6.71-3.82c2.81,0,7.17,1.68,7.17,8.64v12.13h-3.69V355.9c0-3.27-1.21-6-4.7-6a5.25,5.25,0,0,0-5,3.77,5.52,5.52,0,0,0-.25,1.72v12.21h-3.69Z" transform="translate(-33.7 0)" style="fill:#1d1d1b"/><path d="M1042.82,367.61l-.3-2.56h-.12a7.56,7.56,0,0,1-6.21,3c-4.11,0-6.21-2.9-6.21-5.83,0-4.91,4.36-7.59,12.21-7.55v-.42c0-1.68-.46-4.7-4.61-4.7a10.16,10.16,0,0,0-5.29,1.51l-.84-2.43a12.61,12.61,0,0,1,6.67-1.81c6.21,0,7.72,4.24,7.72,8.31v7.59a28.91,28.91,0,0,0,.33,4.87Zm-.55-10.36c-4-.09-8.6.63-8.6,4.57a3.27,3.27,0,0,0,3.49,3.52,5,5,0,0,0,4.9-3.4,3.65,3.65,0,0,0,.21-1.17Z" transform="translate(-33.7 0)" style="fill:#1d1d1b"/><path d="M1069.28,347.3c-.08,1.47-.16,3.11-.16,5.58v11.79c0,4.66-.93,7.51-2.9,9.27s-4.82,2.43-7.38,2.43a13.09,13.09,0,0,1-6.75-1.67l.92-2.81a11.53,11.53,0,0,0,6,1.59c3.77,0,6.54-2,6.54-7.09v-2.26h-.09a7.25,7.25,0,0,1-6.45,3.39c-5,0-8.65-4.28-8.65-9.9,0-6.88,4.49-10.78,9.15-10.78a6.75,6.75,0,0,1,6.33,3.53h.09l.16-3.07Zm-3.81,8a5.48,5.48,0,0,0-.21-1.68,5.32,5.32,0,0,0-5.16-3.9c-3.53,0-6,3-6,7.67,0,4,2,7.3,6,7.3a5.38,5.38,0,0,0,5.12-3.77,6.41,6.41,0,0,0,.3-2Z" transform="translate(-33.7 0)" style="fill:#1d1d1b"/><path d="M1077.29,358.13c.08,5,3.27,7,7,7a13.44,13.44,0,0,0,5.62-1l.63,2.64a16.37,16.37,0,0,1-6.75,1.26c-6.25,0-10-4.11-10-10.24s3.6-11,9.52-11c6.63,0,8.39,5.83,8.39,9.57a14.28,14.28,0,0,1-.13,1.72Zm10.82-2.65c0-2.34-1-6-5.11-6-3.74,0-5.37,3.44-5.67,6Z" transform="translate(-33.7 0)" style="fill:#1d1d1b"/><path d="M1096.25,352.8c0-2.1,0-3.82-.17-5.5h3.23l.17,3.28h.12a7,7,0,0,1,6.38-3.74,6,6,0,0,1,5.74,4.07h.09a8.5,8.5,0,0,1,2.26-2.64,7,7,0,0,1,4.49-1.43c2.69,0,6.67,1.76,6.67,8.81v12h-3.61v-11.5c0-3.9-1.42-6.25-4.4-6.25a4.78,4.78,0,0,0-4.36,3.36,6,6,0,0,0-.3,1.84v12.55H1109V355.44c0-3.23-1.43-5.58-4.24-5.58a5,5,0,0,0-4.57,3.69,5.13,5.13,0,0,0-.3,1.81v12.25h-3.6Z" transform="translate(-33.7 0)" style="fill:#1d1d1b"/><path d="M1133.28,358.13c.08,5,3.27,7,7,7a13.47,13.47,0,0,0,5.62-1l.63,2.64a16.37,16.37,0,0,1-6.75,1.26c-6.25,0-10-4.11-10-10.24s3.6-11,9.52-11c6.62,0,8.39,5.83,8.39,9.57a14.28,14.28,0,0,1-.13,1.72Zm10.82-2.65c0-2.34-1-6-5.12-6-3.73,0-5.37,3.44-5.66,6Z" transform="translate(-33.7 0)" style="fill:#1d1d1b"/><path d="M1152.24,352.8c0-2.1,0-3.82-.17-5.5h3.27l.21,3.36h.08a7.48,7.48,0,0,1,6.71-3.82c2.81,0,7.18,1.68,7.18,8.64v12.13h-3.69V355.9c0-3.27-1.22-6-4.7-6a5.4,5.4,0,0,0-5.2,5.49v12.21h-3.69Z" transform="translate(-33.7 0)" style="fill:#1d1d1b"/><path d="M1179.83,341.47v5.83h5.29v2.82h-5.29v10.94c0,2.52.71,3.95,2.77,3.95a8,8,0,0,0,2.14-.26l.17,2.77a8.94,8.94,0,0,1-3.28.51,5.11,5.11,0,0,1-4-1.56c-1.05-1.09-1.43-2.89-1.43-5.28V350.12h-3.14V347.3h3.14v-4.86Z" transform="translate(-33.7 0)" style="fill:#1d1d1b"/><path d="M981.26,388.15v24.54c0,1.8,0,3.86.16,5.24h-3.31l-.17-3.52h-.08a7.52,7.52,0,0,1-6.92,4c-4.91,0-8.69-4.16-8.69-10.32,0-6.76,4.16-10.91,9.11-10.91a6.79,6.79,0,0,1,6.12,3.1h.08V388.15Zm-3.7,17.75a6.83,6.83,0,0,0-.16-1.56,5.43,5.43,0,0,0-5.33-4.28c-3.82,0-6.08,3.36-6.08,7.85,0,4.11,2,7.51,6,7.51A5.57,5.57,0,0,0,977.4,411a6.64,6.64,0,0,0,.16-1.59Z" transform="translate(-33.7 0)" style="fill:#1d1d1b"/><path d="M989.43,408.45c.08,5,3.27,7.05,7,7.05a13.26,13.26,0,0,0,5.62-1.05l.63,2.65a16.58,16.58,0,0,1-6.75,1.25c-6.25,0-10-4.11-10-10.23s3.6-10.95,9.52-10.95c6.63,0,8.39,5.83,8.39,9.56a13.93,13.93,0,0,1-.13,1.72Zm10.82-2.64c0-2.35-1-6-5.12-6-3.73,0-5.36,3.44-5.66,6Z" transform="translate(-33.7 0)" style="fill:#1d1d1b"/><path d="M1031.75,417.18a13.7,13.7,0,0,1-5.83,1.17c-6.13,0-10.11-4.15-10.11-10.36s4.28-10.78,10.91-10.78a12.33,12.33,0,0,1,5.11,1.05l-.84,2.85a8.57,8.57,0,0,0-4.27-1c-4.66,0-7.18,3.44-7.18,7.68,0,4.69,3,7.59,7,7.59a10.49,10.49,0,0,0,4.53-1Z" transform="translate(-33.7 0)" style="fill:#1d1d1b"/><path d="M1054.19,407.62c0,7.5-5.21,10.78-10.11,10.78-5.5,0-9.74-4-9.74-10.45,0-6.79,4.45-10.78,10.07-10.78C1050.24,397.17,1054.19,401.41,1054.19,407.62Zm-16.11.21c0,4.44,2.56,7.8,6.16,7.8s6.17-3.32,6.17-7.89c0-3.44-1.72-7.8-6.08-7.8S1038.08,404,1038.08,407.83Z" transform="translate(-33.7 0)" style="fill:#1d1d1b"/><path d="M1058.84,403.13c0-2.1,0-3.82-.17-5.5h3.27l.21,3.36h.09a7.45,7.45,0,0,1,6.71-3.82c2.81,0,7.17,1.68,7.17,8.64v12.12h-3.69v-11.7c0-3.27-1.22-6-4.7-6a5.41,5.41,0,0,0-5.2,5.5v12.2h-3.69Z" transform="translate(-33.7 0)" style="fill:#1d1d1b"/><path d="M1086.43,391.8v5.83h5.29v2.81h-5.29v10.95c0,2.52.72,3.94,2.77,3.94a8,8,0,0,0,2.14-.25l.17,2.77a9.13,9.13,0,0,1-3.27.5,5.11,5.11,0,0,1-4-1.55c-1-1.09-1.42-2.89-1.42-5.28V400.44h-3.15v-2.81h3.15v-4.86Z" transform="translate(-33.7 0)" style="fill:#1d1d1b"/><path d="M1097.67,408.45c.09,5,3.28,7.05,7,7.05a13.33,13.33,0,0,0,5.62-1.05l.63,2.65a16.63,16.63,0,0,1-6.76,1.25c-6.25,0-10-4.11-10-10.23s3.61-10.95,9.52-10.95c6.63,0,8.39,5.83,8.39,9.56a12.18,12.18,0,0,1-.13,1.72Zm10.83-2.64c0-2.35-1-6-5.12-6-3.74,0-5.37,3.44-5.66,6Z" transform="translate(-33.7 0)" style="fill:#1d1d1b"/><path d="M1116.63,403.13c0-2.1,0-3.82-.17-5.5h3.27l.21,3.36h.09a7.45,7.45,0,0,1,6.71-3.82c2.81,0,7.17,1.68,7.17,8.64v12.12h-3.69v-11.7c0-3.27-1.22-6-4.7-6a5.41,5.41,0,0,0-5.2,5.5v12.2h-3.69Z" transform="translate(-33.7 0)" style="fill:#1d1d1b"/><path d="M1156.89,412.4c0,2.09,0,3.94.17,5.53h-3.27l-.21-3.31h-.08a7.65,7.65,0,0,1-6.72,3.78c-3.18,0-7-1.77-7-8.9V397.63h3.69v11.24c0,3.86,1.17,6.46,4.53,6.46a5.34,5.34,0,0,0,4.87-3.35,5.43,5.43,0,0,0,.33-1.89V397.63h3.69Z" transform="translate(-33.7 0)" style="fill:#1d1d1b"/><path d="M1162.51,414.16a9.71,9.71,0,0,0,4.87,1.47c2.68,0,3.94-1.35,3.94-3s-1-2.73-3.78-3.74c-3.65-1.3-5.37-3.31-5.37-5.74,0-3.28,2.65-6,7-6a10.15,10.15,0,0,1,5,1.26l-.92,2.68a8,8,0,0,0-4.15-1.17c-2.19,0-3.4,1.26-3.4,2.77,0,1.68,1.21,2.43,3.86,3.44,3.52,1.34,5.32,3.1,5.32,6.12,0,3.57-2.76,6.08-7.59,6.08a11.54,11.54,0,0,1-5.7-1.38Z" transform="translate(-33.7 0)" style="fill:#1d1d1b"/></g></g></g><path d="M695.63,1529.07a13.44,13.44,0,0,1-5.83,1.18c-6.12,0-10.11-4.15-10.11-10.36s4.28-10.78,10.91-10.78a12.26,12.26,0,0,1,5.12,1.05l-.84,2.85a8.49,8.49,0,0,0-4.28-1c-4.66,0-7.17,3.44-7.17,7.68,0,4.7,3,7.59,7,7.59a10.48,10.48,0,0,0,4.53-1Z" transform="translate(-33.7 0)" style="fill:#1d1d1b"/><path d="M716.94,1524.29c0,2.1,0,4,.17,5.54h-3.27l-.21-3.31h-.09a7.64,7.64,0,0,1-6.71,3.77c-3.19,0-7-1.76-7-8.89v-11.87h3.69v11.24c0,3.86,1.17,6.46,4.53,6.46a5.21,5.21,0,0,0,5.2-5.24v-12.46h3.69Z" transform="translate(-33.7 0)" style="fill:#1d1d1b"/><path d="M723.06,1500.05h3.69v29.78h-3.69Z" transform="translate(-33.7 0)" style="fill:#1d1d1b"/><path d="M737.4,1503.7v5.83h5.29v2.81H737.4v11c0,2.51.72,3.94,2.77,3.94a8.52,8.52,0,0,0,2.14-.25l.17,2.76a8.92,8.92,0,0,1-3.27.51,5.15,5.15,0,0,1-4-1.55c-1.05-1.09-1.42-2.9-1.42-5.29v-11.07h-3.15v-2.81h3.15v-4.87Z" transform="translate(-33.7 0)" style="fill:#1d1d1b"/><path d="M763.83,1524.29c0,2.1,0,4,.16,5.54h-3.27l-.21-3.31h-.08a7.66,7.66,0,0,1-6.71,3.77c-3.19,0-7-1.76-7-8.89v-11.87h3.69v11.24c0,3.86,1.18,6.46,4.53,6.46a5.18,5.18,0,0,0,5.2-5.24v-12.46h3.7Z" transform="translate(-33.7 0)" style="fill:#1d1d1b"/><path d="M770,1515.86c0-2.39-.05-4.45-.17-6.33H773l.12,4h.17a6.09,6.09,0,0,1,5.62-4.44,4.15,4.15,0,0,1,1.05.12v3.48a5.79,5.79,0,0,0-1.26-.12c-2.6,0-4.44,2-5,4.74a10.83,10.83,0,0,0-.16,1.72v10.82H770Z" transform="translate(-33.7 0)" style="fill:#1d1d1b"/><path d="M785.3,1520.35c.08,5,3.27,7.05,7,7.05a13.45,13.45,0,0,0,5.62-1.05l.63,2.64a16.41,16.41,0,0,1-6.75,1.26c-6.25,0-10-4.11-10-10.24s3.61-10.94,9.52-10.94c6.63,0,8.39,5.83,8.39,9.56a14.72,14.72,0,0,1-.12,1.72Zm10.82-2.64c0-2.35-1-6-5.12-6-3.73,0-5.37,3.44-5.66,6Z" transform="translate(-33.7 0)" style="fill:#1d1d1b"/><path d="M830.68,1500.05v24.54c0,1.8,0,3.86.16,5.24h-3.31l-.17-3.52h-.08a7.51,7.51,0,0,1-6.92,4c-4.91,0-8.69-4.15-8.69-10.32,0-6.75,4.16-10.9,9.11-10.9a6.77,6.77,0,0,1,6.12,3.1H827v-12.12Zm-3.7,17.74a6.8,6.8,0,0,0-.16-1.55,5.43,5.43,0,0,0-5.33-4.28c-3.82,0-6.08,3.36-6.08,7.84,0,4.11,2,7.51,6,7.51a5.55,5.55,0,0,0,5.41-4.4,6.78,6.78,0,0,0,.16-1.6Z" transform="translate(-33.7 0)" style="fill:#1d1d1b"/><path d="M840.91,1503.82a2.29,2.29,0,0,1-4.58,0,2.25,2.25,0,0,1,2.31-2.3A2.19,2.19,0,0,1,840.91,1503.82Zm-4.11,26v-20.3h3.69v20.3Z" transform="translate(-33.7 0)" style="fill:#1d1d1b"/><path d="M864.1,1509.53c-.08,1.46-.17,3.1-.17,5.58v11.78c0,4.66-.92,7.51-2.89,9.27a10.74,10.74,0,0,1-7.38,2.44,13.13,13.13,0,0,1-6.76-1.68l.93-2.81a11.4,11.4,0,0,0,5.95,1.59c3.78,0,6.55-2,6.55-7.09v-2.26h-.09a7.23,7.23,0,0,1-6.46,3.39c-5,0-8.64-4.27-8.64-9.89,0-6.88,4.49-10.78,9.15-10.78a6.74,6.74,0,0,1,6.33,3.52h.08l.17-3.06Zm-3.82,8a5.19,5.19,0,0,0-.21-1.68,5.31,5.31,0,0,0-5.16-3.9c-3.52,0-6,3-6,7.68,0,4,2,7.29,6,7.29a5.39,5.39,0,0,0,5.12-3.77,6.4,6.4,0,0,0,.29-2Z" transform="translate(-33.7 0)" style="fill:#1d1d1b"/><path d="M874,1503.82a2.29,2.29,0,0,1-4.57,0,2.25,2.25,0,0,1,2.31-2.3A2.18,2.18,0,0,1,874,1503.82Zm-4.11,26v-20.3h3.69v20.3Z" transform="translate(-33.7 0)" style="fill:#1d1d1b"/><path d="M884.1,1503.7v5.83h5.29v2.81H884.1v11c0,2.51.72,3.94,2.77,3.94A8.46,8.46,0,0,0,889,1527l.17,2.76a8.88,8.88,0,0,1-3.27.51,5.15,5.15,0,0,1-4-1.55c-1-1.09-1.42-2.9-1.42-5.29v-11.07h-3.15v-2.81h3.15v-4.87Z" transform="translate(-33.7 0)" style="fill:#1d1d1b"/><path d="M904.78,1529.83l-.29-2.56h-.13a7.56,7.56,0,0,1-6.21,3c-4.11,0-6.21-2.89-6.21-5.83,0-4.91,4.37-7.59,12.21-7.55v-.42c0-1.68-.46-4.7-4.61-4.7a10.16,10.16,0,0,0-5.29,1.51l-.84-2.43a12.61,12.61,0,0,1,6.67-1.8c6.21,0,7.72,4.23,7.72,8.3V1525a28.83,28.83,0,0,0,.33,4.87Zm-.55-10.36c-4-.09-8.6.63-8.6,4.57a3.27,3.27,0,0,0,3.49,3.52,5,5,0,0,0,4.9-3.39,3.76,3.76,0,0,0,.21-1.18Z" transform="translate(-33.7 0)" style="fill:#1d1d1b"/><path d="M913.75,1500.05h3.69v29.78h-3.69Z" transform="translate(-33.7 0)" style="fill:#1d1d1b"/><path d="M925.71,1520.35c.08,5,3.27,7.05,7,7.05a13.45,13.45,0,0,0,5.62-1.05l.63,2.64a16.41,16.41,0,0,1-6.75,1.26c-6.25,0-10-4.11-10-10.24s3.61-10.94,9.52-10.94c6.63,0,8.39,5.83,8.39,9.56a14.72,14.72,0,0,1-.12,1.72Zm10.82-2.64c0-2.35-1-6-5.12-6-3.73,0-5.37,3.44-5.66,6Z" transform="translate(-33.7 0)" style="fill:#1d1d1b"/><g style="clip-path:url(#a865ab07-1e45-4f35-8d65-8d95372f933c)"><path d="M1038.51,1517c321.83-93.44,546-387.25,546-739.21,0-426.92-346.08-773-773-773s-773,346.07-773,773c0,348.07,219.06,639.05,535.42,735.88" transform="translate(-33.7 0)" style="fill:none;stroke:#e30613;stroke-width:9.663000106811523px"/><polygon points="993.75 1520.25 1016.57 1531.73 1006.87 1498.33 993.75 1520.25" style="fill:#e30613"/><polygon points="551.26 1517.08 538.47 1494.97 528.29 1528.23 551.26 1517.08" style="fill:#e30613"/></g><line x1="413.12" y1="772.15" x2="531.87" y2="772.15" style="fill:none;stroke:#e30613;stroke-width:4.193999767303467px"/><line x1="413.12" y1="762.71" x2="413.12" y2="781.59" style="fill:none;stroke:#e30613;stroke-width:4.193999767303467px"/><line x1="533.97" y1="772.15" x2="652.71" y2="772.15" style="fill:none;stroke:#e30613;stroke-width:4.193999767303467px"/><line x1="533.97" y1="762.71" x2="533.97" y2="781.59" style="fill:none;stroke:#e30613;stroke-width:4.193999767303467px"/><line x1="654.81" y1="772.15" x2="773.56" y2="772.15" style="fill:none;stroke:#e30613;stroke-width:4.193999767303467px"/><line x1="654.81" y1="762.71" x2="654.81" y2="781.59" style="fill:none;stroke:#e30613;stroke-width:4.193999767303467px"/><line x1="954.04" y1="1084.64" x2="894.66" y2="981.8" style="fill:none;stroke:#e30613;stroke-width:4.193999767303467px"/><line x1="945.87" y1="1089.35" x2="962.21" y2="1079.92" style="fill:none;stroke:#e30613;stroke-width:4.193999767303467px"/><line x1="893.62" y1="979.98" x2="834.24" y2="877.15" style="fill:none;stroke:#e30613;stroke-width:4.193999767303467px"/><line x1="885.44" y1="984.7" x2="901.79" y2="975.27" style="fill:none;stroke:#e30613;stroke-width:4.193999767303467px"/><line x1="833.19" y1="875.33" x2="773.82" y2="772.49" style="fill:none;stroke:#e30613;stroke-width:4.193999767303467px"/><line x1="825.02" y1="880.05" x2="841.37" y2="870.61" style="fill:none;stroke:#e30613;stroke-width:4.193999767303467px"/><line x1="1133.99" y1="772.15" x2="1015.24" y2="772.15" style="fill:none;stroke:#e30613;stroke-width:4.193999767303467px"/><line x1="1133.99" y1="781.59" x2="1133.99" y2="762.71" style="fill:none;stroke:#e30613;stroke-width:4.193999767303467px"/><line x1="1013.14" y1="772.15" x2="894.4" y2="772.15" style="fill:none;stroke:#e30613;stroke-width:4.193999767303467px"/><line x1="1013.14" y1="781.59" x2="1013.14" y2="762.71" style="fill:none;stroke:#e30613;stroke-width:4.193999767303467px"/><line x1="892.3" y1="772.15" x2="773.56" y2="772.15" style="fill:none;stroke:#e30613;stroke-width:4.193999767303467px"/><line x1="892.3" y1="781.59" x2="892.3" y2="762.71" style="fill:none;stroke:#e30613;stroke-width:4.193999767303467px"/><line x1="592.89" y1="1084.64" x2="652.27" y2="981.8" style="fill:none;stroke:#e30613;stroke-width:4.193999767303467px"/><line x1="584.72" y1="1079.92" x2="601.07" y2="1089.35" style="fill:none;stroke:#e30613;stroke-width:4.193999767303467px"/><line x1="653.32" y1="979.98" x2="712.69" y2="877.15" style="fill:none;stroke:#e30613;stroke-width:4.193999767303467px"/><line x1="645.14" y1="975.27" x2="661.49" y2="984.7" style="fill:none;stroke:#e30613;stroke-width:4.193999767303467px"/><line x1="713.74" y1="875.33" x2="773.11" y2="772.49" style="fill:none;stroke:#e30613;stroke-width:4.193999767303467px"/><line x1="705.56" y1="870.61" x2="721.91" y2="880.05" style="fill:none;stroke:#e30613;stroke-width:4.193999767303467px"/><line x1="592.89" y1="459.97" x2="652.27" y2="562.81" style="fill:none;stroke:#e30613;stroke-width:4.193999767303467px"/><line x1="601.07" y1="455.25" x2="584.72" y2="464.69" style="fill:none;stroke:#e30613;stroke-width:4.193999767303467px"/><line x1="653.32" y1="564.62" x2="712.69" y2="667.46" style="fill:none;stroke:#e30613;stroke-width:4.193999767303467px"/><line x1="661.49" y1="559.9" x2="645.14" y2="569.34" style="fill:none;stroke:#e30613;stroke-width:4.193999767303467px"/><line x1="713.74" y1="669.27" x2="773.11" y2="772.11" style="fill:none;stroke:#e30613;stroke-width:4.193999767303467px"/><line x1="721.91" y1="664.56" x2="705.56" y2="673.99" style="fill:none;stroke:#e30613;stroke-width:4.193999767303467px"/><line x1="953.06" y1="461.33" x2="893.68" y2="564.16" style="fill:none;stroke:#e30613;stroke-width:4.193999767303467px"/><line x1="961.23" y1="466.04" x2="944.88" y2="456.61" style="fill:none;stroke:#e30613;stroke-width:4.193999767303467px"/><line x1="892.63" y1="565.98" x2="833.26" y2="668.82" style="fill:none;stroke:#e30613;stroke-width:4.193999767303467px"/><line x1="900.81" y1="570.7" x2="884.46" y2="561.26" style="fill:none;stroke:#e30613;stroke-width:4.193999767303467px"/><line x1="832.21" y1="670.63" x2="772.84" y2="773.47" style="fill:none;stroke:#e30613;stroke-width:4.193999767303467px"/><line x1="840.39" y1="675.35" x2="824.04" y2="665.91" style="fill:none;stroke:#e30613;stroke-width:4.193999767303467px"/><g style="clip-path:url(#a865ab07-1e45-4f35-8d65-8d95372f933c)"><g style="opacity:0.19999699294567108"><g style="clip-path:url(#a896542d-7b63-4786-91a8-135a10e99be7)"><polygon points="894.18 563.37 652.93 563.37 532.31 772.3 652.93 981.23 894.18 981.23 1014.81 772.3 894.18 563.37" style="fill:#e30613"/></g></g></g></g></svg>