<svg viewBox="0 0 341 206" fill="none" xmlns="http://www.w3.org/2000/svg">
<path d="M189.746 34H143.246L120 74.5043L143.246 115H189.746L213 74.5043L189.746 34Z" fill="#FFD7D5"/>
<path d="M188 116.756L188.532 116.445L190.748 115.147L191.28 114.836" stroke="#E30A18" stroke-width="1.5" stroke-linecap="round"/>
<path d="M176 95.9199L176.532 95.6088L178.748 94.3115L179.28 94.0004" stroke="#E30A18" stroke-width="1.5" stroke-linecap="round"/>
<path d="M153 55.9199L153.532 55.6088L155.748 54.3115L156.28 54.0004" stroke="#E30A18" stroke-width="1.5" stroke-linecap="round"/>
<path d="M141 34.9199L141.532 34.6088L143.748 33.3115L144.28 33.0004" stroke="#E30A18" stroke-width="1.5" stroke-linecap="round"/>
<path d="M120 76.8008V76.1849V73.6167V73.0008" stroke="#E30A18" stroke-width="1.5" stroke-linecap="round"/>
<path d="M213 76.8008V76.1849V73.6167V73.0008" stroke="#E30A18" stroke-width="1.5" stroke-linecap="round"/>
<path d="M179.59 56.9414L179.075 56.6038L176.927 55.1961L176.412 54.8585" stroke="#E30A18" stroke-width="1.5" stroke-linecap="round"/>
<path d="M190 76.8008V76.1849V73.6167V73.0008" stroke="#E30A18" stroke-width="1.5" stroke-linecap="round"/>
<path d="M145.18 117.082L144.665 116.744L142.517 115.337L142.001 114.999" stroke="#E30A18" stroke-width="1.5" stroke-linecap="round"/>
<path d="M157.18 96.082L156.665 95.7444L154.517 94.3367L154.001 93.9991" stroke="#E30A18" stroke-width="1.5" stroke-linecap="round"/>
<path d="M192.18 35.082L191.665 34.7444L189.517 33.3367L189.001 32.9991" stroke="#E30A18" stroke-width="1.5" stroke-linecap="round"/>
<path d="M144 77L144 76.3841L144 73.8159L144 73.2" stroke="#E30A18" stroke-width="1.5" stroke-linecap="round"/>
<path d="M95 75H118.663H217.337H241" stroke="#E30A18" stroke-width="1.5" stroke-linecap="round"/>
<path d="M131 138L143.005 117.284L191.986 31.7155L204 11" stroke="#E30A18" stroke-width="1.5" stroke-linecap="round"/>
<path d="M130 12L203 139" stroke="#E30A18" stroke-width="1.5" stroke-linecap="round"/>
<circle cx="130" cy="11" r="9" fill="white" stroke="#E30A18" stroke-width="2"/>
<circle cx="131" cy="138.996" r="9" fill="white" stroke="#E30A18" stroke-width="2"/>
<circle cx="205" cy="10" r="9" fill="white" stroke="#E30A18" stroke-width="2"/>
<circle cx="239" cy="74.9961" r="9" fill="white" stroke="#E30A18" stroke-width="2"/>
<circle cx="95" cy="73.9961" r="9" fill="white" stroke="#E30A18" stroke-width="2"/>
<circle cx="205" cy="140" r="9" fill="white" stroke="#E30A18" stroke-width="2"/>
<text fill="#E2051C" xml:space="preserve" style="white-space: pre" font-family="Inter" font-size="15" font-weight="bold" letter-spacing="-0.03em"><tspan x="0" y="32.9545">Informatique&#10;</tspan><tspan x="0" y="47.9545">&#38; Interfaces</tspan></text>
<text fill="#E2051C" xml:space="preserve" style="white-space: pre" font-family="Inter" font-size="15" font-weight="bold" letter-spacing="-0.03em"><tspan x="242.968" y="32.9545">Marketing&#10;</tspan><tspan x="216.589" y="47.9545">&#38; Communication</tspan></text>
<text fill="#E2051C" xml:space="preserve" style="white-space: pre" font-family="Inter" font-size="15" font-weight="bold" letter-spacing="-0.03em"><tspan x="140.227" y="181.955">Gestion&#10;</tspan><tspan x="136.649" y="196.955">de projet</tspan></text>
</svg>
