<?xml version="1.0" encoding="UTF-8" standalone="no"?>
<!DOCTYPE svg PUBLIC "-//W3C//DTD SVG 1.1//EN" "http://www.w3.org/Graphics/SVG/1.1/DTD/svg11.dtd">
<svg width="100%" height="100%" viewBox="0 0 1117 1026" version="1.1" xmlns="http://www.w3.org/2000/svg" xmlns:xlink="http://www.w3.org/1999/xlink" xml:space="preserve" xmlns:serif="http://www.serif.com/" style="fill-rule:evenodd;clip-rule:evenodd;">
    <rect id="Plan-de-travail2" serif:id="Plan de travail2" x="0" y="0" width="1116.61" height="1025.55" style="fill:none;"/>
    <g id="Plan-de-travail21" serif:id="Plan de travail2">
        <g transform="matrix(1,0,0,1,-15,-5)">
            <g>
                <g transform="matrix(1,0,0,1,213.154,78.192)">
                    <text x="0px" y="0px" style="font-family:'Inter-Regular', 'Inter', sans-serif;font-size:37.607px;">Pr</text>
                </g>
                <g transform="matrix(1,0,0,1,250.387,78.192)">
                    <text x="0px" y="0px" style="font-family:'Inter-Regular', 'Inter', sans-serif;font-size:37.607px;">ogrammer</text>
                </g>
            </g>
            <g>
                <g transform="matrix(1,0,0,1,223.948,117.792)">
                    <text x="0px" y="0px" style="font-family:'Inter-Regular', 'Inter', sans-serif;font-size:37.607px;">pour le w</text>
                </g>
                <g transform="matrix(1,0,0,1,386.983,117.792)">
                    <text x="0px" y="0px" style="font-family:'Inter-Regular', 'Inter', sans-serif;font-size:37.607px;">eb</text>
                </g>
            </g>
        </g>
        <g transform="matrix(1,0,0,1,-15,-5)">
            <g>
                <g transform="matrix(1,0,0,1,624.539,34.201)">
                    <text x="0px" y="0px" style="font-family:'Inter-Regular', 'Inter', sans-serif;font-size:37.607px;">Compr</text>
                </g>
                <g transform="matrix(1,0,0,1,743.29,34.201)">
                    <text x="0px" y="0px" style="font-family:'Inter-Regular', 'Inter', sans-serif;font-size:37.607px;">endr</text>
                </g>
                <g transform="matrix(1,0,0,1,823.899,34.201)">
                    <text x="0px" y="0px" style="font-family:'Inter-Regular', 'Inter', sans-serif;font-size:37.607px;">e le mark</text>
                </g>
                <g transform="matrix(1,0,0,1,985.279,34.201)">
                    <text x="0px" y="0px" style="font-family:'Inter-Regular', 'Inter', sans-serif;font-size:37.607px;">eting</text>
                </g>
            </g>
            <g transform="matrix(1,0,0,1,624.539,73.805)">
                <text x="0px" y="0px" style="font-family:'Inter-Regular', 'Inter', sans-serif;font-size:37.607px;">et la communication</text>
            </g>
            <g transform="matrix(1,0,0,1,624.539,113.409)">
                <text x="0px" y="0px" style="font-family:'Inter-Regular', 'Inter', sans-serif;font-size:37.607px;">digitale</text>
            </g>
        </g>
        <g transform="matrix(1,0,0,1,-15,-5)">
            <g>
                <g transform="matrix(1,0,0,1,852.476,402.42)">
                    <text x="0px" y="0px" style="font-family:'Inter-Regular', 'Inter', sans-serif;font-size:37.607px;">Cr</text>
                </g>
                <g transform="matrix(1,0,0,1,893.181,402.42)">
                    <text x="0px" y="0px" style="font-family:'Inter-Regular', 'Inter', sans-serif;font-size:37.607px;">éer des</text>
                </g>
            </g>
            <g>
                <g transform="matrix(1,0,0,1,852.476,442.02)">
                    <text x="0px" y="0px" style="font-family:'Inter-Regular', 'Inter', sans-serif;font-size:37.607px;">cont</text>
                </g>
                <g transform="matrix(1,0,0,1,931.376,442.02)">
                    <text x="0px" y="0px" style="font-family:'Inter-Regular', 'Inter', sans-serif;font-size:37.607px;">enus</text>
                </g>
            </g>
            <g>
                <g transform="matrix(1,0,0,1,852.476,481.62)">
                    <text x="0px" y="0px" style="font-family:'Inter-Regular', 'Inter', sans-serif;font-size:37.607px;">Gér</text>
                </g>
                <g transform="matrix(1,0,0,1,915.671,481.62)">
                    <text x="0px" y="0px" style="font-family:'Inter-Regular', 'Inter', sans-serif;font-size:37.607px;">er des</text>
                </g>
            </g>
            <g transform="matrix(1,0,0,1,852.476,521.221)">
                <text x="0px" y="0px" style="font-family:'Inter-Regular', 'Inter', sans-serif;font-size:37.607px;">campagnes</text>
            </g>
        </g>
        <g transform="matrix(1,0,0,1,-15,-5)">
            <g>
                <g transform="matrix(1,0,0,1,808.745,253.499)">
                    <text x="0px" y="0px" style="font-family:'Inter-Bold', 'Inter';font-weight:700;font-size:46.345px;fill:rgb(226,5,28);">Mark</text>
                </g>
                <g transform="matrix(1,0,0,1,922.88,253.499)">
                    <text x="0px" y="0px" style="font-family:'Inter-Bold', 'Inter';font-weight:700;font-size:46.345px;fill:rgb(226,5,28);">eting</text>
                </g>
            </g>
            <g transform="matrix(1,0,0,1,723.033,299.844)">
                <text x="0px" y="0px" style="font-family:'Inter-Bold', 'Inter';font-weight:700;font-size:46.345px;fill:rgb(226,5,28);">&amp; Communication</text>
            </g>
        </g>
        <g transform="matrix(1,0,0,1,-15,-5)">
            <g>
                <g transform="matrix(1,0,0,1,33.131,252.499)">
                    <text x="0px" y="0px" style="font-family:'Inter-Bold', 'Inter';font-weight:700;font-size:46.345px;fill:rgb(226,5,28);">Inf</text>
                </g>
                <g transform="matrix(1,0,0,1,91.934,252.499)">
                    <text x="0px" y="0px" style="font-family:'Inter-Bold', 'Inter';font-weight:700;font-size:46.345px;fill:rgb(226,5,28);">ormatique</text>
                </g>
            </g>
            <g>
                <g transform="matrix(1,0,0,1,41.895,298.844)">
                    <text x="0px" y="0px" style="font-family:'Inter-Bold', 'Inter';font-weight:700;font-size:46.345px;fill:rgb(226,5,28);">&amp; Int</text>
                </g>
                <g transform="matrix(1,0,0,1,143.439,298.844)">
                    <text x="0px" y="0px" style="font-family:'Inter-Bold', 'Inter';font-weight:700;font-size:46.345px;fill:rgb(226,5,28);">er<tspan x="47.908px 64.86px " y="0px 0px ">fa</tspan>ces</text>
                </g>
            </g>
        </g>
        <g transform="matrix(1,0,0,1,-15,-5)">
            <g transform="matrix(1,0,0,1,483.805,726.1)">
                <text x="0px" y="0px" style="font-family:'Inter-Bold', 'Inter';font-weight:700;font-size:46.345px;fill:rgb(226,5,28);">Gestion</text>
            </g>
            <g>
                <g transform="matrix(1,0,0,1,471.388,772.445)">
                    <text x="0px" y="0px" style="font-family:'Inter-Bold', 'Inter';font-weight:700;font-size:46.345px;fill:rgb(226,5,28);">de pr</text>
                </g>
                <g transform="matrix(1,0,0,1,586.346,772.445)">
                    <text x="0px" y="0px" style="font-family:'Inter-Bold', 'Inter';font-weight:700;font-size:46.345px;fill:rgb(226,5,28);">ojet</text>
                </g>
            </g>
        </g>
        <g transform="matrix(1,0,0,1,-15,-5)">
            <g>
                <g transform="matrix(1,0,0,1,712.209,665.868)">
                    <text x="0px" y="0px" style="font-family:'Inter-Regular', 'Inter', sans-serif;font-size:37.607px;">Imaginer et élabor</text>
                </g>
                <g transform="matrix(1,0,0,1,1033.69,665.868)">
                    <text x="0px" y="0px" style="font-family:'Inter-Regular', 'Inter', sans-serif;font-size:37.607px;">er</text>
                </g>
            </g>
            <g transform="matrix(1,0,0,1,712.209,705.469)">
                <text x="0px" y="0px" style="font-family:'Inter-Regular', 'Inter', sans-serif;font-size:37.607px;">un business model</text>
            </g>
        </g>
        <g transform="matrix(1,0,0,1,-15,-5)">
            <g>
                <g transform="matrix(1,0,0,1,60.027,665.868)">
                    <text x="0px" y="0px" style="font-family:'Inter-Regular', 'Inter', sans-serif;font-size:37.607px;">Structur</text>
                </g>
                <g transform="matrix(1,0,0,1,203.404,665.868)">
                    <text x="0px" y="0px" style="font-family:'Inter-Regular', 'Inter', sans-serif;font-size:37.607px;">er et planifier</text>
                </g>
            </g>
            <g>
                <g transform="matrix(1,0,0,1,22.156,705.469)">
                    <text x="0px" y="0px" style="font-family:'Inter-Regular', 'Inter', sans-serif;font-size:37.607px;">des pr</text>
                </g>
                <g transform="matrix(1,0,0,1,133.909,705.469)">
                    <text x="0px" y="0px" style="font-family:'Inter-Regular', 'Inter', sans-serif;font-size:37.607px;">ojet</text>
                </g>
                <g transform="matrix(1,0,0,1,200.47,705.469)">
                    <text x="0px" y="0px" style="font-family:'Inter-Regular', 'Inter', sans-serif;font-size:37.607px;">s numériques</text>
                </g>
            </g>
        </g>
        <g transform="matrix(1,0,0,1,-15,-5)">
            <g>
                <g transform="matrix(1,0,0,1,18.132,402.393)">
                    <text x="0px" y="0px" style="font-family:'Inter-Regular', 'Inter', sans-serif;font-size:37.607px;">Conce</text>
                </g>
                <g transform="matrix(1,0,0,1,132.182,402.393)">
                    <text x="0px" y="0px" style="font-family:'Inter-Regular', 'Inter', sans-serif;font-size:37.607px;">v<tspan x="20.192px " y="0px ">o</tspan>ir des</text>
                </g>
            </g>
            <g>
                <g transform="matrix(1,0,0,1,15.613,441.993)">
                    <text x="0px" y="0px" style="font-family:'Inter-Regular', 'Inter', sans-serif;font-size:37.607px;">int</text>
                </g>
                <g transform="matrix(1,0,0,1,60.004,441.993)">
                    <text x="0px" y="0px" style="font-family:'Inter-Regular', 'Inter', sans-serif;font-size:37.607px;">er<tspan x="37.18px 50.16px " y="0px 0px ">fa</tspan>ces (UX</text>
                </g>
            </g>
        </g>
        <g transform="matrix(1,0,0,1,-15,-5)">
            <g>
                <g transform="matrix(1,0,0,1,36.142,982.37)">
                    <text x="0px" y="0px" style="font-family:'Inter-Medium', 'Inter';font-weight:500;font-size:39.61px;fill:rgb(226,5,28);">Dur</text>
                </g>
                <g transform="matrix(1,0,0,1,103.293,982.37)">
                    <text x="0px" y="0px" style="font-family:'Inter-Medium', 'Inter';font-weight:500;font-size:39.61px;fill:rgb(226,5,28);">ant t</text>
                </g>
                <g transform="matrix(1,0,0,1,189.222,982.37)">
                    <text x="0px" y="0px" style="font-family:'Inter-Medium', 'Inter';font-weight:500;font-size:39.61px;fill:rgb(226,5,28);">out</text>
                </g>
                <g transform="matrix(1,0,0,1,251.127,982.37)">
                    <text x="0px" y="0px" style="font-family:'Inter-Medium', 'Inter';font-weight:500;font-size:39.61px;fill:rgb(226,5,28);">e la f</text>
                </g>
                <g transform="matrix(1,0,0,1,341.544,982.37)">
                    <text x="0px" y="0px" style="font-family:'Inter-Medium', 'Inter';font-weight:500;font-size:39.61px;fill:rgb(226,5,28);">ormation,</text>
                </g>
                <g transform="matrix(1,0,0,1,521.209,982.37)">
                    <text x="0px" y="0px" style="font-family:'Inter-Medium', 'Inter';font-weight:500;font-size:39.61px;fill:rgb(226,5,28);">dé</text>
                </g>
                <g transform="matrix(1,0,0,1,579.105,982.37)">
                    <text x="0px" y="0px" style="font-family:'Inter-Medium', 'Inter';font-weight:500;font-size:39.61px;fill:rgb(226,5,28);">v<tspan x="21.676px " y="0px ">e</tspan>loppe des</text>
                </g>
            </g>
            <g>
                <g transform="matrix(1,0,0,1,37.517,1021.98)">
                    <text x="0px" y="0px" style="font-family:'Inter-Bold', 'Inter';font-weight:700;font-size:39.61px;fill:rgb(226,5,28);">compét</text>
                </g>
                <g transform="matrix(1,0,0,1,185.098,1021.98)">
                    <text x="0px" y="0px" style="font-family:'Inter-Bold', 'Inter';font-weight:700;font-size:39.61px;fill:rgb(226,5,28);">ences r</text>
                </g>
                <g transform="matrix(1,0,0,1,326.954,1021.98)">
                    <text x="0px" y="0px" style="font-family:'Inter-Bold', 'Inter';font-weight:700;font-size:39.61px;fill:rgb(226,5,28);">elationnelles</text>
                </g>
            </g>
            <g transform="matrix(1,0,0,1,585.755,1021.98)">
                <text x="0px" y="0px" style="font-family:'Inter-Medium', 'Inter';font-weight:500;font-size:39.61px;fill:rgb(226,5,28);">et une</text>
            </g>
            <g>
                <g transform="matrix(1,0,0,1,715.205,1021.98)">
                    <text x="0px" y="0px" style="font-family:'Inter-Bold', 'Inter';font-weight:700;font-size:39.61px;fill:rgb(226,5,28);">cultur</text>
                </g>
                <g transform="matrix(1,0,0,1,829.07,1021.98)">
                    <text x="0px" y="0px" style="font-family:'Inter-Bold', 'Inter';font-weight:700;font-size:39.61px;fill:rgb(226,5,28);">e digitale</text>
                </g>
            </g>
        </g>
        <path d="M628.693,252.732L480.16,252.732L405.893,381.365L480.16,509.999L628.693,509.999L702.96,381.365L628.693,252.732Z" style="fill:rgb(255,215,213);fill-rule:nonzero;"/>
        <path d="M333.198,382.304L406.307,382.304" style="fill:none;fill-rule:nonzero;stroke:rgb(226,5,28);stroke-width:2.58px;"/>
        <path d="M333.198,376.494L333.198,388.113" style="fill:none;fill-rule:nonzero;stroke:rgb(226,5,28);stroke-width:2.58px;"/>
        <path d="M407.599,382.304L480.708,382.304" style="fill:none;fill-rule:nonzero;stroke:rgb(226,5,28);stroke-width:2.58px;"/>
        <path d="M407.599,376.494L407.599,388.113" style="fill:none;fill-rule:nonzero;stroke:rgb(226,5,28);stroke-width:2.58px;"/>
        <path d="M482,382.304L555.108,382.304" style="fill:none;fill-rule:nonzero;stroke:rgb(226,5,28);stroke-width:2.58px;"/>
        <path d="M482,376.494L482,388.113" style="fill:none;fill-rule:nonzero;stroke:rgb(226,5,28);stroke-width:2.58px;"/>
        <path d="M666.228,574.697L629.671,511.383" style="fill:none;fill-rule:nonzero;stroke:rgb(226,5,28);stroke-width:2.58px;"/>
        <path d="M661.196,577.602L671.259,571.792" style="fill:none;fill-rule:nonzero;stroke:rgb(226,5,28);stroke-width:2.58px;"/>
        <path d="M629.027,510.264L592.471,446.949" style="fill:none;fill-rule:nonzero;stroke:rgb(226,5,28);stroke-width:2.58px;"/>
        <path d="M623.996,513.168L634.059,507.358" style="fill:none;fill-rule:nonzero;stroke:rgb(226,5,28);stroke-width:2.58px;"/>
        <path d="M591.827,445.831L555.271,382.516" style="fill:none;fill-rule:nonzero;stroke:rgb(226,5,28);stroke-width:2.58px;"/>
        <path d="M586.796,448.736L596.859,442.926" style="fill:none;fill-rule:nonzero;stroke:rgb(226,5,28);stroke-width:2.58px;"/>
        <path d="M777.02,382.305L703.91,382.305" style="fill:none;fill-rule:nonzero;stroke:rgb(226,5,28);stroke-width:2.58px;"/>
        <path d="M777.02,388.115L777.02,376.496" style="fill:none;fill-rule:nonzero;stroke:rgb(226,5,28);stroke-width:2.58px;"/>
        <path d="M702.619,382.305L629.51,382.305" style="fill:none;fill-rule:nonzero;stroke:rgb(226,5,28);stroke-width:2.58px;"/>
        <path d="M702.619,388.115L702.619,376.496" style="fill:none;fill-rule:nonzero;stroke:rgb(226,5,28);stroke-width:2.58px;"/>
        <path d="M628.219,382.305L555.11,382.305" style="fill:none;fill-rule:nonzero;stroke:rgb(226,5,28);stroke-width:2.58px;"/>
        <path d="M628.219,388.115L628.219,376.496" style="fill:none;fill-rule:nonzero;stroke:rgb(226,5,28);stroke-width:2.58px;"/>
        <path d="M443.879,574.697L480.436,511.383" style="fill:none;fill-rule:nonzero;stroke:rgb(226,5,28);stroke-width:2.58px;"/>
        <path d="M438.848,571.791L448.911,577.601" style="fill:none;fill-rule:nonzero;stroke:rgb(226,5,28);stroke-width:2.58px;"/>
        <path d="M481.079,510.264L517.636,446.949" style="fill:none;fill-rule:nonzero;stroke:rgb(226,5,28);stroke-width:2.58px;"/>
        <path d="M476.048,507.359L486.111,513.169" style="fill:none;fill-rule:nonzero;stroke:rgb(226,5,28);stroke-width:2.58px;"/>
        <path d="M518.279,445.831L554.836,382.516" style="fill:none;fill-rule:nonzero;stroke:rgb(226,5,28);stroke-width:2.58px;"/>
        <path d="M513.248,442.926L523.311,448.736" style="fill:none;fill-rule:nonzero;stroke:rgb(226,5,28);stroke-width:2.58px;"/>
        <path d="M443.879,190.101L480.436,253.415" style="fill:none;fill-rule:nonzero;stroke:rgb(226,5,28);stroke-width:2.58px;"/>
        <path d="M448.91,187.196L438.847,193.006" style="fill:none;fill-rule:nonzero;stroke:rgb(226,5,28);stroke-width:2.58px;"/>
        <path d="M481.079,254.534L517.636,317.849" style="fill:none;fill-rule:nonzero;stroke:rgb(226,5,28);stroke-width:2.58px;"/>
        <path d="M486.11,251.628L476.047,257.438" style="fill:none;fill-rule:nonzero;stroke:rgb(226,5,28);stroke-width:2.58px;"/>
        <path d="M518.279,318.966L554.836,382.281" style="fill:none;fill-rule:nonzero;stroke:rgb(226,5,28);stroke-width:2.58px;"/>
        <path d="M523.31,316.062L513.247,321.872" style="fill:none;fill-rule:nonzero;stroke:rgb(226,5,28);stroke-width:2.58px;"/>
        <path d="M665.624,190.937L629.067,254.252" style="fill:none;fill-rule:nonzero;stroke:rgb(226,5,28);stroke-width:2.58px;"/>
        <path d="M670.655,193.842L660.592,188.032" style="fill:none;fill-rule:nonzero;stroke:rgb(226,5,28);stroke-width:2.58px;"/>
        <path d="M628.424,255.369L591.868,318.684" style="fill:none;fill-rule:nonzero;stroke:rgb(226,5,28);stroke-width:2.58px;"/>
        <path d="M633.455,258.275L623.392,252.465" style="fill:none;fill-rule:nonzero;stroke:rgb(226,5,28);stroke-width:2.58px;"/>
        <path d="M591.224,319.803L554.667,383.117" style="fill:none;fill-rule:nonzero;stroke:rgb(226,5,28);stroke-width:2.58px;"/>
        <path d="M596.255,322.707L586.192,316.897" style="fill:none;fill-rule:nonzero;stroke:rgb(226,5,28);stroke-width:2.58px;"/>
    </g>
</svg>
