<svg width="63" height="133" fill="none" xmlns="http://www.w3.org/2000/svg"><path d="M63 0H0v133h63V0z" fill="#E2051C"/><path d="M48.27 107.672H34.309c-3.111 0-6.379.486-6.379 5.173a5.133 5.133 0 001.168 3.606 6.677 6.677 0 005.127 1.886H48.27v2.291H19.087v-2.291h10.416a5.888 5.888 0 01-2.76-2.366 5.83 5.83 0 01-.832-3.527 6.764 6.764 0 01.52-3.235 6.806 6.806 0 011.982-2.618 9.848 9.848 0 015.81-1.205h14.048v2.286zM27.85 93.118c-.122 6.254 7.624 6.334 8.151 6.334V87.184s-8.03-.16-8.152 5.934zm10.087 6.456h.768c1.023.069 2.05-.08 3.01-.44a7.166 7.166 0 002.553-1.64 7.108 7.108 0 001.639-2.546 7.07 7.07 0 00.426-2.992 8.128 8.128 0 00-.787-3.542 8.182 8.182 0 00-2.252-2.854l2.839.288a8.861 8.861 0 012.299 6.188c0 9.26-7.71 9.943-11.02 9.943-3.51 0-11.462-1.003-11.502-8.779-.041-7.94 8.68-8.342 10.936-8.342h1.091v14.715zM39.057 55.625h-2.234v-9.203h2.234v9.203zM34.466 13.553a8.38 8.38 0 00-4.994 1.414 5.143 5.143 0 00-1.603 4.043c0 3.965 4.213 6.19 9.358 6.152 4.975-.043 9.333-1.78 9.333-6.153a5.412 5.412 0 00-1.679-3.939 5.484 5.484 0 00-4.026-1.517h-6.389zm14.126 5.73c0 5.773-5.177 8.22-11.452 8.22-6.117 0-11.19-3.287-11.146-8.378a5.57 5.57 0 01.692-3.273 5.622 5.622 0 012.445-2.299H19.013v-2.29h21.413a7.85 7.85 0 013.162.506 7.808 7.808 0 012.691 1.725 7.747 7.747 0 011.767 2.654c.398.996.584 2.064.546 3.135zM26.436 30.792s18.902 5.892 19.11 5.97c.357.135.331.17-.024.288-.214.07-19.086 5.948-19.086 5.948v2.332l20.403-6.444c1.142-.479 1.617-1.07 1.617-1.982 0-.918-.466-1.513-1.617-1.994l-20.403-6.434v2.316zM48.27 81.043H26.436v-2.28h21.836v2.28zM22.93 81.05h-2.371v-2.292h2.37v2.292zM53.876 66.29c0 4.089-1.653 6.336-4.033 6.336a4.144 4.144 0 01-2.261-.828 4.102 4.102 0 01-1.41-1.942s-.042-1.924 0-3.647c.041-4.614 1.776-5.936 3.67-5.936 2.706 0 4.034 3.089 4.034 6.016zM33.458 71.7a4.985 4.985 0 01-4.1-1.319 4.92 4.92 0 01-1.217-1.834 4.891 4.891 0 01-.292-2.177 5.115 5.115 0 011.53-4.03 5.21 5.21 0 014.078-1.462 5.48 5.48 0 013.936 1.54 5.382 5.382 0 010 7.745 5.452 5.452 0 01-3.935 1.538zM44.07 66.05c0 2.085.528 6.414-1.614 6.414-1.893 0-1.654-3.088-1.654-6.093a6.888 6.888 0 00-.33-2.968 6.921 6.921 0 00-1.555-2.554 6.978 6.978 0 00-2.493-1.667 7.015 7.015 0 00-2.967-.47 7.314 7.314 0 00-3.07.54 7.272 7.272 0 00-2.56 1.77v-2.548H25.91v8.057h.014c0 .053-.014.098-.014.151a6.74 6.74 0 00.448 2.9c.361.923.92 1.756 1.64 2.441a6.833 6.833 0 002.524 1.524 6.868 6.868 0 002.936.322 5.998 5.998 0 003.485-.786 5.943 5.943 0 002.408-2.623c0 .921.484 4.25 3.47 4.172 1.656-.044 2.502-.926 2.825-2.77a4.982 4.982 0 001.854 2.11 5.03 5.03 0 002.707.781c3.109 0 5.608-2.81 5.608-8.463 0-4.611-2.015-8.1-5.972-8.18-3.754-.08-5.772 2.407-5.772 7.94z" fill="#fff"/></svg>
