<svg xmlns="http://www.w3.org/2000/svg" viewBox="0 0 1992.11 1338.27"><defs><style>.cls-1{fill:#bbb;}.cls-2{fill:#e2051c;}</style></defs><title>Fichier 4</title><g id="Calque_2" data-name="Calque 2"><g id="Calque_1-2" data-name="Calque 1"><path class="cls-1" d="M89.57,933c-6.64-5.59-12.79-10.46-18.57-15.74-5.23-4.78-10.64-8.66-17.78-10.46-8.37-2.11-9-4.46-5.15-12.14a49.92,49.92,0,0,1,3.41-6.11c2.53-3.68,2.83-7.32.41-11.14-4.22-6.66-2-11.59,3.6-16.38a22.08,22.08,0,0,0,6.62-9.63C66,838.88,73.51,829.11,85,820.66,80,815.51,75.53,810.82,71,806.14c-6.84-7.1-6.86-8.06.82-15.07,8.36-7.65,16.73-15.29,25.33-22.67,13.69-11.74,26.72-24.12,37.56-38.59a35,35,0,0,1,14.71-11.53,147.83,147.83,0,0,0,16.17-7.84c3.61-2.08,6.68-5.09,10-7.7,2.81-2.23,5.63-4.45,8.41-6.72,1.46-1.2,3.61-2.25,4.12-3.8,2.17-6.69,7.62-8.66,13.46-10.57,7.77-2.55,12.77-7.81,14.87-16-2.26-2-4.38-3.59-6.18-5.49-4.45-4.7-4.62-10.18-1.81-16.16,3.62-7.73,7.59-15.52,9.6-23.73,2.7-11,2.45-21.75-4.34-32.44-10.25-16.15-10.46-12.65,3.58-27.06,6.94-7.11,14.05-14,21.54-21.53,5.52,5.67,10.58,3.28,15.8.85,6.94-3.24,14-6.34,21.06-9.19,3-1.22,6.38-2.33,9.56-2.28,6.86.1,12-2.84,14.48-8.69,4.2-10,11.15-16.09,21.46-19,2.37-.66,4.35-2.77,7.23-4.7-1.44-1.7-2.33-2.94-3.41-4-5.39-5.31-4.09-4.88-1.82-12.2,2.82-9.12,9.44-12.89,17.46-17-.77-7.24,4-10.54,10.27-13.15,13.92-5.76,27.24-12.6,37.41-24.49-1.06-2.42-3.77-5.63-3.11-7.87.77-2.63,4.2-4.81,6.91-6.48,4.66-2.86,8.52-5.83,10-11.66.74-2.84,3.63-5.4,6.06-7.49,7.83-6.73,15.89-13.19,23.63-19.56.23-5.26.69-10.14.57-15a25.79,25.79,0,0,0-1.78-7.6c-2.76-8-.43-12.57,8-14.55,3.54-.83,7.26-.92,10.89-1.38,7.47-1,10.18-4,10.43-11.63.23-7.07.69-7.46,8.08-8.37,3.81-.47,7.58-1.23,11.68-1.91-1.3-3.86-2.28-6.62-3.16-9.41-2.08-6.52-8.35-9.75-14.54-6.45-8.45,4.5-17.41,6.54-26.73,7.33-4.93.42-9.94-.14-14.88.2a64.31,64.31,0,0,0-10.48,2c-5.9,1.43-8.42-.25-8.07-6.25.47-8.07,1.51-15.86,10-20.37,2.15-1.15,4.35-4.59,4.34-7,0-7.46,3.81-10.16,11-10.2.35-2.8.89-5.37.95-8,.13-5.53,1.31-9.94,8.1-10.31a8,8,0,0,0,4.36-2c3.66-3.1,7.12-6.44,10.44-9.5-1.09-6.43-2.33-13.24-3.36-20.08-.64-4.21,1.2-7.05,5.39-8.27a21.62,21.62,0,0,0,3.73-1.44c8.28-4.15,16.38-4.62,24.48.64a40.87,40.87,0,0,0,7.31,3.2c1.22.49,2.72,1.35,3.77,1,6.15-2,12.54-3.6,18.19-6.59,3.81-2,6.89-2.72,10-.08,7.32,6.2,15.48,6.7,24.41,4.91a9,9,0,0,1,6.95,1.92c2.85,2.65.33,5.45-1.24,8-4.5,7.28-10.52,13.92-10,23.5,4.18,3.17,9,4.91,14,2.92,6.37-2.56,10.13-.27,13,5.21a8,8,0,0,0,1.42,1.72c9.13-2.89,17.89-5.63,26.62-8.43a26.58,26.58,0,0,1,17.56.36c1.88.67,3.84,1.09,5.77,1.62,13.65,3.7,16.36,2.44,23.19-9.7,1.53-2.72,4.15-4.83,6.83-7.86a49.92,49.92,0,0,1-5.4-.63c-4.05-.94-5.45-3.45-4-7.42.11-.31.27-.61.39-.92,5.57-14.33,8.26-15.22,21.56-7.16,2,1.2,4,2.34,6.6,3.85l8.07-5.41c-.27-2,0-3.91-.78-5.14-4.61-7.18-1.07-14.89-1.43-22.3-.09-1.88,2.71-4.32,4.71-5.78,4.56-3.35,9.63-6,14.14-9.4,3.37-2.53,6-6,9.3-8.67,4.59-3.83,9-8.52,14.34-10.62,3.57-1.4,8.66,1.08,14.84,2.12a5.38,5.38,0,0,0,2.07-1.82c4-5.85,8.81-8.47,16.17-5.8,2.31.84,5.8-.39,8.31-1.6,3.14-1.51,6.15-3.59,8.91-.24,3.26,3.94.16,6.65-2.62,9.22-.94.88-1.72,1.93-2.93,3.3,2.13,4.92,8.12,10,3.32,15.19-3.2,3.44-9,4.49-13.54,6.59,3.89,6.91,8.18,9.21,15.35,6.78Q783.86,172.8,801,166c2.49-1,4.53-3.63,6.24-5.91,2-2.65,3.32-5.77,5-8.63,4.64-7.79,4.55-7.22,13.33-5.46,5,1,10.42-.1,15.64-.43,4.17-.25,8.91-3.47,12.29.51A81.24,81.24,0,0,1,863.09,161c1.14,2.18.69,5.18,1,8.2l7,2c4.76-8.3,11.8-8.48,19.87-6,9.53,2.89,18.93,3,27.65-2.88,5.48-3.69,11.26-3.11,17.24-.11,1.12-2.36,2.24-4,2.72-5.85,1.64-6.15,4.91-9.85,11.85-9.85,1.94,0,3.94-2,5.81-3.18,1.62-1.06,3.23-3.48,4.64-3.34,7.63.8,11.25-4.75,15.63-9.13,10.56-10.55,12.5-10.7,24.36-1.32,4.5-2.84,9.11-4.6,14.36-.43,1.71,1.35,5.17.38,7.8.73,6,.78,8.61,3.57,9.31,9.66,1.05,9.12,4.74,13.24,13.82,15.42,1,.23,1.94.48,2.92.65l13.29,2.25c4.85-7.63,11.19-8.08,18.42-3.17,5.13,3.49,10,2.41,15.23-1.5-1-3.28-2.27-6.65-3.06-10.12-.41-1.82-.7-5.06.14-5.54,6.14-3.43,9-11.53,17.36-11.84,4.52-.17,4.5-.69,7.39-8-3.72.79-7.12.7-9.53,2.19-4.82,3-7.15.77-9.84-2.88-1.69-2.29-3.9-5-6.39-5.74-7.16-2-12-7.08-17.22-11.63-6.08-5.27-6-5.46-1.61-13.3-5-9.74-3.1-16.64,6.35-22.06,3.16-1.81,6.46-3.35,10.1-5.22-2-11.5,5.14-19.55,11-27.76a22.72,22.72,0,0,1,18-9.41,40.35,40.35,0,0,0,7.73-1.39c7.51-1.87,13.19-4.93,14-14.2.54-6.28,4-6.8,9.8-3.22a11.35,11.35,0,0,0,6.06,1.6c10.08-.48,14.55,2.16,18.39,11.88,2.06-2.94,3.71-5.73,5.79-8.16,2.79-3.26,6.42-3.53,8.26-.06a15,15,0,0,0,7.56,7.21c1.75.81,3.08,3.31,3.83,5.33a80.09,80.09,0,0,1,2.42,9.65c12.07-2.35,15.94-.74,21.39,8.83,3.39,6,2.86,7.72-3.18,10.77a32.08,32.08,0,0,0-4.18,2.43c-.45.32-.5,1.19-1,2.5,5.12,5.21,13,10.17,5.23,20.52l19.72,9.84c1.91-5.13.08-6.48-3.33-7.69-10-3.59-11.64-12.08-3.78-19.5a95.25,95.25,0,0,1,11.3-9.69c5.3-3.63,8.94-2.83,11.07,3.06,3.84,10.59,12.53,14,22,17,2.23.7,5.2,2.49,5.73,4.37,1,3.64,1.85,8-1.93,11-1.25,1-2.89,1.53-5.1,2.65,4.35,3.9,8,7.7,8.59,13.75.43,4.16,4.65,4.51,8,3.4,7.23-2.39,14.45-4.92,21.44-7.93a77.36,77.36,0,0,0,14-7.75c3.13-2.19,5.49-5.48,7.87-7.94-1.77-5.48-4.67-8.37-9.31-9.33-7.68-1.59-11.74-8.07-18.89-12.26,3.67-3,6.13-4.94,8.61-6.94l19.25,8.87,1.34-2-8.62-7.09c.84-4.28,3.25-3.1,5.8-1.7,10.5,5.78,21,11.51,31.52,17.3,6.91,3.81,13.58,7.08,16.21,16.18,1.22,4.22,8.18,9.47,12.6,9.52,9,.11,16.54,4.45,24.93,5.74a88.62,88.62,0,0,0,9.19.5c.76-8.78-2.46-14.33-8.28-18.25-6.34-4.28-9.43-9.83-9.23-17.54.17-6.53-2.79-11.08-9-14.12-6.85-3.36-13-8.06-19.81-11.62-13.53-7.14-23.51-18.33-34.68-28.86l3.16-8.15c5.38-1,9.63-.1,13.31,3.46,2.63,2.54,5.66,4.68,8.21,7.29,15.12,15.55,33.56,26,53.15,34.66,5.2,2.3,9.09,4.91,8.58,11.67-.18,2.51,1.51,5.86,3.42,7.71,13.15,12.71,26.11,25.66,43.44,33,4.5,1.9,8.6,3.51,13.28,1.8,12.94-4.74,24.55-1.92,35.77,5.39a21.45,21.45,0,0,0,11,3.45c11.16,0,16.85,3.54,20.65,14.31a103.24,103.24,0,0,1,3.44,10.42c2.82,12.12,15.36,21.8,27.94,15.4.51-.26,1.27,0,1.86,0,9.35,11.6,21.48,18.1,36.39,20.37.37,2,.76,4.26,1.43,8,1.5-2.29,2.33-3.55,3.41-5.22l8.76.49c5.39,5.86,10.08,11.46,15.32,16.49,3,2.92,4.42,5.81,2.76,9.65s-4.72,5.4-8.87,4.93c-13.07-1.47-24.93,1.73-36.11,10.14l-6.1-7.74c-6.17,3.17-10.22,11.34-20,7.46,1.29,5.15,1.82,8.42,7.35,6.78,1.65-.49,5,.8,5.86,2.27,3.18,5.55,8.16,7.15,13.89,8.48,9,2.09,9.7,4,5.86,12.45-4.51,10-3.06,18.3,4.54,26,8,8.14,4.33,22.37-6.74,25.73a45.06,45.06,0,0,1-6.89,1.17c-6.65.92-10.7,5-13.07,10.94a60.74,60.74,0,0,0-3.11,9.48c-1.58,7.16-5.43,12.53-11.14,17.11-8.24,6.62-9.44,8.75-14.89,20.26,2.39,2.8,4.76,6,7.57,8.77,5.39,5.33,9,10.81,2.68,18.24,12.58,8.66,13.84,19.21,5.18,31.55,8,3.47,10.4,12.73,19.18,14.25,1.17.2,2.65,2.32,2.86,3.73.73,5,2.8,9.25,5.13,13.73,1.36,2.61-1.27,7.32-2,10.63,1,4.89,2.46,9.55,2.88,14.3.45,5.21-.58,9.93-7.12,11.37-1.47.33-3.58,3.46-3.28,4.85.6,2.83,2.9,2.35,5.5,1.3,14-5.64,26.78-4.17,37.52,7.35a9.77,9.77,0,0,0,2.39,1.53,2.11,2.11,0,0,0,1,.15c17.8.19,34.26,4,46.33,18.52,6.52-4.56,12.3-8,19.25-4.36,1.65.87,4.4,2.84,4.18,3.59-1.71,5.93,3.6,8.77,5,13.14,1.16,3.49,1.81,8.64.06,11.34-5.94,9.16-5.25,18.7-3.85,29.12,10.67,6,21.17,13.23,34.91,10.43,3.42-.7,6.81.09,8.63,3.54,2,3.72,5,4.51,9,5a16.76,16.76,0,0,1,9.42,4.46c5.53,6,13.54,10.21,14.43,20,8.19.33,15.32,2.45,18.29,10.63,4.13-.62,7.66-1.54,11.21-1.6,8.2-.13,15.7-1.11,21.59-8,1.8-2.11,5.83-2.58,9-3.21,2.49-.51,5.16-.1,8.11-.1.26-2,1-3.7.48-4.48-4.58-6.76-3-13,.78-19.46,1.41-2.45,1.88-5.61,2.19-8.5.89-8.42,2.51-9.73,10.89-7.52,6.37,1.68,12.67,3.67,18.73,5.44.83-1.21,1.59-1.85,1.48-2.25-2.15-7.69-1.74-13.57,6.77-18.09,3.39-1.81,4.4-8.59,5.93-13.3,2.11-6.49,4.72-11.52,13-10.94,2.5.18,5.57-1.9,7.71-3.72,4.18-3.56,7.63-3.16,11.32.54,4,4,8.69,7.46,12.06,11.93,2.59,3.44,3.6,8.08,5.16,11.83,6.5,3.68,13,7.46,19.65,11.08,5,2.73,6.78,6.51,6.07,12.35-.9,7.36-2.21,14.44-6.11,20.84a25.12,25.12,0,0,0-3.35,17.18c2,15-3.22,29-7.58,42.92-1.16,3.68-6.34,6.11-9.69,9.13,8.5,15.36,12.13,22.28-8.17,36.36a45.53,45.53,0,0,1,2.84,4.63c2.74,5.92,1,11.8-4.46,15.4-8.31,5.49-10,9.82-7.44,19.12,1.32,4.79,2.69,9.56,4.15,14.75,3,0,5.76.55,8.15-.11,7.32-2,12.93.46,18,5.57a45,45,0,0,0,7.74,6.31c6.16,3.92,7.88,9,6.19,16.16-2.83,12-5.13,24.1-7.26,36.23-1.32,7.49-8.66,9.33-12.71,14.22-.62.75-4.9-.76-6.89-2.11-3.54-2.4-6.62-5.47-10.2-8.53-9.41,6.87-17.16-.87-26.07-2.66-3.81,5.3-8.34,8.57-14.68,3.4-.55-.44-1.91.18-2.89.16-10.51-.17-12.46-1.6-15.87-11.21-.75-2.1-1.87-4.07-3-6.56-2,.62-3.48,1.13-5,1.54-5.64,1.52-10.22-.37-11.8-5.73-1.78-6-3.18-12.32,1.13-18.21,2.45-3.35,4.32-7-1.27-10.42-4.17,5.76-9.14,7.68-15.82,3.07-1.78-1.22-5.77-.13-8.34.9-5.55,2.23-10.72,5.4-16.28,7.61-3.53,1.41-7.48,1.8-12.2,2.87-.15,1.33-.38,3.87-.7,6.4-.17,1.31,0,3.17-.82,3.81-9.53,7.72-9.67,22.43-19.83,27.2-1.29,6.57-1.87,11.65-3.33,16.46-2.2,7.24-2.74,14.51,0,21.42,2.36,5.84,4.29,11.24.2,16.84,2.44,3.42,3.92,7.37,6.73,9,4.08,2.31,8.67,4.11,14.08,1.59,4-1.86,9.09-2.93,13.34-2.22,7.55,1.26,10.12,9.41,15.59,13.85,3.93,3.19,2.16,8.63,1.74,13.29-.56,6.34-3.3,10.59-9.71,12.25-1.88.48-3.57,1.65-5.82,2.73,1.11,6.66-1,11.7-7.36,14.63-1.14.52-2.4,2.91-2.11,4.06,1.75,6.93,1.39,15.05,8.69,19.32,11.27,6.61,15,18.21,19.87,29.07,1.72,3.79,1.28,7-1.51,10.09q-8.07,8.88-16,17.91c-2.72,3.13-6,3.75-9.92,3.12-6.91-1.11-13.8-2.39-19.58,3.74-1,1.06-4.34.46-6.38-.13-1.84-.52-3.4-2.05-5-3.18-9.26-6.34-9.26-6.35-3.87-16.62,3.91-7.44,3-10.47-4.5-14.15-3.28-1.63-6.64-3.11-10-4.65-12.17-5.64-14-9.52-10.66-22.67-7.12-8.5-7.12-8.5-2.25-24.53l-14.52-11.79c-10,5.6-10,5.6-18.56-2a64.84,64.84,0,0,0-6.48,4.1c-4.58,3.7-9.54,5.9-15.58,5.25-4.91-.52-9,1.28-12.9,4.29-4.21,3.27-8.91,5.91-13,9.3-4.87,4-9.36,4-14.43.47-2.65-1.88-5.77-3.09-9.13-4.84-1,6-3.06,10.7-2,16.76.78,4.55-2.73,10.07-5.07,14.79-.77,1.54-3.9,2.8-5.87,2.68-5.42-.32-10.8-1.43-16.2-2.23-.07-.67-.13-1.33-.2-2-3.72,2.12-7.43,4.25-11.17,6.34-5.71,3.19-11.31,3.24-16.85-.5a17.46,17.46,0,0,0-5.15-2.71c-7.21-1.83-14.53-3.26-21.71-5.16a11,11,0,0,1-4.78-3.33c-7-7.61-14.42-14.93-17.16-25.36-2.09-8-6.69-13.17-14.47-16.4-7.2-3-7-3.6-5-11.5,1.65-6.73-2-16.55-7.3-22.85-1.7-2-1.89-6.09-1.45-9a191.46,191.46,0,0,1,4.46-20.47c.94-3.54,1.4-6.43-3.32-8.49-1.68,2.83-3.42,5.53-4.93,8.36-2.21,4.15-5.07,5.56-9.83,4-5.94-2-10.31-4.8-13.18-11-6.17-13.29-2.46-11.27-18.43-11.29a55.13,55.13,0,0,0-11.7,1.73c-5.43,1.18-8.5,5-6.93,10.24,3,10-1.15,15.85-9.58,20.07a8.75,8.75,0,0,0-2.11,2.06,14.4,14.4,0,0,0-1,2c3,2.84,6,6.19,9.51,9,3.72,3,5.07,6.47,4.56,11.33-.36,3.39,1.06,6.93,1.25,10.43a24.2,24.2,0,0,1-.67,8.47c-1.31,4.06-1.12,6.77,3.06,9.11a9.53,9.53,0,0,1,4.23,6.22c1,8.37,2.82,17-3.1,24.59-1.18,1.52-2.67,3.73-2.36,5.29,1.54,7.76-3.14,12.73-7.58,17.59a27.34,27.34,0,0,0-7.5,19.82c.09,11.56-.36,11.56-12,15.53-1.37,4.48-2.51,9.6-8.08,12.18-1.72.8-3.24,4.6-2.91,6.73.95,6.06-2.29,10.35-5.34,14.56-1.54,2.12-4.76,4.4-7.12,4.3-8.53-.38-13.45,5.17-16.28,11.15-4.07,8.6-10.2,13.55-18.67,16.58a44.48,44.48,0,0,0-5.15,2.77c1.25,3.52,2.27,7,3.66,10.23,1.78,4.21,1.54,8.2.41,12.6-2.17,8.54-6.5,14.22-15.75,15.56a26.14,26.14,0,0,0-10.34,3.51,17.21,17.21,0,0,0-6.69,7.91c-.71,2,1.6,5.09,2.42,7.34,5.88-.3,10.77-.83,15.65-.73,6.76.13,13.28.06,18.74-4.89,2.12-1.92,4.79-2.73,6.83.32s.1,4.89-2.16,6.66a95.72,95.72,0,0,0-7.68,6.37c-2.7,2.63-5.62,2.83-9.17,2.31-5.81-.85-11.7-1.12-17.58-1.64-.21,11.66-.21,11.66-11.49,24.1,3.82,2.94,6.28,6.34,5.5,11.79s2.64,8.95,7.79,11.1c9.36,3.9,16.72,10.62,23,18.38,1.26,1.56,1.45,5.49.36,7.2-3.88,6.06-8.61,11.58-12.84,17.43a25,25,0,0,0-3.64,6.79c-2.16,6.64-3.85,13.44-6,20.09-.68,2.12-1.76,4.51-3.41,5.83-4.31,3.43-20,.77-23.89-3.46-1.12-1.24-2.87-2.63-4.37-2.68-5.28-.18-9.16-7.64-15.45-2.69-2,1.59-4.83,2.21-7.35,3-6.26,2.1-8.21.23-8.45-6.47-.27-7.68,5.47-11.78,9.51-17.54-1.09-6.53-2.13-13.37-3.42-20.17-.35-1.88-1.1-4.9-2.24-5.19-4.72-1.21-5.08-5.35-7.16-8.51-4.16-6.34-6.66-12.89-4.4-21.21-9.92-.62-14.61-7.42-19.71-13.35-3.81-4.44-8-6.64-13.82-6a32.61,32.61,0,0,1-7-.15c-6.37-.73-8.35-3.42-5.81-9.37,3.81-9,5.06-19.63,15.23-24.85,1.23-.63,2.74-2.73,2.54-3.87-1.43-8,4.33-10.27,10.24-12.86-.27-2.08.19-4.75-.88-5.72-5.9-5.37-10.57-12.35-21-10-8.26,1.9-15-4-21.07-9.23-8.42,6.07-9.4,9.76-6.53,18.62,1.29,4,1.36,8.47,1.33,12.72,0,4.87.78,8.82,4.58,12.51,5.61,5.46,5,12.07-.8,17.11-2.76,2.39-5.86,4.41-8.62,6.81-1.7,1.48-4.06,3.22-4.36,5.11-1,6.43-5.56,9.56-10.23,12.79-5.15,3.56-9.86,6.93-12.46,13.49-1.57,4-7.34,6.3-11.28,9.29-4.11,3.12-9.91,5-8.36,12.07.12.56-.19,1.71-.52,1.81-9.38,2.68-6.43,11.14-6.35,16.66.08,6.12,2.41,12.88,8.3,17.23,1.31,1,1.87,3.32,2.21,5.15.65,3.59.9,7.25,1.22,10.07-2.45,2.9-5.89,5.15-6.39,7.94-1.36,7.47-5,11.25-12.6,11.33-1.61,0-3.22.77-5.28,1.29-.64,2.7-1.66,5.53-1.88,8.42-.13,1.82.53,5.09,1.52,5.38,5.24,1.52,5.49,6.51,7.52,10.08s2.64,8.18,4.88,11.67c2.14,3.32,5.58,5.8,9.81,10l-13.89.72c-3.24-5.35-7.34-9.27-7.88-13.63-1-8.31-7.3-12.93-10.61-19.46-2.12-4.17-1.55-9.65-2.41-14.5-1-5.75,3.12-8.31,6.65-11.24,6-5,7.55-11.45,6.54-18.72-.55-3.94-1.73-7.79-2.53-11.7-1.24-6-4.33-10.51-10.38-12.22-7-2-10.82-6.49-14-12.92-2.66-5.46-7.42-9.9-11.44-15.05,4.57-10.32,16.58-10.3,33.37,5.61,7.6-7.23,15.34-14.26,22.68-21.71,3.46-3.52,6.27-7.72,9.13-11.78,2.29-3.26,4.17-6.82,6.31-10.19,6.88-10.82,11.54-23.9,27.78-25.14-3.29-14.72-6.24-27.92-9.37-42-2.88-1.1-6.28-2.33-9.63-3.7-2.44-1-5.65-1.58-7-3.44-3.26-4.35-7.16-5.32-12.14-4.6-5.15.74-9.24-.25-10.17-6.56a8.28,8.28,0,0,0-3.12-4.86c-4.41-3.23-5.64-7.16-2.88-12.38-7.42-2.74-10.93-7.92-13.27-14.54-1-2.89-4.21-5-6.26-7.54s-5.09-5-5.55-7.89c-1.18-7.22-5.59-9.93-11.93-11.34a41.67,41.67,0,0,1-10.43-3.34c-3-1.61-5.52-4.29-8.17-6.59-1.46-1.28-2.57-3-4.17-4.07-9.44-6-9.89-7.56-4.19-17.56-2.54-4.7-5.07-9.73-7.94-14.57-2.37-4-2.08-7.46.72-11,2.67-3.41,5-7.13,7.72-10.46,3.79-4.55,6.25-9.2,4.67-15.47-.51-2,.85-4.43,1.11-6.69.29-2.53.83-5.2.33-7.61-1.15-5.49-3-10.56.13-16.37,1.15-2.12-1.53-6.17-2-9.41-.59-3.81-1.88-8.08-.77-11.46,2.3-7,.59-11.51-6.24-15.23-3.2,1.29-6.84,2.83-10.52,4.24-2.47.94-5.23,2.81-7.48,2.36-8.67-1.74-13.8,3.33-18.78,8.78-4.78,5.24-10.49,8.64-18.59,8.6,2.54,6,9.8,6.81,8.33,13.22-1.11,4.8-.09,11.18-2.88,14.25-4.72,5.17-11.7,8.28-18.86,13,.42,5.76-3.85,9.72-10.67,11.52-6,1.59-9.6,5.32-10.91,11.54C995,973,989,977.32,980.94,979.05c-7,1.51-14,5.67-21.71-.19-6.08,6.68-11.82,13-18.1,19.92,4.49,2.48,10.65,4.42,11,11.58.06,1,1.56,2.32,2.67,2.7,7.89,2.72,9.44,9.54,11.15,16.43,1.34,5.43,2.24,11,6.78,15.22,2.81,2.62,1.83,6.19-.13,9.2-3.18,4.87-4.92,9.65-3.14,15.85,1.35,4.71-3.26,11.19-8.86,12.94-5.88,1.83-10.21,4.1-11,11-.51,4.35-4.53,5.3-8.23,6l-23.9,4.87c-3.61,7.85-7.12,15.55-1.94,24.3,3.14,5.3,2.6,10-3,13.74-1.84,1.23-4.64,3.73-4.33,5,2.42,10.4-7.34,13.8-11.46,20.28-1.37,2.17-5.55,3.38-8.53,3.54-7.3.39-14.66.07-22-.26-4.1-.18-6.21,1.84-9,4.65-6.31,6.28-7.61,14.36-10,22.08-.73,2.34-1,5.45-.07,7.57,2.44,5.46-.27,8.62-3.65,12.24-3.64,3.89-7.42,3.59-11.78,2-6.46-2.43-12.73-5.68-19.58-.16-3,2.4-6.21,0-8.87-2.34-3.88-3.44-7.93-6.69-12.37-10.41-4.58,6.06-7.86,13.36-16.12,10-7.34-3-11-9.12-11-15.35l-16.31-14.71c-6.86,0-15.5-.35-24.08.12-5.79.32-10.59.15-13-6.26-.52-1.35-2.71-2.06-5.59-4.11-.76,4.9-1.24,8.35-1.83,11.78-1.24,7.21-2.76,8.3-10.09,7.17-3-.46-5.87-1.33-8.84-1.63-6.57-.65-10.7,2.21-11.52,9-.56,4.6-2.8,6.58-6.83,7.08a17.63,17.63,0,0,0-13.71,8.77,8.12,8.12,0,0,1-4.61,3.51c-5.78,1.24-10.33,3.72-13.79,8.82-1,1.45-4.94,2-7,1.38-5.89-1.77-11.53-4.39-18.06-7L589,1221.79c-2.62,3.15-6.67,7.91-10.58,12.78-2.72,3.39-5.37,4.86-10.25,3.53-7.57-2.06-9.75-.55-13.85,6.11-2.09,3.41-4,6.91-6.2,10.26-2.49,3.84-5.69,4.28-9.3,1.47l-11.89-9.27c-3.48,2.69-6.57,5.2-9.79,7.54-9.28,6.78-15.88,4.59-19.32-6.11a28.86,28.86,0,0,0-4.05-7.88c-4.45-6.24-8.92-12.5-13.87-18.33-6.51-7.66-10.67-16-9.63-26.72-1.46-1.23-2.9-2.55-4.45-3.73-8.9-6.75-8.91-6.73-2.52-17.44-2.24-1.93-4.33-4.63-7.07-5.88-4.85-2.21-9.05-4.4-8.69-10.63-8.19-7.46-9.91-20-20.32-25.74a8.78,8.78,0,0,0-2-.14c-2.3,2.22-5.16,4.91-7.94,7.69-2.93,2.91-6.21,4.28-9.73,1.42-3.67-3-9.44-4.57-8.29-11.16.17-1,.51-1.93.73-2.9,1.77-7.73,7.54-14.47,4.25-23.56-1.07-2.94,2.06-7.4,3.56-12.07-5.15-.78-10.37-.5-14.5-2.49-4.6-2.22-8.93-1.1-13.22-1.79-4.74-.77-11.11-4-12.87-8-3.23-7.23-6.42-16,.06-23.54,4.21-4.88,5.06-9.51,2.82-15.47a13,13,0,0,1,0-8.59c3.47-9,6.79-18.18,15-24.25,6.36-4.69,9.17-11.19,9.53-19.56-6.72-4.11-13.93-8.28-16.87-16.75-.45-1.28-2.39-2.08-3.71-3-7.9-5.51-14.39-12.2-17.91-21.36-3.23-8.43-1.87-12.36,5.32-18.07,3.12-2.48,8.57-3.44,7.46-9.35s-6.63-4.73-10.33-6.28c-4-1.66-8.29-2.45-12.4-3.8-5.76-1.9-11.54-3.13-17.61-1.55a10.28,10.28,0,0,1-3,.21c-19.45-.85-38.41,2.56-57.39,6.22a23.84,23.84,0,0,1-12.47-1.28c-12.52-4.88-19.76-1.54-23.49,11.65-.26.93-.69,1.82-1.16,3-13.18,6-29.91,6.1-37.44,22-8-2.52-14.85-4.73-17.7-13.4-1.49-4.5-8.42-6.37-13.79-5-9.34,2.37-15.57,8.58-20,16.77-1.89,3.5-3,7.44-4.85,11-3,5.51-4.61,10.69-.7,16.64,3.42,5.21-.57,9.42-3.57,14.09l6.2,9.93c1.52-.54,2.57-.66,3.27-1.21,9.35-7.32,9.34-7.34,17.59.35,4.65,4.34,4.78,11.66-.24,17.94-6.41,8-12.23,16.77-22.15,21.15-2.1.93-4.35,2.71-6.36,2.48-6.84-.77-11.2,3.48-16,6.92-3.37,2.41-6.07,5.17-5.23,9.93.74,4.23-1.84,7.07-5,9.07-7.31,4.61-14.47,9.71-22.34,13.13-6.91,3-14.46,1.19-21-2.48-7.82-4.38-12.15-3.9-17.61,2.89-4.66,5.78-4.67,5.81-11.18,2.15-6.34-3.57-12.22-3.7-18.54.69-3.81,2.65-7.29,7.35-14.21,5-1.48-13.45,6.9-24.31,10.51-37.25-1-.92-2.3-2.29-3.75-3.54-5.6-4.81-4.55-4.49-2.38-12.23,2.59-9.21,8-13.55,16.79-15.56,3-.67,5.4-3.72,8.14-5.6,3.18-2.17,5.77-5.93,10.55-4,.52.21,1.62.2,1.78-.09,4-7.1,11.48-2.76,17-5.08,2.38-1,6,1.08,10.19,2,0-1.89.43-3.73-.09-5.25a60.5,60.5,0,0,0-4-9.16c-2.72-5.16-3.86-9.77,1.82-14a7.82,7.82,0,0,0,2.61-6c-.52-5.85,2.35-10.2,5.23-14.7C79.77,948.54,84.89,940.41,89.57,933ZM1211.18,40.66c-13.44,6.39-16.24,4.84-19.25-9.56a72.35,72.35,0,0,0-2.2-7c-.88,7.92-6.62,11.92-11.25,16.46-4.44,4.36-6.08,3.8-10.79-.62-5.67-5.3-4.81-12-5-18.61s-.51-6.58-7.92-4.81c-.43,12.42-3.2,14.37-15.89,12.07-2.32-.42-5.87.12-7.27,1.66-3.9,4.3-7.54,6.22-12.86,2.55-.8-.54-2.59.06-3.8.48-6.89,2.39-16.09,16.27-14.27,23.2,1.69,6.42-.74,9.25-5.92,11.71-4.67,2.22-9.08,5-14.13,7.78,4.22,6.28,7.58,11.63,3.44,17.6,4.93,4.75,9.06,9.26,16.16,5.86,1.1-.52,4,.25,4.42,1.19,3.78,8,10.72,4.48,16.46,5.21,3.76-11.72,18.37-17.24,30.57-11.77.86-.32,1.81-.6,2.71-1,10-4.74,10-4.75,16,4,.56.83,1.14,1.65,1.69,2.48,6.64,10,6,13.94-3.35,21.73-1,.79-2,1.44-2.88,2,1.24,11.34-.08,14.78-8.25,22.29-4,3.67-9.84,3.62-15.63,0-5.49-3.39-2.75-7.24-.85-11.14.23-.47-.19-1.25-.56-3.22L1127,125.59c-1.63,5.06-3.39,10-9,9.82-6.6-.25-9.33,4.77-14.41,8.28,12,1.15,12.59,1.64,15.33,12.84-6.54,2.49-13.45,4.63-19.93,7.7-8.49,4-16.48,4.41-24.49-.84a2,2,0,0,0-1.23-.18c-3.26,1.89-6.3,5.22-8.8,4.85-12.57-1.84-25.74-1.25-36.26-11.28-5.13-4.9-5.62-10.71-7.16-16.29-8-.54-15.4-3.56-22.54,1.5-1,.74-4.36-.73-5.95-2s-2.37-3.66-3.59-5.7c-1.29.78-2.41,1.09-2.9,1.83-6.69,10-17.64,14.66-27.67,19.22-6.61,3-10.74,5.7-13.42,12.38-2,4.91-8.25,6.54-13.61,4.1-3.94-1.8-7.15-1.16-10.32.74-9.1,5.44-18.59,6.69-28.69,3.43-1.25-.41-2.7-.24-3.93-.7-4-1.48-7.15-.65-9.51,2.95-2.91,4.43-6.84,4.19-11.47,3.15-8.79-2-16.08-4.88-14.39-16.07a3.34,3.34,0,0,0-.1-1c-1.49-7.23-4.28-9.19-11.9-8.37-6.47.7-12.94,1.38-20.5,2.18-.71,1.16-2.09,3.41-3.45,5.67-2.9,4.8-5.13,9.82-11.4,11.83-12.36,4-24.41,8.89-36.73,13a27.15,27.15,0,0,1-10.68.83c-13-1.2-18.14-12.4-25.32-20.76-2.5-2.92-.43-6.09,4-6.95,5.1-1,10.28-1.46,16.38-2.28a58.84,58.84,0,0,0-3.36-6.05c-3.6-4.9-5.16-5-9.3-.84a18.28,18.28,0,0,0-1.93,2.29c-3.79,5.44-8.44,8.42-15.32,5.79a6,6,0,0,0-3.82-.27c-4.41,1.65-9,1.78-12.76,6.35-4.16,5.08-10.87,8.07-16.56,12,7.8,8.29,8,8.8,3.72,16.79-2.66,5-8.19,8.62-7,15.35-6.87,5.46-12.58,12.87-22.4,13.38-2.49,5.45-4.66,11.11-11.67,12.44-1,.2-2,1.67-2.67,2.73-10.21,15.12-16.58,18-33.1,12.82-14.48-4.58-27.46-2-40,5.48-10.46,6.2-10.47,6.17-17.85-4.13a11.54,11.54,0,0,0-2.1-1.61c-8.23,3.6-15.57-1.45-23.36-3.8-4-1.19-5-4.27-4.27-7.89,1.51-7.4,3.29-14.74,4.86-21.7L516.84,211c-8,2.48-15.75,5.05-23.6,7.16-1.68.45-3.89-.55-5.72-1.25a75.11,75.11,0,0,1-10-4.43c-6.47-3.68-12.58-3.54-18.8,1.06-.73,3.58-.29,6.35,3,9.39,7.77,7.09,5.55,15.64-4.43,19.56-2.14.85-5.43,1.45-6.06,3-2.37,5.93-7.6,7.7-12.39,9.25-1.92,7.8,2.56,18.53-10.17,18-1.79,3.94-2.71,7.63-4.89,10.29-2.4,2.95-5.95,5-9.51,7.79,7.79,3.11,14.68,3.08,22,2.27a63.44,63.44,0,0,0,23.59-7.47c4.9-2.65,9.27-2.51,14.11.25,6.29,3.59,13.8,5.76,14,14.95,5.52,3.63,5,8.8,1.9,13-2.78,3.8-7,6.66-11,9.37-1.72,1.18-4.4.94-4.73,1-4.35,6.24-6.74,12.73-11.36,15.54-6.12,3.72-14,4.54-20.56,6.45,0,5.3-.13,10.43.06,15.54a12,12,0,0,0,1.39,5.62c2.95,4.83,1.08,8-2.8,11.11-8.08,6.43-16.6,12.47-23.83,19.77-5.82,5.88-10,13.35-14.89,20.17-.3.42,0,1.29,0,2,.49,6-3,10-7.12,13.57-9.76,8.58-19.62,17-32,21.81-3.68,1.41-7.1,3.49-10.73,5.31-.13,1.59-.26,2.89-.32,4.19-.35,7.72-.33,7.82-8.17,9-3.53.54-6.46,1.47-7.37,5.44-.5,2.2-1.19,4.35-1.85,6.7,1.31,1.18,2.6,2.22,3.74,3.41,4.55,4.71,4.84,6.57.37,10.7-3.87,3.57-7.94,7.64-12.7,9.38-8.36,3.06-13.75,8.05-17.88,15.94S297.24,538.92,287.41,539c-3.52,0-7.16,1.3-10.49,2.65-8.64,3.5-17.05,7.58-25.73,11-4.08,1.6-8.57,2.18-11.61,2.92l-21.73,19c2.78,5,4.92,9.52,7.63,13.66,8.2,12.57,4.69,25.8,1.63,38.56-2.1,8.77-6.59,17-10,25.44,2.41,2,3.82,3.41,5.46,4.48,4.91,3.2,5.76,7,4.06,12.8-2.22,7.6-6.81,14.66-12.75,17.19-10.28,4.36-16.46,12.14-23.73,19.5-9.16,9.29-21,14.7-32.88,19.76a43.92,43.92,0,0,0-17.07,13.3,245.93,245.93,0,0,1-20.08,22.22c-10.82,10.37-22.28,20.07-33.44,30.09-2.61,2.35-5.06,4.86-8.41,8.08,5.21,4.87,9.84,8.71,13.83,13.14,1.77,2,3.75,5.77,3,7.63-2.31,5.56-3.54,11.71-10.29,15.12-4.27,2.15-7.81,7.36-9.83,12-3.71,8.52-5.84,17.76-15.77,23.47,9.06,9.2,4.74,17.63.31,24.54,8.22,6.54,15.57,12.6,23.18,18.32a34.15,34.15,0,0,0,9.24,4.85c7.36,2.56,11.37,11.73,7.37,18.28-5.2,8.53-10.85,16.79-16,25.35-1.65,2.74-2.51,6-3.46,9.1-1.48,4.82-2.72,9.72-4.69,16.85,1,2.44,2.95,7.41,5.32,12.15,2.14,4.29,1.52,7.61-2.22,10.52-2.36,1.85-4.41,4.27-7,5.56-2.13,1.05-5.47,1.9-7.28,1-6.89-3.59-12.28-2.58-17.33,3.21-1,1.21-4.1,2.16-5.27,1.51-5.22-2.91-8,.88-11.39,3.35s-6.81,5.3-10.42,7.64c-4.73,3.09-5,4.77-.73,8.84,6.74,6.48,7,10.24,1.44,17.72-1.66,2.22-3.23,4.5-5.21,7.27,6.66,1,11.87,1.86,17.12,2.47,1.9.22,5,.54,5.64-.44,5.35-8.09,13.73-5.35,21-6.15,2.39-.27,5.85.39,7.32,2,6.07,6.68,12.16,5.32,18.71,1.21,2.25-1.41,4.6-2.69,7-3.91,5-2.57,9.07-5.48,8.11-12.2-.24-1.62,1-4.06,2.29-5.19,7.95-6.76,14.63-15.78,26.77-15.47,1.81.05,3.72-1.27,5.46-2.18,8-4.12,12.33-11.51,16.9-19.13a12.43,12.43,0,0,0-6.87,1.8c-6.49,3.83-7.75,3.72-12.12-2.55-3.92-5.64-7.57-11.47-11.42-17.33-10.08,9.6-9.51,9.79-13.62,22.61-3,9.33-7.14,18.7-19.35,20.83,0-5.16.07-9.79,0-14.42-.17-8.47,1.09-16.41,6.39-23.52a12.74,12.74,0,0,0,2-8.4c-.92-7.27,1.84-12.74,6.25-18.16,3.05-3.75,6.46-8.17,7.17-12.68,1.89-12.15,8.48-21.62,15.66-30.73,4.15-5.26,8.41-11.52,16.32-10,3.59-7.69,6.06-15.46,10.53-21.81s11.08-11.47,16.71-17.15c7.1-7.18,15.66-8.41,24.7-5.18,3.85,1.38,6.67.85,10.32-.42,14.56-5,24.12-16.17,34.17-26.8,2.2-2.32,4.5-4.55,6.75-6.83,10.87,6.3,21,7.13,31,.58,3.61-2.36,6.64-1.57,10.12.54,5.06,3.05,10,6.85,16.55,5.88,11.2-1.67,20.78,2.15,30,8.08,2.84,1.82,7,3.35,10.05,2.67,4.62-1,7.78.45,11,2.85,6.31,4.68,13.31,7.63,21.17,7.74,8.39.12,14.29,4.09,19.61,10.22a19.47,19.47,0,0,0,9.76,6,40.74,40.74,0,0,1,19.52,10.39c5.09,4.75,6.22,14.26,2.66,19.53-3.39,5-8.3,3.45-11.67,2.24a14,14,0,0,0-14.66,2.91c-4.38,3.94-8.66,3.76-13.53,3.38-1.91-.16-3.82-.28-6.59-.49,1.51,7.62-3.53,10.5-8.15,13.85-8.42,6.08-8.31,9.45,0,15.36a17.05,17.05,0,0,1,4,4.16c4.77,6.86,12.37,11.35,15.85,19.35.6,1.38,3.27,2,5.09,2.67,5.9,2.23,10.08,7.76,8.81,13.57-2,9-3.12,18.56-11.88,24.38a20.45,20.45,0,0,0-5.07,4.79c-5.49,7.57-11.24,15.09-7,25.43a11.28,11.28,0,0,1-2.4,12.93,35.89,35.89,0,0,0-3,4c-3.19,4.49-1.61,9.1.4,13.21,1.78,3.62,5.59,2.59,9,2.2,2.23-.25,5.2-.7,6.68.44,5.56,4.28,12,3.48,18.18,4,10.28.92,11.76,3.06,8,12.63-2.71,6.86-5.26,13.43-2.16,21.06.83,2-.68,5.61-2.14,7.81-1.59,2.42-4.26,4.11-2.92,7.68,11-8.18,10.84-8.14,7.11-21-.6-2,.44-4.55.72-6.84a7.35,7.35,0,0,1,3.39,4.54c1.83,6,2.82,12.69,11.49,12.47.78,0,1.85,1,2.33,1.74,3,5,6,10.1,8.95,15.16,1.5,2.55,2.39,6,4.6,7.48,5.5,3.63,7.84,8.77,8.72,14.48,13.07,6.36,17.37,14.17,14.64,26,2.78,3.35,8.59,4.87,7.62,10.71-1.54,9.22,3.21,15.92,8.24,22.7,7.05,9.53,13.92,19.2,21.26,29.36,2.3-1.76,5.2-3.9,8-6.14,8.59-6.79,8.56-6.78,16.89-.27,2,1.56,4.13,2.92,6.55,4.62,1.53-2.22,3-3.69,3.68-5.47,3.14-8.19,9.3-11.88,17.72-11.89,7,0,11.85-3.18,15.35-9a36.21,36.21,0,0,1,3.72-4.7c5.13-6,5.78-6.28,12.53-2.57,4.18,2.29,7.92,4.27,13.11,2.51,2.14-.72,5.48,1,7.87,2.38,3.62,2,6.89,4.69,10.88,7.49,2.47-2.88,3.86-5.39,6-6.73,2.44-1.53,5.67-1.76,8.32-3.05a16.82,16.82,0,0,0,5.34-4.21c3-3.6,5.71-7.26,11-7.91,1.51-.19,3.25-2.06,4.1-3.6,6.27-11.42,13.74-15.39,26.21-13.76,1.53.2,3.12-.15,5.65-.31-.91-9,1.55-14.76,11.61-16.25,8.29-1.23,12.62,1.79,15.24,8.11,9.86,0,19.17.1,28.46,0,3.9-.06,7.62.21,9.12,4.38,2.13,5.89,6.43,8.94,12.08,10.86,4.33,1.47,6.21,4.49,5.36,9.34-.31,1.78.92,3.83,1.67,6.58a27.55,27.55,0,0,0,3-3c5.76-8.39,6.15-8.67,15.26-5.45,2.72,1,5.18,2.83,7.56,4.55,2.63,1.89,5,4.09,7.81,6.4,8.78-8.94,17,.27,25.08.09.18-3.89,0-7.21.54-10.41.91-5.44,4.39-10.14,3-16.35-1.74-7.49,8.22-6.82,9.94-12.3.19-.62.75-1.12,1-1.73,2.55-6.76,7.64-8.27,14.39-7.86,8.23.49,16.52.12,24.17.12,3.1-3.93,7.73-7.15,8-10.7.57-7.44,5.12-11.78,10.21-17-7.32-9.08-4.22-18.31-.89-27.55a13.12,13.12,0,0,0,.49-1.94c1.05-5.65,4.5-8.41,10.13-9.37,7.83-1.34,15.58-3.2,24.17-5-.34-9.79,5.95-13.36,14.08-15.18,3-.67,4.93-2.86,3.9-5.86-2.36-6.83,1.09-12.25,3.5-16.94-2.06-6.24-4.19-11.47-5.48-16.9-1.44-6.07-3.16-11.47-9.77-13.91-1.67-.61-3.75-2.54-4-4.12-.78-5.22-4.38-6.78-8.55-8.53-6.7-2.82-7.46-4.85-4.64-11.62a25.51,25.51,0,0,1,5-7.25c4.78-5.11,10.09-9.74,14.7-15s8.95-6.59,15.69-3.59c7.39,3.29,20-1.75,21.7-8.78,2.52-10.29,8.73-15.87,18.32-18.76.85-.25,1.48-1.22,2.1-1.75,1.3-10.66,1.3-10.66,11.84-12.71,6.74-1.3,10-5.58,10.1-13.56-2.36-1.44-5.4-2.54-7.27-4.67-1.44-1.63-2.71-5.38-1.83-6.76,3.74-5.85,5.78-13.86,15.34-13.68,2.22,0,4.71-2.09,6.68-3.71,3.6-3,6.7-6.55,10.41-9.33,2.25-1.69,5.41-3.54,7.9-3.24,6.74.83,12.41-1.56,18.24-4.06,12-5.15,12-5.12,21.18,4.49a17.21,17.21,0,0,0,1.39,1.44c4.62,3.85,6.26,8.32,3.57,14.13-2.39,5.15-1.57,10.24.67,15.38,1.31,3,3.34,7.18,2.21,9.4-3.24,6.41-1.54,12.09,0,18.21.5,2-.53,4.45-.92,6.68s-1.59,4.62-1.17,6.67c1.42,7-.8,12.67-5.58,17.25-9,8.6-9.48,17.24-1.63,26.83,3.3,4,4.47,8.74.78,13.25,1.64,1.18,3.21,1.71,3.71,2.77,3.93,8.17,11.72,10,19.37,12.17,2.56.72,5.3,1.22,7.56,2.51s5.35,3.26,5.48,5.12c.91,12.81,15,17.6,17.44,29.48.32,1.57,3.7,2.48,5.62,3.77,2.45,1.64,6,2.88,7,5.17,1.07,2.63-.23,6.23-.5,9.4l6.16,8.2c2.18-.18,4.58-.86,6.75-.43,2.73.55,6.42,1.27,7.68,3.22,4.84,7.44,12.51,7.59,19.86,9.73,3.26-6.11,6.09-11.74,9.25-17.19,1.28-2.21,2.88-5,5-5.81,6.8-2.53,13.39-7.83,21.29-1.35,3.45,2.83,7.08.37,7.52-4.21.29-2.94.06-5.93.06-9.46l13-5.56c7.08,5.57,14,10.16,12.66,20.6-15.5,3.59-30.35,9.12-39.8,24.6,3.85,1.56,7,5.86,12,1,3-3,6.11-1.47,8.93.76,5.22,4.14,10.55,8.16,15.65,12.45,4.94,4.16,7.79,12.64,4.59,18-4.69,7.85-10,15.62-16.55,22-4.61,4.5-7.5,8.91-8.58,15,13.92,2.49,13.91,2.5,25,13.9a17.3,17.3,0,0,0,3.63,3.39,37.86,37.86,0,0,0,6,2.1c3-6.33.94-15.27,12.68-16.14-2.57,5.9-4.62,10.61-5.81,13.33.87,7.38,1.74,12.78,2.06,18.21.25,4.34-.07,8.66,5.36,10.11l12.86-17c.29-4.25.69-8.44.84-12.64.13-3.5.44-7.09-.16-10.49-1.11-6.23,3.15-11.39,8.83-8.69,8.75,4.17,12.42-1.86,18.21-6-8.23-6.56-6.76-13.43-2.81-21,2.81-5.38,6.24-9.18,12.42-10.41a76,76,0,0,0,10.44-3.37c6.71-2.37,9.58-7.84,7.74-14.75a49.8,49.8,0,0,0-1.68-4.71c-5.27-14.16-7-14.22,9.23-21,6.1-2.53,10-6.44,13.53-12.25,4.67-7.74,10.22-15.74,21.15-16.11,4.06-.14,5.74-3.24,5.63-6.89-.23-7.44,1.59-13.76,8.25-18,.81-.51,2-1.37,2-2-.11-8.48,6.09-10.92,12.61-12.75.73-6.42.26-12.79,2.39-18.13s7.68-9.31,10.26-14.59c3.5-7.2,5.6-15.07,8.27-22.66.09-.26-.26-.63-.26-.95,0-3.79,0-7.58,0-11.55-6.89-4.89-9.07-11.33-7.25-20.35,1.23-6.1-.2-12.8-.85-19.19-.13-1.33-2-2.55-3.2-3.68-1.7-1.6-3.61-3-5.27-4.6-6.74-6.57-6.48-16.13,1.29-21,5.57-3.52,7.33-7.34,6.6-13.92-1-9.37,3-15,12-18.11,4.93-1.67,10.3-2.06,15.48-3,4.47-.82,9.08-1.19,13.38-2.56,4.15-1.33,6.43.31,8.14,3.52,2.35,4.41,4.39,9,6.69,13.41,1.32,2.57,2.9,5,5.13,8.78,2.33-3.71,4.5-6,5.27-8.63,2.71-9.34,10.8-12.23,18.26-15.68,5.77-2.66,9-.06,8.85,6.07-.1,6.57.31,13.15.21,19.73,0,2.22-.94,4.43-1.45,6.64-.6,2.55-1.58,5.08-1.76,7.66-.74,11-1.52,21.87,2.83,32.53,1.55,3.79,1.25,8.34,1.93,13.53,10.09,2,13.73,10.53,16.82,19.56.86,2.52,1.59,5.21,3.06,7.36,4.18,6.14,7.17,13.69,16.35,14.42,1.75.14,3.3,2.11,5,3,2,1.06,4.2,2.81,6.2,2.67,7-.48,12.87,1.87,18.12,6.32,3.9-2.22,7.58-3.9,10.78-6.23,6.49-4.74,12.44-5.89,18.14,1.1.45.55,1.89.28,3.56.46.88-1.88,3.16-4.68,2.52-5.74-3.8-6.38.51-12.22.8-18.21.45-9.45,9.47-13.72,17.82-9.18,3.47,1.89,6.9,3.88,10.55,5.93,6.1-4.23,11.65-8.51,17.63-12.08,3.27-1.95,7.31-3.92,10.91-3.76,7.64.33,13.32-2.82,19.1-7.09,7.51-5.55,7.9-9,17.25.7.36.37,1.22.24,2.09.38,1.8-1.17,3.7-2.51,5.7-3.69,3.37-2,6.9-1.84,8.6,1.77,3.19,6.82,8.9,10.51,15,14,4,2.29,5.5,5.42,3.31,10-1.69,3.54-2.85,7.33-4.42,11.49,11.48,4.79,5.34,13.27,4.27,21.61,6.08,2.85,12,5.65,18,8.43,10.91,5.1,14,13.77,9.06,25.17-.76,1.76-.72,3.86-1.06,5.8,7.63-4.55,14.89-3.26,22.11-3.05,2.7.08,6.27-.55,8-2.29,4.41-4.41,8.07-9.6,11.86-14.59.4-.53-.09-2-.48-2.84-3.25-7.22-5.29-15.26-12.91-19.6-8.17-4.67-11.24-12.27-13.53-21-2.57-9.82-2.21-17.79,8-23.05-2.84-8.69,1.67-12.55,9-14.78,4.38-1.32,8-3.56,5.53-8.44-3.2-4.22-6.4-8.44-9.8-12.94-3.76,1.23-7.91,2.44-11.95,4-5.16,1.94-9.16,1.84-14.74-1.11-4.84-2.56-6.51-7.3-10.41-9.4-6.13-3.3-6.1-7.25-3.54-12.3,2.46-4.85,1.42-9.08-.14-14.16-2.61-8.55-3-17.79.47-26.32,1.55-3.79,1.83-6.82.15-10.35-2.3-4.84-.45-7.74,3.91-10.67,3.94-2.65,9.78-7,9.63-10.31-.37-8,3.79-11.42,10.25-14.87,0-3.52-.2-7.17,0-10.8.5-7.41,2.46-9.13,9.44-6.89a17,17,0,0,0,14.29-1.54c3.21-1.76,6.72-3,9.89-4.78,6.6-3.77,13.21-6.15,20.26-.75,2.28-2.48,3.95-4.55,5.88-6.35,4.8-4.48,7.45-4.15,11.07,1.48,1.79,2.79,3,5.94,4.86,8.72,3.09,4.71,3.29,9.1-.06,13.87-1.79,2.55-2.73,5.7-4.69,10,15.56-2.31,20.68,7.06,23.88,17.92,3.73-.61,7.16-2.29,9.41-1.3,4.45,2,5.76-2.65,8.76-2.91a17.94,17.94,0,0,1,6.76.89c3.49,1.1,6.76,2.89,10.27,3.88,2,.58,4.93,1.05,6.47.06,6.09-3.93,10.57-1.86,14.94,2.73a26.25,26.25,0,0,0,4.25,3.16c5.32-1,7.16-4.14,7.93-8.44,2-11.1,4.17-22.18,6.2-32.93-8.07-9.38-16.44-15.88-29.6-12.18-6.27,1.76-8-.07-10-6.54-1.59-5.08-2.12-10.63-4.46-15.32-5.35-10.75-1.41-19.23,5.39-27.25,1.87-2.2,4.41-3.83,6.56-5.65-9.5-11.51-9.5-11.51,1.68-19.78.81-.6,1.63-1.17,2.43-1.77,8.49-6.34,8.87-8.5,3-17-5.52-8-4.44-13.4,3.7-19,1.86-1.27,4.69-2.55,5.09-4.29,2.69-11.58,8.91-22.78,6.19-35-2-8.87.06-16.31,4.37-23.73,3.4-5.85,5.74-12,3.92-19a34.57,34.57,0,0,0-18.51-9.23c-3.58-.55-8.06-1.74-7.36-6.52,1.44-9.86-5.13-14.14-10.62-18.43l-16.2,5.08c-1.57,4.07-2.9,8.58-5,12.69-2.2,4.27-5.15,8.15-8.29,13a28.39,28.39,0,0,0,.37,2.85c1.86,9.18.8,11.34-8,13.39-3.07.72-6.56.33-9.74-.24-4.13-.75-8.13-2.19-11.93-3.26-5.78,10.78-5.16,10.76-4.72,23.06.49,14-1.1,18.6-14.92,16.36-4.39-.72-7.83.87-10.58,4.18-3.94,4.75-9.12,6.24-15.1,6.29s-11.93-.28-17,4.23c-3,2.71-6.72,1.72-8.44-1.76-3.74-7.57-9.2-11.67-17.89-11.54-3.73,0-5.69-2.27-6.29-6.33-1.46-10-9-16.81-18.66-18.32-2.71-.41-6.35-1.58-7.56-3.6-2.9-4.84-6.91-4.27-11.28-4.25-3.93,0-8.23.34-11.71-1.09a177.94,177.94,0,0,1-22.28-11.22,10.24,10.24,0,0,1-4.5-6.87c-1-11.93-3.63-24.28,5.23-34.79.34-.4.13-1.26.18-2.11l-10.2-10.91c-5.77,5.34-11.57,5.28-17.17-.6-9.78-10.3-22.23-14-36-14.07-7.43,0-13.36-3.1-18.89-7.82-7.07-6-12.33-5.87-20.68-1-2.27,1.31-6.36,2.52-8,1.4-6.53-4.48-12.39-2.72-18.82-.15-11.09,4.44-11.17,4.23-19.09-4.94a10.39,10.39,0,0,0-2-1.33c-3.85,1-8.1,1.92-12.11,3.44-2,.76-3.61,2.68-5.39,4.06-3.07,2.38-6.15,2-9.23,0a10.76,10.76,0,0,1-1.59-17,66.48,66.48,0,0,1,9.2-7.67c6.49-4.21,7.77-9.74,6.8-17.17-1.78-13.74-6.8-26.39-11.7-39.1a19.28,19.28,0,0,1-.26-14.44c5.9-16.28,10.55-33.06,17.27-49A85.82,85.82,0,0,1,1578,330.22c6.41-6.68,11.74-13.1,14-22.19,3.1-12.3,10.35-20.66,23.81-21.94,4.57-.43,7.37-2.53,7.88-7.77-12.84-9.69-12.3-23.37-10.24-37.78-4.91-1.72-9.72-4.17-14.79-5-5.23-.81-8.35-3.38-11-7.51-3.55-5.5-7.41-10.81-11.58-16.85-7.34,10.92-18,6-26.87,8-.92.21-2.3-1.13-3.3-1.95-6.3-5.21-12.55-10.48-19.74-16.49,1-5.75-3.59-10.1-8.37-14.35-5.17-4.6-10.37-9.18-15.86-14V160.63a64.19,64.19,0,0,0-5.48-4.27c-28-17.34-52.37-41.43-87-46.2-5.25-5.13-12.54-5-18.75-7.62-11.37-4.69-23-7-35.06-8.63-9.78-1.31-18,.1-26.26,5.53a96.9,96.9,0,0,1-35.71,14.89c-9.12,1.71-16.09-2.51-18.66-11.27a14.62,14.62,0,0,0-3.76-6.7c-4.12-3.64-7.89-6.62-5.75-13.33.79-2.48-1.8-6-2.78-8.92h-10.36c3.61,4,6,7.18,1.44,11.46-1.8,1.68-2.83,4.41-3.7,6.84-1.75,4.84-5.06,5.84-9.5,4.33-1.88-.63-3.61-1.72-5.45-2.48-8.25-3.38-15.45-10.81-25.67-6.75-.25.09-.65-.1-1-.23-6.08-2.67-11.57-1.41-17,2.1-2.69,1.74-6.27,2-7.92-1.22a19,19,0,0,1-1.7-9.16c.06-1.48,2.35-2.87,3.64-4.3-1.62-3.64-2.7-7.54-1.36-10.24,1.86-3.74,5.81-1.63,9-.66,4.25,1.31,7.78,0,10.9-3C1202.08,52.9,1207.8,47.76,1211.18,40.66ZM1582.8,490.27l12.15-4.49c2.78-5,.92-11.32,7.52-13.94,6.23-2.47,5.84-3,2-9.31-1.27-2.1-3-5.48-2.15-7,4.69-8.85,1.64-14.9-5.75-20.12-1.24-.88-1.82-2.75-2.6-4.22-2.34-4.36-5.38-7-10.86-7.37s-6.75-3-5.19-8.28c1.31-4.45,3.4-8.66,5-13.05,2.19-6.12,1.35-8.21-4.21-11.32-8.87-5-8.86-5-4.19-14.11.59-1.15,1-2.38,1.78-4.13l-7.57-8c-4.71,13.71-8.77,26.28-13.39,38.63-2.11,5.65-2.25,10.65.11,16.28a149.19,149.19,0,0,1,11.23,42.27c.72,6.94-1,12.36-6,17-1.4,1.28-2.64,2.73-5.3,5.53,6.41-1.22,11.18-3.43,15.29-2.55S1578,486.85,1582.8,490.27Zm-272.48,766.25c4.37,1.69,7.58,3,10.87,4.14,1.44.5,3.18,1.1,4.54.74,6.18-1.66,10.13.69,13,6.1a6.51,6.51,0,0,0,4.27,2.92c.83.13,2.5-2,3-3.32,2-6,3.82-12,5.52-18.14,1.35-4.84,2.69-8.92,8-11.73,6.48-3.44,6.29-12,.43-16.74-4.14-3.31-8.38-6.39-14.26-6.44a8.84,8.84,0,0,1-6.41-3.48c-2.06-3.24-3.12-7.17-4.3-10.9-1-3.17,2.67-8.28-2.49-9.39-2.88-.62-6.47,1.91-9.69,3.14a7.22,7.22,0,0,0-1.79,1.25c-3.46,7.12,1.66,11.16,4.39,15.89,2.58,4.47,4.33,8.71-1.44,12.77-4.59-5.67-1.3-16.7-12.71-17.2l-7.94,7.32c2.07,7.66,3.6,13.66,5.34,19.6,1.07,3.66.59,7.84,4.7,10.48,3.49,2.23,2.92,5.59.41,8.62C1312.49,1253.64,1311.35,1255.2,1310.32,1256.52ZM1140,103.25c-1.87,3.55-4.37,8.31-6.13,11.67l21.61,16.28c1.18-8.75-7.3-18.26,1.14-25.39Zm229.76-21.07L1354.5,73C1355.37,82.07,1355.39,82.09,1369.78,82.18ZM1249.22,69.65c-4.68-6-4.68-6-8.39-2.13Z"/><path class="cls-1" d="M305.31,666.49l-4.44-12.84c12.17-9.26,23.85-18.59,36-27.26a78,78,0,0,0,23.2-25.5c5.69-10,12.25-19.95,24.54-23.61a7.81,7.81,0,0,0,4.54-3.6c2.2-4.93,5.75-7.59,10.71-9.55,2-.78,3.77-4.57,3.87-7.06.35-8.8,4.2-14.2,12.86-16.28,2.23-.53,4.23-1.93,6.38-2.81,10.16-4.16,20.32-8.29,27.26-16.24l21.59,5.32.78-1.57c2.92,3.48,5.84,7,9.13,10.86l-6.46,3.39c2,6.85-2.19,11.33-7.2,15.22-5.27,4.08-10.64,8-16.14,11.77-7.49,5.1-14.17,10.87-19.26,18.54a16.47,16.47,0,0,1-7.57,6c-6,2.14-10.08,6-13.42,11.15-7.86,12.11-20.8,18.4-31.5,27.28-4,3.32-7.22,7.57-11,11.22-4,3.9-8,8-12.48,11.2-1.7,1.22-5,.77-7.45.29a25.73,25.73,0,0,0-16.45,2.17C324.13,658.66,315.22,662.25,305.31,666.49Z"/><path class="cls-1" d="M1086.26,478.15c1.72,12.76-5.31,21.62-14.23,31.49,4.15-.42,6.26-.47,8.31-.86,12.18-2.31,21.48,2,26.86,13.2,1.22,2.52.83,5.82,1.34,10.1-.76-.48,0,.42.8.44,6.43.21,13.17-.89,19.24.66,6.84,1.75,12.21.29,18.08-2.6,10.08-5,16.26-1.75,18.58,9.5,2.06,10,5.17,20.06.81,30.41-.72,1.71.51,4.36,1.13,6.49,1.26,4.25,2.72,8.43,3.9,12l-11.27,9.91c-.94-2.21-2.72-4.29-2.44-6,1.35-8.46,0-15.86-6.72-20.75,1.39-12.08,8.58-22,6.14-35.12a77.42,77.42,0,0,0-8.65,2.2c-9.32,3.57-18.64,7.17-27.82,11.1a15.77,15.77,0,0,1-12.49.51c-7.17-2.64-14.58-4.64-21.83-7.09-2.68-.91-6.19-1.36-5.39-6.86l16-6c-.13-.68-.26-1.36-.4-2l-35.61-2.31c-5.93,5.8-10.84,10.59-15.73,15.41-.45.45-1.05,1.09-1,1.62.29,9.83-9,10.45-14.43,14.47-1.94,1.44-5.83.23-8.83.23-.11-.67-.22-1.35-.32-2l18.1-12.1c-1.74-1.64-4.21-3.66-4.06-3.88,4.32-6.31-5.78-12.88.21-19.94l6.86,6.33c6.14-3.89,6-4.06,2.95-15.88-1.6-6.27-3.9-11.82-11-15.77,6.75-2.14,10.76-1.43,13.7,3.79,1.57,2.77,3.84,5.15,6.53,8.67,3.37-3.17,5.88-5.67,8.53-8,5.66-5,9.74-11.72,17.6-14.33C1082.34,484.21,1084.07,480.58,1086.26,478.15Z"/><path class="cls-1" d="M1253.82,376.72c.18,2.38.37,4.95.58,7.79,5.78,2.43,10.9,7.12,17.43,1.84a4.07,4.07,0,0,1,3.78,0c6.05,3.87,11.64,1.4,17-1.25,6.14-3,12.05-2.28,19.49.13-2.51,2.57-4.13,5.54-6.49,6.38-6.63,2.35-12.61,6.29-20.75,4.37-7.2-1.7-14.09,1.59-17.67,9.76-6.08-2.08-12.07-3.3-17.21-6.08-6.56-3.54-13.38-4.13-20.19-3.11-6.18.93-13-4.1-18.49,3.65-7.27-8-13.75-15-20.11-22.19-4.89-5.5-9.79-9.85-17.9-11.27-9.53-1.67-17.52-7-21.78-17-5.19-12.24-11.47-24-17.29-36-3.3-6.79-3.89-13.6-.36-22.05,5.86,9.66,12.08,17.07,15.18,27.19,4.84,15.73,13.62,29.22,29.54,36.89,12,5.76,23.34,12.78,35.15,18.93,9.65,5,20,4.41,29.76.95C1247.54,374.21,1250.33,374.19,1253.82,376.72Z"/><path class="cls-1" d="M737.75,689.12c5.12,4.4,9.26,7.7,13.1,11.32,6.1,5.76,12.6,10.86,21,12.63,6.09,1.28,8.46,6.2,11,10.71,3,5.36,7,7.57,12.94,6.54.65-.11,1.36.08,2-.08,10.9-2.8,18.49,2.18,25.68,11.42-2.7,1.29-5.74,3.93-7.23,3.24-5.46-2.53-9.93-.06-14.31,1.89-6.29,2.81-11.92,2.93-17.78-1-3.56-2.4-7.59-4.09-11.38-6.16-1.45-.79-3.84-1.57-4-2.66-1.32-7.81-8.68-8.18-13.49-11.75-5-3.7-9.48-8.1-14.06-12.33-2.24-2.07-4.21-4.44-7.12-7.55C735.07,700.85,736.32,695.4,737.75,689.12Z"/><path class="cls-1" d="M562.09,442.13c.11,2.17.71,3.91.14,4.47-8.62,8.53-11.35,20.15-16,30.67-5.53,12.46-20.16,23.6-33.27,26.41-1.24.27-3.49.5-3.75,0-3.52-7-13.64-1.74-16.77-9.15-.12-.27,0-.65.11-1.59,2.55-1.4,5.53-2.76,8.2-4.58,2.94-2,5.62-4.37,8.38-6.62,2.3-1.87,4.32-4.25,6.88-5.64,15.6-8.48,29.32-19.42,42.16-31.57C559,443.69,560.21,443.24,562.09,442.13Z"/><path class="cls-1" d="M1100.9,450.34c.72-3.28,1.42-6.48,2.23-10.22l-4-2.41c-.81-6.79-1.57-13.09-2.49-20.81l6.55-5.14,19.21,7.91c-2,7.05-3.9,14.29-6.07,21.46-1.62,5.36-1.53,10.17,2,15a62.51,62.51,0,0,1,7.46,12.88c2.64,6.36,4.72,13.07-1.89,19.77l-23.28-20.19,8.82-12Z"/><path class="cls-1" d="M846.76,723.67c8.55-6.9,16.21-13.07,23.86-19.26,5.16-4.16,10.54-8.1,15.41-12.58,9.77-9,20.19-10.68,32.35-3.32-.21,2.07-.46,4.5-.51,5-7.47,3.69-13.83,6.24-19.55,9.8-9.29,5.78-18.63,11.65-27.07,18.56C863.86,727.92,856.79,728.74,846.76,723.67Z"/><path class="cls-1" d="M1378.23,441.64c4.34-1,9-3.39,13-2.64,23.5,4.39,47.07,7.56,71,7.26a17.73,17.73,0,0,1,3.77.75c.62,4.69-.77,7.57-5.71,7.25-8.64-.57-17.12-.15-25.53,2.28-2.33.67-5.19-.2-7.73-.71-13-2.6-26-5.2-38.91-8.08-3.41-.76-6.6-2.54-9.89-3.85Z"/><path class="cls-1" d="M509.8,555.69l9.09,8.17c-10.15,8.35-19.6,16.6-29.59,24.12-5.07,3.82-9,1.72-14-6.17C482.57,568.24,494.41,560.47,509.8,555.69Z"/><path class="cls-1" d="M952.32,416c9.44,7.07,18.31,14.15,25.79,22.78,3.64,4.2,4.31,8.83-.92,12.69C956.11,440.56,948.21,429.81,952.32,416Z"/><path class="cls-1" d="M986.51,324.61c8.77,13.15,14.12,27.12,10.3,43.31C988.19,354.83,983.16,340.8,986.51,324.61Z"/><path class="cls-1" d="M1253.48,473.81c-3.33-3-6.6-6.05-9.89-9.05-2.61-2.37-5.91-4.09-4.26-8.91.5-1.47-1.76-4-3-5.93-2.52-3.88-5.2-7.66-7.56-11.12,1.63-8,6.76-7.73,12.32-6.6,2,9.27,3.76,18.5,6.23,27.53.78,2.88,3.32,5.44,5.49,7.72S1256.6,471.36,1253.48,473.81Z"/><path class="cls-1" d="M1002.77,598.34c2.57,15.43-9.34,19.32-15.1,28l-7.86-4.15C983,609.79,994.12,606.88,1002.77,598.34Z"/><path class="cls-1" d="M1186.93,288.41c6.09,4.21,11.11,8.86,12.76,16.71.73,3.46,4.06,6.38,6.7,10.27l-3.57,5.29c-1.15-.56-2-.68-2.28-1.14-5.35-8-10.56-16-16-23.89C1182.08,292,1182.52,289.63,1186.93,288.41Z"/><path class="cls-1" d="M1176.82,461.83c-6.15,1.14-4.56-5.86-8-7.28-3.65-1.48-7.4-2.75-10.84-4-.61-3.45-1.16-6.52-1.79-10.11,7.4,1,14.94.9,19.41,8.95C1177.91,453.6,1180.2,457.3,1176.82,461.83Z"/><path class="cls-1" d="M132.92,773.06c5.79-15.48,20.44-20.31,32.22-30.37.81,5.35-.76,8.27-3.84,10.45C151.87,759.83,142.38,766.43,132.92,773.06Z"/><path class="cls-1" d="M1015.81,413.06c-5.92-6.69-11.86-13.31-11.62-23.38C1014.87,391.29,1019.29,399.77,1015.81,413.06Z"/><path class="cls-1" d="M1296.55,484.31c-.27-8.35,2.9-16.33-4.84-21.89,7.34-2.38,8.32-2.05,11,3.22C1306.13,472.12,1304.57,477.79,1296.55,484.31Z"/><path class="cls-1" d="M1663,890.77c-.59,2.41-.41,6.07-1.92,7-4.92,3.08-7.34,12-16.67,7.07l16.87-15Z"/><path class="cls-1" d="M1170.31,508.81c-5.67,5.78-10,1.07-14.55-1.85-2.71-1.75-4.79-3.71-2-6.7,3.26,1.41,6.2,3.22,9.37,3.91S1169.92,504,1170.31,508.81Z"/><path class="cls-1" d="M1337.24,506.13c-8.55,6.24-15,13.1-26.51,5.53,5.49-.68,9.5-.85,13.35-1.74S1330.49,504.13,1337.24,506.13Z"/><path class="cls-1" d="M1239.22,294.19c1.46,5.14,2.66,9.38,3.79,13.39-4,2.7-6.39,2.37-7.57-1.45C1234.15,302,1231.46,297.36,1239.22,294.19Z"/><path class="cls-2" d="M297.41,593.43a26.75,26.75,0,0,0-26.75,26.75c0,14.77,26.75,48.15,26.75,48.15s26.75-33.38,26.75-48.15A26.75,26.75,0,0,0,297.41,593.43Zm.67,41.46c-16.79-.52-16.79-24.9,0-25.41C314.88,610,314.88,634.38,298.08,634.89Z"/></g></g></svg>