<?xml version="1.0" standalone="no"?>
<!DOCTYPE svg PUBLIC "-//W3C//DTD SVG 20010904//EN"
 "http://www.w3.org/TR/2001/REC-SVG-20010904/DTD/svg10.dtd">
<svg version="1.0" xmlns="http://www.w3.org/2000/svg"
 width="700.000000pt" height="700.000000pt" viewBox="0 0 700.000000 700.000000"
 preserveAspectRatio="xMidYMid meet">
<metadata>
Created by potrace 1.11, written by Peter Selinger 2001-2013
</metadata>
<g transform="translate(0.000000,700.000000) scale(0.100000,-0.100000)"
fill="#000000" stroke="none">
<path d="M0 3600 l0 -2278 439 0 439 0 0 2278 0 2277 -439 0 -439 0 0 -2277z"/>
<path d="M3205 4540 c-150 -24 -287 -68 -416 -137 -79 -41 -220 -137 -227
-155 -2 -5 -8 -8 -13 -8 -5 0 -9 54 -9 120 l0 120 -404 0 c-314 0 -405 -3
-408 -12 -2 -7 -3 -717 -3 -1578 l1 -1565 422 -1 422 -1 1 281 c0 155 0 615 1
1023 l0 743 42 47 c86 100 200 189 306 241 30 14 57 27 60 28 3 0 19 6 35 13
61 25 203 53 285 57 248 9 471 -114 565 -311 36 -77 64 -188 70 -281 2 -32 4
-460 4 -950 l1 -892 423 2 422 1 0 885 c-1 803 -5 1019 -20 1104 -7 34 19 72
118 168 120 117 266 199 434 245 125 34 301 38 401 9 34 -11 65 -23 68 -27 3
-5 12 -9 21 -9 26 0 149 -88 195 -139 82 -91 132 -226 145 -391 3 -47 7 -482
7 -966 l0 -882 423 0 423 1 -1 936 c0 515 -5 963 -9 996 -5 33 -12 83 -15 110
-9 69 -50 226 -82 310 -105 282 -300 511 -581 679 -105 63 -284 135 -381 153
-14 2 -28 6 -32 8 -4 3 -22 7 -40 10 -19 3 -59 9 -89 14 -57 10 -329 7 -390
-3 -183 -32 -320 -75 -465 -147 -112 -55 -111 -54 -215 -125 -74 -51 -170
-133 -218 -186 l-25 -27 -68 73 c-38 41 -104 100 -146 132 -43 33 -80 61 -83
64 -10 10 -67 41 -165 89 -133 66 -236 99 -395 127 -54 10 -338 12 -395 4z"/>
</g>
</svg>
